<?xml version="1.0" encoding="UTF-8" standalone="no"?>
<svg
   xmlns:dc="http://purl.org/dc/elements/1.1/"
   xmlns:cc="http://creativecommons.org/ns#"
   xmlns:rdf="http://www.w3.org/1999/02/22-rdf-syntax-ns#"
   xmlns:svg="http://www.w3.org/2000/svg"
   xmlns="http://www.w3.org/2000/svg"
   xmlns:sodipodi="http://sodipodi.sourceforge.net/DTD/sodipodi-0.dtd"
   xmlns:inkscape="http://www.inkscape.org/namespaces/inkscape"
   width="64"
   height="64"
   viewBox="0 0 16.933333 16.933333"
   version="1.1"
   id="svg8"
   inkscape:version="1.0 (4035a4fb49, 2020-05-01)"
   sodipodi:docname="tabrohstoffe.svg"
   inkscape:export-filename="D:\app\project\kleiner-brauhelfer\images\hauptgaerung.png"
   inkscape:export-xdpi="48"
   inkscape:export-ydpi="48">
  <defs
     id="defs2" />
  <sodipodi:namedview
     id="base"
     pagecolor="#ffffff"
     bordercolor="#666666"
     borderopacity="1.0"
     inkscape:pageopacity="0.0"
     inkscape:pageshadow="2"
     inkscape:zoom="11.2"
     inkscape:cx="60.356949"
     inkscape:cy="17.179294"
     inkscape:document-units="mm"
     inkscape:current-layer="layer1"
     showgrid="true"
     units="px"
     inkscape:window-width="3840"
     inkscape:window-height="2066"
     inkscape:window-x="-11"
     inkscape:window-y="-11"
     inkscape:window-maximized="1"
     inkscape:document-rotation="0">
    <inkscape:grid
       type="xygrid"
       empspacing="4"
       id="grid4485" />
  </sodipodi:namedview>
  <metadata
     id="metadata5">
    <rdf:RDF>
      <cc:Work
         rdf:about="">
        <dc:format>image/svg+xml</dc:format>
        <dc:type
           rdf:resource="http://purl.org/dc/dcmitype/StillImage" />
        <dc:title />
      </cc:Work>
    </rdf:RDF>
  </metadata>
  <g
     inkscape:label="Layer 1"
     inkscape:groupmode="layer"
     id="layer1"
     transform="translate(0,-284.29998)">
    <path
       sodipodi:nodetypes="cccscccscscsccccccscccsccscssscscccccccccsccccccscccccsccccccscccsssccssccccscccc"
       style="fill:#000000;fill-opacity:1;stroke:none;stroke-width:0.264583;stroke-miterlimit:4;stroke-dasharray:none;stroke-opacity:1"
       id="path3564"
       d="m 7.5303963,291.67838 c -0.1012626,-0.11401 -0.2458065,-0.1648 -0.3866475,-0.13591 -0.02118,0.004 -0.045203,0.009 -0.070439,0.0149 0.3070948,-0.79131 0.5100961,-1.93223 0.5776607,-2.34852 0.025759,-0.15871 -0.019261,-0.32163 -0.1205727,-0.43576 -0.1012625,-0.11402 -0.2458064,-0.1648 -0.3866474,-0.13578 -0.531289,0.0325 -0.8728416,0.20754 -1.2949417,0.33932 0.062206,-0.19104 0.096162,-0.39733 0.096162,-0.61242 0,-0.80384 -0.9361494,-2.39364 -1.2230621,-2.86173 -0.081381,-0.13277 -0.215424,-0.21202 -0.3586624,-0.21202 -0.1431946,0 -0.2772795,0.0793 -0.3586186,0.21202 -0.2869127,0.46814 -1.2230184,2.05789 -1.2230184,2.86173 0,0.21509 0.033956,0.42138 0.096162,0.61242 -0.6243923,-0.31634 -0.6243923,-0.31634 -1.2949417,-0.33924 -0.1407536,-0.0289 -0.2853873,0.0217 -0.3866475,0.1359 -0.1012625,0.11413 -0.146289,0.27701 -0.1205727,0.43573 0.067561,0.4163 0.270566,1.55716 0.5776607,2.34853 -0.025237,-0.006 -0.049259,-0.0115 -0.070439,-0.0148 -0.1407535,-0.0289 -0.2853861,0.0217 -0.3866475,0.1359 -0.1012625,0.11413 -0.1462891,0.27701 -0.1205726,0.43575 0.067561,0.4163 0.2705671,1.55716 0.5776182,2.34853 -0.0252,-0.006 -0.049211,-0.0115 -0.070402,-0.0149 -0.1407536,-0.0289 -0.2853874,0.0217 -0.3866475,0.13591 -0.1012625,0.11414 -0.1462903,0.27701 -0.1205726,0.43574 0.090842,0.55971 0.4263581,2.42982 0.9307437,2.99821 0.2987683,0.33665 0.6959221,0.52208 1.1184001,0.52208 0.286869,0 0.5619685,-0.0856 0.802588,-0.24592 v 1.26744 c 0,0.27127 0.1951982,0.49125 0.4359039,0.49125 0.2407506,0 0.4359052,-0.21998 0.4359052,-0.49125 v -1.26755 c 0.2406632,0.16028 0.5157627,0.24598 0.8026316,0.24598 0.4224792,0 0.8196755,-0.18541 1.1184014,-0.52208 0.5043419,-0.56839 0.8399013,-2.43857 0.9307438,-2.9982 0.025759,-0.15878 -0.019261,-0.32165 -0.1205727,-0.43575 -0.1012625,-0.11401 -0.2458064,-0.16482 -0.3866474,-0.13577 -0.021181,0.004 -0.045203,0.009 -0.070403,0.0149 0.307051,-0.79133 0.510051,-1.93224 0.5776168,-2.34853 0.025759,-0.15872 -0.019261,-0.3216 -0.120524,-0.43576 z m -3.9036142,2.73923 c -0.1340849,0.15111 -0.3123692,0.23433 -0.5020319,0.23433 -0.1896177,0 -0.3678596,-0.0832 -0.5019432,-0.23433 -0.1609369,-0.18136 -0.3845561,-0.95193 -0.5538607,-1.75557 0.7130961,0.1908 1.3968128,0.44283 1.5577483,0.62416 0.2768435,0.31194 0.2768435,0.81951 8.75e-5,1.13141 z m -4.37e-5,-4.03674 c 0.2767997,0.3119 0.2767997,0.81947 4.37e-5,1.13138 -0.1340849,0.1511 -0.3123692,0.23431 -0.5020319,0.23431 -0.1896177,0 -0.3678596,-0.0832 -0.5019432,-0.23427 -0.1609369,-0.18142 -0.3845561,-0.95196 -0.5538607,-1.75561 0.7131397,0.19081 1.3968565,0.44283 1.5577921,0.62419 z m 3.0308456,-0.62419 c -0.1693057,0.80365 -0.3929238,1.57419 -0.5538607,1.75557 -0.1340411,0.1511 -0.3123254,0.23431 -0.5019444,0.23431 -0.1896615,0 -0.3679033,-0.0832 -0.5019882,-0.23427 -0.2767985,-0.31199 -0.2767985,-0.81955 -4.37e-5,-1.13142 0.1610243,-0.18136 0.8447411,-0.43338 1.557837,-0.62419 z m -1.5577933,3.52956 c 0.1609806,-0.18137 0.8447835,-0.43344 1.5579682,-0.62424 -0.1691309,0.80339 -0.3927939,1.57389 -0.5540356,1.75561 -0.1340411,0.15111 -0.3123254,0.23433 -0.5019444,0.23433 -0.1896615,0 -0.3679033,-0.0832 -0.5019882,-0.23433 -0.276756,-0.3119 -0.276756,-0.81947 0,-1.13137 z m -0.7365474,-6.60501 c 0.384555,0.70325 0.7098704,1.42624 0.7098704,1.68277 0,0.44111 -0.3184719,0.80001 -0.7098704,0.80001 -0.3913996,0 -0.7098279,-0.3589 -0.7098279,-0.80001 0,-0.25648 0.3253155,-0.97952 0.7098279,-1.68277 z m -0.7364612,10.64175 c -0.1340849,0.15111 -0.3123692,0.23432 -0.5020319,0.23432 -0.1896177,0 -0.3678596,-0.0832 -0.5019432,-0.23432 -0.1609369,-0.18139 -0.3845561,-0.95192 -0.5538607,-1.75558 0.7130961,0.19081 1.3968128,0.44282 1.5577483,0.62415 0.2768435,0.31195 0.2768435,0.81952 8.75e-5,1.13143 z m 2.4769412,0 c -0.1340411,0.15111 -0.3123254,0.23432 -0.5019444,0.23432 -0.1896615,0 -0.3679033,-0.0832 -0.5019882,-0.23432 -0.2767985,-0.31191 -0.2767985,-0.81948 -4.37e-5,-1.13139 0.1609806,-0.18137 0.8447847,-0.43344 1.5579682,-0.62425 -0.1690872,0.80343 -0.3927502,1.57387 -0.5539919,1.75564 z"
       inkscape:connector-curvature="0" />
    <g
       style="stroke-width:14.6492;fill:#000000;fill-opacity:1"
       transform="matrix(0.01457538,0,0,0.02238105,8.1749527,287.77537)"
       id="g2129">
      <path
         style="stroke-width:14.6492;fill:#000000;fill-opacity:1"
         d="M 271,61.732 V 15 C 271,6.709 264.291,0 256,0 247.709,0 241,6.709 241,15 V 61.732 C 4.426,69.544 0,254.092 0,256 c 0,8.291 6.709,15 15,15 156.024,0 217.491,-73.914 241,-130.739 C 279.509,197.086 340.976,271 497,271 c 8.291,0 15,-6.709 15,-15 0,-1.908 -4.426,-186.456 -241,-194.268 z"
         id="path2119" />
      <path
         style="stroke-width:14.6492;fill:#000000;fill-opacity:1"
         d="m 251.254,511.224 c 1.538,0.513 3.149,0.776 4.746,0.776 1.597,0 3.208,-0.264 4.746,-0.776 2.139,-0.703 52.617,-19.091 81.24,-77.128 2.736,-5.552 4.993,-11.375 7.141,-17.256 -8.454,-8.077 -17.769,-17.855 -26.992,-29.207 -25.911,21.998 -49.724,30.328 -51.898,31.053 -4.613,1.538 -9.403,2.314 -14.237,2.314 -4.834,0 -9.624,-0.776 -14.238,-2.314 -2.175,-0.725 -26.017,-9.067 -51.947,-31.097 -9.241,11.402 -18.477,21.127 -26.957,29.214 2.151,5.894 4.413,11.73 7.156,17.292 28.623,58.038 79.101,76.426 81.24,77.129 z"
         id="path2121" />
      <path
         style="stroke-width:14.6492;fill:#000000;fill-opacity:1"
         d="m 397.68,418.48 c 5.847,3.92 13.806,3.243 18.926,-1.875 0.714,-0.714 45.952,-45.992 60.566,-116.578 -35.248,-1.474 -66.883,-6.539 -93.269,-14.414 -8.476,34.578 -23.611,61.084 -40.362,80.72 25.644,32.498 53.465,51.699 54.139,52.147 z"
         id="path2123" />
      <path
         style="stroke-width:14.6492;fill:#000000;fill-opacity:1"
         d="m 34.828,300.028 c 14.612,70.58 59.845,115.865 60.566,116.578 5.12,5.12 13.079,5.795 18.926,1.875 0.634,-0.421 28.539,-19.481 54.205,-52.064 -16.778,-19.645 -31.941,-46.179 -40.428,-80.803 -26.385,7.875 -58.021,12.94 -93.269,14.414 z"
         id="path2125" />
      <path
         style="stroke-width:14.6492;fill:#000000;fill-opacity:1"
         d="m 256,200.409 c -20.726,27.658 -52.568,55.64 -99.494,75.15 20.264,88.489 91.245,113.496 94.748,114.664 1.538,0.513 3.149,0.776 4.746,0.776 1.597,0 3.208,-0.264 4.746,-0.776 3.503,-1.168 74.484,-26.175 94.748,-114.664 -46.926,-19.51 -78.768,-47.492 -99.494,-75.15 z"
         id="path2127" />
    </g>
  </g>
</svg>
