<?xml version="1.0" encoding="UTF-8" standalone="no"?>
<svg
   width="64"
   height="64"
   viewBox="0 0 64 64"
   version="1.1"
   xml:space="preserve"
   style="fill-rule:evenodd;clip-rule:evenodd;stroke-linejoin:round;stroke-miterlimit:2;"
   id="svg4"
   sodipodi:docname="abfuelldaten.svg"
   inkscape:version="1.4.2 (f4327f4, 2025-05-13)"
   xmlns:inkscape="http://www.inkscape.org/namespaces/inkscape"
   xmlns:sodipodi="http://sodipodi.sourceforge.net/DTD/sodipodi-0.dtd"
   xmlns="http://www.w3.org/2000/svg"
   xmlns:svg="http://www.w3.org/2000/svg"><defs
   id="defs1" /><sodipodi:namedview
   id="namedview4"
   pagecolor="#ffffff"
   bordercolor="#222222"
   borderopacity="0.25"
   inkscape:showpageshadow="2"
   inkscape:pageopacity="0.0"
   inkscape:pagecheckerboard="0"
   inkscape:deskcolor="#d1d1d1"
   inkscape:zoom="10.026553"
   inkscape:cx="36.054265"
   inkscape:cy="43.285065"
   inkscape:window-width="1916"
   inkscape:window-height="2041"
   inkscape:window-x="1902"
   inkscape:window-y="0"
   inkscape:window-maximized="0"
   inkscape:current-layer="svg4" />
    <path
   d="M -3.374e-4,41.60042 V 64.000386 H 63.999563 V 41.60042 Z m 18.4005984,4.799993 h 27.199958 c 1.328939,0 2.399369,1.07043 2.399369,2.399369 v 1.599997 c 0,1.330194 -1.07043,2.400624 -2.399369,2.400624 H 18.400261 c -1.330194,0 -2.400623,-1.07043 -2.400623,-2.400624 v -1.599997 c 0,-1.328939 1.070429,-2.399369 2.400623,-2.399369 z"
   style="fill-rule:nonzero;stroke-width:1.2549;fill:#222222;fill-opacity:1"
   id="path1" /><path
   d="m 10.587254,4.855e-4 c 0,4.8025023 0.05145,4.8715218 -1.293802,9.5184165 -1.1093316,2.580074 -4.4649342,3.050662 -4.4649342,5.565482 V 38.400425 H 20.187239 V 15.084384 c 0,-2.51482 -3.085799,-3.119682 -4.464934,-5.565482 C 14.428503,4.800478 14.428503,4.800478 14.428503,4.855e-4 Z"
   style="fill-rule:nonzero;stroke-width:1.2549;fill:#222222;fill-opacity:1"
   id="path2" /><path
   d="m 30.093419,4.855e-4 c 0,4.8025023 0.05145,4.8715218 -1.293801,9.5184165 -1.109332,2.580074 -4.464935,3.050662 -4.464935,5.565482 V 38.400425 H 39.693404 V 15.084384 c 0,-2.51482 -3.085799,-3.119682 -4.464934,-5.565482 C 33.934668,4.800478 33.934668,4.800478 33.934668,4.855e-4 Z"
   style="fill:#222222;fill-opacity:1;fill-rule:nonzero;stroke-width:1.2549"
   id="path3" /><path
   d="m 49.599585,4.855e-4 c 0,4.8025023 0.05145,4.8715218 -1.293802,9.5184165 -1.109331,2.580074 -4.464934,3.050662 -4.464934,5.565482 V 38.400425 H 59.19957 V 15.084384 c 0,-2.51482 -3.085799,-3.119682 -4.464934,-5.565482 C 53.440834,4.800478 53.440834,4.800478 53.440834,4.855e-4 Z"
   style="fill-rule:nonzero;stroke-width:1.2549;fill:#222222;fill-opacity:1"
   id="path4" />
</svg>
