<?xml version="1.0" encoding="UTF-8" standalone="no"?>
<!-- Created with Inkscape (http://www.inkscape.org/) -->

<svg
   width="64"
   height="64"
   viewBox="0 0 16.933333 16.933333"
   version="1.1"
   id="svg716"
   inkscape:version="1.3.2 (091e20e, 2023-11-25, custom)"
   sodipodi:docname="abgefuellt.svg"
   xmlns:inkscape="http://www.inkscape.org/namespaces/inkscape"
   xmlns:sodipodi="http://sodipodi.sourceforge.net/DTD/sodipodi-0.dtd"
   xmlns:xlink="http://www.w3.org/1999/xlink"
   xmlns="http://www.w3.org/2000/svg"
   xmlns:svg="http://www.w3.org/2000/svg">
  <sodipodi:namedview
     id="namedview718"
     pagecolor="#ffffff"
     bordercolor="#000000"
     borderopacity="0.25"
     inkscape:showpageshadow="2"
     inkscape:pageopacity="0.0"
     inkscape:pagecheckerboard="false"
     inkscape:deskcolor="#d1d1d1"
     inkscape:document-units="px"
     showgrid="true"
     showborder="false"
     inkscape:zoom="20.70196"
     inkscape:cx="34.030595"
     inkscape:cy="35.769561"
     inkscape:window-width="3840"
     inkscape:window-height="2054"
     inkscape:window-x="-11"
     inkscape:window-y="-11"
     inkscape:window-maximized="1"
     inkscape:current-layer="layer1">
    <inkscape:grid
       type="xygrid"
       id="grid837"
       spacingx="2.1166666"
       spacingy="2.1166666"
       empspacing="1"
       originx="0"
       originy="0"
       units="px"
       visible="true" />
  </sodipodi:namedview>
  <defs
     id="defs713">
    <radialGradient
       cx="24"
       cy="22"
       r="22"
       fx="24"
       fy="22"
       id="R0-2"
       xlink:href="#G0"
       gradientUnits="userSpaceOnUse"
       gradientTransform="matrix(0.2817776,-0.06248044,0.05635552,0.31240222,0.58727581,3.8721765)" />
    <linearGradient
       id="G0">
      <stop
         id="s1"
         style="stop-color:#e6cf00;stop-opacity:1"
         offset="0" />
      <stop
         id="s2"
         style="stop-color:#fde94a;stop-opacity:1"
         offset="1" />
    </linearGradient>
    <linearGradient
       x1="14.660452"
       y1="7.0243196"
       x2="24.030643"
       y2="34.826122"
       id="G3-44"
       xlink:href="#G1"
       gradientUnits="userSpaceOnUse"
       gradientTransform="matrix(0.2817776,0,0,0.31240222,1.6580318,1.7478425)" />
    <linearGradient
       id="G1">
      <stop
         id="s3"
         style="stop-color:#fcf9fb;stop-opacity:1"
         offset="0" />
      <stop
         id="s4"
         style="stop-color:#fcf9fb;stop-opacity:0"
         offset="1" />
    </linearGradient>
    <linearGradient
       x1="14.660452"
       y1="7.0243196"
       x2="24.030643"
       y2="34.826122"
       id="G3-6-4"
       xlink:href="#G1"
       gradientUnits="userSpaceOnUse"
       gradientTransform="matrix(0.2817554,0,0,0.31255549,1.1984647,1.0799182)" />
  </defs>
  <g
     inkscape:label="Layer 1"
     inkscape:groupmode="layer"
     id="layer1">
    <path
       style="fill:#222222;fill-opacity:1;stroke:none;stroke-width:0.144068;stroke-linecap:butt;stroke-miterlimit:4;stroke-dasharray:none;stroke-dashoffset:0;stroke-opacity:1"
       d="m 2.0900352,10.382589 v 4.445639 H 14.791864 v -4.445639 z m 3.6517724,0.952636 h 5.3982804 c 0.263884,0 0.476319,0.212436 0.476319,0.476323 v 0.317543 c 0,0.263888 -0.212435,0.476324 -0.476319,0.476324 H 5.7418076 c -0.2638828,0 -0.4763159,-0.212436 -0.4763159,-0.476324 v -0.317543 c 0,-0.263887 0.2124331,-0.476323 0.4763159,-0.476323 z"
       id="rect4494-2" />
    <path
       style="fill:#222222;fill-opacity:1;stroke:none;stroke-width:0.144068;stroke-linecap:butt;stroke-miterlimit:4;stroke-dasharray:none;stroke-dashoffset:0;stroke-opacity:1"
       d="m 4.1912937,2.1263942 c 0,0.9533449 0.010229,0.9668124 -0.2567673,1.8891481 C 3.7143424,4.5275785 3.0482511,4.621135 3.0482511,5.1201287 V 9.747496 H 6.0965702 V 5.1201287 C 6.0965702,4.621135 5.4840535,4.501044 5.2102934,4.0155423 4.9535261,3.0790304 4.9535261,3.0790304 4.9535261,2.1263942 Z"
       id="rect4500-35"
       inkscape:connector-curvature="0"
       sodipodi:nodetypes="ccsccsccc" />
    <path
       style="fill:#222222;fill-opacity:1;stroke:none;stroke-width:0.144068;stroke-linecap:butt;stroke-miterlimit:4;stroke-dasharray:none;stroke-dashoffset:0;stroke-opacity:1"
       d="m 8.0626233,2.1263942 c 0,0.9533449 0.010229,0.9668124 -0.2567629,1.8891481 C 7.5856721,4.5275785 6.919585,4.621135 6.919585,5.1201287 V 9.747496 H 9.9678997 V 5.1201287 C 9.9678997,4.621135 9.3553832,4.501044 9.0816231,4.0155423 8.8248602,3.0790304 8.8248602,3.0790304 8.8248602,2.1263942 Z"
       id="rect4500-8-5"
       inkscape:connector-curvature="0"
       sodipodi:nodetypes="ccsccsccc" />
    <path
       style="fill:#222222;fill-opacity:1;stroke:none;stroke-width:0.144068;stroke-linecap:butt;stroke-miterlimit:4;stroke-dasharray:none;stroke-dashoffset:0;stroke-opacity:1"
       d="m 11.933953,2.1263942 c 0,0.9533449 0.01023,0.9668124 -0.256763,1.8891481 -0.220189,0.5120362 -0.886276,0.6055927 -0.886276,1.1045864 V 9.747496 h 3.048314 V 5.1201287 c 0,-0.4989937 -0.612516,-0.6190847 -0.886276,-1.1045864 C 12.69619,3.0790304 12.69619,3.0790304 12.69619,2.1263942 Z"
       id="rect4500-3-5"
       inkscape:connector-curvature="0"
       sodipodi:nodetypes="ccsccsccc" />
  </g>
</svg>
