<?xml version="1.0" encoding="UTF-8" standalone="no"?>
<!-- Created with Inkscape (http://www.inkscape.org/) -->

<svg
   width="64"
   height="64"
   viewBox="0 0 16.933333 16.933333"
   version="1.1"
   id="svg716"
   inkscape:version="1.2.2 (732a01da63, 2022-12-09)"
   sodipodi:docname="ueber.svg"
   xmlns:inkscape="http://www.inkscape.org/namespaces/inkscape"
   xmlns:sodipodi="http://sodipodi.sourceforge.net/DTD/sodipodi-0.dtd"
   xmlns="http://www.w3.org/2000/svg"
   xmlns:svg="http://www.w3.org/2000/svg">
  <sodipodi:namedview
     id="namedview718"
     pagecolor="#ffffff"
     bordercolor="#000000"
     borderopacity="0.25"
     inkscape:showpageshadow="2"
     inkscape:pageopacity="0.0"
     inkscape:pagecheckerboard="false"
     inkscape:deskcolor="#d1d1d1"
     inkscape:document-units="px"
     showgrid="true"
     showborder="false"
     inkscape:zoom="14.638496"
     inkscape:cx="25.514916"
     inkscape:cy="25.070882"
     inkscape:window-width="1918"
     inkscape:window-height="2054"
     inkscape:window-x="-10"
     inkscape:window-y="0"
     inkscape:window-maximized="0"
     inkscape:current-layer="layer1">
    <inkscape:grid
       type="xygrid"
       id="grid837"
       spacingx="2.1166666"
       spacingy="2.1166666"
       empspacing="1" />
  </sodipodi:namedview>
  <defs
     id="defs713" />
  <g
     inkscape:label="Layer 1"
     inkscape:groupmode="layer"
     id="layer1">
    <ellipse
       style="fill:none;stroke:#222222;stroke-width:1.32292;stroke-dasharray:none;stroke-opacity:1"
       id="path241-2"
       cy="8.4666653"
       cx="8.4666662"
       rx="7.8052068"
       ry="7.8052077" />
    <path
       d="m 8.5829736,3.1431282 c 0.2382403,0 0.4396099,0.085086 0.6041091,0.2552576 0.1701718,0.1644992 0.2552576,0.3658692 0.2552576,0.6041095 0,0.2382404 -0.085086,0.4424465 -0.2552576,0.6126181 -0.1644992,0.1701716 -0.3658688,0.2552575 -0.6041091,0.2552575 -0.2382404,0 -0.4424464,-0.085086 -0.612618,-0.2552575 C 7.800184,4.4449418 7.7150981,4.2407357 7.7150981,4.0024953 c 0,-0.2382403 0.08225,-0.4396103 0.2467487,-0.6041095 C 8.1320185,3.2282141 8.3390607,3.1431282 8.5829736,3.1431282 Z m 0.7062122,2.6234802 v 6.2623176 c 0,0.487826 0.034034,0.813988 0.1021024,0.978487 0.073741,0.158827 0.1786805,0.277947 0.3148177,0.357361 0.1418098,0.07941 0.3970681,0.119125 0.7657751,0.119125 v 0.306309 H 6.6855594 V 13.4839 c 0.3800501,0 0.6353074,-0.03688 0.7657725,-0.110616 0.1304655,-0.07374 0.232568,-0.195698 0.306309,-0.365869 0.079414,-0.170172 0.1191196,-0.496335 0.1191196,-0.978487 V 9.0253959 c 0,-0.845186 -0.025526,-1.3925713 -0.076577,-1.6421564 C 7.7604773,7.2017229 7.6980809,7.0769304 7.6129951,7.0088616 7.5279094,6.9351206 7.4116252,6.89825 7.2641431,6.89825 c -0.158827,0 -0.3516881,0.042543 -0.5785837,0.1276293 L 6.5664392,6.7195699 8.9148081,5.7666084 Z"
       id="path163576"
       sodipodi:nodetypes="scscssssscsccccccscssccscccc"
       style="font-size:48px;font-family:'Times New Roman';-inkscape-font-specification:'Times New Roman, ';text-align:center;text-anchor:middle;stroke:#222222;stroke-width:0.529167" />
  </g>
</svg>
