<?xml version="1.0" encoding="UTF-8" standalone="no"?>
<svg
   width="64"
   height="64"
   viewBox="0 0 64 64"
   version="1.1"
   xml:space="preserve"
   style="fill-rule:evenodd;clip-rule:evenodd;stroke-linejoin:round;stroke-miterlimit:2;"
   id="svg1"
   sodipodi:docname="edit.svg"
   inkscape:version="1.4.2 (f4327f4, 2025-05-13)"
   xmlns:inkscape="http://www.inkscape.org/namespaces/inkscape"
   xmlns:sodipodi="http://sodipodi.sourceforge.net/DTD/sodipodi-0.dtd"
   xmlns="http://www.w3.org/2000/svg"
   xmlns:svg="http://www.w3.org/2000/svg"><defs
   id="defs1" /><sodipodi:namedview
   id="namedview1"
   pagecolor="#ffffff"
   bordercolor="#222222"
   borderopacity="0.25"
   inkscape:showpageshadow="2"
   inkscape:pageopacity="0.0"
   inkscape:pagecheckerboard="0"
   inkscape:deskcolor="#d1d1d1"
   inkscape:zoom="20.053106"
   inkscape:cx="34.159297"
   inkscape:cy="25.756608"
   inkscape:window-width="3840"
   inkscape:window-height="2054"
   inkscape:window-x="-11"
   inkscape:window-y="-11"
   inkscape:window-maximized="1"
   inkscape:current-layer="svg1" />
    <path
   id="path44"
   d="M 0.76,63.88 C 0.29,63.692 0.094,63.264 0.004,62.851 -0.051,62.599 0.45,60.103 1.59,54.95 c 0.916,-4.144 1.696,-7.534 1.733,-7.534 0.112,0 12.96,12.931 12.898,12.981 C 16.154,60.451 1.416,64.016 1.324,64 1.29,63.994 0.932,63.949 0.76,63.88 Z M 13.284,50.307 6.772,43.771 23.24,27.246 C 32.297,18.157 39.764,10.72 39.834,10.72 c 0.069,0 3.027,2.913 6.574,6.472 L 52.857,23.665 36.326,40.253 19.795,56.842 Z M 49.726,13.733 43.215,7.196 46.22,4.199 C 47.873,2.551 49.473,1.048 49.776,0.858 50.757,0.245 51.622,0.004 52.858,0 c 1.306,-0.004 2.245,0.277 3.256,0.976 0.344,0.238 2.103,1.922 3.908,3.742 3.84,3.871 3.972,4.066 3.978,5.876 0.006,1.837 -0.102,1.993 -4.23,6.134 l -3.532,3.543 z"
   style="fill-rule:nonzero;fill:#222222;fill-opacity:1" />
</svg>
