<?xml version="1.0" encoding="UTF-8" standalone="no"?>
<svg
   width="64"
   height="64"
   viewBox="0 0 64 64"
   version="1.1"
   xml:space="preserve"
   style="fill-rule:evenodd;clip-rule:evenodd;"
   id="svg4"
   sodipodi:docname="hefe.svg"
   inkscape:version="1.4.2 (f4327f4, 2025-05-13)"
   xmlns:inkscape="http://www.inkscape.org/namespaces/inkscape"
   xmlns:sodipodi="http://sodipodi.sourceforge.net/DTD/sodipodi-0.dtd"
   xmlns="http://www.w3.org/2000/svg"
   xmlns:svg="http://www.w3.org/2000/svg"><defs
   id="defs4" /><sodipodi:namedview
   id="namedview4"
   pagecolor="#ffffff"
   bordercolor="#222222"
   borderopacity="0.25"
   inkscape:showpageshadow="2"
   inkscape:pageopacity="0.0"
   inkscape:pagecheckerboard="0"
   inkscape:deskcolor="#d1d1d1"
   inkscape:zoom="20.053106"
   inkscape:cx="20.96932"
   inkscape:cy="40.766751"
   inkscape:window-width="3840"
   inkscape:window-height="2054"
   inkscape:window-x="-11"
   inkscape:window-y="-11"
   inkscape:window-maximized="1"
   inkscape:current-layer="svg4" />
    <path
   d="m 56.768741,20.93848 -1.392305,1.757826 c -1.318519,1.66467 -3.747032,1.955847 -5.421372,0.650019 L 36.307767,12.702719 C 34.634446,11.397686 34.34572,8.9873187 35.664239,7.3226482 l 1.392306,-1.757826 c 1.318519,-1.664669 3.747031,-1.955847 5.420353,-0.650813 L 56.124195,15.557616 c 1.67434,1.305828 1.963066,3.716195 0.644546,5.380864 z"
   style="fill:none;stroke:#222222;stroke-width:6.5;stroke-dasharray:none"
   id="path1" /><path
   d="m 52.398583,58.978699 -2.236694,0.776437 c -2.15128,0.746787 -4.352933,-0.431522 -4.91265,-2.630714 L 40.614124,38.912556 c -0.559719,-2.199193 0.733389,-4.59066 2.884667,-5.337446 l 2.236695,-0.77644 c 2.151279,-0.746785 4.352931,0.431523 4.91265,2.630716 l 4.635114,18.211866 c 0.559718,2.199193 -0.733389,4.59066 -2.884667,5.337447 z"
   style="fill:none;stroke:#222222;stroke-width:6.5;stroke-dasharray:none"
   id="path2" /><path
   d="m 32.514769,49.442894 0.204307,2.114113 c 0.192998,1.997092 -1.272283,3.776879 -3.271006,3.970218 L 9.9544098,57.41287 c -1.997439,0.193215 -3.776388,-1.272754 -3.969386,-3.269845 l -0.204307,-2.114114 c -0.193123,-1.998377 1.272282,-3.776878 3.26972,-3.970093 L 28.544098,46.173173 c 1.998723,-0.193339 3.777549,1.271343 3.970671,3.269721 z"
   style="fill:none;stroke:#222222;stroke-width:6.5;stroke-dasharray:none"
   id="path3" /><path
   d="m 30.224038,27.65848 -0.810071,2.127271 c -0.765477,2.010163 -3.024693,3.033227 -5.041182,2.283083 L 7.7627754,25.889822 C 5.7462867,25.139677 4.7302219,22.89819 5.4956982,20.888028 L 6.3057697,18.760757 C 7.0712459,16.750595 9.3304624,15.72753 11.346951,16.477674 l 16.61001,6.179012 c 2.016489,0.750145 3.032553,2.991632 2.267077,5.001794 z"
   style="fill:none;stroke:#222222;stroke-width:6.5;stroke-dasharray:none"
   id="path4" />
</svg>
