<?xml version="1.0" encoding="UTF-8" standalone="no"?>
<svg
   width="64"
   height="64"
   viewBox="0 0 64 64"
   version="1.1"
   xml:space="preserve"
   style="fill-rule:evenodd;clip-rule:evenodd;"
   id="svg1"
   sodipodi:docname="help.svg"
   inkscape:version="1.4.2 (f4327f4, 2025-05-13)"
   xmlns:inkscape="http://www.inkscape.org/namespaces/inkscape"
   xmlns:sodipodi="http://sodipodi.sourceforge.net/DTD/sodipodi-0.dtd"
   xmlns="http://www.w3.org/2000/svg"
   xmlns:svg="http://www.w3.org/2000/svg"><defs
   id="defs1" /><sodipodi:namedview
   id="namedview1"
   pagecolor="#ffffff"
   bordercolor="#222222"
   borderopacity="0.25"
   inkscape:showpageshadow="2"
   inkscape:pageopacity="0.0"
   inkscape:pagecheckerboard="0"
   inkscape:deskcolor="#d1d1d1"
   inkscape:zoom="28.359375"
   inkscape:cx="32.017631"
   inkscape:cy="32"
   inkscape:window-width="3840"
   inkscape:window-height="2054"
   inkscape:window-x="-11"
   inkscape:window-y="-11"
   inkscape:window-maximized="1"
   inkscape:current-layer="svg1" />
    <path
   id="path163579"
   d="m 31.84,42.479 h -1.186 c 0.135,-2.445 0.434,-4.463 0.897,-6.054 0.483,-1.611 1.467,-3.843 2.953,-6.696 1.158,-2.192 1.911,-3.871 2.258,-5.035 0.328,-1.118 0.501,-2.245 0.52,-3.38 0.001,-0.067 0.001,-0.134 0.001,-0.201 0,-2.464 -0.656,-4.424 -1.969,-5.88 -1.293,-1.455 -2.885,-2.183 -4.776,-2.183 -1.679,0 -3.001,0.398 -3.966,1.193 -0.965,0.796 -1.448,1.66 -1.448,2.591 0,0.718 0.29,1.601 0.869,2.649 0.579,1.048 0.868,1.844 0.868,2.387 0,0.699 -0.222,1.291 -0.666,1.776 -0.443,0.465 -0.984,0.698 -1.621,0.698 -0.81,0 -1.553,-0.398 -2.229,-1.193 -0.656,-0.815 -0.984,-1.941 -0.984,-3.377 0,-2.193 0.936,-4.133 2.808,-5.822 1.872,-1.688 4.41,-2.532 7.614,-2.532 3.975,0 6.899,1.164 8.771,3.493 1.39,1.708 2.084,3.6 2.084,5.676 0,1.417 -0.318,2.872 -0.955,4.367 -0.618,1.494 -1.804,3.25 -3.561,5.268 -2.798,3.183 -4.516,5.444 -5.153,6.783 -0.617,1.319 -0.993,3.144 -1.129,5.472 z m -0.404,3.61 c 0.907,0 1.669,0.32 2.286,0.96 0.637,0.621 0.956,1.388 0.956,2.3 0,0.893 -0.319,1.659 -0.956,2.3 -0.636,0.621 -1.399,0.931 -2.286,0.931 -0.888,0 -1.651,-0.31 -2.287,-0.931 -0.618,-0.641 -0.927,-1.407 -0.927,-2.3 0,-0.912 0.309,-1.679 0.927,-2.3 0.636,-0.64 1.399,-0.96 2.287,-0.96 z"
   style="fill-rule:nonzero;stroke:#222222;stroke-width:2px;fill:#222222;fill-opacity:1" />
<circle
   cx="32"
   cy="32"
   style="clip-rule:evenodd;fill:none;fill-rule:evenodd;stroke:#222222;stroke-width:6.5;stroke-dasharray:none;paint-order:stroke fill markers"
   id="ellipse1"
   r="28.75" /></svg>
