<?xml version="1.0" encoding="UTF-8" standalone="no"?>
<!-- Created with Inkscape (http://www.inkscape.org/) -->

<svg
   width="64"
   height="64"
   viewBox="0 0 16.933333 16.933333"
   version="1.1"
   id="svg716"
   inkscape:version="1.2.2 (732a01da63, 2022-12-09)"
   sodipodi:docname="help.svg"
   xmlns:inkscape="http://www.inkscape.org/namespaces/inkscape"
   xmlns:sodipodi="http://sodipodi.sourceforge.net/DTD/sodipodi-0.dtd"
   xmlns="http://www.w3.org/2000/svg"
   xmlns:svg="http://www.w3.org/2000/svg">
  <sodipodi:namedview
     id="namedview718"
     pagecolor="#ffffff"
     bordercolor="#000000"
     borderopacity="0.25"
     inkscape:showpageshadow="2"
     inkscape:pageopacity="0.0"
     inkscape:pagecheckerboard="false"
     inkscape:deskcolor="#d1d1d1"
     inkscape:document-units="px"
     showgrid="true"
     showborder="false"
     inkscape:zoom="14.638496"
     inkscape:cx="26.334673"
     inkscape:cy="25.207508"
     inkscape:window-width="1917"
     inkscape:window-height="2054"
     inkscape:window-x="-9"
     inkscape:window-y="0"
     inkscape:window-maximized="0"
     inkscape:current-layer="layer1">
    <inkscape:grid
       type="xygrid"
       id="grid837"
       spacingx="2.1166666"
       spacingy="2.1166666"
       empspacing="1" />
  </sodipodi:namedview>
  <defs
     id="defs713" />
  <g
     inkscape:label="Layer 1"
     inkscape:groupmode="layer"
     id="layer1">
    <path
       d="M 8.4245459,11.239319 H 8.1105109 C 8.1462552,10.592369 8.2254017,10.058378 8.3479519,9.6373443 8.4756083,9.2111771 8.7360278,8.6207045 9.1292099,7.8659264 9.4355853,7.285723 9.63473,6.8415848 9.7266427,6.5335119 9.8134306,6.2377776 9.8592389,5.9397545 9.8640815,5.6394428 c 2.846e-4,-0.017745 3.274e-4,-0.035494 3.274e-4,-0.053253 0,-0.6520875 -0.1736127,-1.1706762 -0.5208381,-1.5557673 -0.3421188,-0.3850916 -0.7633854,-0.577637 -1.263799,-0.577637 -0.4442445,0 -0.7940234,0.1052585 -1.0493364,0.3157748 -0.2553128,0.2105163 -0.3829692,0.4390033 -0.3829692,0.6854612 0,0.1899784 0.076595,0.4236001 0.2297816,0.7008654 0.1531876,0.2772656 0.2297817,0.4877819 0.2297817,0.631549 0,0.1848437 -0.058722,0.341447 -0.1761661,0.4698108 C 6.8134191,6.3794757 6.670444,6.4410902 6.5019376,6.4410902 6.2874743,6.4410902 6.0908837,6.3358328 5.9121645,6.125316 5.7385517,5.909665 5.6517453,5.6118614 5.6517453,5.231905 c 0,-0.5802034 0.2476534,-1.0936579 0.7429606,-1.5403633 0.4953073,-0.446705 1.1667806,-0.6700581 2.0144198,-0.6700581 1.0518886,0 1.8254873,0.3080726 2.3207903,0.9242182 0.36765,0.4518398 0.551475,0.952458 0.551475,1.5018543 0,0.3748215 -0.08424,0.7599127 -0.252762,1.1552725 C 10.865228,6.9981886 10.5512,7.4628644 10.086532,7.9968571 9.346124,8.8389223 8.8916673,9.437097 8.7231605,9.7913805 8.5597605,10.140528 8.4601885,10.623176 8.4244447,11.239319 Z M 8.317314,12.194346 c 0.2399941,0 0.4416912,0.08472 0.6050916,0.254159 0.1685064,0.164306 0.2527607,0.367121 0.2527607,0.608443 0,0.23619 -0.084254,0.439007 -0.2527607,0.608445 -0.1685065,0.164303 -0.3702036,0.246459 -0.6050916,0.246459 -0.234888,0 -0.4365856,-0.08215 -0.605092,-0.246459 -0.1634,-0.169438 -0.2451002,-0.372255 -0.2451002,-0.608445 0,-0.241322 0.0817,-0.444137 0.2451005,-0.608443 0.1685064,-0.169441 0.3702039,-0.254159 0.6050917,-0.254159 z"
       id="path163579"
       sodipodi:nodetypes="cccccsscssssscscssscsccccscscscsss"
       style="font-size:48px;font-family:'Times New Roman';-inkscape-font-specification:'Times New Roman, ';text-align:center;text-anchor:middle;stroke:#111111;stroke-width:0.529167" />
    <circle
       style="fill:none;stroke:#111111;stroke-width:1.32291;stroke-dasharray:none;stroke-opacity:1"
       id="path241-2-4"
       cy="8.4666662"
       cx="8.4666662"
       r="7.8052063" />
  </g>
</svg>
