<?xml version="1.0" encoding="UTF-8" standalone="no"?>
<!-- Created with Inkscape (http://www.inkscape.org/) -->

<svg
   width="64"
   height="64"
   viewBox="0 0 16.933333 16.933333"
   version="1.1"
   id="svg716"
   inkscape:version="1.2.2 (732a01da63, 2022-12-09)"
   sodipodi:docname="lager_add.svg"
   xmlns:inkscape="http://www.inkscape.org/namespaces/inkscape"
   xmlns:sodipodi="http://sodipodi.sourceforge.net/DTD/sodipodi-0.dtd"
   xmlns:xlink="http://www.w3.org/1999/xlink"
   xmlns="http://www.w3.org/2000/svg"
   xmlns:svg="http://www.w3.org/2000/svg">
  <sodipodi:namedview
     id="namedview718"
     pagecolor="#ffffff"
     bordercolor="#000000"
     borderopacity="0.25"
     inkscape:showpageshadow="2"
     inkscape:pageopacity="0.0"
     inkscape:pagecheckerboard="false"
     inkscape:deskcolor="#d1d1d1"
     inkscape:document-units="px"
     showgrid="true"
     showborder="false"
     inkscape:zoom="5.1754899"
     inkscape:cx="38.257248"
     inkscape:cy="30.431902"
     inkscape:window-width="1649"
     inkscape:window-height="1259"
     inkscape:window-x="1645"
     inkscape:window-y="235"
     inkscape:window-maximized="0"
     inkscape:current-layer="layer1">
    <inkscape:grid
       type="xygrid"
       id="grid837"
       spacingx="2.1166666"
       spacingy="2.1166666"
       empspacing="1" />
  </sodipodi:namedview>
  <defs
     id="defs713">
    <radialGradient
       cx="24"
       cy="22"
       r="22"
       fx="24"
       fy="22"
       id="R0-2"
       xlink:href="#G0"
       gradientUnits="userSpaceOnUse"
       gradientTransform="matrix(0.2817776,-0.06248044,0.05635552,0.31240222,0.58727581,3.8721765)" />
    <linearGradient
       id="G0">
      <stop
         id="s1"
         style="stop-color:#e6cf00;stop-opacity:1"
         offset="0" />
      <stop
         id="s2"
         style="stop-color:#fde94a;stop-opacity:1"
         offset="1" />
    </linearGradient>
    <linearGradient
       x1="14.660452"
       y1="7.0243196"
       x2="24.030643"
       y2="34.826122"
       id="G3-44"
       xlink:href="#G1"
       gradientUnits="userSpaceOnUse"
       gradientTransform="matrix(0.2817776,0,0,0.31240222,1.6580318,1.7478425)" />
    <linearGradient
       id="G1">
      <stop
         id="s3"
         style="stop-color:#fcf9fb;stop-opacity:1"
         offset="0" />
      <stop
         id="s4"
         style="stop-color:#fcf9fb;stop-opacity:0"
         offset="1" />
    </linearGradient>
    <linearGradient
       x1="14.660452"
       y1="7.0243196"
       x2="24.030643"
       y2="34.826122"
       id="G3-6-4"
       xlink:href="#G1"
       gradientUnits="userSpaceOnUse"
       gradientTransform="matrix(0.2817554,0,0,0.31255549,1.1984647,1.0799182)" />
  </defs>
  <g
     inkscape:label="Layer 1"
     inkscape:groupmode="layer"
     id="layer1">
    <path
       style="fill:none;stroke:#000000;stroke-width:1.32292;stroke-linecap:round;stroke-linejoin:round;stroke-miterlimit:4;stroke-dasharray:none;stroke-opacity:1;shape-rendering:crispEdges"
       d="m 10.936846,4.1236084 h 4.233333"
       id="path5588-82-1"
       sodipodi:nodetypes="cc" />
    <path
       sodipodi:nodetypes="cc"
       id="path5588-2-2-3"
       d="M 13.053513,2.0069418 V 6.2402749"
       style="fill:none;stroke:#000000;stroke-width:1.32292;stroke-linecap:round;stroke-linejoin:round;stroke-miterlimit:4;stroke-dasharray:none;stroke-opacity:1;shape-rendering:crispEdges" />
    <path
       sodipodi:nodetypes="cccscccscscsccccccscccsccscssscscccccccccsccccccscccccsccccccscccsssccssccccscccc"
       style="fill:#000000;fill-opacity:1;stroke:none;stroke-width:0.224499;stroke-miterlimit:4;stroke-dasharray:none;stroke-opacity:1"
       id="path3564-0-1"
       d="m 7.1642659,8.7032179 c -0.073559,-0.08174 -0.178562,-0.118147 -0.2808711,-0.09744 -0.015372,0.0029 -0.032837,0.0065 -0.051168,0.01069 0.2230808,-0.567304 0.3705463,-1.38525 0.4196266,-1.683695 0.018706,-0.113784 -0.013997,-0.230582 -0.087585,-0.312404 -0.073559,-0.08174 -0.178562,-0.11815 -0.280871,-0.09734 -0.3859425,0.02331 -0.6340555,0.148789 -0.9406785,0.243263 0.045186,-0.136959 0.069853,-0.284853 0.069853,-0.439055 0,-0.576286 -0.6800453,-1.7160421 -0.8884655,-2.0516237 -0.059116,-0.095189 -0.1564878,-0.1520058 -0.2605405,-0.1520058 -0.104021,0 -0.201422,0.056851 -0.2605088,0.1520005 -0.2084229,0.3356187 -0.8884338,1.475338 -0.8884338,2.051624 0,0.154202 0.024659,0.302096 0.069853,0.439055 -0.4535725,-0.22679 -0.4535725,-0.22679 -0.9406784,-0.243208 -0.1022456,-0.02072 -0.2073143,0.01556 -0.2808711,0.09743 -0.073559,0.08182 -0.1062672,0.198593 -0.087585,0.312382 0.049075,0.298453 0.1965431,1.116354 0.4196239,1.683703 -0.018336,-0.0043 -0.03578,-0.0083 -0.051165,-0.01061 -0.1022482,-0.02072 -0.2073143,0.01556 -0.2808711,0.09743 -0.073559,0.08182 -0.1062699,0.198594 -0.087588,0.312397 0.049078,0.298452 0.1965458,1.1163561 0.4195974,1.6837021 -0.018309,-0.0043 -0.035748,-0.0083 -0.051141,-0.01069 -0.1022482,-0.02072 -0.2073142,0.01556 -0.2808737,0.09744 -0.073559,0.08183 -0.1062672,0.198594 -0.087585,0.312388 0.06599,0.401267 0.309716,1.74198 0.6761162,2.14947 0.2170325,0.24135 0.5055341,0.374287 0.8124348,0.374287 0.2083885,0 0.4082283,-0.06137 0.5830226,-0.176305 v 0.908651 c 0,0.194479 0.1417955,0.352187 0.3166507,0.352187 0.174887,0 0.3166534,-0.157708 0.3166534,-0.352187 v -0.908727 c 0.1748234,0.114905 0.3746632,0.176347 0.5830517,0.176347 0.3069007,0 0.5954342,-0.132924 0.8124348,-0.37429 0.3663686,-0.407488 0.6101292,-1.748253 0.6761189,-2.149462 0.018706,-0.113832 -0.013996,-0.230595 -0.087588,-0.312396 -0.073559,-0.08174 -0.1785593,-0.118163 -0.280871,-0.09733 -0.015399,0.0029 -0.032835,0.0065 -0.051141,0.01069 0.2230464,-0.567317 0.3705146,-1.3852551 0.4195948,-1.6837001 0.018706,-0.113789 -0.013996,-0.23056 -0.087553,-0.312404 z M 4.3285782,10.667022 c -0.097404,0.108333 -0.226912,0.167994 -0.3646911,0.167994 -0.1377394,0 -0.2672212,-0.05965 -0.3646223,-0.167994 C 3.482356,10.537 3.3199125,9.9845659 3.1969262,9.4084219 c 0.5180118,0.136787 1.0146797,0.317471 1.1315885,0.447472 0.2011071,0.2236331 0.2011071,0.5875201 6.35e-5,0.8111281 z m -3.18e-5,-2.8940101 c 0.2010754,0.223607 0.2010754,0.587491 3.18e-5,0.811106 -0.097404,0.108326 -0.226912,0.167982 -0.3646911,0.167982 -0.1377394,0 -0.2672212,-0.05965 -0.3646223,-0.167953 -0.1169088,-0.130063 -0.2793523,-0.682476 -0.4023386,-1.258628 0.5180435,0.136795 1.0147114,0.317471 1.1316202,0.447493 z m 2.2016852,-0.447493 c -0.1229862,0.576152 -0.2854272,1.128565 -0.4023386,1.258599 -0.097372,0.108326 -0.2268802,0.167982 -0.3646249,0.167982 -0.1377765,0 -0.2672557,-0.05965 -0.3646567,-0.167953 C 5.197536,8.3604739 5.197536,7.9965979 5.398577,7.7730119 5.5155493,7.6429899 6.0122198,7.4623139 6.5302316,7.3255189 Z m -1.1316202,2.530404 c 0.1169379,-0.13003 0.6136719,-0.310743 1.1317499,-0.44753 -0.1228646,0.575964 -0.2853373,1.1283501 -0.4024683,1.2586291 -0.097372,0.108333 -0.2268802,0.167994 -0.3646249,0.167994 -0.1377765,0 -0.2672557,-0.05965 -0.3646567,-0.167994 -0.2010437,-0.223608 -0.2010437,-0.587495 0,-0.8110991 z M 4.863563,5.1206748 c 0.2793497,0.5041711 0.5156703,1.0224951 0.5156703,1.2064071 0,0.316241 -0.231349,0.57354 -0.5156703,0.57354 -0.2843212,0 -0.5156385,-0.257299 -0.5156385,-0.57354 0,-0.183875 0.2363179,-0.702236 0.5156385,-1.2064071 z M 4.3285782,12.74993 c -0.097404,0.108334 -0.226912,0.167989 -0.3646911,0.167989 -0.1377394,0 -0.2672212,-0.05965 -0.3646223,-0.167989 -0.1169088,-0.13004 -0.2793523,-0.682448 -0.4023386,-1.258604 0.5180118,0.136794 1.0146797,0.317465 1.1315885,0.447463 0.2011071,0.223642 0.2011071,0.587528 6.35e-5,0.811141 z m 1.7993148,0 c -0.097372,0.108334 -0.2268802,0.167989 -0.3646249,0.167989 -0.1377765,0 -0.2672557,-0.05965 -0.3646567,-0.167989 C 5.197536,12.526317 5.197536,12.162431 5.398577,11.938818 5.5155175,11.808791 6.0122542,11.628078 6.5303269,11.491283 6.4074967,12.067276 6.245024,12.619617 6.127893,12.74993 Z"
       inkscape:connector-curvature="0" />
    <path
       style="fill:#000000;fill-opacity:1;stroke-width:0.224499"
       d="m 10.501821,6.8955949 v -0.749832 c 0,-0.133032 -0.07104,-0.240681 -0.158819,-0.240681 -0.08779,0 -0.158819,0.107649 -0.158819,0.240681 v 0.749832 c -2.5048316,0.125347 -2.5516946,3.086486 -2.5516946,3.1171011 0,0.133033 0.071035,0.240681 0.1588188,0.240681 1.6519737,0 2.3027828,-1.1859791 2.5516948,-2.0977571 0.248912,0.911778 0.899721,2.0977571 2.551692,2.0977571 0.08779,0 0.158819,-0.107648 0.158819,-0.240681 0,-0.03061 -0.04686,-2.9917541 -2.551692,-3.1171011 z"
       id="path2119-2-2" />
    <path
       style="fill:#000000;fill-opacity:1;stroke-width:0.224499"
       d="m 10.29275,14.107859 c 0.01627,0.0082 0.03334,0.01246 0.05025,0.01246 0.01691,0 0.03396,-0.0042 0.05025,-0.01246 0.02265,-0.01127 0.557106,-0.306324 0.860163,-1.237549 0.02897,-0.08908 0.05287,-0.182515 0.07561,-0.276878 -0.08951,-0.129599 -0.188138,-0.286489 -0.28579,-0.468636 -0.274344,0.352965 -0.526476,0.486625 -0.549495,0.498256 -0.04884,0.02468 -0.09956,0.03713 -0.150738,0.03713 -0.05118,0 -0.101899,-0.01246 -0.150752,-0.03713 -0.02302,-0.01164 -0.2754654,-0.145484 -0.550013,-0.498962 -0.097843,0.182949 -0.1956329,0.338989 -0.2854166,0.468749 0.022781,0.09457 0.046723,0.188211 0.075766,0.277455 0.303059,0.931241 0.8375176,1.226283 0.8601636,1.237565 z"
       id="path2121-8-1" />
    <path
       style="fill:#000000;fill-opacity:1;stroke-width:0.224499"
       d="m 11.843099,12.619747 c 0.06191,0.0629 0.146177,0.05204 0.200388,-0.03009 0.0076,-0.01146 0.486537,-0.737957 0.64127,-1.870535 -0.373205,-0.02365 -0.708154,-0.104921 -0.987528,-0.231278 -0.08974,0.554816 -0.249991,0.980115 -0.427349,1.295181 0.271518,0.521443 0.566084,0.829529 0.573219,0.836718 z"
       id="path2123-77-0" />
    <path
       style="fill:#000000;fill-opacity:1;stroke-width:0.224499"
       d="m 8.0012461,10.719142 c 0.1547099,1.13248 0.6336348,1.859095 0.641268,1.870535 0.05421,0.08215 0.1384803,0.09298 0.2003875,0.03009 0.00672,-0.0067 0.30217,-0.312579 0.5739183,-0.835385 -0.1776439,-0.315211 -0.3381878,-0.74096 -0.4280482,-1.296514 -0.279363,0.126357 -0.6143228,0.207627 -0.9875256,0.231278 z"
       id="path2125-72-2" />
    <path
       style="fill:#000000;fill-opacity:1;stroke-width:0.224499"
       d="m 10.343002,9.1207169 c -0.219446,0.443783 -0.5565883,0.8927651 -1.0534388,1.2058101 0.214556,1.419838 0.9660968,1.821084 1.0031868,1.839825 0.01627,0.0082 0.03334,0.01246 0.05025,0.01246 0.01691,0 0.03396,-0.0042 0.05025,-0.01246 0.03709,-0.01873 0.788633,-0.419987 1.003186,-1.839825 -0.496851,-0.313045 -0.833991,-0.7620271 -1.053436,-1.2058101 z"
       id="path2127-1-1" />
  </g>
</svg>
