<?xml version="1.0" encoding="UTF-8" standalone="no"?>
<!-- Created with Inkscape (http://www.inkscape.org/) -->

<svg
   width="64"
   height="64"
   viewBox="0 0 16.933333 16.933333"
   version="1.1"
   id="svg716"
   inkscape:version="1.2.2 (732a01da63, 2022-12-09)"
   sodipodi:docname="lager_delete.svg"
   xmlns:inkscape="http://www.inkscape.org/namespaces/inkscape"
   xmlns:sodipodi="http://sodipodi.sourceforge.net/DTD/sodipodi-0.dtd"
   xmlns:xlink="http://www.w3.org/1999/xlink"
   xmlns="http://www.w3.org/2000/svg"
   xmlns:svg="http://www.w3.org/2000/svg">
  <sodipodi:namedview
     id="namedview718"
     pagecolor="#ffffff"
     bordercolor="#000000"
     borderopacity="0.25"
     inkscape:showpageshadow="2"
     inkscape:pageopacity="0.0"
     inkscape:pagecheckerboard="false"
     inkscape:deskcolor="#d1d1d1"
     inkscape:document-units="px"
     showgrid="true"
     showborder="false"
     inkscape:zoom="5.1754899"
     inkscape:cx="38.257248"
     inkscape:cy="30.431902"
     inkscape:window-width="1649"
     inkscape:window-height="1259"
     inkscape:window-x="1645"
     inkscape:window-y="235"
     inkscape:window-maximized="0"
     inkscape:current-layer="layer1">
    <inkscape:grid
       type="xygrid"
       id="grid837"
       spacingx="2.1166666"
       spacingy="2.1166666"
       empspacing="1" />
  </sodipodi:namedview>
  <defs
     id="defs713">
    <radialGradient
       cx="24"
       cy="22"
       r="22"
       fx="24"
       fy="22"
       id="R0-2"
       xlink:href="#G0"
       gradientUnits="userSpaceOnUse"
       gradientTransform="matrix(0.2817776,-0.06248044,0.05635552,0.31240222,0.58727581,3.8721765)" />
    <linearGradient
       id="G0">
      <stop
         id="s1"
         style="stop-color:#e6cf00;stop-opacity:1"
         offset="0" />
      <stop
         id="s2"
         style="stop-color:#fde94a;stop-opacity:1"
         offset="1" />
    </linearGradient>
    <linearGradient
       x1="14.660452"
       y1="7.0243196"
       x2="24.030643"
       y2="34.826122"
       id="G3-44"
       xlink:href="#G1"
       gradientUnits="userSpaceOnUse"
       gradientTransform="matrix(0.2817776,0,0,0.31240222,1.6580318,1.7478425)" />
    <linearGradient
       id="G1">
      <stop
         id="s3"
         style="stop-color:#fcf9fb;stop-opacity:1"
         offset="0" />
      <stop
         id="s4"
         style="stop-color:#fcf9fb;stop-opacity:0"
         offset="1" />
    </linearGradient>
    <linearGradient
       x1="14.660452"
       y1="7.0243196"
       x2="24.030643"
       y2="34.826122"
       id="G3-6-4"
       xlink:href="#G1"
       gradientUnits="userSpaceOnUse"
       gradientTransform="matrix(0.2817554,0,0,0.31255549,1.1984647,1.0799182)" />
  </defs>
  <g
     inkscape:label="Layer 1"
     inkscape:groupmode="layer"
     id="layer1">
    <path
       sodipodi:nodetypes="cccscccscscsccccccscccsccscssscscccccccccsccccccscccccsccccccscccsssccssccccscccc"
       style="fill:#000000;fill-opacity:1;stroke:none;stroke-width:0.224499;stroke-miterlimit:4;stroke-dasharray:none;stroke-opacity:1"
       id="path3564-0"
       d="m 7.4198747,8.2072337 c -0.07356,-0.08174 -0.178562,-0.118148 -0.280871,-0.09744 -0.01537,0.0029 -0.03284,0.0065 -0.05117,0.01068 0.223084,-0.567303 0.370549,-1.385249 0.419629,-1.683694 0.01871,-0.113782 -0.014,-0.230582 -0.08759,-0.312404 -0.07356,-0.08174 -0.178562,-0.118148 -0.280871,-0.09734 -0.385942,0.0233 -0.634058,0.148789 -0.940681,0.243265 0.04519,-0.13696 0.06986,-0.284853 0.06986,-0.439055 0,-0.576287 -0.680045,-1.716042 -0.888462,-2.051624 -0.05912,-0.09519 -0.156491,-0.152002 -0.260544,-0.152002 -0.104021,0 -0.201422,0.05685 -0.260508,0.152001 -0.208423,0.335618 -0.888434,1.475337 -0.888434,2.051624 0,0.154202 0.02466,0.302094 0.06986,0.439054 -0.453575,-0.226789 -0.453575,-0.226789 -0.940681,-0.243207 -0.102245,-0.02072 -0.207311,0.01556 -0.280871,0.09743 -0.07356,0.08182 -0.106267,0.198594 -0.08759,0.312383 0.04908,0.298453 0.196546,1.116355 0.419627,1.683702 -0.01834,-0.0043 -0.03578,-0.0082 -0.05117,-0.01061 -0.102248,-0.02072 -0.207312,0.01556 -0.280871,0.09743 -0.07356,0.08182 -0.10627,0.198593 -0.08759,0.312397 0.04908,0.298452 0.196546,1.116353 0.419597,1.6837023 -0.01831,-0.0043 -0.03575,-0.0083 -0.05114,-0.01069 -0.102248,-0.02072 -0.207311,0.01556 -0.280871,0.09744 -0.07356,0.08183 -0.106267,0.198594 -0.08759,0.312391 0.06599,0.401265 0.309716,1.74198 0.676119,2.149467 0.217033,0.241351 0.505534,0.37429 0.812435,0.37429 0.208389,0 0.408228,-0.06137 0.58302,-0.176305 v 0.908648 c 0,0.19448 0.141796,0.352187 0.316651,0.352187 0.174887,0 0.316653,-0.157707 0.316653,-0.352187 V 12.95004 c 0.174824,0.114908 0.374663,0.176347 0.583052,0.176347 0.306901,0 0.595434,-0.132924 0.812435,-0.374287 0.366368,-0.40749 0.610129,-1.748253 0.676116,-2.149462 0.01871,-0.113832 -0.014,-0.230597 -0.08759,-0.312396 -0.07356,-0.08174 -0.178562,-0.118163 -0.280871,-0.09734 -0.0154,0.0029 -0.03284,0.0065 -0.05114,0.01069 0.223047,-0.5673173 0.370512,-1.3852573 0.419595,-1.6837023 0.01871,-0.113789 -0.014,-0.230561 -0.08755,-0.312404 z m -2.835688,1.9638013 c -0.0974,0.108333 -0.226912,0.167994 -0.364689,0.167994 -0.137742,0 -0.267223,-0.05964 -0.364624,-0.167994 -0.116909,-0.130019 -0.279353,-0.6824563 -0.402339,-1.2585983 0.518012,0.136788 1.014682,0.317472 1.131588,0.44747 0.201108,0.223636 0.201108,0.587523 6.4e-5,0.8111283 z m -2.9e-5,-2.8940093 c 0.201073,0.223607 0.201073,0.587493 2.9e-5,0.811106 -0.0974,0.108326 -0.226912,0.167981 -0.364689,0.167981 -0.137742,0 -0.267223,-0.05965 -0.364624,-0.167952 -0.116909,-0.130063 -0.279353,-0.682477 -0.402339,-1.258627 0.518043,0.136795 1.014711,0.317472 1.131623,0.447492 z m 2.201682,-0.447492 c -0.122986,0.57615 -0.285429,1.128564 -0.402338,1.258598 -0.09737,0.108326 -0.22688,0.167981 -0.364625,0.167981 -0.137777,0 -0.267256,-0.05965 -0.364657,-0.167952 -0.201075,-0.223671 -0.201075,-0.58755 -3.4e-5,-0.811135 0.116972,-0.13002 0.613643,-0.310697 1.131654,-0.447492 z m -1.13162,2.530402 c 0.116938,-0.130027 0.613672,-0.31074 1.131747,-0.447528 -0.122862,0.575965 -0.285334,1.1283483 -0.402465,1.2586273 -0.09737,0.108333 -0.22688,0.167994 -0.364625,0.167994 -0.137777,0 -0.267256,-0.05964 -0.364657,-0.167994 -0.201044,-0.2236053 -0.201044,-0.5874923 0,-0.8110993 z m -0.535048,-4.735246 c 0.279349,0.504172 0.51567,1.022497 0.51567,1.206407 0,0.31624 -0.231349,0.573541 -0.51567,0.573541 -0.284321,0 -0.515639,-0.257301 -0.515639,-0.573541 0,-0.183875 0.236318,-0.702235 0.515639,-1.206407 z m -0.534985,7.6292563 c -0.0974,0.108333 -0.226912,0.167986 -0.364689,0.167986 -0.137742,0 -0.267223,-0.05965 -0.364624,-0.167986 -0.116909,-0.130043 -0.279353,-0.682448 -0.402339,-1.258607 0.518012,0.136795 1.014682,0.317465 1.131588,0.447466 0.201108,0.223641 0.201108,0.587525 6.4e-5,0.811141 z m 1.799315,0 c -0.09737,0.108333 -0.22688,0.167986 -0.364625,0.167986 -0.137777,0 -0.267256,-0.05965 -0.364657,-0.167986 -0.201075,-0.223616 -0.201075,-0.5875 -3.4e-5,-0.811115 0.11694,-0.130027 0.613677,-0.31074 1.13175,-0.447535 -0.122831,0.575993 -0.285303,1.128334 -0.402434,1.25865 z"
       inkscape:connector-curvature="0" />
    <path
       style="fill:#000000;fill-opacity:1;stroke-width:0.2245"
       d="m 10.757424,6.3996107 v -0.749832 c 0,-0.133032 -0.07103,-0.240681 -0.158819,-0.240681 -0.08778,0 -0.158819,0.107649 -0.158819,0.240681 v 0.749832 c -2.5048283,0.125346 -2.5516913,3.086486 -2.5516913,3.117101 0,0.133033 0.07103,0.240681 0.158818,0.240681 1.651971,0 2.3027803,-1.185978 2.5516923,-2.097756 0.248912,0.911778 0.899721,2.097756 2.551692,2.097756 0.08779,0 0.158819,-0.107648 0.158819,-0.240681 0,-0.03062 -0.04686,-2.991755 -2.551692,-3.117101 z"
       id="path2119-2" />
    <path
       style="fill:#000000;fill-opacity:1;stroke-width:0.2245"
       d="m 10.548356,13.611872 c 0.01627,0.0082 0.03334,0.01246 0.05025,0.01246 0.01691,0 0.03397,-0.0042 0.05025,-0.01246 0.02265,-0.01127 0.557107,-0.306321 0.860166,-1.237546 0.02897,-0.08908 0.05286,-0.182515 0.07561,-0.276879 -0.08951,-0.129598 -0.188137,-0.286491 -0.28579,-0.468638 -0.274344,0.352968 -0.526473,0.486625 -0.549492,0.498258 -0.04884,0.02469 -0.09956,0.03713 -0.150741,0.03713 -0.05118,0 -0.101899,-0.01246 -0.150751,-0.03713 -0.02302,-0.01164 -0.275466,-0.145483 -0.5500113,-0.498961 -0.09784,0.182948 -0.195633,0.338989 -0.285419,0.468749 0.02278,0.09457 0.04672,0.188211 0.07577,0.277455 0.303056,0.931241 0.8375143,1.226283 0.8601633,1.237562 z"
       id="path2121-8" />
    <path
       style="fill:#000000;fill-opacity:1;stroke-width:0.2245"
       d="m 12.098705,12.123763 c 0.06191,0.0629 0.146177,0.05203 0.200385,-0.03009 0.0076,-0.01146 0.486537,-0.737957 0.641271,-1.870535 -0.373203,-0.02365 -0.708155,-0.104924 -0.987526,-0.2312813 -0.08974,0.5548183 -0.249991,0.9801183 -0.427352,1.2951833 0.271518,0.521441 0.566084,0.82953 0.573222,0.836719 z"
       id="path2123-77" />
    <path
       style="fill:#000000;fill-opacity:1;stroke-width:0.2245"
       d="m 8.2568517,10.223157 c 0.15471,1.132481 0.633635,1.859095 0.641268,1.870536 0.05421,0.08215 0.13848,0.09298 0.200388,0.03009 0.0067,-0.0067 0.302167,-0.312582 0.573918,-0.835388 -0.177644,-0.315211 -0.338188,-0.740958 -0.428048,-1.2965143 -0.279363,0.1263603 -0.614323,0.2076293 -0.987526,0.2312803 z"
       id="path2125-72" />
    <path
       style="fill:#000000;fill-opacity:1;stroke-width:0.2245"
       d="m 10.598605,8.6247327 c -0.219445,0.443783 -0.556585,0.892765 -1.0534363,1.205809 0.214554,1.4198393 0.9660973,1.8210853 1.0031873,1.8398253 0.01627,0.0082 0.03334,0.01246 0.05025,0.01246 0.01691,0 0.03397,-0.0042 0.05025,-0.01246 0.03709,-0.01873 0.788633,-0.419986 1.003186,-1.8398253 -0.496848,-0.313044 -0.83399,-0.762026 -1.053437,-1.205809 z"
       id="path2127-1" />
    <path
       style="fill:none;stroke:#000000;stroke-width:1.32292;stroke-linecap:round;stroke-linejoin:round;stroke-miterlimit:4;stroke-dasharray:none;stroke-opacity:1;shape-rendering:crispEdges"
       d="m 11.192452,3.6276237 h 4.233333"
       id="path5588-0-6-9"
       sodipodi:nodetypes="cc" />
  </g>
</svg>
