<?xml version="1.0" encoding="UTF-8" standalone="no"?>
<!-- Created with Inkscape (http://www.inkscape.org/) -->

<svg
   width="64"
   height="64"
   viewBox="0 0 16.933333 16.933333"
   version="1.1"
   id="svg716"
   inkscape:version="1.2.2 (732a01da63, 2022-12-09)"
   sodipodi:docname="lager.svg"
   xmlns:inkscape="http://www.inkscape.org/namespaces/inkscape"
   xmlns:sodipodi="http://sodipodi.sourceforge.net/DTD/sodipodi-0.dtd"
   xmlns="http://www.w3.org/2000/svg"
   xmlns:svg="http://www.w3.org/2000/svg">
  <sodipodi:namedview
     id="namedview718"
     pagecolor="#ffffff"
     bordercolor="#000000"
     borderopacity="0.25"
     inkscape:showpageshadow="2"
     inkscape:pageopacity="0.0"
     inkscape:pagecheckerboard="false"
     inkscape:deskcolor="#d1d1d1"
     inkscape:document-units="px"
     showgrid="true"
     showborder="false"
     inkscape:zoom="14.638496"
     inkscape:cx="26.881177"
     inkscape:cy="25.070882"
     inkscape:window-width="1918"
     inkscape:window-height="2054"
     inkscape:window-x="-10"
     inkscape:window-y="0"
     inkscape:window-maximized="0"
     inkscape:current-layer="layer1">
    <inkscape:grid
       type="xygrid"
       id="grid837"
       spacingx="2.1166666"
       spacingy="2.1166666"
       empspacing="1" />
  </sodipodi:namedview>
  <defs
     id="defs713" />
  <g
     inkscape:label="Layer 1"
     inkscape:groupmode="layer"
     id="layer1">
    <path
       sodipodi:nodetypes="cccscccscscsccccccscccsccscssscscccccccccsccccccscccccsccccccscccsssccssccccscccc"
       style="fill:#222222;fill-opacity:1;stroke:none;stroke-width:0.26458333;stroke-miterlimit:4;stroke-dasharray:none;stroke-opacity:1"
       id="path3564"
       d="M 7.5105443,7.3273802 C 7.3928422,7.1966067 7.224846,7.1383433 7.061149,7.1714823 7.0365344,7.1760223 7.0086149,7.1817743 6.9792827,7.1885713 7.3362127,6.2808842 7.5721581,4.9721714 7.6506875,4.4946592 7.6806196,4.3126079 7.6282985,4.1257276 7.510551,3.9948124 7.3928488,3.8640256 7.2248539,3.8057755 7.061157,3.8390641 6.4436508,3.8763441 6.046667,4.077126 5.5560705,4.2282872 5.6283678,4.0091511 5.6678291,3.7725229 5.6678291,3.5257997 5.6678291,2.6037406 4.5797578,0.78013146 4.2462896,0.24319994 4.1516959,0.0909053 3.9959043,-9.4076688e-8 3.8294221,-9.4076688e-8 3.6629865,-9.4076688e-8 3.5071456,0.09096811 3.4126054,0.24320087 3.079133,0.78018985 1.9911138,2.6037415 1.9911138,3.5258006 c 0,0.2467232 0.03946,0.4833515 0.1117585,0.7024875 C 1.3771565,3.8654242 1.3771565,3.8654242 0.59778719,3.8391559 0.43419282,3.8060049 0.26608468,3.8640489 0.14839578,3.9950432 0.03069357,4.1259637 -0.02163408,4.3127919 0.00825658,4.4948552 0.08677804,4.9723794 0.32272754,6.2810241 0.67965766,7.1887779 0.65032539,7.1818279 0.62240576,7.1755489 0.59779118,7.1717949 0.43419416,7.1386439 0.26609002,7.1966879 0.14840112,7.3276808 c -0.11770222,0.1309205 -0.17003386,0.31775 -0.1401432,0.4998361 0.07852145,0.4775243 0.31447362,1.786167 0.67135576,2.6939221 -0.0293056,-0.0069 -0.0571986,-0.01323 -0.0818265,-0.01709 -0.16359836,-0.03315 -0.33170251,0.02489 -0.44939539,0.155897 -0.11768889,0.130921 -0.17002853,0.317748 -0.1401392,0.499822 0.10558816,0.642027 0.4955474,2.78717 1.08178761,3.439152 0.3472522,0.386161 0.8088549,0.598862 1.2998953,0.598862 0.333423,0 0.6531646,-0.09819 0.9328327,-0.282087 v 1.45384 c 0,0.311165 0.2268765,0.563497 0.5066446,0.563497 0.2798159,0 0.5066432,-0.252332 0.5066432,-0.563497 V 14.91587 c 0.2797174,0.183851 0.5994591,0.282155 0.9328822,0.282155 0.4910416,0 0.9526923,-0.212678 1.2998951,-0.598862 C 7.1550215,13.947181 7.5450408,11.801958 7.650621,11.160025 7.6805535,10.977893 7.6282326,10.79107 7.5104857,10.66019 7.3927841,10.529417 7.2247873,10.47113 7.0610903,10.504452 c -0.024641,0.0045 -0.052534,0.01029 -0.081826,0.01709 C 7.336142,9.6138321 7.5720874,8.3051305 7.6506169,7.8276184 7.6805489,7.645555 7.6282279,7.4587215 7.5105337,7.3277715 Z M 2.973445,10.469464 c -0.1558435,0.173332 -0.3630592,0.268792 -0.5835042,0.268792 -0.2203879,0 -0.4275542,-0.09543 -0.5833951,-0.268792 C 1.6194896,10.261432 1.3595813,9.3775359 1.1627992,8.4557052 1.9916177,8.674566 2.7862902,8.9636613 2.9733437,9.1716589 3.2951124,9.5294755 3.2951124,10.111693 2.973445,10.469464 Z m -4.94e-5,-4.630416 c 0.3217168,0.3577704 0.3217168,0.9399883 4.94e-5,1.2977707 -0.1558435,0.173322 -0.3630592,0.268769 -0.5835042,0.268769 -0.2203879,0 -0.4275542,-0.095431 -0.5833951,-0.2687237 C 1.6194896,6.9287623 1.3595813,6.044901 1.1627992,5.1230595 1.9916709,5.3419324 2.7863394,5.6310156 2.9733956,5.839048 Z M 6.4960904,5.1230595 C 6.2993083,6.044901 6.0394026,6.9287623 5.8523503,7.1368187 c -0.1557981,0.173322 -0.363011,0.268769 -0.5834029,0.268769 -0.220441,0 -0.4276073,-0.095431 -0.5834509,-0.2687237 C 4.3637758,6.7789908 4.3637758,6.1967836 4.6854432,5.839048 4.8725993,5.6310156 5.6672719,5.3419324 6.4960904,5.1230595 Z M 4.6854965,9.1717056 C 4.8725993,8.9636613 5.6673732,8.6745207 6.4962943,8.4556598 6.2997134,9.3772032 6.0397557,10.261017 5.8523503,10.469464 c -0.1557981,0.173332 -0.363011,0.268792 -0.5834029,0.268792 -0.220441,0 -0.4276073,-0.09543 -0.5834509,-0.268792 -0.3216715,-0.357771 -0.3216715,-0.9399885 0,-1.2977584 z M 3.8294221,1.5953092 c 0.4469579,0.8066761 0.8250696,1.6359953 0.8250696,1.9302523 0,0.5059825 -0.370157,0.9176658 -0.8250696,0.9176658 -0.4549166,0 -0.8250216,-0.4116833 -0.8250216,-0.9176658 0,-0.2942009 0.378109,-1.1235762 0.8250216,-1.9302523 z M 2.973445,13.80212 c -0.1558435,0.173334 -0.3630592,0.268782 -0.5835042,0.268782 -0.2203879,0 -0.4275542,-0.09543 -0.5833951,-0.268782 -0.1870561,-0.208067 -0.4469644,-1.091917 -0.6437465,-2.01377 0.8288185,0.218872 1.623491,0.507945 1.8105445,0.715944 0.3217687,0.357827 0.3217687,0.940044 1.013e-4,1.297826 z m 2.8789053,0 c -0.1557981,0.173334 -0.363011,0.268782 -0.5834029,0.268782 -0.220441,0 -0.4276073,-0.09543 -0.5834509,-0.268782 C 4.3637758,13.444338 4.3637758,12.862121 4.6854432,12.504339 4.87255,12.296295 5.6673239,12.007154 6.496241,11.788281 6.2997134,12.70987 6.0397557,13.593617 5.8523503,13.80212 Z"
       inkscape:connector-curvature="0" />
    <path
       style="fill:#222222;fill-opacity:1;stroke-width:0.224501"
       d="M 12.850626,4.4351834 V 3.2354521 c 0,-0.212852 -0.113651,-0.385089 -0.254109,-0.385089 -0.140456,0 -0.254111,0.172237 -0.254111,0.385089 V 4.4351834 C 8.3346757,4.635737 8.259698,9.3735621 8.259698,9.4225457 c 0,0.21285 0.1136507,0.3850883 0.2541125,0.3850883 2.6431515,0 3.6844475,-1.8975629 4.0827065,-3.356408 0.398257,1.4588451 1.439551,3.356408 4.082708,3.356408 0.140452,0 0.254108,-0.1722383 0.254108,-0.3850883 0,-0.048985 -0.07497,-4.7868087 -4.082707,-4.9873623 z"
       id="path2119" />
    <path
       style="fill:#222222;fill-opacity:1;stroke-width:0.224501"
       d="m 12.516116,15.974805 c 0.02605,0.01323 0.05335,0.01992 0.0804,0.01992 0.02704,0 0.05435,-0.0068 0.0804,-0.01992 0.03624,-0.01806 0.891367,-0.490115 1.376263,-1.980075 0.04634,-0.142535 0.08458,-0.292026 0.120968,-0.443006 -0.143219,-0.207357 -0.30102,-0.458384 -0.457262,-0.74982 -0.438951,0.564746 -0.842363,0.778598 -0.879189,0.797212 -0.07815,0.03949 -0.159297,0.05941 -0.241186,0.05941 -0.08189,0 -0.163037,-0.01992 -0.241203,-0.05941 -0.03685,-0.01861 -0.440745,-0.232774 -0.880016,-0.798341 -0.15655,0.292719 -0.313014,0.542384 -0.456673,0.749999 0.03644,0.151314 0.07476,0.30114 0.121234,0.443931 0.484891,1.489985 1.340025,1.962052 1.376263,1.9801 z"
       id="path2121" />
    <path
       style="fill:#222222;fill-opacity:1;stroke-width:0.224501"
       d="m 14.996672,13.593826 c 0.09906,0.100641 0.233884,0.08326 0.32062,-0.04813 0.01209,-0.01834 0.778461,-1.180735 1.026032,-2.992859 -0.597126,-0.03784 -1.133043,-0.167873 -1.580043,-0.370044 -0.143587,0.887707 -0.399984,1.568184 -0.68376,2.07229 0.43443,0.834308 0.905734,1.327248 0.917151,1.338748 z"
       id="path2123" />
    <path
       style="fill:#222222;fill-opacity:1;stroke-width:0.224501"
       d="m 8.8497083,10.552857 c 0.2475385,1.811971 1.0138156,2.974554 1.0260297,2.99286 0.086744,0.131441 0.221567,0.148771 0.32062,0.04814 0.0108,-0.01086 0.483471,-0.500129 0.918272,-1.336618 -0.284231,-0.504338 -0.541104,-1.185534 -0.684879,-2.074422 -0.4469789,0.202172 -0.9829172,0.332203 -1.5800427,0.370044 z"
       id="path2125" />
    <path
       style="fill:#222222;fill-opacity:1;stroke-width:0.224501"
       d="m 12.596517,7.9953805 c -0.351113,0.710053 -0.890538,1.4284225 -1.685499,1.929295 0.343289,2.2717415 1.545756,2.9137355 1.605098,2.9437205 0.02605,0.01323 0.05335,0.01992 0.0804,0.01992 0.02704,0 0.05435,-0.0068 0.0804,-0.01992 0.05934,-0.02999 1.26181,-0.671979 1.605096,-2.9437205 -0.794958,-0.5008725 -1.334384,-1.219242 -1.685496,-1.929295 z"
       id="path2127" />
  </g>
</svg>
