<?xml version="1.0" encoding="UTF-8" standalone="no"?>
<svg
   width="64"
   height="64"
   viewBox="0 0 64 64"
   version="1.1"
   xml:space="preserve"
   style="fill-rule:evenodd;clip-rule:evenodd;stroke-linejoin:round;stroke-miterlimit:2;"
   id="svg1"
   sodipodi:docname="malz.svg"
   inkscape:version="1.4.2 (f4327f4, 2025-05-13)"
   xmlns:inkscape="http://www.inkscape.org/namespaces/inkscape"
   xmlns:sodipodi="http://sodipodi.sourceforge.net/DTD/sodipodi-0.dtd"
   xmlns="http://www.w3.org/2000/svg"
   xmlns:svg="http://www.w3.org/2000/svg"
   xmlns:serif="http://www.serif.com/"><defs
   id="defs1" /><sodipodi:namedview
   id="namedview1"
   pagecolor="#ffffff"
   bordercolor="#222222"
   borderopacity="0.25"
   inkscape:showpageshadow="2"
   inkscape:pageopacity="0.0"
   inkscape:pagecheckerboard="0"
   inkscape:deskcolor="#d1d1d1"
   inkscape:zoom="20.053106"
   inkscape:cx="23.886574"
   inkscape:cy="27.003298"
   inkscape:window-width="3840"
   inkscape:window-height="2054"
   inkscape:window-x="-11"
   inkscape:window-y="-11"
   inkscape:window-maximized="1"
   inkscape:current-layer="svg1" />
    <path
   id="path3564-71"
   serif:id="path3564-7"
   d="m 45.898682,27.694204 c -0.438666,-0.494666 -1.066664,-0.714665 -1.678663,-0.589332 -0.092,0.01733 -0.195999,0.03867 -0.306666,0.064 1.334664,-3.430658 2.215995,-8.375979 2.509327,-10.181308 0.112,-0.687998 -0.084,-1.394663 -0.523998,-1.889329 -0.438666,-0.494665 -1.066664,-0.714665 -1.678663,-0.587998 -2.307994,0.139999 -3.79199,0.899998 -5.625319,1.470663 0.270666,-0.827998 0.418666,-1.722663 0.418666,-2.65466 0,-3.4853249 -4.066657,-10.3773076 -5.31332,-12.40663588 -0.353333,-0.57599856 -0.935998,-0.9199977 -1.55733,-0.9199977 -0.622665,0 -1.203997,0.34399914 -1.557329,0.9199977 -1.246664,2.02932828 -5.31332,8.92131098 -5.31332,12.40663588 0,0.931997 0.147999,1.826662 0.418665,2.65466 -2.713326,-1.371997 -2.713326,-1.371997 -5.625319,-1.470663 -0.610665,-0.125333 -1.239997,0.09467 -1.679996,0.589332 -0.438665,0.494665 -0.634665,1.20133 -0.522665,1.889328 0.293332,1.803996 1.174664,6.75065 2.507994,10.181308 -0.109334,-0.02667 -0.213333,-0.04933 -0.305333,-0.064 -0.610665,-0.125333 -1.239997,0.09333 -1.679996,0.589332 -0.438665,0.494666 -0.634665,1.199997 -0.522665,1.887995 0.293332,1.805329 1.174664,6.751984 2.507994,10.182642 -0.109334,-0.02667 -0.213333,-0.05067 -0.305333,-0.06533 -0.611999,-0.125333 -1.239997,0.09467 -1.679996,0.589332 -0.438665,0.494666 -0.634665,1.201331 -0.522665,1.889329 0.394665,2.426661 1.851995,10.53464 4.042656,12.998634 1.29733,1.459996 3.022659,2.262661 4.857322,2.262661 1.246663,0 2.441327,-0.370666 3.486657,-1.065331 v 5.494653 c 0,1.175997 0.847998,2.129328 1.893329,2.129328 1.045331,0 1.893329,-0.953331 1.893329,-2.129328 v -5.495986 c 1.04533,0.695998 2.239994,1.066664 3.486658,1.066664 1.834662,0 3.559991,-0.803998 4.857321,-2.262661 2.190661,-2.463994 3.647991,-10.571973 4.042656,-12.998634 0.112,-0.687998 -0.084,-1.394663 -0.523998,-1.889329 -0.439999,-0.494665 -1.067998,-0.714665 -1.678663,-0.587998 -0.092,0.016 -0.197333,0.03867 -0.306666,0.064 1.334664,-3.430658 2.215995,-8.377313 2.509327,-10.181308 0.112,-0.687998 -0.084,-1.394663 -0.523998,-1.889329 z m -16.954625,11.87597 c -0.582665,0.654665 -1.35733,1.014664 -2.181327,1.014664 -0.823998,0 -1.59733,-0.359999 -2.179995,-1.014664 -0.698665,-0.786665 -1.670663,-4.12799 -2.405327,-7.611981 3.097325,0.827998 6.066651,1.919995 6.765316,2.70666 1.202664,1.351997 1.202664,3.551991 0.0013,4.905321 z m -0.0013,-17.501289 c 1.202664,1.351996 1.202664,3.551991 0.0013,4.905321 -0.582665,0.654665 -1.35733,1.015997 -2.181327,1.015997 -0.823998,0 -1.59733,-0.361332 -2.179995,-1.015997 -0.698665,-0.786665 -1.670663,-4.12799 -2.405327,-7.611981 3.097325,0.827998 6.066651,1.919995 6.765316,2.70666 z m 13.1653,-2.70666 c -0.734664,3.483991 -1.706662,6.825316 -2.405327,7.611981 -0.582665,0.654665 -1.35733,1.015997 -2.179994,1.015997 -0.823998,0 -1.598663,-0.361332 -2.181328,-1.015997 -1.201331,-1.35333 -1.201331,-3.553325 0,-4.905321 0.699998,-0.786665 3.669324,-1.878662 6.766649,-2.70666 z m -6.766649,15.302628 c 0.699998,-0.786665 3.669324,-1.879995 6.767983,-2.70666 -0.734665,3.482658 -1.706663,6.823983 -2.406661,7.611981 -0.582665,0.654665 -1.35733,1.014664 -2.179994,1.014664 -0.823998,0 -1.598663,-0.359999 -2.181328,-1.014664 -1.201331,-1.35333 -1.201331,-3.553324 0,-4.905321 z M 32.142716,6.0289247 c 1.670663,3.0493257 3.082659,6.1839843 3.082659,7.2959813 0,1.911996 -1.382663,3.467992 -3.082659,3.467992 -1.699996,0 -3.083992,-1.555996 -3.083992,-3.467992 0,-1.111997 1.41333,-4.2466556 3.083992,-7.2959813 z M 28.944057,52.164809 c -0.582665,0.655999 -1.35733,1.015998 -2.181327,1.015998 -0.823998,0 -1.59733,-0.359999 -2.179995,-1.015998 -0.698665,-0.785331 -1.670663,-4.126656 -2.405327,-7.610647 3.097325,0.827998 6.066651,1.919995 6.765316,2.70666 1.202664,1.351996 1.202664,3.551991 0.0013,4.903987 z m 10.75864,0 c -0.582665,0.655999 -1.35733,1.015998 -2.179994,1.015998 -0.823998,0 -1.598663,-0.359999 -2.181328,-1.015998 -1.201331,-1.351996 -1.201331,-3.551991 0,-4.903987 0.699998,-0.786665 3.669324,-1.879996 6.766649,-2.70666 -0.733331,3.482658 -1.705329,6.822649 -2.405327,7.610647 z"
   style="fill-rule:nonzero;stroke-width:1.33333;fill:#222222;fill-opacity:1" />
</svg>
