<?xml version="1.0" encoding="UTF-8" standalone="no"?>
<!-- Created with Inkscape (http://www.inkscape.org/) -->

<svg
   width="64"
   height="64"
   viewBox="0 0 16.933333 16.933333"
   version="1.1"
   id="svg716"
   inkscape:version="1.2.2 (732a01da63, 2022-12-09)"
   sodipodi:docname="malz.svg"
   xmlns:inkscape="http://www.inkscape.org/namespaces/inkscape"
   xmlns:sodipodi="http://sodipodi.sourceforge.net/DTD/sodipodi-0.dtd"
   xmlns:xlink="http://www.w3.org/1999/xlink"
   xmlns="http://www.w3.org/2000/svg"
   xmlns:svg="http://www.w3.org/2000/svg">
  <sodipodi:namedview
     id="namedview718"
     pagecolor="#ffffff"
     bordercolor="#000000"
     borderopacity="0.25"
     inkscape:showpageshadow="2"
     inkscape:pageopacity="0.0"
     inkscape:pagecheckerboard="false"
     inkscape:deskcolor="#d1d1d1"
     inkscape:document-units="px"
     showgrid="true"
     showborder="false"
     inkscape:zoom="5.1754899"
     inkscape:cx="38.257248"
     inkscape:cy="30.431902"
     inkscape:window-width="1649"
     inkscape:window-height="1259"
     inkscape:window-x="1645"
     inkscape:window-y="235"
     inkscape:window-maximized="0"
     inkscape:current-layer="layer1">
    <inkscape:grid
       type="xygrid"
       id="grid837"
       spacingx="2.1166666"
       spacingy="2.1166666"
       empspacing="1" />
  </sodipodi:namedview>
  <defs
     id="defs713">
    <radialGradient
       cx="24"
       cy="22"
       r="22"
       fx="24"
       fy="22"
       id="R0-2"
       xlink:href="#G0"
       gradientUnits="userSpaceOnUse"
       gradientTransform="matrix(0.2817776,-0.06248044,0.05635552,0.31240222,0.58727581,3.8721765)" />
    <linearGradient
       id="G0">
      <stop
         id="s1"
         style="stop-color:#e6cf00;stop-opacity:1"
         offset="0" />
      <stop
         id="s2"
         style="stop-color:#fde94a;stop-opacity:1"
         offset="1" />
    </linearGradient>
    <linearGradient
       x1="14.660452"
       y1="7.0243196"
       x2="24.030643"
       y2="34.826122"
       id="G3-44"
       xlink:href="#G1"
       gradientUnits="userSpaceOnUse"
       gradientTransform="matrix(0.2817776,0,0,0.31240222,1.6580318,1.7478425)" />
    <linearGradient
       id="G1">
      <stop
         id="s3"
         style="stop-color:#fcf9fb;stop-opacity:1"
         offset="0" />
      <stop
         id="s4"
         style="stop-color:#fcf9fb;stop-opacity:0"
         offset="1" />
    </linearGradient>
    <linearGradient
       x1="14.660452"
       y1="7.0243196"
       x2="24.030643"
       y2="34.826122"
       id="G3-6-4"
       xlink:href="#G1"
       gradientUnits="userSpaceOnUse"
       gradientTransform="matrix(0.2817554,0,0,0.31255549,1.1984647,1.0799182)" />
  </defs>
  <g
     inkscape:label="Layer 1"
     inkscape:groupmode="layer"
     id="layer1">
    <path
       sodipodi:nodetypes="cccscccscscsccccccscccsccscssscscccccccccsccccccscccccsccccccscccsssccssccccscccc"
       style="fill:#000000;fill-opacity:1;stroke:none;stroke-width:0.224499;stroke-miterlimit:4;stroke-dasharray:none;stroke-opacity:1"
       id="path3564-7"
       d="m 10.449301,7.6318546 c -0.08728,-0.09808 -0.211868,-0.141777 -0.333262,-0.116925 -0.01826,0.0034 -0.03896,0.0078 -0.06072,0.01283 0.264694,-0.680767 0.439668,-1.662305 0.497906,-2.020437 0.0222,-0.136541 -0.01662,-0.276704 -0.103926,-0.374883 -0.08728,-0.0981 -0.211868,-0.141783 -0.333264,-0.116819 -0.4579328,0.02796 -0.7523288,0.178551 -1.1161498,0.291923 0.05362,-0.164352 0.08288,-0.341826 0.08288,-0.52687 0,-0.691545 -0.806898,-2.05925 -1.054196,-2.461954 -0.07015,-0.114228 -0.185682,-0.182406 -0.309144,-0.182406 -0.123423,0 -0.238993,0.06823 -0.309102,0.182401 -0.247301,0.402741 -1.054158,1.770409 -1.054158,2.461953 0,0.185045 0.02927,0.362519 0.08288,0.52687 -0.538184,-0.272147 -0.538184,-0.272147 -1.116153,-0.291848 -0.121316,-0.02487 -0.245985,0.01868 -0.333264,0.116914 -0.08728,0.09818 -0.126089,0.23831 -0.103923,0.374856 0.05823,0.358148 0.233207,1.339633 0.497901,2.020448 -0.02175,-0.0052 -0.04246,-0.0099 -0.06071,-0.01275 -0.121319,-0.02487 -0.245986,0.01868 -0.333264,0.116919 -0.08728,0.09818 -0.126092,0.238313 -0.103926,0.374875 0.05823,0.358142 0.233209,1.339628 0.497867,2.0204454 -0.02172,-0.0052 -0.04242,-0.0099 -0.06068,-0.01283 -0.121319,-0.02487 -0.245985,0.01868 -0.333266,0.116925 -0.08728,0.0982 -0.12609,0.238313 -0.103923,0.374869 0.0783,0.481518 0.36749,2.090381 0.802238,2.57937 0.257518,0.289619 0.599836,0.449144 0.963985,0.449144 0.247261,0 0.484378,-0.07364 0.691774,-0.211564 v 1.090383 c 0,0.233373 0.168249,0.422621 0.375719,0.422621 0.207513,0 0.375722,-0.189248 0.375722,-0.422621 v -1.090486 c 0.207436,0.137893 0.444553,0.211619 0.691814,0.211619 0.364148,0 0.706503,-0.159512 0.963983,-0.449149 0.4347098,-0.488984 0.7239418,-2.097907 0.8022398,-2.579356 0.0222,-0.136599 -0.01662,-0.276717 -0.103926,-0.374878 -0.08728,-0.09808 -0.211867,-0.1417934 -0.333261,-0.116803 -0.01828,0.0034 -0.03896,0.0078 -0.06068,0.01283 0.264655,-0.6807804 0.439629,-1.6623104 0.497867,-2.0204484 0.0222,-0.136543 -0.01662,-0.276669 -0.103886,-0.374883 z m -3.3646478,2.356567 c -0.115573,0.1300034 -0.26924,0.2015964 -0.432719,0.2015964 -0.163435,0 -0.317068,-0.07158 -0.432638,-0.2015964 -0.138719,-0.156023 -0.331465,-0.818947 -0.477393,-1.510324 0.61464,0.16415 1.203957,0.380973 1.342673,0.536967 0.23862,0.268364 0.23862,0.705029 7.7e-5,0.973357 z m -3.8e-5,-3.472818 c 0.238581,0.26833 0.238581,0.704993 3.8e-5,0.973328 -0.115573,0.129995 -0.26924,0.201581 -0.432719,0.201581 -0.163435,0 -0.317068,-0.07158 -0.432638,-0.201547 -0.138719,-0.156072 -0.331465,-0.818972 -0.477393,-1.510355 0.61468,0.164155 1.203994,0.380968 1.342712,0.536993 z m 2.61238,-0.536993 c -0.145928,0.691383 -0.338669,1.354283 -0.477388,1.510321 -0.115535,0.129995 -0.269203,0.201581 -0.432641,0.201581 -0.163476,0 -0.317109,-0.07158 -0.432679,-0.201547 -0.238585,-0.268404 -0.238585,-0.705059 -3.9e-5,-0.973362 0.13879,-0.156025 0.728107,-0.372838 1.342747,-0.536993 z m -1.342708,3.036491 c 0.138751,-0.156031 0.728144,-0.372888 1.342861,-0.537036 -0.14578,0.691161 -0.338563,1.354021 -0.477541,1.510356 -0.115535,0.1300034 -0.269203,0.2015964 -0.432641,0.2015964 -0.163476,0 -0.317109,-0.07158 -0.432679,-0.2015964 -0.238548,-0.268328 -0.238548,-0.704993 0,-0.97332 z m -0.634857,-5.682311 c 0.331462,0.605009 0.611862,1.227 0.611862,1.447694 0,0.379489 -0.274502,0.68825 -0.611862,0.68825 -0.337357,0 -0.611822,-0.308761 -0.611822,-0.68825 0,-0.220652 0.2804,-0.842685 0.611822,-1.447694 z m -0.634777,9.1551284 c -0.115573,0.130003 -0.26924,0.201589 -0.432719,0.201589 -0.163435,0 -0.317068,-0.07158 -0.432638,-0.201589 -0.138719,-0.156048 -0.331465,-0.818938 -0.477393,-1.510331 0.61464,0.164155 1.203957,0.380957 1.342673,0.536961 0.23862,0.268372 0.23862,0.705032 7.7e-5,0.97337 z m 2.134954,0 c -0.115535,0.130003 -0.269203,0.201589 -0.432641,0.201589 -0.163476,0 -0.317109,-0.07158 -0.432679,-0.201589 -0.238585,-0.268338 -0.238585,-0.704998 -3.9e-5,-0.973333 0.138752,-0.156041 0.728146,-0.372891 1.342861,-0.537046 -0.145741,0.691192 -0.338524,1.354005 -0.477502,1.510379 z"
       inkscape:connector-curvature="0" />
  </g>
</svg>
