<?xml version="1.0" encoding="UTF-8" standalone="no"?>
<svg
   width="64"
   height="64"
   viewBox="0 0 64 64"
   version="1.1"
   xml:space="preserve"
   style="fill-rule:evenodd;clip-rule:evenodd;stroke-linecap:round;stroke-linejoin:round;"
   id="svg1"
   sodipodi:docname="pdf.svg"
   inkscape:version="1.4.2 (f4327f4, 2025-05-13)"
   xmlns:inkscape="http://www.inkscape.org/namespaces/inkscape"
   xmlns:sodipodi="http://sodipodi.sourceforge.net/DTD/sodipodi-0.dtd"
   xmlns="http://www.w3.org/2000/svg"
   xmlns:svg="http://www.w3.org/2000/svg"><defs
   id="defs1" /><sodipodi:namedview
   id="namedview1"
   pagecolor="#ffffff"
   bordercolor="#222222"
   borderopacity="0.25"
   inkscape:showpageshadow="2"
   inkscape:pageopacity="0.0"
   inkscape:pagecheckerboard="0"
   inkscape:deskcolor="#d1d1d1"
   inkscape:zoom="28.359375"
   inkscape:cx="37.659504"
   inkscape:cy="32"
   inkscape:window-width="3840"
   inkscape:window-height="2054"
   inkscape:window-x="-11"
   inkscape:window-y="-11"
   inkscape:window-maximized="1"
   inkscape:current-layer="svg1" />
    <g
   id="path6456-6-3"
   transform="matrix(1.1837589,0,0,0.98348763,-5.8802848,0.48365586)"
   style="stroke-width:6.02417;stroke-dasharray:none">
            <path
   d="M 8,51.667 V 61.5 H 56 V 51.667 M 56,12.333 V 2.5 H 8 v 9.833"
   style="fill:none;fill-rule:nonzero;stroke:#222222;stroke-width:6.02417;stroke-dasharray:none"
   id="path1" />
        </g><path
   id="path8146-7"
   d="m 20.223,28.426 c 0,0.868 -0.152,1.719 -0.456,2.552 -0.304,0.825 -0.738,1.519 -1.302,2.083 -0.773,0.764 -1.636,1.341 -2.591,1.732 -0.947,0.391 -2.127,0.586 -3.542,0.586 H 9.22 v 6.315 h -5 V 22.306 h 8.229 c 1.233,0 2.27,0.108 3.112,0.325 0.851,0.209 1.602,0.526 2.253,0.951 0.781,0.512 1.376,1.168 1.784,1.966 0.416,0.799 0.625,1.758 0.625,2.878 z m -5.17,0.117 c 0,-0.547 -0.147,-1.016 -0.442,-1.406 -0.295,-0.4 -0.638,-0.677 -1.029,-0.834 -0.521,-0.208 -1.029,-0.321 -1.523,-0.338 -0.495,-0.026 -1.155,-0.039 -1.98,-0.039 H 9.22 v 5.807 h 1.432 c 0.851,0 1.55,-0.052 2.097,-0.156 0.555,-0.104 1.02,-0.313 1.393,-0.625 0.321,-0.278 0.551,-0.608 0.69,-0.99 0.148,-0.39 0.221,-0.864 0.221,-1.419 z"
   style="fill-rule:nonzero;stroke:#222222;stroke-width:2px;stroke-linecap:butt;stroke-miterlimit:2;fill:#222222;fill-opacity:1" /><path
   id="path8148-3"
   d="m 42.072,32.02 c 0,1.805 -0.413,3.424 -1.237,4.856 -0.825,1.424 -1.867,2.518 -3.125,3.282 -0.947,0.572 -1.984,0.972 -3.112,1.197 -1.129,0.226 -2.466,0.339 -4.011,0.339 H 23.751 V 22.306 h 7.032 c 1.579,0 2.942,0.135 4.088,0.404 1.146,0.26 2.109,0.633 2.891,1.119 1.337,0.816 2.387,1.919 3.151,3.308 0.772,1.38 1.159,3.008 1.159,4.883 z m -5.17,-0.04 c 0,-1.276 -0.234,-2.365 -0.703,-3.268 -0.46,-0.911 -1.193,-1.623 -2.2,-2.135 -0.512,-0.252 -1.038,-0.421 -1.576,-0.508 -0.529,-0.096 -1.332,-0.143 -2.409,-0.143 h -1.263 v 12.135 h 1.263 c 1.19,0 2.062,-0.052 2.618,-0.156 0.555,-0.113 1.098,-0.313 1.627,-0.599 0.912,-0.521 1.58,-1.215 2.005,-2.083 0.426,-0.877 0.638,-1.958 0.638,-3.243 z"
   style="fill-rule:nonzero;stroke:#222222;stroke-width:2px;stroke-linecap:butt;stroke-miterlimit:2;fill:#222222;fill-opacity:1" /><path
   id="path8150-9"
   d="m 59.78,26.056 h -8.919 v 3.607 h 8.268 v 3.75 h -8.268 v 8.281 H 45.887 V 22.306 H 59.78 Z"
   style="fill-rule:nonzero;stroke:#222222;stroke-width:2px;stroke-linecap:butt;stroke-miterlimit:2;fill:#222222;fill-opacity:1" />
</svg>
