<?xml version="1.0" encoding="UTF-8" standalone="no"?>
<svg
   width="64"
   height="64"
   viewBox="0 0 64 64"
   version="1.1"
   xml:space="preserve"
   style="fill-rule:evenodd;clip-rule:evenodd;stroke-linejoin:round;stroke-miterlimit:2;"
   id="svg2"
   sodipodi:docname="tags.svg"
   inkscape:version="1.4.2 (f4327f4, 2025-05-13)"
   xmlns:inkscape="http://www.inkscape.org/namespaces/inkscape"
   xmlns:sodipodi="http://sodipodi.sourceforge.net/DTD/sodipodi-0.dtd"
   xmlns="http://www.w3.org/2000/svg"
   xmlns:svg="http://www.w3.org/2000/svg"><defs
   id="defs2" /><sodipodi:namedview
   id="namedview2"
   pagecolor="#ffffff"
   bordercolor="#222222"
   borderopacity="0.25"
   inkscape:showpageshadow="2"
   inkscape:pageopacity="0.0"
   inkscape:pagecheckerboard="0"
   inkscape:deskcolor="#d1d1d1"
   inkscape:zoom="14.179688"
   inkscape:cx="-0.77575755"
   inkscape:cy="19.852341"
   inkscape:window-width="3840"
   inkscape:window-height="2054"
   inkscape:window-x="-11"
   inkscape:window-y="-11"
   inkscape:window-maximized="1"
   inkscape:current-layer="svg2" />
    <path
   d="m 61.60675,29.530231 c 1.522663,1.471997 2.383995,3.479992 2.393328,5.57732 0.008,2.098661 -0.838665,4.113323 -2.349328,5.597319 -4.046656,3.97199 -9.450643,9.275977 -13.473299,13.226634 -3.109326,3.050659 -8.142647,3.081325 -11.290639,0.06667 C 28.989499,46.431522 15.189533,33.210222 11.04821,29.240899 10.276212,28.500901 9.8388799,27.486236 9.8388799,26.426239 V 3.3276302 H 32.852156 c 1.05333,0 2.063995,0.4053323 2.813326,1.1306638 4.09599,3.9586568 17.971955,17.367957 25.941268,25.071937 z M 15.1842,8.5742837 V 24.244911 c 0,1.063998 0.439999,2.082662 1.21733,2.823993 4.101323,3.910657 17.49729,16.683958 23.366608,22.281278 1.551997,1.478663 4.026657,1.461329 5.555987,-0.04133 3.190658,-3.129326 8.414645,-8.25998 11.63997,-11.425305 0.750665,-0.737332 1.170664,-1.737329 1.165331,-2.781327 -0.004,-1.042664 -0.433332,-2.039994 -1.191997,-2.770659 C 50.982777,26.595572 37.498811,13.600938 33.450821,9.7022809 32.701489,8.9782827 31.692159,8.5742837 30.642828,8.5742837 Z m 10.567973,3.2306583 c 2.339995,0.02 4.610656,1.334664 5.70132,3.349325 0.946664,1.745329 1.002664,3.918657 0.157332,5.714653 -1.11733,2.377327 -3.809323,3.962656 -6.523983,3.685324 -2.729327,-0.278666 -5.210654,-2.407994 -5.751986,-5.111987 -0.395999,-1.971996 0.216,-4.113323 1.621329,-5.575986 1.201331,-1.250664 2.913326,-2.031995 4.670655,-2.059995 0.04133,-0.0013 0.08267,-0.0013 0.125333,-0.0013 z m -0.01067,3.303992 c -1.47733,0.01067 -2.86266,1.114664 -3.130659,2.573327 -0.09333,0.503999 -0.05867,1.030664 0.12,1.51333 0.525332,1.415996 2.165328,2.375994 3.693324,2.015994 1.522663,-0.359999 2.669326,-1.953328 2.407994,-3.502657 -0.236,-1.402664 -1.530663,-2.575994 -3.033326,-2.599994 z"
   id="path1"
   style="stroke-width:1.33333;fill:#222222;fill-opacity:1" /><path
   d="M 9.8388799,6.7569549 V 12.004942 H 5.3455578 v 15.670627 c 0,1.063998 0.4386656,2.082662 1.2146636,2.823993 4.1026566,3.910657 17.4986226,16.682625 23.3679416,22.279945 1.551996,1.479996 4.026657,1.461329 5.555986,-0.04 l 0.04533,-0.044 1.35733,1.302663 c 0.886665,0.846665 1.921329,1.454663 3.019993,1.821329 l -1.56933,1.541329 C 35.226816,60.412821 30.194829,60.443487 27.04817,57.427495 19.149523,49.859514 5.3508911,36.639547 1.2082348,32.671557 0.43623673,31.930225 2.3782e-4,30.915561 2.3782e-4,29.855564 V 6.7569549 Z"
   id="path2"
   style="stroke-width:1.33333;fill:#222222;fill-opacity:1" />
</svg>
