<?xml version="1.0" encoding="UTF-8" standalone="no"?>
<!-- Created with Inkscape (http://www.inkscape.org/) -->

<svg
   width="64"
   height="64"
   viewBox="0 0 16.933333 16.933333"
   version="1.1"
   id="svg716"
   inkscape:version="1.2.2 (732a01da63, 2022-12-09)"
   sodipodi:docname="zusaetze.svg"
   xmlns:inkscape="http://www.inkscape.org/namespaces/inkscape"
   xmlns:sodipodi="http://sodipodi.sourceforge.net/DTD/sodipodi-0.dtd"
   xmlns:xlink="http://www.w3.org/1999/xlink"
   xmlns="http://www.w3.org/2000/svg"
   xmlns:svg="http://www.w3.org/2000/svg">
  <sodipodi:namedview
     id="namedview718"
     pagecolor="#ffffff"
     bordercolor="#000000"
     borderopacity="0.25"
     inkscape:showpageshadow="2"
     inkscape:pageopacity="0.0"
     inkscape:pagecheckerboard="false"
     inkscape:deskcolor="#d1d1d1"
     inkscape:document-units="px"
     showgrid="true"
     showborder="false"
     inkscape:zoom="5.1754899"
     inkscape:cx="38.257248"
     inkscape:cy="30.431902"
     inkscape:window-width="1649"
     inkscape:window-height="1259"
     inkscape:window-x="1645"
     inkscape:window-y="235"
     inkscape:window-maximized="0"
     inkscape:current-layer="layer1">
    <inkscape:grid
       type="xygrid"
       id="grid837"
       spacingx="2.1166666"
       spacingy="2.1166666"
       empspacing="1" />
  </sodipodi:namedview>
  <defs
     id="defs713">
    <radialGradient
       cx="24"
       cy="22"
       r="22"
       fx="24"
       fy="22"
       id="R0-2"
       xlink:href="#G0"
       gradientUnits="userSpaceOnUse"
       gradientTransform="matrix(0.2817776,-0.06248044,0.05635552,0.31240222,0.58727581,3.8721765)" />
    <linearGradient
       id="G0">
      <stop
         id="s1"
         style="stop-color:#e6cf00;stop-opacity:1"
         offset="0" />
      <stop
         id="s2"
         style="stop-color:#fde94a;stop-opacity:1"
         offset="1" />
    </linearGradient>
    <linearGradient
       x1="14.660452"
       y1="7.0243196"
       x2="24.030643"
       y2="34.826122"
       id="G3-44"
       xlink:href="#G1"
       gradientUnits="userSpaceOnUse"
       gradientTransform="matrix(0.2817776,0,0,0.31240222,1.6580318,1.7478425)" />
    <linearGradient
       id="G1">
      <stop
         id="s3"
         style="stop-color:#fcf9fb;stop-opacity:1"
         offset="0" />
      <stop
         id="s4"
         style="stop-color:#fcf9fb;stop-opacity:0"
         offset="1" />
    </linearGradient>
    <linearGradient
       x1="14.660452"
       y1="7.0243196"
       x2="24.030643"
       y2="34.826122"
       id="G3-6-4"
       xlink:href="#G1"
       gradientUnits="userSpaceOnUse"
       gradientTransform="matrix(0.2817554,0,0,0.31255549,1.1984647,1.0799182)" />
  </defs>
  <g
     inkscape:label="Layer 1"
     inkscape:groupmode="layer"
     id="layer1">
    <path
       fill="#000000"
       d="m 11.060744,1.6567754 c -0.04267,0.231971 -0.205592,0.479946 -0.426702,0.639924 -0.143528,0.103986 -0.48101,0.275971 -0.7098772,0.351959 -0.0931,0.032 -0.391789,0.127984 -0.671089,0.211976 -0.562464,0.171979 -0.884436,0.283967 -1.144333,0.403953 -1.272347,0.575932 -1.873613,1.555816 -1.951191,3.187631 l -0.01167,0.275968 -0.128014,-0.155985 c -0.217231,-0.263967 -0.570227,-0.543935 -0.977535,-0.779907 -0.236622,-0.135985 -0.523679,-0.267967 -1.113305,-0.519938 -0.539197,-0.227975 -0.791337,-0.355962 -1.008568,-0.503946 -0.352997,-0.239969 -0.539192,-0.523939 -0.574109,-0.863897 -0.0155,-0.143986 -0.01942,-0.139983 -0.0931,0.05599 -0.353,0.923891 -0.131893,2.279737 0.543073,3.323614 0.752546,1.163862 1.88137,1.763794 3.134317,1.679802 0.345245,-0.02397 0.329727,-0.01598 0.314212,-0.147981 -0.03491,-0.291968 -0.22111,-0.607928 -0.585748,-0.983888 -0.267658,-0.275963 -0.562467,-0.515937 -0.927105,-0.763907 -0.124132,-0.08399 -0.240504,-0.159983 -0.259901,-0.175985 -0.01942,-0.01199 0.08922,0.04 0.236628,0.119986 0.849524,0.443952 1.508969,1.007885 1.710687,1.451837 0.08146,0.175975 0.09698,0.319961 0.07758,0.623927 -0.05042,0.715913 -0.248261,1.2558476 -0.601263,1.6358046 l -0.112495,0.119989 h 0.240503 0.244388 l 0.07758,-0.123986 c 0.259895,-0.407948 0.399542,-1.0638766 0.399542,-1.8757796 0,-0.583933 -0.05043,-0.955889 -0.197834,-1.371841 -0.108612,-0.311967 -0.155163,-0.747916 -0.124132,-1.175866 0.02328,-0.327962 0.05043,-0.42795 0.170688,-0.607928 0.263773,-0.40795 0.899948,-0.839901 1.796026,-1.211858 0.356875,-0.147984 0.364635,-0.147984 0.04654,0.024 -0.6866,0.359958 -1.194764,0.739913 -1.470179,1.091872 -0.128011,0.163986 -0.2599,0.419954 -0.275418,0.539938 -0.0078,0.07599 -0.0078,0.07999 0.06207,0.09599 0.275415,0.07599 0.411183,0.08799 0.845642,0.08799 0.481016,0 0.6129,-0.02 0.989177,-0.147984 0.213347,-0.06799 0.647808,-0.287965 0.834009,-0.415947 0.356875,-0.247972 0.7447892,-0.62793 0.9969292,-0.975886 0.628417,-0.8759 0.938744,-1.975773 0.795216,-2.839672 -0.02715,-0.15598 -0.0931,-0.411951 -0.108615,-0.411951 -0.0155,0.01199 -0.03103,0.06799 -0.04267,0.131982 z"
       id="path109266"
       style="stroke-width:0.0415203" />
    <path
       fill="#000000"
       d="m 8.1244988,6.9163664 c -0.09096,0.02749 -0.212244,0.137488 -0.257728,0.232204 -0.03638,0.07333 -0.03638,0.08554 -0.04245,0.55301 -0.0061,0.522468 0.003,0.601906 0.07277,0.711896 l 0.04245,0.06722 -0.285015,0.433856 c -0.309271,0.464413 -0.321402,0.491911 -0.263792,0.580515 0.02729,0.03972 0.148574,0.103883 0.333531,0.1711 l 0.094,0.03666 0.006,1.7445986 c 0.0061,1.643774 0.0061,1.747652 0.03336,1.827093 0.106122,0.32081 0.34262,0.559128 0.654926,0.653844 0.08793,0.0275 0.20315,0.0275 2.4286952,0.0275 2.22555,0 2.340763,-0.003 2.428695,-0.0275 0.312306,-0.09777 0.551844,-0.333034 0.654931,-0.653844 0.02729,-0.07944 0.03032,-0.189431 0.03638,-1.839315 l 0.0061,-1.7537636 0.172826,-0.0611 c 0.09703,-0.03361 0.194054,-0.07333 0.218313,-0.09166 0.04548,-0.03361 0.06974,-0.109993 0.05155,-0.174152 -0.0061,-0.02138 -0.151606,-0.210822 -0.327466,-0.424693 l -0.318368,-0.384972 0.05154,-0.04583 c 0.03032,-0.0275 0.07277,-0.08555 0.094,-0.134434 l 0.04245,-0.08861 v -0.525519 c 0,-0.525518 0,-0.528574 -0.03639,-0.6019 -0.04851,-0.100825 -0.166759,-0.204711 -0.263787,-0.232204 -0.109157,-0.03361 -5.5183882,-0.03361 -5.6275422,0 z m 5.5790272,0.326916 0.03942,0.03667 v 0.473578 0.473578 l -0.03942,0.03666 -0.03638,0.03972 H 10.941305 8.2154638 l -0.03638,-0.03972 -0.03942,-0.03666 v -0.473578 c 0,-0.470522 0,-0.473578 0.03639,-0.504134 0.0182,-0.01831 0.04851,-0.03666 0.06367,-0.03972 0.0182,-0.0061 1.243153,-0.0061 2.7288702,-0.0061 l 2.69552,0.003 z m 0.115221,1.738493 c 0.160698,0.195538 0.291079,0.354417 0.288047,0.360529 -0.01215,0.01222 -0.412364,0.116097 -0.521518,0.137488 -0.542745,0.100828 -1.036971,0.04583 -1.38263,-0.155824 -0.139475,-0.08249 -0.172826,-0.08249 -0.4063,0.01831 -0.382039,0.158877 -0.624607,0.216924 -0.927814,0.21387 -0.294111,-0.003 -0.494231,-0.05499 -0.812594,-0.21387 -0.09097,-0.04583 -0.1819272,-0.0825 -0.2092192,-0.0825 -0.02424,0 -0.09702,0.02442 -0.160697,0.05499 -0.433589,0.192487 -0.918721,0.253595 -1.406888,0.174157 -0.07883,-0.01222 -0.172826,-0.03667 -0.209214,-0.05194 -0.03638,-0.01527 -0.08186,-0.03055 -0.100057,-0.03055 -0.06367,0 -0.224375,-0.06416 -0.212246,-0.08249 0.0061,-0.01222 0.112191,-0.171098 0.2365,-0.360529 l 0.22438,-0.339143 h 2.6530642 2.656105 z m -3.583921,0.776055 c 0.0758,0.0275 0.194053,0.05805 0.266824,0.07332 0.07277,0.01529 0.133414,0.03055 0.133414,0.03055 0.003,0 -0.0182,0.04278 -0.04548,0.08861 l -0.05155,0.08555 H 10.092317 9.6526658 l -0.04851,0.03972 c -0.02729,0.02138 -0.154635,0.219985 -0.285017,0.439967 -0.187986,0.314701 -0.239532,0.412475 -0.239532,0.458301 0,0.04889 0.03942,0.125269 0.245599,0.473578 0.148574,0.250539 0.26379,0.427749 0.288047,0.443023 0.03638,0.02442 0.094,0.0275 0.4851342,0.03055 l 0.445712,0.0061 0.212249,0.354423 c 0.11825,0.19554 0.227407,0.369694 0.245597,0.388027 0.03336,0.03055 0.05761,0.03055 0.563967,0.03055 h 0.530614 l 0.03639,-0.03972 c 0.02122,-0.02138 0.145539,-0.219982 0.275918,-0.443023 0.187991,-0.314698 0.239535,-0.415526 0.239535,-0.458301 0,-0.04277 -0.04851,-0.134435 -0.215278,-0.418584 -0.178893,-0.299418 -0.212246,-0.366638 -0.200118,-0.394134 0.0091,-0.01834 0.106124,-0.183322 0.215278,-0.366641 0.109154,-0.183322 0.200118,-0.345255 0.200118,-0.360529 0.0061,-0.055 -0.0061,-0.08861 -0.03942,-0.149709 -0.03639,-0.06111 -0.04245,-0.06417 -0.127347,-0.07333 -0.109156,-0.01222 -0.239538,-0.05499 -0.318373,-0.103878 -0.03335,-0.02138 -0.04851,-0.02445 -0.04245,-0.01222 0.0091,0.01222 0.05154,0.07944 0.09703,0.1497136 0.04549,0.07027 0.0849,0.137491 0.08793,0.146654 0.0061,0.01222 -0.0758,0.158877 -0.175861,0.329977 l -0.184957,0.308587 h -0.37901 -0.379008 l -0.184959,-0.31164 c -0.100058,-0.171101 -0.184957,-0.314703 -0.184957,-0.320813 0,-0.0061 0.04245,-0.07944 0.09096,-0.161932 l 0.09096,-0.1527676 0.124315,-0.01831 c 0.251661,-0.03667 0.563964,-0.128323 0.806532,-0.235263 l 0.08793,-0.03972 0.0667,0.03666 c 0.172831,0.09777 0.421463,0.174151 0.670094,0.207759 0.260758,0.03362 0.745892,0.0061 0.958133,-0.05499 0.02426,-0.0092 0.0273,0.07333 0.02426,1.6987706 l -0.0061,1.707933 -0.04852,0.103883 c -0.06367,0.134438 -0.172829,0.244425 -0.306239,0.308589 l -0.10309,0.04888 H 10.94125 8.6065448 l -0.103089,-0.04888 c -0.133358,-0.06414 -0.242512,-0.174131 -0.306186,-0.308569 l -0.04851,-0.103883 -0.0061,-1.692656 -0.003,-1.6926616 0.06367,0.01222 c 0.536678,0.08861 1.106709,0.02442 1.549394,-0.177207 l 0.0849,-0.03972 0.130381,0.06416 c 0.07277,0.03666 0.1910192,0.0886 0.2668222,0.113046 z m 0.491199,0.9043796 0.187986,0.314698 -0.184957,0.311645 -0.184957,0.311644 -0.38204,-0.003 -0.3820392,-0.0061 -0.178896,-0.299424 c -0.09703,-0.164991 -0.178892,-0.305538 -0.178892,-0.317757 0,-0.0092 0.08186,-0.155821 0.184956,-0.323863 l 0.181928,-0.308591 H 10.16509 l 0.375978,0.003 z m 1.409917,0.782164 c 0.09702,0.168042 0.17889,0.308588 0.17889,0.317756 -0.003,0.0092 -0.08187,0.149712 -0.17889,0.314698 l -0.178893,0.299424 H 11.56894 11.180833 l -0.17889,-0.299424 c -0.09703,-0.164986 -0.178893,-0.305533 -0.178893,-0.311642 0,-0.01222 0.321403,-0.562181 0.354756,-0.604959 0.01214,-0.01529 0.109154,-0.01831 0.3972,-0.01831 l 0.382043,0.003 z"
       id="path110741"
       style="stroke:#000000;stroke-width:0.529169;stroke-dasharray:none;stroke-opacity:1" />
  </g>
</svg>
