<?xml version="1.0" encoding="UTF-8" standalone="no"?>
<svg
   width="64"
   height="64"
   viewBox="0 0 64 64"
   version="1.1"
   xml:space="preserve"
   style="fill-rule:evenodd;clip-rule:evenodd;"
   id="svg1"
   sodipodi:docname="zusatz.svg"
   inkscape:version="1.4.2 (f4327f4, 2025-05-13)"
   xmlns:inkscape="http://www.inkscape.org/namespaces/inkscape"
   xmlns:sodipodi="http://sodipodi.sourceforge.net/DTD/sodipodi-0.dtd"
   xmlns="http://www.w3.org/2000/svg"
   xmlns:svg="http://www.w3.org/2000/svg"><defs
   id="defs1">
        
        
    </defs><sodipodi:namedview
   id="namedview1"
   pagecolor="#ffffff"
   bordercolor="#222222"
   borderopacity="0.25"
   inkscape:showpageshadow="2"
   inkscape:pageopacity="0.0"
   inkscape:pagecheckerboard="0"
   inkscape:deskcolor="#d1d1d1"
   inkscape:zoom="14.179688"
   inkscape:cx="60.121212"
   inkscape:cy="46.087052"
   inkscape:window-width="3840"
   inkscape:window-height="2054"
   inkscape:window-x="-11"
   inkscape:window-y="-11"
   inkscape:window-maximized="1"
   inkscape:current-layer="svg1" />
    <path
   id="path110741"
   d="M 6.9850411,3.5011342 C 6.6720494,4.1373524 6.6720494,4.2453038 6.6198847,8.3014898 6.5677181,12.837713 6.6471082,13.52676 7.2435986,14.482237 l 0.3651547,0.583391 -3.7849002,3.83731 c -2.6490785,4.030923 -2.7534097,4.269792 -2.2612424,5.039227 0.2358761,0.344523 2.7556332,1.182448 4.3409987,1.768139 l 0.8051574,0.31696 0.052167,15.145239 c 0.052166,14.270153 0.052166,15.170506 0.2857744,15.859553 0.9094868,2.786044 2.937121,4.85548 5.6134158,5.677742 0.755262,0.238871 0.26087,-0.04322 19.339684,-0.04322 19.076549,0 18.725472,0.113467 19.478464,-0.09782 2.676297,-0.849824 4.731148,-2.891698 5.613418,-5.677742 0.235877,-0.689047 0.260825,-1.644524 0.31299,-15.965204 l 0.05216,-15.225629 1.481034,-0.530568 c 0.832373,-0.291695 3.004692,-0.777266 3.211082,-0.935746 0.390106,-0.291697 0.598765,-0.955478 0.442272,-1.511308 -0.05216,-0.186045 -1.299592,-1.830568 -2.807845,-3.686399 l -4.421018,-3.341876 0.442268,-0.399646 c 0.260828,-0.238868 0.623716,-0.741873 0.80516,-1.166785 l 0.365156,-0.769435 V 8.796925 c 0,-7.94268724 0,-4.5890492 -0.312992,-5.2252674 C 56.246907,2.6965675 55.233088,1.7962134 54.400716,1.557345 53.466279,1.2656482 10.128557,1.1951248 9.5263885,1.4385882 8.9242204,1.6820515 7.3751451,2.6788706 6.9850411,3.5011342 Z M 54.427385,13.592443 9.2911533,13.558132 9.3295159,3.9848591 54.343369,3.886955 Z m 2.237438,5.89389 c 1.378973,1.69735 2.494852,3.075443 2.469903,3.12827 -0.104332,0.107949 -3.535886,1.008304 -4.470322,1.194346 -4.651765,0.87509 -8.888476,0.39735 -11.852814,-1.352826 -1.195262,-0.716609 -1.481036,-0.716609 -3.481453,0.158485 -3.27506,1.380389 -5.354861,1.883393 -7.954043,1.858129 -2.522069,-0.02757 -4.236713,-0.47774 -6.965174,-1.858129 -0.780207,-0.397351 -1.560416,-0.71431 -1.794026,-0.71431 -0.20866,0 -0.832373,0.211307 -1.376705,0.475441 -3.717328,1.672086 -7.876928,2.202652 -12.0614751,1.513604 -0.6758786,-0.107949 -1.481036,-0.319257 -1.794026,-0.452474 -0.3107222,-0.130915 -0.7008262,-0.264134 -0.857322,-0.264134 -0.5443321,0 -1.9233048,-0.558127 -1.8189736,-0.716607 0.052166,-0.105657 0.9616515,-1.486045 2.0276342,-3.130567 l 1.9233046,-2.94223 H 52.477409 Z m -15.438599,5.144873 0.571548,0.319259 c 1.481035,0.847526 3.612999,1.511308 5.744965,1.803005 2.234027,0.291694 5.05368,0.193867 6.872655,-0.336693 0.20866,-0.08038 0.233608,0.63622 0.20866,14.74789 l -0.532989,15.8607 c -0.480825,1.034718 -1.417529,1.987899 -2.431347,2.479419 l -39.205985,0.141048 c -1.013817,-0.491519 -1.950521,-1.4447 -2.431347,-2.479418 L 9.4893918,41.436635 9.4644494,26.743869 10.011049,26.849526 c 4.599601,0.769436 8.00625,-0.07079 11.800695,-1.820965 l 0.728042,-0.344522 1.115879,0.558127 c 6.25883,3.053209 11.385599,2.214755 17.570559,-0.61096 z"
   style="fill-rule:nonzero;stroke:#222222;stroke-width:2.66427px"
   sodipodi:nodetypes="cccccccccccsccccccccccccsccccccccccccccccscccsccccccccccccccccccccc" />
</svg>
