<?xml version="1.0" encoding="UTF-8" standalone="no"?>
<svg
   xmlns:dc="http://purl.org/dc/elements/1.1/"
   xmlns:cc="http://creativecommons.org/ns#"
   xmlns:rdf="http://www.w3.org/1999/02/22-rdf-syntax-ns#"
   xmlns:svg="http://www.w3.org/2000/svg"
   xmlns="http://www.w3.org/2000/svg"
   xmlns:sodipodi="http://sodipodi.sourceforge.net/DTD/sodipodi-0.dtd"
   xmlns:inkscape="http://www.inkscape.org/namespaces/inkscape"
   sodipodi:docname="pdf.svg"
   inkscape:version="1.0 (4035a4fb49, 2020-05-01)"
   id="svg4450"
   version="1.1"
   viewBox="0 0 64 64"
   height="64"
   width="64"
   shape-rendering="crispEdges">
  <defs
     id="defs4444" />
  <sodipodi:namedview
     units="px"
     showgrid="true"
     borderopacity="1.0"
     bordercolor="#666666"
     pagecolor="#ffffff"
     id="base"
     showborder="true"
     inkscape:showpageshadow="false"
     inkscape:document-rotation="0"
     inkscape:zoom="20.395611"
     inkscape:cx="40.330287"
     inkscape:cy="18.742225"
     inkscape:window-width="3840"
     inkscape:window-height="2066"
     inkscape:window-x="-11"
     inkscape:window-y="-11"
     inkscape:window-maximized="1"
     inkscape:current-layer="text2792">
    <inkscape:grid
       id="grid5013"
       type="xygrid"
       empspacing="4" />
  </sodipodi:namedview>
  <metadata
     id="metadata4447">
    <rdf:RDF>
      <cc:Work
         rdf:about="">
        <dc:format>image/svg+xml</dc:format>
        <dc:type
           rdf:resource="http://purl.org/dc/dcmitype/StillImage" />
        <dc:title />
      </cc:Work>
    </rdf:RDF>
  </metadata>
  <g
     id="layer1"
     inkscape:groupmode="layer"
     inkscape:label="Layer 1">
    <path
       sodipodi:nodetypes="cccccccc"
       id="path6456"
       d="m 12,48 v 8 H 52 V 48 M 46,16 40,8 H 12 v 8"
       style="fill:none;fill-opacity:1;stroke:#808080;stroke-width:5;stroke-linecap:round;stroke-linejoin:round;stroke-miterlimit:4;stroke-dasharray:none;stroke-opacity:1" />
    <g
       style="font-style:normal;font-variant:normal;font-weight:bold;font-stretch:normal;font-size:26.6667px;line-height:1.25;font-family:sans-serif;-inkscape-font-specification:'sans-serif Bold';fill:#808080;fill-opacity:1;stroke:none"
       id="text2792"
       aria-label="PDF">
      <path
         id="path8146"
         d="m 20.222642,28.425777 q 0,1.302085 -0.455729,2.552087 -0.45573,1.23698 -1.302085,2.083336 -1.158856,1.145835 -2.59115,1.731773 -1.419272,0.585938 -3.541671,0.585938 H 9.2200242 v 6.315112 H 4.2200179 V 22.305978 h 8.2291771 q 1.848961,0 3.111983,0.325521 1.276043,0.3125 2.252607,0.950522 1.171877,0.76823 1.783856,1.966148 0.625001,1.197919 0.625001,2.877608 z m -5.169277,0.117188 q 0,-0.820314 -0.442709,-1.406252 -0.442709,-0.598959 -1.028647,-0.833334 -0.781251,-0.312501 -1.52344,-0.338542 -0.742188,-0.03906 -1.979169,-0.03906 H 9.2200242 v 5.807299 h 1.4322938 q 1.276043,0 2.096357,-0.15625 0.833334,-0.15625 1.39323,-0.625001 0.481772,-0.416667 0.690105,-0.989585 0.221355,-0.585938 0.221355,-1.419272 z" />
      <path
         id="path8148"
         d="m 42.071628,32.019532 q 0,2.708336 -1.23698,4.856777 -1.236981,2.135419 -3.125004,3.281254 -1.419273,0.859376 -3.111983,1.197918 -1.692711,0.338542 -4.010422,0.338542 H 23.751293 V 22.305978 h 7.031259 q 2.369794,0 4.088546,0.403646 1.718753,0.390626 2.890629,1.119793 2.005211,1.22396 3.151046,3.307296 1.158855,2.070315 1.158855,4.882819 z m -5.169277,-0.03906 q 0,-1.914065 -0.703126,-3.268233 -0.690105,-1.367189 -2.200524,-2.135419 -0.76823,-0.377605 -1.575522,-0.507814 -0.794272,-0.143229 -2.408858,-0.143229 h -1.263022 v 12.135432 h 1.263022 q 1.783857,0 2.617191,-0.15625 0.833335,-0.169271 1.627606,-0.598959 1.36719,-0.781251 2.005211,-2.083336 0.638022,-1.315106 0.638022,-3.242192 z" />
      <path
         id="path8150"
         d="M 59.779982,26.055983 H 50.8607 v 3.606775 h 8.26824 v 3.750005 H 50.8607 v 8.28126 H 45.886735 V 22.305978 h 13.893247 z" />
    </g>
  </g>
</svg>
