<?xml version="1.0" encoding="UTF-8" standalone="no"?>
<!-- Generator: Adobe Illustrator 12.0.1, SVG Export Plug-In . SVG Version: 6.00 Build 51448)  -->

<svg
   xmlns:dc="http://purl.org/dc/elements/1.1/"
   xmlns:cc="http://creativecommons.org/ns#"
   xmlns:rdf="http://www.w3.org/1999/02/22-rdf-syntax-ns#"
   xmlns:svg="http://www.w3.org/2000/svg"
   xmlns="http://www.w3.org/2000/svg"
   xmlns:sodipodi="http://sodipodi.sourceforge.net/DTD/sodipodi-0.dtd"
   xmlns:inkscape="http://www.inkscape.org/namespaces/inkscape"
   version="1.1"
   id="Layer_1"
   width="151.37068"
   height="84.564125"
   viewBox="0 0 151.37068 84.564122"
   overflow="visible"
   enable-background="new 0 0 695.788 108.132"
   xml:space="preserve"
   inkscape:version="0.48.2 r9819"
   sodipodi:docname="hopfen.svg"
   style="overflow:visible"><metadata
   id="metadata355"><rdf:RDF><cc:Work
       rdf:about=""><dc:format>image/svg+xml</dc:format><dc:type
         rdf:resource="http://purl.org/dc/dcmitype/StillImage" /><dc:title></dc:title></cc:Work></rdf:RDF></metadata><defs
   id="defs353">
	
	
</defs><sodipodi:namedview
   pagecolor="#ffffff"
   bordercolor="#666666"
   borderopacity="1"
   objecttolerance="10"
   gridtolerance="10"
   guidetolerance="10"
   inkscape:pageopacity="0"
   inkscape:pageshadow="2"
   inkscape:window-width="933"
   inkscape:window-height="624"
   id="namedview351"
   showgrid="false"
   inkscape:zoom="0.86808048"
   inkscape:cx="133.52698"
   inkscape:cy="24.020043"
   inkscape:window-x="1825"
   inkscape:window-y="242"
   inkscape:window-maximized="0"
   inkscape:current-layer="Layer_1"
   fit-margin-top="0"
   fit-margin-left="0"
   fit-margin-right="0"
   fit-margin-bottom="0" />

<g
   id="g205"
   transform="translate(-272.31336,0)">
	<g
   id="g207">
		<path
   d="m 328.924,27.166 c 0,0 -5.293,-3.279 0.526,-8.253 5.821,-4.976 11.429,-8.467 11.429,-8.467 L 339.4,8.436 c 0,0 -11.641,7.197 -11.855,7.512 -0.212,0.32 -7.619,4.446 -7.619,4.446 l 2.962,6.458 6.036,0.314 z"
   id="path209"
   inkscape:connector-curvature="0"
   style="fill:#5c8727" />
		<g
   id="g211">
			<path
   d="m 305.428,14.025 c 0,0 -2.027,-0.747 -4.698,-0.428 -2.667,0.321 -4.377,0.428 -5.123,1.067 -0.747,0.642 -5.657,2.882 -5.657,2.882 0,0 -1.281,1.068 -1.495,1.708 -0.213,0.641 -0.213,2.348 -0.213,2.348 l 8.111,1.603 9.075,-9.18 z"
   id="path213"
   inkscape:connector-curvature="0"
   style="fill:#5c8727;stroke:#b4cc95;stroke-width:1.18069994;stroke-linecap:round;stroke-linejoin:round" />
			<path
   d="m 284.828,57.9 c 0,0 -3.31,2.243 -3.738,4.482 -0.427,2.24 -0.854,5.658 -0.212,6.402 0.641,0.749 3.628,1.603 5.765,0.214 2.132,-1.384 0.534,-5.76 0.534,-5.76 L 284.828,57.9 z"
   id="path215"
   inkscape:connector-curvature="0"
   style="fill:#5c8727;stroke:#b4cc95;stroke-width:1.18069994;stroke-linecap:round;stroke-linejoin:round" />
			<path
   d="m 306.389,66.758 c 0,0 -1.493,4.482 -4.271,4.912 -2.774,0.424 -6.404,1.066 -6.938,0.533 -0.532,-0.533 -1.39,-2.456 -1.067,-3.096 0.321,-0.641 4.271,-3.203 5.231,-3.949 0.961,-0.75 2.881,-2.992 2.881,-2.992 l 4.164,4.592 z"
   id="path217"
   inkscape:connector-curvature="0"
   style="fill:#5c8727;stroke:#b4cc95;stroke-width:1.18069994;stroke-linecap:round;stroke-linejoin:round" />
			<path
   d="m 288.883,52.028 c 0,0 -2.989,3.629 -3.417,5.872 -0.428,2.243 -2.028,9.605 0,10.994 2.027,1.387 5.658,1.28 6.404,1.173 0.749,-0.106 0.855,-0.854 3.417,-1.6 2.561,-0.749 6.938,-6.301 6.938,-6.301 l -3.63,-6.405 -6.403,-5.014 -3.309,1.281 z"
   id="path219"
   inkscape:connector-curvature="0"
   style="fill:#5c8727;stroke:#b4cc95;stroke-width:1.18069994;stroke-linecap:round;stroke-linejoin:round" />
			<path
   d="m 278.527,41.673 c 0,0 -3.203,3.096 -4.375,5.445 -1.176,2.347 -1.493,7.256 -1.069,7.684 0.427,0.428 3.31,-0.64 4.377,-1.813 1.067,-1.173 2.882,-8.541 2.882,-8.541 l -1.815,-2.775 z"
   id="path221"
   inkscape:connector-curvature="0"
   style="fill:#5c8727;stroke:#b4cc95;stroke-width:1.18069994;stroke-linecap:round;stroke-linejoin:round" />
			<path
   d="m 278.634,45.407 c 0,0 -4.482,9.075 -3.842,12.81 0.641,3.738 0.641,4.378 0.641,4.378 l 3.736,2.137 c 0,0 2.56,-0.749 3.842,-1.177 1.281,-0.426 7.473,-11.74 7.473,-11.74 l 0.64,-1.814 -12.49,-4.594 z"
   id="path223"
   inkscape:connector-curvature="0"
   style="fill:#5c8727;stroke:#b4cc95;stroke-width:1.18069994;stroke-linecap:round;stroke-linejoin:round" />
			<path
   d="m 281.198,32.278 c 0,0 -9.03,8.491 -0.856,15.693 4.486,3.949 10.036,2.562 10.036,2.562 l 0.426,-12.81 -9.606,-5.445 z"
   id="path225"
   inkscape:connector-curvature="0"
   style="fill:#5c8727;stroke:#b4cc95;stroke-width:1.18069994;stroke-linecap:round;stroke-linejoin:round" />
			<path
   d="m 307.99,52.349 c 0,0 -1.815,5.655 -3.201,7.151 -1.388,1.493 -3.736,3.095 -5.872,2.455 -2.135,-0.643 -2.027,-6.726 -1.388,-9.606 0.641,-2.884 10.461,0 10.461,0 z"
   id="path227"
   inkscape:connector-curvature="0"
   style="fill:#5c8727;stroke:#b4cc95;stroke-width:1.18069994;stroke-linecap:round;stroke-linejoin:round" />
			<path
   d="m 298.17,21.39 c 0,0 -10.354,-1.173 -11.527,-0.854 -1.176,0.32 -5.98,1.71 -6.621,6.297 -0.637,4.59 2.351,7.261 2.351,7.261 0,0 3.094,3.202 4.908,3.308 1.815,0.108 4.591,-0.748 4.591,-0.748 L 298.17,21.39 z"
   id="path229"
   inkscape:connector-curvature="0"
   style="fill:#5c8727;stroke:#b4cc95;stroke-width:1.18069994;stroke-linecap:round;stroke-linejoin:round" />
			<path
   d="m 309.592,48.72 c 0,0 -6.726,11.637 -16.333,4.802 -9.607,-6.831 -6.616,-12.169 -3.094,-18.574 3.523,-6.404 6.083,-5.443 6.083,-5.443 l 14.624,1.601 1.389,12.062 -2.669,5.552 z"
   id="path231"
   inkscape:connector-curvature="0"
   style="fill:#5c8727;stroke:#b4cc95;stroke-width:1.18069994;stroke-linecap:round;stroke-linejoin:round" />
			<path
   d="m 331.688,38.792 c 0,0 0.642,6.831 -0.853,9.18 -1.493,2.347 -3.31,4.377 -6.941,3.843 -3.627,-0.535 0.215,-15.585 0.215,-15.585 l 7.579,2.562 z"
   id="path233"
   inkscape:connector-curvature="0"
   style="fill:#5c8727;stroke:#b4cc95;stroke-width:1.18069994;stroke-linecap:round;stroke-linejoin:round" />
			<path
   d="m 326.352,39.43 c 0,0 0.214,10.57 -1.603,13.131 -1.815,2.563 -7.791,3.63 -7.791,3.63 l -0.854,-12.597 10.248,-4.164 z"
   id="path235"
   inkscape:connector-curvature="0"
   style="fill:#5c8727;stroke:#b4cc95;stroke-width:1.18069994;stroke-linecap:round;stroke-linejoin:round" />
			<path
   d="m 319.414,46.796 c 0,0 1.28,9.287 0.212,11.634 -1.068,2.353 -1.707,3.952 -4.908,5.553 -3.203,1.602 -5.019,2.029 -6.619,2.139 -1.603,0.104 -2.562,0.53 -3.523,-0.109 -0.962,-0.641 -2.881,-3.203 -2.457,-5.869 0.428,-2.67 6.193,-11.959 6.193,-11.959 l 11.102,-1.389 z"
   id="path237"
   inkscape:connector-curvature="0"
   style="fill:#5c8727;stroke:#b4cc95;stroke-width:1.18069994;stroke-linecap:round;stroke-linejoin:round" />
			<path
   d="m 325.711,37.617 c 0,0 -0.641,5.124 -3.735,8.967 -3.098,3.841 -5.553,4.803 -7.687,5.336 -2.135,0.533 -7.473,0.429 -7.473,0.429 0,0 -1.92,-10.354 1.068,-16.333 2.988,-5.978 4.482,-8.434 4.482,-8.434 l 8.434,0.641 4.911,9.394 z"
   id="path239"
   inkscape:connector-curvature="0"
   style="fill:#5c8727;stroke:#b4cc95;stroke-width:1.18069994;stroke-linecap:round;stroke-linejoin:round" />
			<path
   d="m 310.981,13.383 -7.048,-0.105 -1.922,1.281 -1.918,1.708 c 0,0 -0.641,-0.108 -1.388,0.32 -0.747,0.426 -1.815,0.64 -2.562,1.814 -0.748,1.174 -1.708,2.028 -2.562,3.31 -0.854,1.281 -2.67,3.736 -2.67,3.736 h -0.641 c 0,0 -1.921,1.601 -1.921,2.029 0,0.425 -0.533,2.562 0.215,3.094 0.748,0.535 2.347,2.135 2.347,2.135 0,0 2.456,2.777 10.143,2.456 7.685,-0.32 11.634,-4.591 11.634,-4.591 l 2.777,-2.988 -4.484,-14.199 z"
   id="path241"
   inkscape:connector-curvature="0"
   style="fill:#5c8727;stroke:#b4cc95;stroke-width:1.18069994;stroke-linecap:round;stroke-linejoin:round" />
			<path
   d="m 325.604,24.166 c 0,0 9.075,0 9.607,7.045 0.535,7.046 -3.203,10.036 -3.203,10.036 l -8.859,0.426 c 0,0 -4.375,-4.163 -4.698,-7.686 -0.321,-3.523 0.537,-8.967 7.153,-9.821 z"
   id="path243"
   inkscape:connector-curvature="0"
   style="fill:#5c8727;stroke:#b4cc95;stroke-width:1.18069994;stroke-linecap:round;stroke-linejoin:round" />
			<path
   d="m 321.654,20.536 c 0,0 1.174,-3.843 0.747,-5.229 -0.425,-1.389 -1.918,-3.417 -4.165,-5.126 -2.24,-1.706 -4.694,-2.453 -6.082,-2.346 -1.388,0.107 -3.095,0.212 -3.095,0.212 0,0 -0.854,4.269 -0.748,5.231 0.104,0.961 6.616,5.977 6.616,5.977 l 6.727,1.281 z"
   id="path245"
   inkscape:connector-curvature="0"
   style="fill:#5c8727;stroke:#b4cc95;stroke-width:1.18069994;stroke-linecap:round;stroke-linejoin:round" />
			<g
   id="g247">
				<path
   d="m 322.401,19.362 c 0,0 -3.201,-4.484 -5.443,-4.803 -2.24,-0.319 -7.475,0 -7.475,0 l -2.988,3.736 c 0,0 0.215,4.804 1.388,6.404 1.176,1.602 0.854,3.95 2.988,4.059 2.137,0.104 4.057,1.067 4.485,1.173 0.427,0.108 1.816,0.534 1.816,0.534 h 4.375 c 0,0 1.174,-0.213 1.707,-0.96 0.535,-0.747 1.493,-1.708 1.493,-2.774 0,-1.07 -0.105,-1.923 -0.426,-3.312 -0.322,-1.385 -1.28,-2.135 -1.28,-2.135 l -0.64,-1.922 z"
   id="path249"
   inkscape:connector-curvature="0"
   style="fill:#5c8727;stroke:#b4cc95;stroke-width:1.18069994;stroke-linecap:round;stroke-linejoin:round" />
				
					<line
   x1="323.043"
   y1="24.698999"
   x2="322.93399"
   y2="20.216999"
   id="line251"
   style="fill:#5c8727;stroke:#b4cc95;stroke-width:1.18069994;stroke-linecap:round;stroke-linejoin:round" />
			</g>
		</g>
		<path
   d="m 332.825,15.29 c 0,0 -0.877,3.357 -0.072,6.06 0.801,2.699 2.117,5.036 2.117,5.036 0,0 -5.623,-4.745 -5.474,-5.913 0.145,-1.167 0.145,-3.285 0.145,-3.285"
   id="path253"
   inkscape:connector-curvature="0"
   style="fill:#5c8727;stroke:#b4cc95;stroke-width:1.18069994;stroke-linecap:round;stroke-linejoin:round" />
	</g>
	<g
   id="g255">
		<path
   d="m 343.669,20.994 c 0,0 6.143,1.021 5.045,-6.556 C 347.616,6.86 345.702,0.536 345.702,0.536 L 348.14,0 c 0,0 4.01,13.086 3.961,13.464 -0.051,0.381 2.803,8.367 2.803,8.367 l -6.487,2.903 -4.748,-3.74 z"
   id="path257"
   inkscape:connector-curvature="0"
   style="fill:#5c8727" />
		<g
   id="g259">
			<path
   d="m 331.699,26.6 c 0,0 -2.018,0.772 -3.813,2.775 -1.797,1.999 -3.012,3.205 -3.151,4.179 -0.14,0.975 -2.354,5.896 -2.354,5.896 0,0 -0.26,1.649 0.004,2.269 0.26,0.624 1.385,1.908 1.385,1.908 l 7.156,-4.144 0.773,-12.883 z"
   id="path261"
   inkscape:connector-curvature="0"
   style="fill:#5c8727;stroke:#b4cc95;stroke-width:1.18069994;stroke-linecap:round;stroke-linejoin:round" />
			<path
   d="m 345.129,73.172 c 0,0 -1.013,3.868 0.143,5.834 1.159,1.966 3.09,4.816 4.063,4.958 0.973,0.138 3.786,-1.191 4.478,-3.644 0.686,-2.447 -3.401,-4.684 -3.401,-4.684 l -5.283,-2.464 z"
   id="path263"
   inkscape:connector-curvature="0"
   style="fill:#5c8727;stroke:#b4cc95;stroke-width:1.18069994;stroke-linecap:round;stroke-linejoin:round" />
			<path
   d="m 367.183,65.62 c 0,0 1.833,4.355 0.025,6.506 -1.808,2.153 -4.112,5.024 -4.863,4.979 -0.754,-0.053 -2.663,-0.935 -2.845,-1.626 -0.181,-0.692 1.099,-5.223 1.329,-6.417 0.23,-1.196 0.196,-4.15 0.196,-4.15 l 6.158,0.708 z"
   id="path265"
   inkscape:connector-curvature="0"
   style="fill:#5c8727;stroke:#b4cc95;stroke-width:1.18069994;stroke-linecap:round;stroke-linejoin:round" />
			<path
   d="m 344.31,66.081 c 0,0 0.141,4.701 1.299,6.671 1.158,1.965 4.809,8.561 7.248,8.267 2.44,-0.298 5.099,-2.768 5.592,-3.341 0.49,-0.573 0.08,-1.202 1.509,-3.456 1.436,-2.249 1.066,-9.311 1.066,-9.311 l -6.949,-2.421 -8.124,0.449 -1.641,3.142 z"
   id="path267"
   inkscape:connector-curvature="0"
   style="fill:#5c8727;stroke:#b4cc95;stroke-width:1.18069994;stroke-linecap:round;stroke-linejoin:round" />
			<path
   d="m 329.694,65.124 c 0,0 -0.367,4.439 0.299,6.976 0.667,2.543 3.661,6.445 4.263,6.486 0.603,0.038 2.068,-2.664 2.095,-4.249 0.029,-1.588 -3.461,-8.324 -3.461,-8.324 l -3.196,-0.889 z"
   id="path269"
   inkscape:connector-curvature="0"
   style="fill:#5c8727;stroke:#b4cc95;stroke-width:1.18069994;stroke-linecap:round;stroke-linejoin:round" />
			<path
   d="m 332.238,67.862 c 0,0 2.61,9.777 5.555,12.165 2.946,2.387 3.368,2.871 3.368,2.871 l 4.218,-0.86 c 0,0 1.433,-2.25 2.116,-3.418 0.68,-1.164 -2.123,-13.752 -2.123,-13.752 l -0.714,-1.787 -12.42,4.781 z"
   id="path271"
   inkscape:connector-curvature="0"
   style="fill:#5c8727;stroke:#b4cc95;stroke-width:1.18069994;stroke-linecap:round;stroke-linejoin:round" />
			<path
   d="m 325.51,56.297 c 0,0 -1.194,12.338 9.703,12.366 5.977,0.011 9.234,-4.69 9.234,-4.69 l -8.123,-9.914 -10.814,2.238 z"
   id="path273"
   inkscape:connector-curvature="0"
   style="fill:#5c8727;stroke:#b4cc95;stroke-width:1.18069994;stroke-linecap:round;stroke-linejoin:round" />
			<path
   d="m 358.887,53.726 c 0,0 2.364,5.454 2.307,7.489 -0.059,2.038 -0.767,4.793 -2.797,5.719 -2.028,0.925 -5.955,-3.725 -7.375,-6.31 -1.418,-2.591 7.865,-6.898 7.865,-6.898 z"
   id="path275"
   inkscape:connector-curvature="0"
   style="fill:#5c8727;stroke:#b4cc95;stroke-width:1.18069994;stroke-linecap:round;stroke-linejoin:round" />
			<path
   d="m 331.094,36.922 c 0,0 -8.557,5.943 -9.229,6.957 -0.674,1.017 -3.371,5.226 -0.829,9.1 2.546,3.872 6.553,3.912 6.553,3.912 0,0 4.438,0.366 5.873,-0.749 1.436,-1.117 2.959,-3.591 2.959,-3.591 l -5.327,-15.629 z"
   id="path277"
   inkscape:connector-curvature="0"
   style="fill:#5c8727;stroke:#b4cc95;stroke-width:1.18069994;stroke-linecap:round;stroke-linejoin:round" />
			<path
   d="m 357.699,49.941 c 0,0 2.612,13.185 -9.114,14.378 -11.73,1.195 -12.998,-4.788 -14.575,-11.924 -1.571,-7.139 0.988,-8.106 0.988,-8.106 l 12.054,-8.436 8.993,8.154 1.654,5.934 z"
   id="path279"
   inkscape:connector-curvature="0"
   style="fill:#5c8727;stroke:#b4cc95;stroke-width:1.18069994;stroke-linecap:round;stroke-linejoin:round" />
			<path
   d="m 367.771,27.914 c 0,0 4.987,4.712 5.408,7.464 0.426,2.751 0.397,5.473 -2.681,7.463 -3.084,1.992 -10.115,-11.86 -10.115,-11.86 l 7.388,-3.067 z"
   id="path281"
   inkscape:connector-curvature="0"
   style="fill:#5c8727;stroke:#b4cc95;stroke-width:1.18069994;stroke-linecap:round;stroke-linejoin:round" />
			<path
   d="m 364.18,31.909 c 0,0 7.126,7.808 7.447,10.931 0.329,3.122 -3.464,7.865 -3.464,7.865 l -8.946,-8.91 4.963,-9.886 z"
   id="path283"
   inkscape:connector-curvature="0"
   style="fill:#5c8727;stroke:#b4cc95;stroke-width:1.18069994;stroke-linecap:round;stroke-linejoin:round" />
			<path
   d="m 363.815,42.023 c 0,0 7.085,6.14 7.83,8.61 0.748,2.471 1.323,4.095 -0.03,7.411 -1.354,3.316 -2.435,4.832 -3.568,5.968 -1.136,1.136 -1.573,2.09 -2.72,2.242 -1.145,0.15 -4.278,-0.507 -5.717,-2.796 -1.438,-2.288 -3.226,-13.07 -3.226,-13.07 l 7.431,-8.365 z"
   id="path285"
   inkscape:connector-curvature="0"
   style="fill:#5c8727;stroke:#b4cc95;stroke-width:1.18069994;stroke-linecap:round;stroke-linejoin:round" />
			<path
   d="m 362.501,30.967 c 0,0 2.895,4.277 3.103,9.207 0.207,4.931 -1.009,7.272 -2.26,9.078 -1.254,1.809 -5.34,5.248 -5.34,5.248 0,0 -8.27,-6.521 -9.963,-12.983 -1.693,-6.466 -2.188,-9.297 -2.188,-9.297 l 6.765,-5.081 9.883,3.828 z"
   id="path287"
   inkscape:connector-curvature="0"
   style="fill:#5c8727;stroke:#b4cc95;stroke-width:1.18069994;stroke-linecap:round;stroke-linejoin:round" />
			<path
   d="m 335.45,22.457 -5.37,4.564 -0.598,2.23 -0.319,2.55 c 0,0 -0.552,0.341 -0.833,1.156 -0.28,0.814 -0.943,1.677 -0.728,3.055 0.209,1.374 0.05,2.649 0.253,4.174 0.201,1.529 0.453,4.572 0.453,4.572 l -0.48,0.422 c 0,0 -0.388,2.471 -0.108,2.793 0.281,0.319 1.29,2.277 2.203,2.186 0.914,-0.091 3.173,0.057 3.173,0.057 0,0 3.676,0.469 9.243,-4.839 5.569,-5.307 5.724,-11.121 5.724,-11.121 l 0.118,-4.077 -12.731,-7.722 z"
   id="path289"
   inkscape:connector-curvature="0"
   style="fill:#5c8727;stroke:#b4cc95;stroke-width:1.18069994;stroke-linecap:round;stroke-linejoin:round" />
			<path
   d="m 353.555,20.923 c 0,0 6.822,-5.981 11.87,-1.033 5.045,4.945 4.205,9.657 4.205,9.657 l -6.38,6.162 c 0,0 -6.039,-0.248 -8.601,-2.687 -2.562,-2.435 -5.508,-7.093 -1.094,-12.099 z"
   id="path291"
   inkscape:connector-curvature="0"
   style="fill:#5c8727;stroke:#b4cc95;stroke-width:1.18069994;stroke-linecap:round;stroke-linejoin:round" />
			<path
   d="m 348.192,20.797 c 0,0 -1.651,-3.662 -2.887,-4.425 -1.235,-0.761 -3.696,-1.301 -6.51,-1.108 -2.812,0.195 -5.147,1.248 -6.121,2.244 -0.973,0.997 -2.188,2.204 -2.188,2.204 0,0 2.171,3.771 2.885,4.423 0.714,0.653 8.917,0.134 8.917,0.134 l 5.904,-3.472 z"
   id="path293"
   inkscape:connector-curvature="0"
   style="fill:#5c8727;stroke:#b4cc95;stroke-width:1.18069994;stroke-linecap:round;stroke-linejoin:round" />
			<g
   id="g295">
				<path
   d="m 347.979,19.424 c 0,0 -5.364,-1.261 -7.26,-0.024 -1.896,1.236 -5.619,4.928 -5.619,4.928 l 0.216,4.779 c 0,0 3.328,3.472 5.265,3.898 1.938,0.434 3.246,2.41 4.921,1.083 1.676,-1.328 3.753,-1.872 4.146,-2.074 0.396,-0.199 1.716,-0.794 1.716,-0.794 l 3.294,-2.887 c 0,0 0.74,-0.931 0.648,-1.844 -0.088,-0.917 0,-2.272 -0.707,-3.073 -0.702,-0.804 -1.346,-1.375 -2.505,-2.206 -1.152,-0.833 -2.366,-0.762 -2.366,-0.762 l -1.749,-1.024 z"
   id="path297"
   inkscape:connector-curvature="0"
   style="fill:#5c8727;stroke:#b4cc95;stroke-width:1.18069994;stroke-linecap:round;stroke-linejoin:round" />
				
					<line
   x1="351.98001"
   y1="23.014"
   x2="348.94299"
   y2="19.714001"
   id="line299"
   style="fill:#5c8727;stroke:#b4cc95;stroke-width:1.18069994;stroke-linecap:round;stroke-linejoin:round" />
			</g>
		</g>
		<path
   d="m 348.564,9.49 c 0,0 -1.553,3.102 -3.938,4.604 -2.385,1.501 -4.913,2.392 -4.913,2.392 0,0 7.354,0.138 8.013,-0.837 0.66,-0.975 2.057,-2.565 2.057,-2.565"
   id="path301"
   inkscape:connector-curvature="0"
   style="fill:#5c8727;stroke:#b4cc95;stroke-width:1.18069994;stroke-linecap:round;stroke-linejoin:round" />
	</g>
	<g
   id="g303">
		<path
   d="m 367.072,27.166 c 0,0 5.293,-3.279 -0.527,-8.253 -5.819,-4.976 -11.431,-8.467 -11.431,-8.467 l 1.484,-2.01 c 0,0 11.64,7.197 11.853,7.512 0.211,0.32 7.621,4.446 7.621,4.446 l -2.963,6.458 -6.037,0.314 z"
   id="path305"
   inkscape:connector-curvature="0"
   style="fill:#5c8727" />
		<g
   id="g307">
			<path
   d="m 390.569,14.025 c 0,0 2.026,-0.747 4.695,-0.428 2.669,0.321 4.376,0.428 5.125,1.067 0.744,0.642 5.655,2.882 5.655,2.882 0,0 1.282,1.068 1.493,1.708 0.213,0.641 0.213,2.348 0.213,2.348 l -8.11,1.603 -9.071,-9.18 z"
   id="path309"
   inkscape:connector-curvature="0"
   style="fill:#5c8727;stroke:#b4cc95;stroke-width:1.18069994;stroke-linecap:round;stroke-linejoin:round" />
			<path
   d="m 411.171,57.9 c 0,0 3.308,2.243 3.734,4.482 0.428,2.24 0.854,5.658 0.214,6.402 -0.641,0.749 -3.628,1.603 -5.765,0.214 -2.134,-1.384 -0.534,-5.76 -0.534,-5.76 l 2.351,-5.338 z"
   id="path311"
   inkscape:connector-curvature="0"
   style="fill:#5c8727;stroke:#b4cc95;stroke-width:1.18069994;stroke-linecap:round;stroke-linejoin:round" />
			<path
   d="m 389.608,66.758 c 0,0 1.494,4.482 4.267,4.912 2.779,0.424 6.407,1.066 6.941,0.533 0.53,-0.533 1.387,-2.456 1.066,-3.096 -0.32,-0.641 -4.27,-3.203 -5.229,-3.949 -0.964,-0.75 -2.883,-2.992 -2.883,-2.992 l -4.162,4.592 z"
   id="path313"
   inkscape:connector-curvature="0"
   style="fill:#5c8727;stroke:#b4cc95;stroke-width:1.18069994;stroke-linecap:round;stroke-linejoin:round" />
			<path
   d="m 407.112,52.028 c 0,0 2.99,3.629 3.418,5.872 0.427,2.243 2.026,9.605 0,10.994 -2.028,1.387 -5.658,1.28 -6.404,1.173 -0.75,-0.106 -0.854,-0.854 -3.416,-1.6 -2.562,-0.749 -6.938,-6.301 -6.938,-6.301 l 3.629,-6.405 6.402,-5.014 3.309,1.281 z"
   id="path315"
   inkscape:connector-curvature="0"
   style="fill:#5c8727;stroke:#b4cc95;stroke-width:1.18069994;stroke-linecap:round;stroke-linejoin:round" />
			<path
   d="m 417.468,41.673 c 0,0 3.203,3.096 4.379,5.445 1.171,2.347 1.493,7.256 1.067,7.684 -0.427,0.428 -3.31,-0.64 -4.376,-1.813 -1.07,-1.174 -2.882,-8.541 -2.882,-8.541 l 1.812,-2.775 z"
   id="path317"
   inkscape:connector-curvature="0"
   style="fill:#5c8727;stroke:#b4cc95;stroke-width:1.18069994;stroke-linecap:round;stroke-linejoin:round" />
			<path
   d="m 417.362,45.407 c 0,0 4.484,9.075 3.842,12.81 -0.644,3.738 -0.644,4.378 -0.644,4.378 l -3.734,2.137 c 0,0 -2.56,-0.749 -3.841,-1.177 -1.282,-0.426 -7.473,-11.74 -7.473,-11.74 l -0.64,-1.815 12.49,-4.593 z"
   id="path319"
   inkscape:connector-curvature="0"
   style="fill:#5c8727;stroke:#b4cc95;stroke-width:1.18069994;stroke-linecap:round;stroke-linejoin:round" />
			<path
   d="m 414.796,32.278 c 0,0 9.034,8.491 0.86,15.693 -4.485,3.949 -10.037,2.562 -10.037,2.562 l -0.427,-12.81 9.604,-5.445 z"
   id="path321"
   inkscape:connector-curvature="0"
   style="fill:#5c8727;stroke:#b4cc95;stroke-width:1.18069994;stroke-linecap:round;stroke-linejoin:round" />
			<path
   d="m 388.007,52.349 c 0,0 1.814,5.655 3.201,7.151 1.388,1.493 3.736,3.095 5.872,2.455 2.134,-0.643 2.026,-6.726 1.389,-9.606 -0.642,-2.884 -10.462,0 -10.462,0 z"
   id="path323"
   inkscape:connector-curvature="0"
   style="fill:#5c8727;stroke:#b4cc95;stroke-width:1.18069994;stroke-linecap:round;stroke-linejoin:round" />
			<path
   d="m 397.827,21.39 c 0,0 10.354,-1.173 11.527,-0.854 1.176,0.32 5.979,1.71 6.619,6.297 0.639,4.59 -2.348,7.261 -2.348,7.261 0,0 -3.096,3.202 -4.912,3.308 -1.815,0.108 -4.588,-0.748 -4.588,-0.748 L 397.827,21.39 z"
   id="path325"
   inkscape:connector-curvature="0"
   style="fill:#5c8727;stroke:#b4cc95;stroke-width:1.18069994;stroke-linecap:round;stroke-linejoin:round" />
			<path
   d="m 386.403,48.72 c 0,0 6.728,11.637 16.333,4.802 9.61,-6.831 6.618,-12.169 3.095,-18.574 -3.521,-6.404 -6.081,-5.443 -6.081,-5.443 l -14.626,1.601 -1.39,12.062 2.669,5.552 z"
   id="path327"
   inkscape:connector-curvature="0"
   style="fill:#5c8727;stroke:#b4cc95;stroke-width:1.18069994;stroke-linecap:round;stroke-linejoin:round" />
			<path
   d="m 364.309,38.792 c 0,0 -0.644,6.831 0.853,9.18 1.493,2.347 3.31,4.377 6.939,3.843 3.629,-0.535 -0.213,-15.585 -0.213,-15.585 l -7.579,2.562 z"
   id="path329"
   inkscape:connector-curvature="0"
   style="fill:#5c8727;stroke:#b4cc95;stroke-width:1.18069994;stroke-linecap:round;stroke-linejoin:round" />
			<path
   d="m 369.644,39.43 c 0,0 -0.213,10.57 1.604,13.131 1.816,2.563 7.792,3.63 7.792,3.63 l 0.853,-12.597 -10.249,-4.164 z"
   id="path331"
   inkscape:connector-curvature="0"
   style="fill:#5c8727;stroke:#b4cc95;stroke-width:1.18069994;stroke-linecap:round;stroke-linejoin:round" />
			<path
   d="m 376.583,46.796 c 0,0 -1.281,9.287 -0.21,11.634 1.065,2.353 1.705,3.952 4.904,5.553 3.206,1.602 5.022,2.029 6.619,2.139 1.604,0.104 2.562,0.53 3.521,-0.109 0.964,-0.641 2.886,-3.203 2.457,-5.869 -0.427,-2.67 -6.188,-11.959 -6.188,-11.959 l -11.103,-1.389 z"
   id="path333"
   inkscape:connector-curvature="0"
   style="fill:#5c8727;stroke:#b4cc95;stroke-width:1.18069994;stroke-linecap:round;stroke-linejoin:round" />
			<path
   d="m 370.284,37.617 c 0,0 0.643,5.124 3.735,8.967 3.096,3.841 5.553,4.803 7.686,5.336 2.138,0.533 7.475,0.429 7.475,0.429 0,0 1.923,-10.354 -1.069,-16.333 -2.986,-5.978 -4.479,-8.434 -4.479,-8.434 l -8.436,0.641 -4.912,9.394 z"
   id="path335"
   inkscape:connector-curvature="0"
   style="fill:#5c8727;stroke:#b4cc95;stroke-width:1.18069994;stroke-linecap:round;stroke-linejoin:round" />
			<path
   d="m 385.015,13.383 7.051,-0.105 1.92,1.281 1.918,1.708 c 0,0 0.641,-0.108 1.39,0.32 0.744,0.426 1.813,0.64 2.561,1.814 0.749,1.174 1.709,2.028 2.562,3.31 0.855,1.281 2.672,3.736 2.672,3.736 h 0.64 c 0,0 1.92,1.601 1.92,2.029 0,0.425 0.534,2.562 -0.214,3.094 -0.748,0.535 -2.346,2.135 -2.346,2.135 0,0 -2.455,2.777 -10.144,2.456 -7.686,-0.32 -11.634,-4.591 -11.634,-4.591 l -2.775,-2.988 4.479,-14.199 z"
   id="path337"
   inkscape:connector-curvature="0"
   style="fill:#5c8727;stroke:#b4cc95;stroke-width:1.18069994;stroke-linecap:round;stroke-linejoin:round" />
			<path
   d="m 370.392,24.166 c 0,0 -9.072,0 -9.609,7.045 -0.532,7.046 3.206,10.036 3.206,10.036 l 8.858,0.426 c 0,0 4.379,-4.163 4.699,-7.686 0.32,-3.523 -0.537,-8.967 -7.154,-9.821 z"
   id="path339"
   inkscape:connector-curvature="0"
   style="fill:#5c8727;stroke:#b4cc95;stroke-width:1.18069994;stroke-linecap:round;stroke-linejoin:round" />
			<path
   d="m 374.34,20.536 c 0,0 -1.173,-3.843 -0.746,-5.229 0.426,-1.389 1.919,-3.417 4.165,-5.126 2.242,-1.706 4.694,-2.453 6.084,-2.346 1.388,0.107 3.096,0.212 3.096,0.212 0,0 0.854,4.269 0.748,5.231 -0.107,0.961 -6.622,5.977 -6.622,5.977 l -6.725,1.281 z"
   id="path341"
   inkscape:connector-curvature="0"
   style="fill:#5c8727;stroke:#b4cc95;stroke-width:1.18069994;stroke-linecap:round;stroke-linejoin:round" />
			<g
   id="g343">
				<path
   d="m 373.594,19.362 c 0,0 3.204,-4.484 5.445,-4.803 2.238,-0.319 7.475,0 7.475,0 l 2.986,3.736 c 0,0 -0.214,4.804 -1.39,6.404 -1.172,1.602 -0.852,3.95 -2.986,4.059 -2.134,0.104 -4.06,1.067 -4.485,1.173 -0.427,0.108 -1.816,0.534 -1.816,0.534 h -4.376 c 0,0 -1.173,-0.213 -1.706,-0.96 -0.536,-0.747 -1.493,-1.708 -1.493,-2.774 0,-1.07 0.104,-1.923 0.427,-3.312 0.323,-1.385 1.279,-2.135 1.279,-2.135 l 0.64,-1.922 z"
   id="path345"
   inkscape:connector-curvature="0"
   style="fill:#5c8727;stroke:#b4cc95;stroke-width:1.18069994;stroke-linecap:round;stroke-linejoin:round" />
				
					<line
   x1="372.953"
   y1="24.698999"
   x2="373.06299"
   y2="20.216999"
   id="line347"
   style="fill:#5c8727;stroke:#b4cc95;stroke-width:1.18069994;stroke-linecap:round;stroke-linejoin:round" />
			</g>
		</g>
		<path
   d="m 363.171,15.29 c 0,0 0.875,3.357 0.075,6.06 -0.808,2.699 -2.121,5.036 -2.121,5.036 0,0 5.625,-4.745 5.475,-5.913 -0.145,-1.167 -0.145,-3.285 -0.145,-3.285"
   id="path349"
   inkscape:connector-curvature="0"
   style="fill:#5c8727;stroke:#b4cc95;stroke-width:1.18069994;stroke-linecap:round;stroke-linejoin:round" />
	</g>
</g>
</svg>