<?xml version="1.0" encoding="UTF-8" standalone="no"?>
<!-- Created with Inkscape (http://www.inkscape.org/) -->

<svg
   width="64"
   height="64"
   viewBox="0 0 64 64"
   version="1.1"
   id="svg716"
   inkscape:version="1.4.2 (f4327f4, 2025-05-13)"
   sodipodi:docname="en.svg"
   xmlns:inkscape="http://www.inkscape.org/namespaces/inkscape"
   xmlns:sodipodi="http://sodipodi.sourceforge.net/DTD/sodipodi-0.dtd"
   xmlns="http://www.w3.org/2000/svg"
   xmlns:svg="http://www.w3.org/2000/svg">
  <sodipodi:namedview
     id="namedview718"
     pagecolor="#ffffff"
     bordercolor="#000000"
     borderopacity="0.25"
     inkscape:showpageshadow="2"
     inkscape:pageopacity="0.0"
     inkscape:pagecheckerboard="false"
     inkscape:deskcolor="#d1d1d1"
     inkscape:document-units="px"
     showgrid="true"
     showborder="false"
     inkscape:zoom="14.638496"
     inkscape:cx="-6.1140161"
     inkscape:cy="25.241664"
     inkscape:window-width="3840"
     inkscape:window-height="2054"
     inkscape:window-x="-11"
     inkscape:window-y="-11"
     inkscape:window-maximized="1"
     inkscape:current-layer="layer1">
    <inkscape:grid
       type="xygrid"
       id="grid837"
       spacingx="2.1166666"
       spacingy="2.1166666"
       empspacing="1"
       originx="0"
       originy="0"
       units="px" />
  </sodipodi:namedview>
  <defs
     id="defs713" />
  <g
     inkscape:label="Layer 1"
     inkscape:groupmode="layer"
     id="layer1">
    <path
       style="fill:#41479b;stroke-width:0.0250213"
       d="M 59.206921,8.000147 H 4.7930641 C 2.1458644,8.000147 0,10.456596 0,13.486984 v 37.026175 c 0,3.030243 2.1458644,5.486838 4.7930641,5.486838 H 59.206921 c 2.647067,0 4.793068,-2.456447 4.793068,-5.486838 V 13.486984 c 0,-3.030388 -2.145864,-5.486837 -4.793068,-5.486837 z"
       id="path144835" />
    <path
       style="fill:#f5f5f5;stroke-width:0.0250213"
       d="M 63.93359,12.579928 C 63.55586,9.9815331 61.58399,8.0000034 59.206921,8.0000034 H 57.959726 L 37.517193,23.331812 V 8.000147 H 26.482795 v 15.33181 L 6.0402639,8.000147 H 4.7930641 c -2.3770643,0 -4.34893435,1.9813861 -4.72666533,4.579926 L 17.538663,25.684378 H 0 V 38.315914 H 17.538663 L 0.06639877,51.419924 C 0.44414993,54.01833 2.4159998,55.99986 4.7930641,55.99986 H 6.0402639 L 26.482795,40.66805 V 55.99986 H 37.517193 V 40.66805 l 20.442533,15.33181 h 1.247195 c 2.377069,0 4.348939,-1.981394 4.726669,-4.579936 L 46.461323,38.31563 H 63.999989 V 25.684091 H 46.461323 Z"
       id="path144837" />
    <polygon
       style="fill:#ff4b55;stroke-width:0.187088"
       points="512,282.483 512,229.517 282.483,229.517 282.483,88.276 229.517,88.276 229.517,229.517 0,229.517 0,282.483 229.517,282.483 229.517,423.724 282.483,423.724 282.483,282.483 "
       id="polygon144839"
       transform="matrix(0.125,0,0,0.14309135,0,-4.6313844)" />
    <path
       style="fill:#ff4b55;stroke-width:0.0250213"
       d="M 3.0990642,55.646131 26.421995,38.315759 H 22.368529 L 1.1530632,54.080431 c 0.5190702,0.693551 1.1861366,1.237017 1.946001,1.5657 z"
       id="path144841" />
    <path
       style="fill:#ff4b55;stroke-width:0.0250213"
       d="m 43.298524,38.315759 h -4.053463 l 22.589459,16.78533 c 0.632134,-0.4752 1.159604,-1.117111 1.535871,-1.870904 z"
       id="path144843" />
    <path
       style="fill:#ff4b55;stroke-width:0.0250213"
       d="M 0.50612911,11.033541 20.222395,25.684235 h 4.053467 L 1.9343973,9.0827767 C 1.3345309,9.5938969 0.84359554,10.262135 0.50612911,11.033541 Z"
       id="path144845" />
    <path
       style="fill:#ff4b55;stroke-width:0.0250213"
       d="M 41.570793,25.684235 62.825055,9.8905263 C 62.300256,9.1992534 61.627856,8.6589397 60.862789,8.3365551 L 37.517193,25.684235 Z"
       id="path144847" />
  </g>
</svg>
