<?xml version="1.0" encoding="UTF-8" standalone="no"?>
<!-- Created with Inkscape (http://www.inkscape.org/) -->

<svg
   width="64"
   height="64"
   viewBox="0 0 64 64"
   version="1.1"
   id="svg716"
   inkscape:version="1.4.2 (f4327f4, 2025-05-13)"
   sodipodi:docname="se.svg"
   xmlns:inkscape="http://www.inkscape.org/namespaces/inkscape"
   xmlns:sodipodi="http://sodipodi.sourceforge.net/DTD/sodipodi-0.dtd"
   xmlns="http://www.w3.org/2000/svg"
   xmlns:svg="http://www.w3.org/2000/svg">
  <sodipodi:namedview
     id="namedview718"
     pagecolor="#ffffff"
     bordercolor="#000000"
     borderopacity="0.25"
     inkscape:showpageshadow="2"
     inkscape:pageopacity="0.0"
     inkscape:pagecheckerboard="false"
     inkscape:deskcolor="#d1d1d1"
     inkscape:document-units="px"
     showgrid="true"
     showborder="false"
     inkscape:zoom="14.638496"
     inkscape:cx="-6.1140161"
     inkscape:cy="25.241664"
     inkscape:window-width="3840"
     inkscape:window-height="2054"
     inkscape:window-x="-11"
     inkscape:window-y="-11"
     inkscape:window-maximized="1"
     inkscape:current-layer="layer1">
    <inkscape:grid
       type="xygrid"
       id="grid837"
       spacingx="2.1166666"
       spacingy="2.1166666"
       empspacing="1"
       originx="0"
       originy="0"
       units="px" />
  </sodipodi:namedview>
  <defs
     id="defs713" />
  <g
     inkscape:label="Layer 1"
     inkscape:groupmode="layer"
     id="layer1">
    <path
       style="fill:#4173cd;stroke-width:0.0250212"
       d="M 59.206921,8.0000133 H 4.7930656 C 2.1458664,8.0000133 0,10.456455 0,13.486844 v 37.026317 c 0,3.030236 2.1458664,5.486838 4.7930656,5.486838 H 59.206921 c 2.647071,0 4.793068,-2.456447 4.793068,-5.486838 V 13.486844 c 0,-3.030389 -2.145864,-5.4868307 -4.793068,-5.4868307 z"
       id="path147876" />
    <polygon
       style="fill:#ffe15a;stroke-width:0.187089"
       points="158.897,282.482 158.897,423.724 211.862,423.724 211.862,282.482 512,282.482 512,229.516 211.862,229.516 211.862,88.275 158.897,88.275 158.897,229.516 0,229.516 0,282.482 "
       id="polygon147878"
       transform="matrix(0.125,0,0,0.14309131,0,-4.6313847)" />
  </g>
</svg>
