<?xml version="1.0" encoding="UTF-8" standalone="no"?>
<svg
   width="64"
   height="64"
   viewBox="0 0 64 64"
   version="1.1"
   xml:space="preserve"
   style="fill-rule:evenodd;clip-rule:evenodd;"
   id="svg1"
   sodipodi:docname="about.svg"
   inkscape:version="1.4.2 (f4327f4, 2025-05-13)"
   xmlns:inkscape="http://www.inkscape.org/namespaces/inkscape"
   xmlns:sodipodi="http://sodipodi.sourceforge.net/DTD/sodipodi-0.dtd"
   xmlns="http://www.w3.org/2000/svg"
   xmlns:svg="http://www.w3.org/2000/svg"><defs
   id="defs1" /><sodipodi:namedview
   id="namedview1"
   pagecolor="#ffffff"
   bordercolor="#eeeeee"
   borderopacity="0.25"
   inkscape:showpageshadow="2"
   inkscape:pageopacity="0.0"
   inkscape:pagecheckerboard="0"
   inkscape:deskcolor="#d1d1d1"
   inkscape:zoom="28.359375"
   inkscape:cx="32.052893"
   inkscape:cy="32"
   inkscape:window-width="3840"
   inkscape:window-height="2054"
   inkscape:window-x="-11"
   inkscape:window-y="-11"
   inkscape:window-maximized="1"
   inkscape:current-layer="svg1" />
    <g
   id="path241-2"
   transform="matrix(0.9745275,0,0,0.97464341,0.81512136,0.81195083)"
   style="stroke-width:6.66950238;stroke-dasharray:none;fill:none;paint-order:stroke fill markers">
            <circle
   cx="32"
   cy="32"
   style="fill:none;stroke:#eeeeee;stroke-width:6.66950238;stroke-dasharray:none;paint-order:stroke fill markers"
   id="ellipse1"
   r="29.5" />
        </g><path
   id="path163576"
   d="m 32.526227,11.88737 c 0.898823,0 1.658828,0.320891 2.280015,0.963672 0.64216,0.621789 0.963739,1.382529 0.963739,2.283223 0,0.899694 -0.321579,1.671431 -0.963739,2.314212 -0.621187,0.642782 -1.381192,0.964672 -2.280015,0.964672 -0.899822,0 -1.670814,-0.32189 -2.312973,-0.964672 -0.642159,-0.642781 -0.963739,-1.414518 -0.963739,-2.314212 0,-0.900694 0.310594,-1.661434 0.93178,-2.283223 0.64216,-0.642781 1.424137,-0.963672 2.344932,-0.963672 z m 2.66551,9.911627 v 23.660949 c 0,1.842373 0.127834,3.074955 0.385496,3.696742 0.277637,0.599797 0.674117,1.049643 1.187446,1.350541 0.535299,0.299898 1.499038,0.449847 2.891216,0.449847 v 1.156607 H 25.363602 v -1.156607 c 1.435121,0 2.397861,-0.139953 2.891215,-0.417858 0.492356,-0.278905 0.877851,-0.739748 1.155488,-1.38253 0.299608,-0.642781 0.449412,-1.875362 0.449412,-3.696742 V 34.111808 c 0,-3.193913 -0.09587,-5.262209 -0.288622,-6.204889 -0.149805,-0.685766 -0.385496,-1.157606 -0.706077,-1.414518 -0.321579,-0.278906 -0.761004,-0.417859 -1.317276,-0.417859 -0.599215,0 -1.327263,0.160946 -2.18414,0.482837 l -0.449413,-1.157607 8.864399,-3.600775 z"
   style="fill-rule:nonzero;stroke:#eeeeee;stroke-width:1.99669px;fill:#eeeeee;fill-opacity:1" />
</svg>
