<?xml version="1.0" encoding="UTF-8" standalone="no"?>
<svg
   width="64"
   height="64"
   viewBox="0 0 64 64"
   version="1.1"
   xml:space="preserve"
   style="fill-rule:evenodd;clip-rule:evenodd;stroke-linecap:square;stroke-miterlimit:2;"
   id="svg1"
   sodipodi:docname="delete.svg"
   inkscape:version="1.4.2 (f4327f4, 2025-05-13)"
   xmlns:inkscape="http://www.inkscape.org/namespaces/inkscape"
   xmlns:sodipodi="http://sodipodi.sourceforge.net/DTD/sodipodi-0.dtd"
   xmlns="http://www.w3.org/2000/svg"
   xmlns:svg="http://www.w3.org/2000/svg"><defs
   id="defs1">
</defs><sodipodi:namedview
   id="namedview1"
   pagecolor="#ffffff"
   bordercolor="#eeeeee"
   borderopacity="0.25"
   inkscape:showpageshadow="2"
   inkscape:pageopacity="0.0"
   inkscape:pagecheckerboard="0"
   inkscape:deskcolor="#d1d1d1"
   inkscape:zoom="5.0132764"
   inkscape:cx="22.839355"
   inkscape:cy="78.990258"
   inkscape:window-width="1916"
   inkscape:window-height="2041"
   inkscape:window-x="1911"
   inkscape:window-y="0"
   inkscape:window-maximized="0"
   inkscape:current-layer="svg1" />
    
<path
   class="cls-1"
   d="m 10.411462,19.374665 h 43.525215 a 4.3796335,4.3796335 0 0 1 1.042771,0.08342 3.0918128,3.0918128 0 0 1 1.501588,0.813361 2.8311203,2.8311203 0 0 1 0.855071,1.741426 3.9885948,3.9885948 0 0 1 -0.03128,0.750794 L 53.59778,61.163665 v 0 0.06778 0.145988 0 a 3.6809777,3.6809777 0 0 1 -0.104273,0.469246 v 0 0.03128 0 a 3.0709573,3.0709573 0 0 1 -2.851985,2.122039 H 13.61798 a 3.216945,3.216945 0 0 1 -0.651732,-0.09906 3.216945,3.216945 0 0 1 -0.604806,-0.250264 v 0 a 3.2221589,3.2221589 0 0 1 -1.605867,-2.54436 L 7.1058815,22.789735 A 4.0094503,4.0094503 0 0 1 7.0746035,21.924236 2.7998371,2.7998371 0 0 1 7.9244593,20.20888 3.1283096,3.1283096 0 0 1 9.4886147,19.385092 4.6611814,4.6611814 0 0 1 10.421895,19.317312 Z M 7.5334176,4.5881893 H 23.941402 v -1.4598783 0 a 1.2721793,1.2721793 0 0 1 0,-0.1407737 3.1283096,3.1283096 0 0 1 0.917637,-2.08554028 v 0 A 3.1283096,3.1283096 0 0 1 27.05407,1.75e-6 h 10.099226 0.156415 A 3.1283096,3.1283096 0 0 1 40.281606,3.128311 v 0 0 1.4598783 h 16.684319 0.203339 a 2.4505093,2.4505093 0 0 1 2.247169,2.3097347 c 0,0.093846 0,0.1668425 0,0.2606916 v 5.1408554 a 1.350387,1.350387 0 0 1 -1.350386,1.350387 H 5.9379797 A 1.350387,1.350387 0 0 1 4.5875918,12.315113 v -5.2607738 0 a 0.8133605,0.8133605 0 0 1 0,-0.1616295 v 0 A 2.4609368,2.4609368 0 0 1 6.6105656,4.6298996 5.4224035,5.4224035 0 0 1 7.5334176,4.5881954 Z M 29.483723,32.065173 a 2.4870062,2.4870062 0 0 1 4.947943,0 v 19.291243 a 2.4870062,2.4870062 0 0 1 -4.947943,0 z m 12.372465,-0.104272 a 2.387943,2.387943 0 0 1 2.606925,-2.116824 2.3305907,2.3305907 0 0 1 2.351447,2.325377 l -1.042771,19.291243 a 2.3827291,2.3827291 0 0 1 -2.606925,2.116822 2.3305907,2.3305907 0 0 1 -2.351445,-2.325375 z m -24.233972,0.208553 a 2.3253768,2.3253768 0 0 1 2.346232,-2.325377 2.387943,2.387943 0 0 1 2.606925,2.116825 l 1.04277,19.291242 a 2.3305907,2.3305907 0 0 1 -2.351446,2.325376 2.3827291,2.3827291 0 0 1 -2.606925,-2.116822 l -1.04277,-19.291247 z"
   id="path1"
   style="fill-rule:evenodd;stroke-width:1;fill:#eeeeee;fill-opacity:1" /></svg>
