<?xml version="1.0" encoding="UTF-8" standalone="no"?>
<svg
   width="64"
   height="64"
   viewBox="0 0 64 64"
   version="1.1"
   xml:space="preserve"
   style="fill-rule:evenodd;clip-rule:evenodd;stroke-linecap:round;stroke-linejoin:round;"
   id="svg5"
   sodipodi:docname="gebraut.svg"
   inkscape:version="1.4.2 (f4327f4, 2025-05-13)"
   xmlns:inkscape="http://www.inkscape.org/namespaces/inkscape"
   xmlns:sodipodi="http://sodipodi.sourceforge.net/DTD/sodipodi-0.dtd"
   xmlns="http://www.w3.org/2000/svg"
   xmlns:svg="http://www.w3.org/2000/svg"><defs
   id="defs5" /><sodipodi:namedview
   id="namedview5"
   pagecolor="#ffffff"
   bordercolor="#eeeeee"
   borderopacity="0.25"
   inkscape:showpageshadow="2"
   inkscape:pageopacity="0.0"
   inkscape:pagecheckerboard="0"
   inkscape:deskcolor="#d1d1d1"
   inkscape:zoom="10.026553"
   inkscape:cx="-6.6822566"
   inkscape:cy="42.935992"
   inkscape:window-width="3840"
   inkscape:window-height="2054"
   inkscape:window-x="-11"
   inkscape:window-y="-11"
   inkscape:window-maximized="1"
   inkscape:current-layer="svg5" />
    <g
   id="g5"
   transform="matrix(0.88841467,0,0,0.90163344,0.04520405,6.2954795)"
   style="stroke-width:1.11732;fill:#eeeeee;fill-opacity:1"><path
     d="m 42.221048,22.528596 v 39.471665 c 0,1.103714 -0.896557,1.999934 -2.000011,1.999934 H 7.0668843 c -1.1044261,0 -2.0000117,-0.89622 -2.0000117,-1.999934 V 22.528596 c 0,-1.103715 0.8955856,-1.999934 2.0000117,-1.999934 H 40.221037 c 1.103454,0 2.000011,0.896219 2.000011,1.999934 z"
     id="path2"
     style="stroke-width:1.08687;fill:#eeeeee;fill-opacity:1" /><path
     d="m 28.597851,16.80253 c 0,1.370632 -1.113169,2.484088 -2.483745,2.484088 h -4.940291 c -1.370576,0 -2.483745,-1.113456 -2.483745,-2.484088 0,-1.371606 1.113169,-2.484087 2.483745,-2.484087 h 4.940291 c 1.370576,0 2.483745,1.112481 2.483745,2.484087 z"
     id="path3"
     style="stroke-width:1.08687;fill:#eeeeee;fill-opacity:1" /><ellipse
     cx="23.643961"
     cy="20.469469"
     rx="21.345438"
     ry="2.9627388"
     style="stroke:#eeeeee;stroke-width:1.66031px;stroke-linecap:butt;stroke-miterlimit:2;fill:#eeeeee;fill-opacity:1"
     id="ellipse3" /><path
     d="m 9.2240574,25.996577 v 5.210739 c 0,0.275685 -0.2243259,0.49974 -0.5008205,0.49974 H 1.4091711 c -0.2751904,0 -0.49951624,-0.224055 -0.49951624,-0.49974 v -5.210739 c 0,-0.275685 0.22432584,-0.49974 0.49951624,-0.49974 h 7.3140658 c 0.2764946,0 0.5008205,0.224055 0.5008205,0.49974 z"
     style="stroke:#eeeeee;stroke-width:1.09568px;stroke-linecap:butt;stroke-miterlimit:2;fill:#eeeeee;fill-opacity:1"
     id="path4" /><path
     d="m 46.378257,25.996577 v 5.210739 c 0,0.275685 -0.224325,0.49974 -0.50082,0.49974 h -7.314066 c -0.27519,0 -0.499516,-0.224055 -0.499516,-0.49974 v -5.210739 c 0,-0.275685 0.224326,-0.49974 0.499516,-0.49974 h 7.314066 c 0.276495,0 0.50082,0.224055 0.50082,0.49974 z"
     style="stroke:#eeeeee;stroke-width:1.09568px;stroke-linecap:butt;stroke-miterlimit:2;fill:#eeeeee;fill-opacity:1"
     id="path5" /></g>
<path
   d="m 45.784226,15.308931 5.01224,11.56088 10.02448,-23.1217603"
   style="clip-rule:evenodd;fill:none;fill-rule:nonzero;stroke:#eeeeee;stroke-width:6.5;stroke-linecap:round;stroke-linejoin:round;stroke-dasharray:none"
   id="path1-6" /></svg>
