<?xml version="1.0" encoding="UTF-8" standalone="no"?>
<svg
   width="64"
   height="64"
   viewBox="0 0 64 64"
   version="1.1"
   xml:space="preserve"
   style="fill-rule:evenodd;clip-rule:evenodd;stroke-linejoin:round;stroke-miterlimit:2;"
   id="svg5"
   sodipodi:docname="hopfen.svg"
   inkscape:version="1.4.2 (f4327f4, 2025-05-13)"
   xmlns:inkscape="http://www.inkscape.org/namespaces/inkscape"
   xmlns:sodipodi="http://sodipodi.sourceforge.net/DTD/sodipodi-0.dtd"
   xmlns="http://www.w3.org/2000/svg"
   xmlns:svg="http://www.w3.org/2000/svg"><defs
   id="defs5" /><sodipodi:namedview
   id="namedview5"
   pagecolor="#ffffff"
   bordercolor="#eeeeee"
   borderopacity="0.25"
   inkscape:showpageshadow="2"
   inkscape:pageopacity="0.0"
   inkscape:pagecheckerboard="0"
   inkscape:deskcolor="#d1d1d1"
   inkscape:zoom="28.359375"
   inkscape:cx="32.017631"
   inkscape:cy="32"
   inkscape:window-width="3840"
   inkscape:window-height="2054"
   inkscape:window-x="-11"
   inkscape:window-y="-11"
   inkscape:window-maximized="1"
   inkscape:current-layer="svg5" />
    <path
   d="M 33.281054,7.7158579 V 1.8751538 c 0,-1.03676937 -0.568093,-1.87470625 -1.269333,-1.87470625 -0.701239,0 -1.269332,0.83793688 -1.269332,1.87470625 V 7.7158579 C 10.73132,8.6922674 10.356734,31.762161 10.356734,32.00005 c 0,1.036769 0.568093,1.874706 1.269332,1.874706 13.197506,0 18.397331,-9.238609 20.385655,-16.341544 1.988325,7.102935 7.18815,16.341544 20.385655,16.341544 0.70124,0 1.269333,-0.837937 1.269333,-1.874706 0,-0.237889 -0.374586,-23.3077826 -20.385655,-24.2841921 z"
   style="fill-rule:nonzero;stroke:#eeeeee;stroke-width:0.994162px;fill:#eeeeee;fill-opacity:1"
   id="path1" /><path
   d="m 31.610506,63.903786 c 0.129596,0.06391 0.266293,0.09587 0.401215,0.09587 0.134922,0 0.27162,-0.03195 0.401216,-0.09587 0.181079,-0.08876 4.450652,-2.387765 6.872147,-9.6416 0.232563,-0.694138 0.422519,-1.422007 0.603599,-2.156977 -0.713667,-1.01014 -1.501895,-2.231539 -2.283023,-3.651771 -2.190708,2.749924 -4.205662,3.792019 -4.390292,3.882559 -0.388789,0.191731 -0.79533,0.289372 -1.203647,0.289372 -0.408316,0 -0.813082,-0.09764 -1.203646,-0.289372 -0.18463,-0.09054 -2.20136,-1.132635 -4.393843,-3.887885 -0.782903,1.425558 -1.564031,2.641631 -2.281248,3.651771 0.182855,0.736746 0.372811,1.46639 0.605374,2.162303 2.421496,7.253835 6.691068,9.552836 6.872148,9.6416 z"
   style="fill-rule:nonzero;stroke:#eeeeee;stroke-width:0.994162px;fill:#eeeeee;fill-opacity:1"
   id="path2" /><path
   d="m 43.996704,52.309367 c 0.493531,0.48998 1.168141,0.406542 1.601312,-0.234338 0.06036,-0.08876 3.88611,-5.748389 5.121711,-14.57158 -2.980712,-0.18463 -5.656074,-0.816634 -7.889388,-1.80192 -0.715442,4.322832 -1.997202,7.635523 -3.413883,10.090749 2.169404,4.061863 4.523439,6.462055 4.580248,6.517089 z"
   style="fill-rule:nonzero;stroke:#eeeeee;stroke-width:0.994162px;fill:#eeeeee;fill-opacity:1"
   id="path3" /><path
   d="m 13.303715,37.503449 c 1.235602,8.823191 5.061352,14.482816 5.123487,14.57158 0.433171,0.64088 1.106006,0.726094 1.599537,0.236114 0.05503,-0.05326 2.414394,-2.435698 4.585574,-6.508213 -1.418457,-2.457002 -2.701992,-5.773244 -3.419209,-10.101401 -2.231539,0.985286 -4.908677,1.61729 -7.889389,1.80192 z"
   style="fill-rule:nonzero;stroke:#eeeeee;stroke-width:0.994162px;fill:#eeeeee;fill-opacity:1"
   id="path4" /><path
   d="m 32.011721,25.051565 c -1.752211,3.456489 -4.447101,6.953811 -8.414874,9.393059 1.713155,11.061832 7.717185,14.188118 8.013659,14.333692 0.129596,0.06391 0.266293,0.09587 0.401215,0.09587 0.134922,0 0.27162,-0.03196 0.401216,-0.09587 0.296473,-0.145574 6.300504,-3.27186 8.015434,-14.333692 -3.969548,-2.439248 -6.662663,-5.93657 -8.41665,-9.393059 z"
   style="fill-rule:nonzero;stroke:#eeeeee;stroke-width:0.994162px;fill:#eeeeee;fill-opacity:1"
   id="path5" />
</svg>
