<?xml version="1.0" encoding="UTF-8" standalone="no"?>
<svg
   width="64"
   height="64"
   viewBox="0 0 64 64"
   version="1.1"
   id="svg8"
   inkscape:version="1.4.2 (f4327f4, 2025-05-13)"
   sodipodi:docname="rohstoffe.svg"
   inkscape:export-filename="D:\app\project\kleiner-brauhelfer\images\hauptgaerung.png"
   inkscape:export-xdpi="48"
   inkscape:export-ydpi="48"
   xmlns:inkscape="http://www.inkscape.org/namespaces/inkscape"
   xmlns:sodipodi="http://sodipodi.sourceforge.net/DTD/sodipodi-0.dtd"
   xmlns="http://www.w3.org/2000/svg"
   xmlns:svg="http://www.w3.org/2000/svg"
   xmlns:rdf="http://www.w3.org/1999/02/22-rdf-syntax-ns#"
   xmlns:cc="http://creativecommons.org/ns#"
   xmlns:dc="http://purl.org/dc/elements/1.1/">
  <defs
     id="defs2" />
  <sodipodi:namedview
     id="base"
     pagecolor="#ffffff"
     bordercolor="#666666"
     borderopacity="1.0"
     inkscape:pageopacity="0.0"
     inkscape:pageshadow="2"
     inkscape:zoom="11.2"
     inkscape:cx="60.401786"
     inkscape:cy="17.1875"
     inkscape:document-units="mm"
     inkscape:current-layer="layer1"
     showgrid="true"
     units="px"
     inkscape:window-width="3840"
     inkscape:window-height="2054"
     inkscape:window-x="-11"
     inkscape:window-y="-11"
     inkscape:window-maximized="1"
     inkscape:document-rotation="0"
     inkscape:showpageshadow="2"
     inkscape:pagecheckerboard="0"
     inkscape:deskcolor="#d1d1d1">
    <inkscape:grid
       type="xygrid"
       empspacing="4"
       id="grid4485"
       originx="0"
       originy="0"
       spacingy="1"
       spacingx="1"
       units="px" />
  </sodipodi:namedview>
  <metadata
     id="metadata5">
    <rdf:RDF>
      <cc:Work
         rdf:about="">
        <dc:format>image/svg+xml</dc:format>
        <dc:type
           rdf:resource="http://purl.org/dc/dcmitype/StillImage" />
        <dc:title />
      </cc:Work>
    </rdf:RDF>
  </metadata>
  <g
     inkscape:label="Layer 1"
     inkscape:groupmode="layer"
     id="layer1"
     transform="translate(0,-284.29998)">
    <path
       sodipodi:nodetypes="cccscccscscsccccccscccsccscssscscccccccccsccccccscccccsccccccscccsssccssccccscccc"
       style="fill:#eeeeee;fill-opacity:1;stroke:none;stroke-width:0.264584;stroke-miterlimit:4;stroke-dasharray:none;stroke-opacity:1"
       id="path3564"
       d="m 28.386287,311.99401 c -0.444834,-0.49428 -1.079797,-0.71447 -1.698495,-0.58922 -0.09304,0.0173 -0.198571,0.039 -0.309429,0.0646 1.349029,-3.43062 2.240789,-8.37694 2.537592,-10.18171 0.113156,-0.68807 -0.08461,-1.39439 -0.529661,-1.88918 -0.444834,-0.49432 -1.079797,-0.71447 -1.698494,-0.58866 -2.333887,0.1409 -3.834286,0.89977 -5.688519,1.47108 0.273263,-0.82823 0.422427,-1.72257 0.422427,-2.65507 0,-3.48495 -4.112388,-10.37732 -5.37276,-12.40667 -0.357497,-0.57561 -0.946331,-0.91918 -1.57556,-0.91918 -0.629036,0 -1.218054,0.34379 -1.575367,0.91918 -1.260372,2.02956 -5.3725686,8.92172 -5.3725686,12.40667 0,0.9325 0.1491645,1.82684 0.4224278,2.65507 -2.7428782,-1.37145 -2.7428782,-1.37145 -5.6885188,-1.47073 -0.6183132,-0.12529 -1.2536711,0.0941 -1.69849467,0.58918 -0.44483364,0.49479 -0.64262949,1.20094 -0.52966097,1.88905 0.29678713,1.80481 1.18856304,6.75087 2.53759204,10.18175 -0.110863,-0.026 -0.2163887,-0.0499 -0.3094298,-0.0642 -0.6183127,-0.12529 -1.2536659,0.0941 -1.69849468,0.58918 -0.44483364,0.49479 -0.64262993,1.20094 -0.52966053,1.88914 0.29678713,1.80481 1.18856781,6.75087 2.53740541,10.18175 -0.1107005,-0.026 -0.2161779,-0.0499 -0.3092673,-0.0646 -0.6183132,-0.12529 -1.2536716,0.0941 -1.69849471,0.58922 -0.44483365,0.49484 -0.64263521,1.20095 -0.52966053,1.8891 0.39905768,2.42655 1.87293844,10.53418 4.08864204,12.99836 1.3124521,1.45951 3.0570997,2.26341 4.9129933,2.26341 1.26018,0 2.468658,-0.3711 3.52567,-1.06615 v 5.49482 c 0,1.17606 0.857481,2.12976 1.914872,2.12976 1.057587,0 1.914878,-0.9537 1.914878,-2.12976 v -5.4953 c 1.057203,0.69488 2.265681,1.06642 3.525861,1.06642 1.855899,0 3.600733,-0.80383 4.912999,-2.26342 2.215512,-2.46418 3.689583,-10.57211 4.088643,-12.99831 0.113156,-0.68837 -0.08461,-1.39448 -0.529661,-1.88914 -0.444834,-0.49428 -1.079798,-0.71456 -1.698495,-0.58862 -0.09305,0.0173 -0.198571,0.039 -0.309271,0.0646 1.348837,-3.43071 2.240591,-8.37698 2.537399,-10.18175 0.113156,-0.68811 -0.08461,-1.39426 -0.529447,-1.88919 z m -17.148095,11.87558 c -0.589018,0.65512 -1.3721988,1.01591 -2.2053636,1.01591 -0.8329671,0 -1.6159618,-0.3607 -2.2049745,-1.01591 -0.7069759,-0.78626 -1.6893074,-4.12697 -2.4330416,-7.61105 3.1325431,0.82719 6.1360257,1.91983 6.8429957,2.70597 1.216139,1.35237 1.216139,3.55288 3.84e-4,4.90508 z M 11.238,306.36882 c 1.215947,1.3522 1.215947,3.5527 1.92e-4,4.90495 -0.589018,0.65508 -1.3721988,1.01582 -2.2053636,1.01582 -0.8329671,0 -1.6159618,-0.3607 -2.2049745,-1.01565 -0.7069759,-0.78652 -1.6893074,-4.1271 -2.4330416,-7.61122 3.1327346,0.82723 6.1362177,1.91983 6.8431877,2.7061 z m 13.314131,-2.7061 c -0.743739,3.48412 -1.726066,6.8247 -2.433042,7.61105 -0.588826,0.65508 -1.372007,1.01582 -2.20498,1.01582 -0.833159,0 -1.616153,-0.3607 -2.205172,-1.01565 -1.215941,-1.35259 -1.215941,-3.55305 -1.92e-4,-4.90512 0.70736,-0.78627 3.710843,-1.87887 6.843386,-2.7061 z m -6.843194,15.30196 c 0.707168,-0.78631 3.71103,-1.87912 6.843962,-2.70631 -0.742971,3.48299 -1.725495,6.8234 -2.43381,7.61122 -0.588826,0.65512 -1.372007,1.01591 -2.20498,1.01591 -0.833159,0 -1.616153,-0.3607 -2.205172,-1.01591 -1.215755,-1.3522 -1.215755,-3.55271 0,-4.90491 z m -3.235562,-28.63519 c 1.689303,3.04886 3.118373,6.18329 3.118373,7.29544 0,1.91238 -1.399007,3.46834 -3.118373,3.46834 -1.71937,0 -3.118186,-1.55596 -3.118186,-3.46834 0,-1.11194 1.429071,-4.24658 3.118186,-7.29544 z m -3.235183,46.13597 c -0.589018,0.65512 -1.3721988,1.01586 -2.2053636,1.01586 -0.8329671,0 -1.6159618,-0.3607 -2.2049745,-1.01586 -0.7069759,-0.7864 -1.6893074,-4.12693 -2.4330416,-7.6111 3.1325431,0.82723 6.1360257,1.91979 6.8429957,2.70593 1.216139,1.35241 1.216139,3.55292 3.84e-4,4.90517 z m 10.880897,0 c -0.588826,0.65512 -1.372007,1.01586 -2.20498,1.01586 -0.833159,0 -1.616153,-0.3607 -2.205172,-1.01586 -1.215941,-1.35225 -1.215941,-3.55276 -1.92e-4,-4.905 0.707168,-0.78631 3.711035,-1.87913 6.843962,-2.70636 -0.742779,3.48317 -1.725303,6.82332 -2.433618,7.61136 z"
       inkscape:connector-curvature="0" />
    <g
       style="fill:#eeeeee;fill-opacity:1;stroke-width:3.3568"
       transform="matrix(0.06402784,0,0,0.09703021,31.217744,295.07299)"
       id="g2129">
      <path
         style="fill:#eeeeee;fill-opacity:1;stroke-width:3.3568"
         d="M 271,61.732 V 15 C 271,6.709 264.291,0 256,0 247.709,0 241,6.709 241,15 V 61.732 C 4.426,69.544 0,254.092 0,256 c 0,8.291 6.709,15 15,15 156.024,0 217.491,-73.914 241,-130.739 C 279.509,197.086 340.976,271 497,271 c 8.291,0 15,-6.709 15,-15 0,-1.908 -4.426,-186.456 -241,-194.268 z"
         id="path2119" />
      <path
         style="fill:#eeeeee;fill-opacity:1;stroke-width:3.3568"
         d="m 251.254,511.224 c 1.538,0.513 3.149,0.776 4.746,0.776 1.597,0 3.208,-0.264 4.746,-0.776 2.139,-0.703 52.617,-19.091 81.24,-77.128 2.736,-5.552 4.993,-11.375 7.141,-17.256 -8.454,-8.077 -17.769,-17.855 -26.992,-29.207 -25.911,21.998 -49.724,30.328 -51.898,31.053 -4.613,1.538 -9.403,2.314 -14.237,2.314 -4.834,0 -9.624,-0.776 -14.238,-2.314 -2.175,-0.725 -26.017,-9.067 -51.947,-31.097 -9.241,11.402 -18.477,21.127 -26.957,29.214 2.151,5.894 4.413,11.73 7.156,17.292 28.623,58.038 79.101,76.426 81.24,77.129 z"
         id="path2121" />
      <path
         style="fill:#eeeeee;fill-opacity:1;stroke-width:3.3568"
         d="m 397.68,418.48 c 5.847,3.92 13.806,3.243 18.926,-1.875 0.714,-0.714 45.952,-45.992 60.566,-116.578 -35.248,-1.474 -66.883,-6.539 -93.269,-14.414 -8.476,34.578 -23.611,61.084 -40.362,80.72 25.644,32.498 53.465,51.699 54.139,52.147 z"
         id="path2123" />
      <path
         style="fill:#eeeeee;fill-opacity:1;stroke-width:3.3568"
         d="m 34.828,300.028 c 14.612,70.58 59.845,115.865 60.566,116.578 5.12,5.12 13.079,5.795 18.926,1.875 0.634,-0.421 28.539,-19.481 54.205,-52.064 -16.778,-19.645 -31.941,-46.179 -40.428,-80.803 -26.385,7.875 -58.021,12.94 -93.269,14.414 z"
         id="path2125" />
      <path
         style="fill:#eeeeee;fill-opacity:1;stroke-width:3.3568"
         d="m 256,200.409 c -20.726,27.658 -52.568,55.64 -99.494,75.15 20.264,88.489 91.245,113.496 94.748,114.664 1.538,0.513 3.149,0.776 4.746,0.776 1.597,0 3.208,-0.264 4.746,-0.776 3.503,-1.168 74.484,-26.175 94.748,-114.664 -46.926,-19.51 -78.768,-47.492 -99.494,-75.15 z"
         id="path2127" />
    </g>
  </g>
</svg>
