<?xml version="1.0" encoding="UTF-8" standalone="no"?>
<svg
   xmlns:dc="http://purl.org/dc/elements/1.1/"
   xmlns:cc="http://creativecommons.org/ns#"
   xmlns:rdf="http://www.w3.org/1999/02/22-rdf-syntax-ns#"
   xmlns:svg="http://www.w3.org/2000/svg"
   xmlns="http://www.w3.org/2000/svg"
   xmlns:sodipodi="http://sodipodi.sourceforge.net/DTD/sodipodi-0.dtd"
   xmlns:inkscape="http://www.inkscape.org/namespaces/inkscape"
   sodipodi:docname="settings.svg"
   inkscape:version="1.0 (4035a4fb49, 2020-05-01)"
   id="svg4450"
   version="1.1"
   viewBox="0 0 64 64"
   height="64"
   width="64"
   shape-rendering="crispEdges">
  <defs
     id="defs4444" />
  <sodipodi:namedview
     units="px"
     showgrid="true"
     borderopacity="1.0"
     bordercolor="#666666"
     pagecolor="#ffffff"
     id="base"
     showborder="true"
     inkscape:showpageshadow="false"
     inkscape:document-rotation="0"
     inkscape:zoom="20.395611"
     inkscape:cx="44.934275"
     inkscape:cy="27.157944"
     inkscape:window-width="3840"
     inkscape:window-height="2066"
     inkscape:window-x="-11"
     inkscape:window-y="-11"
     inkscape:window-maximized="1"
     inkscape:current-layer="layer1">
    <inkscape:grid
       id="grid5013"
       type="xygrid"
       empspacing="4" />
  </sodipodi:namedview>
  <metadata
     id="metadata4447">
    <rdf:RDF>
      <cc:Work
         rdf:about="">
        <dc:format>image/svg+xml</dc:format>
        <dc:type
           rdf:resource="http://purl.org/dc/dcmitype/StillImage" />
        <dc:title />
      </cc:Work>
    </rdf:RDF>
  </metadata>
  <g
     id="layer1"
     inkscape:groupmode="layer"
     inkscape:label="Layer 1">
    <path
       id="path4820"
       d="m 57.187606,25.856051 -4.432322,-0.563472 c -0.365433,-1.124586 -0.815733,-2.209088 -1.341489,-3.239368 l 2.737196,-3.524635 c 1.10808,-1.426356 0.978416,-3.439763 -0.287627,-4.665725 L 50.150112,10.149602 C 48.912368,8.8717762 46.898965,8.7444651 45.470247,9.8501882 L 41.95032,12.587378 C 40.920045,12.061632 39.835542,11.611323 38.708595,11.245895 L 38.145127,6.8206494 C 37.932945,5.0453645 36.426422,3.7085932 34.641714,3.7085932 h -5.281065 c -1.784717,0 -3.291231,1.3367713 -3.503422,3.1049852 l -0.563469,4.4323166 c -1.126937,0.365428 -2.211449,0.81338 -3.241724,1.341483 L 18.529753,9.8501882 c -1.424,-1.1057231 -3.437406,-0.978412 -4.66572,0.2876278 l -3.71325,3.710887 c -1.2778314,1.24011 -1.4074992,3.253517 -0.2994194,4.682231 l 2.7371954,3.522277 c -0.528108,1.03028 -0.976054,2.114782 -1.341481,3.239368 l -4.4252532,0.563472 c -1.7752837,0.21218 -3.1120506,1.718699 -3.1120506,3.503418 v 5.281061 c 0,1.784718 1.3367669,3.291232 3.1049796,3.503419 l 4.4323242,0.563472 c 0.365427,1.124579 0.81573,2.209087 1.341481,3.239362 l -2.7371954,3.52464 c -1.1080798,1.426356 -0.978412,3.439763 0.2876284,4.665725 l 3.713249,3.713249 c 1.240106,1.275468 3.251155,1.40278 4.67987,0.297057 l 3.522284,-2.737194 c 1.030275,0.528108 2.114777,0.97841 3.239363,1.341486 l 0.563469,4.42289 c 0.212191,1.779998 1.718705,3.116771 3.503422,3.116771 h 5.281065 c 1.784708,0 3.291231,-1.336773 3.503413,-3.104986 l 0.563468,-4.432319 c 1.124586,-0.365432 2.209099,-0.815734 3.239373,-1.341485 l 3.524639,2.737195 c 1.426358,1.108078 3.439761,0.978411 4.665721,-0.28763 l 3.713242,-3.713248 c 1.277837,-1.240105 1.407501,-3.251155 0.299421,-4.679869 l -2.737196,-3.522282 c 0.528107,-1.030275 0.978417,-2.114783 1.341489,-3.239362 l 4.422889,-0.563472 c 1.775283,-0.212187 3.112051,-1.718701 3.112051,-3.503419 v -5.281061 c 0.0019,-1.784719 -1.334406,-3.291238 -3.102618,-3.503418 z M 32.001182,43.788085 c -6.499954,0 -11.788083,-5.288137 -11.788083,-11.788088 0,-6.499951 5.288129,-11.788083 11.788083,-11.788083 6.499945,0 11.788083,5.288132 11.788083,11.788083 0,6.499951 -5.288138,11.788088 -11.788083,11.788088 z"
       style="stroke-width:21.3333;fill:#ffffff" />
  </g>
</svg>
