<?xml version="1.0" encoding="UTF-8" standalone="no"?>
<!-- Created with Inkscape (http://www.inkscape.org/) -->

<svg
   width="64"
   height="64"
   viewBox="0 0 16.933333 16.933333"
   version="1.1"
   id="svg716"
   inkscape:version="1.3.2 (091e20e, 2023-11-25, custom)"
   sodipodi:docname="entsperren.svg"
   xml:space="preserve"
   xmlns:inkscape="http://www.inkscape.org/namespaces/inkscape"
   xmlns:sodipodi="http://sodipodi.sourceforge.net/DTD/sodipodi-0.dtd"
   xmlns="http://www.w3.org/2000/svg"
   xmlns:svg="http://www.w3.org/2000/svg"><sodipodi:namedview
     id="namedview718"
     pagecolor="#ffffff"
     bordercolor="#000000"
     borderopacity="0.25"
     inkscape:showpageshadow="2"
     inkscape:pageopacity="0.0"
     inkscape:pagecheckerboard="false"
     inkscape:deskcolor="#d1d1d1"
     inkscape:document-units="px"
     showgrid="true"
     showborder="false"
     inkscape:zoom="14.638496"
     inkscape:cx="46.145451"
     inkscape:cy="7.2070245"
     inkscape:window-width="3840"
     inkscape:window-height="2054"
     inkscape:window-x="-11"
     inkscape:window-y="-11"
     inkscape:window-maximized="1"
     inkscape:current-layer="layer1"><inkscape:grid
       type="xygrid"
       id="grid837"
       spacingx="2.1166666"
       spacingy="2.1166666"
       empspacing="1"
       originx="0"
       originy="0"
       units="px"
       visible="true" /></sodipodi:namedview><defs
     id="defs713" /><g
     inkscape:label="Layer 1"
     inkscape:groupmode="layer"
     id="layer1"><g
       style="fill:#ffffff"
       id="g1"
       transform="matrix(0.22711642,0,0,0.22711642,0.21593859,2.0795878)"><path
         d="M 54.39,22.46 H 27.84 V 15.62 A 8.17,8.17 0 0 1 36,7.46 c 4,0 7.75,2.41 8.38,6.28 1.34,-0.58 5.56,-2.31 6.53,-2.77 a 15.62,15.62 0 0 0 -30.53,4.65 v 6.84 H 17.61 A 1.61,1.61 0 0 0 16,24.07 V 54.38 A 1.61,1.61 0 0 0 17.61,56 H 54.39 A 1.61,1.61 0 0 0 56,54.38 V 24.07 A 1.61,1.61 0 0 0 54.39,22.46 Z M 38.52,40.9 v 6.46 a 1,1 0 0 1 -1,1 h -3 a 1,1 0 0 1 -1,-1 V 40.9 a 4.36,4.36 0 1 1 5,0 z"
         id="path1" /></g></g></svg>
