<?xml version="1.0" encoding="UTF-8" standalone="no"?>
<svg
   width="64"
   height="64"
   viewBox="0 0 64 64"
   version="1.1"
   xml:space="preserve"
   style="fill-rule:evenodd;clip-rule:evenodd;stroke-linejoin:round;stroke-miterlimit:2;"
   id="svg1"
   sodipodi:docname="wasseraufbereitung.svg"
   inkscape:version="1.4.2 (f4327f4, 2025-05-13)"
   xmlns:inkscape="http://www.inkscape.org/namespaces/inkscape"
   xmlns:sodipodi="http://sodipodi.sourceforge.net/DTD/sodipodi-0.dtd"
   xmlns="http://www.w3.org/2000/svg"
   xmlns:svg="http://www.w3.org/2000/svg"><defs
   id="defs1" /><sodipodi:namedview
   id="namedview1"
   pagecolor="#ffffff"
   bordercolor="#eeeeee"
   borderopacity="0.25"
   inkscape:showpageshadow="2"
   inkscape:pageopacity="0.0"
   inkscape:pagecheckerboard="0"
   inkscape:deskcolor="#d1d1d1"
   inkscape:zoom="14.179688"
   inkscape:cx="27.962534"
   inkscape:cy="29.584573"
   inkscape:window-width="3840"
   inkscape:window-height="2054"
   inkscape:window-x="-11"
   inkscape:window-y="-11"
   inkscape:window-maximized="1"
   inkscape:current-layer="g1" />
    
<g
   id="g1"
   transform="scale(0.52083333)"
   style="stroke-width:1.92"><path
     class="st0"
     d="M 61.405,3.9321601e-7 C 69.285,33.66 78.855,35.4 95.205,60.69 c 4.25,6.57 7.22,13.56 7.22,21.58 0,11.14 -4.02,20.69 -12.07,28.65 -8.08,7.96 -17.71,11.96 -28.93,11.96 -11.19,0 -20.8,-4 -28.88,-11.96 -8.06,-7.96 -12.09,-17.51 -12.09,-28.65 0,-8.06 3.02,-15.1 7.31,-21.71 C 44.145,35.33 53.675,33.55 61.405,3.9321601e-7 Z M 38.025,71.78 c 2.29,-0.21 4.31,1.48 4.51,3.76 0.52,5.52 1.73,10.61 4.04,15 2.23,4.24 5.55,7.89 10.35,10.7 1.98,1.16 2.64,3.71 1.48,5.68 -1.16,1.98 -3.71,2.64 -5.68,1.48 -6.25,-3.66 -10.58,-8.42 -13.51,-13.99 -2.95,-5.61 -4.36,-11.85 -4.95,-18.12 -0.21,-2.27 1.49,-4.3 3.76,-4.51 z"
     id="path1"
     style="clip-rule:evenodd;fill:#eeeeee;fill-opacity:1;fill-rule:evenodd;stroke-width:1.92" /></g></svg>
