<?xml version="1.0" encoding="UTF-8" standalone="no"?>
<!-- Created with Inkscape (http://www.inkscape.org/) -->

<svg
   xmlns:dc="http://purl.org/dc/elements/1.1/"
   xmlns:cc="http://creativecommons.org/ns#"
   xmlns:rdf="http://www.w3.org/1999/02/22-rdf-syntax-ns#"
   xmlns:svg="http://www.w3.org/2000/svg"
   xmlns="http://www.w3.org/2000/svg"
   xmlns:sodipodi="http://sodipodi.sourceforge.net/DTD/sodipodi-0.dtd"
   xmlns:inkscape="http://www.inkscape.org/namespaces/inkscape"
   width="60"
   height="60"
   id="svg10469"
   version="1.1"
   inkscape:version="0.48.2 r9819"
   sodipodi:docname="gewuerz.svg">
  <title
     id="title10768">allspice</title>
  <defs
     id="defs10471" />
  <sodipodi:namedview
     id="base"
     pagecolor="#ffffff"
     bordercolor="#666666"
     borderopacity="1.0"
     inkscape:pageopacity="0.0"
     inkscape:pageshadow="2"
     inkscape:zoom="7.919596"
     inkscape:cx="43.651623"
     inkscape:cy="22.941918"
     inkscape:document-units="px"
     inkscape:current-layer="layer1"
     showgrid="false"
     fit-margin-top="0"
     fit-margin-left="0"
     fit-margin-right="0"
     fit-margin-bottom="0"
     inkscape:window-width="1280"
     inkscape:window-height="938"
     inkscape:window-x="-4"
     inkscape:window-y="-4"
     inkscape:window-maximized="1" />
  <metadata
     id="metadata10474">
    <rdf:RDF>
      <cc:Work
         rdf:about="">
        <dc:format>image/svg+xml</dc:format>
        <dc:type
           rdf:resource="http://purl.org/dc/dcmitype/StillImage" />
        <cc:license
           rdf:resource="http://creativecommons.org/licenses/publicdomain/" />
        <dc:title>allspice</dc:title>
        <dc:creator>
          <cc:Agent>
            <dc:title>NBCorp</dc:title>
          </cc:Agent>
        </dc:creator>
        <dc:rights>
          <cc:Agent>
            <dc:title>PD</dc:title>
          </cc:Agent>
        </dc:rights>
        <dc:description>www.nbcorp.be</dc:description>
      </cc:Work>
      <cc:License
         rdf:about="http://creativecommons.org/licenses/publicdomain/">
        <cc:permits
           rdf:resource="http://creativecommons.org/ns#Reproduction" />
        <cc:permits
           rdf:resource="http://creativecommons.org/ns#Distribution" />
        <cc:permits
           rdf:resource="http://creativecommons.org/ns#DerivativeWorks" />
      </cc:License>
    </rdf:RDF>
  </metadata>
  <g
     inkscape:label="Calque 1"
     inkscape:groupmode="layer"
     id="layer1"
     transform="translate(49.063037,-881.7651)">
    <path
       style="fill:#000000"
       d="m -8.8025583,890.09156 c -1.9799067,0.17327 -2.5318157,2.4731 -4.4866867,0.78213 0.720063,-0.0728 2.454863,0.61151 0.919956,-0.51371 -1.572289,-1.05534 -2.841736,2.94073 -3.511713,1.13088 0.210851,-1.14149 -1.632147,-0.72419 -0.441555,0.0339 -1.185845,0.12233 -1.73945,-0.0497 -0.981606,-0.62792 -1.637673,-0.17593 -1.88669,2.57509 -2.357213,3.19624 -1.824366,-0.4946 -2.935407,-0.29041 -3.47321,1.64797 -0.712247,0.92185 -3.180684,0.22773 -0.850613,0.0264 1.073021,-0.68314 -1.968311,-0.3551 -1.542041,0.80494 -0.867896,0.8517 -0.561746,2.42155 -2.241738,1.91905 -2.283051,1.20339 -0.195513,5.74771 2.228147,4.22872 2.105086,-1.03391 4.161685,2.47839 3.617342,4.16759 -1.225304,1.64012 -2.224595,3.28909 -3.593566,4.41218 0.403537,1.71724 -0.723903,3.59061 -1.137847,5.42771 -0.388925,2.22603 -1.644319,4.47526 -1.963221,6.48405 0.139627,2.39727 -0.948854,4.81911 -1.231276,7.24689 -1.27161,1.31763 -2.059421,-2.67674 -2.953285,-3.60601 -2.315278,-4.65307 -5.335994,-8.90245 -8.127985,-13.2602 0.288484,-1.90767 0.202837,-4.82778 1.88171,-5.96777 1.269402,0.0834 1.607999,3.49402 3.950754,2.30666 2.479852,0.686 2.606329,-3.55222 0.39685,-4.28045 0.123788,-0.64208 1.480143,-3.66235 -0.359071,-4.31994 -1.341843,-2.28833 -3.107754,2.86831 -3.587747,1.37516 1.886567,-1.35566 0.797109,-4.22366 -0.552824,-5.32124 -2.358102,-1.08428 -2.762385,2.00872 -3.6793,2.60059 -1.61482,0.27378 -5.103444,-1.45794 -5.285058,1.58613 -0.294254,0.97877 -1.577852,0.22579 -0.628367,1.88851 0.06508,1.54306 0.05004,1.13029 -0.275119,-0.0781 0,0.99066 0,1.98133 0,2.97199 1.127907,-1.53568 3.310314,1.38457 2.187395,1.48084 0.07222,-2.61954 -0.461588,1.08884 -1.309901,1.23775 0.769987,0.6693 1.347077,0.0633 1.917884,-1.01026 0.833293,2.79027 -3.541995,0.50938 -2.622154,2.02094 1.211539,0.0542 1.16915,2.014 -0.173225,0.81517 -0.517515,1.41868 2.399829,1.40811 10e-7,1.74931 -0.33813,1.68647 1.065782,-0.46885 2.262115,0.2207 2.267955,0.88668 5.319586,0.69517 6.354975,3.34214 2.733717,3.77887 5.006973,7.79952 7.221105,11.88797 0.795404,1.47733 1.201345,2.04539 -0.800714,1.60061 -2.641024,1.12541 -5.207363,-0.94756 -7.913424,-0.28747 -2.796504,1.74562 -4.008754,-1.27528 -5.6873,-3.04537 -0.654326,-0.65654 -1.73176,-2.99903 -1.395986,-0.9442 0.85339,0.63486 2.613652,3.53195 1.215965,3.23011 0.247577,-2.25696 -0.490022,0.0672 -0.692182,0.36947 0.915729,0.76773 -1.032356,2.88279 -0.564542,4.31028 1.00022,0.38227 3.593826,-2.4908 5.450554,-2.88978 1.501534,-0.68341 4.718173,-0.91073 5.221457,-0.0813 -0.92849,0.32128 1.510326,0.59051 1.616766,0.2208 1.177714,1.02358 -2.639622,0.76059 -3.267497,1.83418 -1.272039,0.83945 -2.929011,-1.12285 -4.516697,-0.4614 0.715503,-0.66972 4.165564,-1.77547 1.330718,-1.18275 -1.841392,1.46891 -4.315139,1.7025 -5.835301,3.76 0.432363,0.91611 2.409689,-2.71922 4.158338,-2.02967 1.514156,-0.30369 5.599174,0.18148 2.420811,1.65604 -1.636253,2.06779 -4.79192,-0.15516 -6.579149,1.61198 0.420257,0.57701 4.664758,-1.24639 4.435915,0.26281 -1.398203,1.53193 -2.656134,3.67067 -4.435915,4.07653 0.624573,0.0576 1.90302,-0.23704 0.624969,1.12704 -0.678648,2.23637 1.764296,-1.44456 2.469307,-2.09571 1.043845,-1.35334 1.497997,-1.55987 1.40564,0.37688 0.07064,1.55274 1.391698,3.81412 0.717203,0.96476 -1.253099,-2.26552 0.01779,-4.09728 1.847745,-5.42083 2.362038,-2.88435 1.22974,2.33496 2.043046,3.60237 0.335977,3.48299 -1.138984,-4.59354 -0.667875,-0.66085 0.297837,1.35229 0.754759,5.73292 1.243574,2.94171 0.829957,2.91581 0.07419,-3.14548 -0.225156,-3.98564 -0.76015,-1.89865 -0.899673,-4.29903 1.672084,-4.73664 1.880112,-0.96851 3.239355,-2.73162 5.668776,-1.7217 1.343696,0.17624 2.16155,2.95159 2.83285,0.46499 0.840478,-2.14391 0.677546,-4.64221 1.520216,-6.76301 0.278034,1.83956 0.05725,3.94726 -0.897871,5.76393 -0.620588,2.32781 0.288875,1.7035 -0.08908,3.68239 -0.221834,1.63781 -0.57847,2.00681 -0.173224,0.10869 -0.8087,0.43151 -0.938514,4.19096 -1.31351,5.84578 -0.501252,1.38584 -0.267607,3.7167 0.155283,0.95415 0.172831,-1.38687 0.963113,-6.14139 0.550252,-2.42175 -0.05615,0.84204 -0.738022,5.26328 0.112081,3.21654 0.266697,-1.18962 0.446285,-4.58104 0.733662,-4.70424 0.620455,1.52372 -0.408021,4.75289 1.032555,5.35299 -0.165032,-0.91095 0.889206,0.9194 0.292093,-1.04974 -0.757857,-0.25383 -0.430742,-3.21335 -0.821971,-4.63971 -0.04353,-2.01109 0.06943,-4.14321 0.237774,-6.14099 0.253997,-1.71984 1.18088,-3.28393 2.294854,-4.64456 0.119285,0.8775 -2.673974,4.43876 -0.529619,1.91403 1.950659,-2.71077 -0.793122,1.47252 -0.834569,2.35351 0.655297,-0.39457 2.359164,-4.09983 2.178161,-1.85583 -0.882297,1.55121 -3.078711,2.15504 -2.594703,3.33848 0.582996,-0.89081 3.32953,-4.3854 2.81112,-1.65584 -0.785634,0.87465 -1.929336,1.74883 -0.620196,0.37736 1.081839,-2.78452 -2.30314,4.02565 -2.279528,1.62311 -0.982901,0.39049 0.210219,2.64856 0.62402,0.44166 1.85981,-2.48567 -0.980978,1.9869 -0.84234,2.94822 0.213105,1.65823 1.22949,-2.29403 2.151999,-2.47634 1.082995,-0.98607 1.364514,-2.53161 0.04329,-0.52584 -1.93934,3.04614 -0.08266,-1.64919 1.205077,-2.04265 0.120067,1.54746 0.868122,3.28344 0.630491,4.78025 -0.94888,0.79949 -3.659468,5.21936 -1.480054,2.30253 0.543618,-0.93944 2.217546,-3.08709 1.504676,-0.72686 -0.847233,0.60202 -3.585591,4.96443 -1.511475,2.25192 0.69191,-0.88973 2.121599,-3.14427 1.834815,-0.6796 -1.16821,0.44934 -3.909998,3.64587 -2.680558,4.10674 0.119297,-0.98737 2.671748,-4.91539 2.786703,-2.5781 -0.467154,1.19942 1.078389,3.9809 0.501159,1.75952 -0.297676,-1.66727 2.837646,2.54938 0.940846,-0.0679 -1.206007,-0.86642 -1.398095,-3.17259 0.04415,-1.05633 0.574036,1.18392 2.559875,3.10499 1.042753,0.71324 -0.863576,-0.82418 -3.559284,-4.28292 -0.981609,-2.04134 1.937762,1.64577 -2.599028,-2.75526 -1.090285,-2.35379 0.64888,0.97191 3.663013,3.61456 1.576006,1.32127 -1.022606,-0.57257 -3.04172,-4.26701 -0.82649,-1.97912 1.602234,1.40295 2.278575,3.55047 2.916962,5.47631 0.166916,-1.80796 -1.308336,-3.87336 -1.179781,-5.80351 0.185149,2.95559 -2.16589,-0.88519 -2.982597,-1.73216 0.58013,0.49729 3.250501,2.85392 1.32466,0.69628 -1.346992,-0.14733 -2.107689,-3.31595 -0.508191,-1.19863 1.742032,1.20635 -3.109969,-3.52787 -0.107234,-1.3221 1.089414,0.748 1.614629,2.69272 2.361262,3.24073 -0.617057,-1.20516 -0.537909,-3.24341 -1.491095,-3.9298 0.935391,2.45891 -0.767656,0.21045 -1.131635,-0.50538 -0.97161,-0.62996 -1.614364,-2.05693 -0.227548,-0.57225 0.903569,1.25166 1.743878,1.29309 0.329158,-0.0907 -0.98626,-0.39721 -2.293519,-3.23204 -0.558938,-1.16043 2.518483,2.37106 -1.949632,-2.36774 -0.916047,-2.24418 3.464801,3.14216 5.06654,7.84806 5.653631,12.39183 -0.180045,1.26897 0.783055,4.83848 0.611383,1.67451 -0.263103,-3.05662 -0.651383,-6.11845 -2.034545,-8.89561 -0.901597,-2.19522 -3.072895,-3.86827 -1.039346,-6.01191 0.872244,-2.37767 1.202453,-5.22757 3.895854,-6.15455 1.234657,-0.46757 3.604858,-0.2035 1.761571,1.55742 -0.342365,3.16525 4.597827,3.19584 4.552645,0.10009 0.82044,-0.0246 2.530629,-1.70395 2.914258,-2.21107 -1.1790921,1.55667 0.2154943,1.65096 0.6215719,-0.0951 1.9187492,-1.12952 4.7805298,-0.89621 6.83049471,-2.23493 2.18069919,-1.07864 3.76558469,-2.91307 5.40681999,-4.6343 2.6016767,-0.99612 3.6352142,-4.21161 0.23148,-4.87265 -2.1842124,-1.90132 -5.15117437,-2.38776 -7.959781,-2.02185 -1.9762211,-0.40147 -4.6776198,1.83767 -6.0306754,1.01658 1.8708997,-0.18903 4.3861371,-1.84265 2.81763,-3.60914 -2.2794441,-0.32558 1.618316,-1.64217 0.8509409,-2.93057 -0.3124203,-1.73936 -2.1704532,-1.65212 -3.6244087,-1.85997 1.6261352,-0.0251 3.7718818,-3.11163 0.9240271,-3.94173 1.4332635,-0.91642 0.9277236,-3.53881 -0.8153718,-3.74813 z m 0.1698284,0.42117 c 1.312292,0.28047 1.0528363,1.73344 -0.013587,0.82191 0.7598059,0.37019 1.575396,2.55314 -0.3260704,2.3369 1.0174101,-0.35018 1.1330975,-2.01817 0.010189,-0.40758 -1.0554994,1.78856 -2.8388814,-0.72602 -0.6776542,-0.6221 -2.4509832,0.0918 -0.4632432,-2.91379 0.8390728,-1.60017 -0.049308,-0.20421 -0.1431032,-0.47278 0.1680491,-0.52896 z m -4.9080381,0.91708 c 3.102429,-0.2377 2.8644,4.25832 -0.06114,4.00457 -1.68687,-0.47597 -2.110797,-3.81775 0.06114,-4.00457 z m 3.077289,0.27512 c -0.790788,0.527 1.620441,0.78685 0,0 z m -6.541787,0.25814 c 1.501253,0.24491 0.548605,2.3418 0.09171,2.45236 -1.990108,0.45869 2.078187,0.49177 1.185401,-1.31782 0.961456,0.25655 -1.065961,3.34498 -2.5712,1.58623 -0.992382,-1.11188 -0.457282,-2.9791 1.29409,-2.72077 z m 8.4404674,0.30909 c -1.2945294,0.61594 -1.0615991,1.67695 0.02329,0.34942 l 0.034451,-0.28153 -0.057742,-0.0679 4e-7,10e-6 z m -3.2641004,0.5876 c -0.627557,0.21849 -0.167037,0.64803 0,0 z m 1.450334,0.47552 c -0.472802,0.9832 1.3054876,-0.002 0,0 z m -4.330622,0.12567 c -0.761649,2.33378 4.338069,0.70876 1.188802,1.03247 -0.64168,-0.0298 -0.776183,-0.74058 -1.188802,-1.03247 z m 3.185979,0.0577 c -1.24437,0.9947 0.116894,0.79709 0,10e-6 l 0,-10e-6 z m -0.808383,0.0374 c -1.844456,0.25344 -0.102306,1.07959 0,0 z m 3.4169461,0.58081 c 2.5745015,-0.3676 0.7726849,3.61785 0.7676238,2.8192 -0.09282,-0.58353 -1.0394036,0.15631 -0.3056902,-0.55023 -0.7184002,-1.18319 -2.9886647,-1.05963 -3.1620117,-1.29676 1.483728,0.2789 0.187532,-0.97881 1.403858,-0.25018 0.3816515,-0.4265 0.7749279,-0.59859 1.2962201,-0.72203 z m -12.4789841,0.29211 c 0.428825,1.43816 -2.37189,1.63337 -0.523067,0.51641 l 0.226823,-0.29353 0.296249,-0.22274 -5e-6,-1.4e-4 z m 1.260126,0.11208 c 2.232239,0.46645 -1.307669,5.19258 0.68484,3.00409 1.208285,-0.86671 -0.9046,-4.37097 0.683058,-2.05725 0.678558,1.53113 -1.442362,4.41539 -3.283569,2.65011 -0.973082,-1.4598 0.782873,-3.01491 1.915671,-3.59695 z m 10.3595268,0.0611 c -0.6813128,1.23596 2.1907932,1.57135 0.1732254,0.25435 l -0.1732249,-0.25474 -5e-7,3.9e-4 z m -5.3597818,0.46533 c 2.535404,0.005 0.942128,3.322 0.754038,2.47944 1.068167,-0.93889 -1.791692,-1.09325 -1.012178,-0.52988 -0.541679,-0.68846 -0.992603,-1.57858 0.25814,-1.94956 z m 8.0192932,0.34985 c 0.2340958,0.2698 -0.1439979,0.39482 0,0 z m -9.3982992,0.017 c 0.44718,1.49018 -1.251704,2.17354 -0.669172,0.12936 l 0.448394,-0.11578 0.220776,-0.0136 2e-6,2e-5 z m -1.698283,0.0136 c 0.870394,0.84328 -0.127784,3.17333 0.02599,0.64236 0.134221,-0.18412 -0.243437,-0.48621 -0.02599,-0.64236 z m 6.643684,0.18682 c 2.2923185,0.75346 -1.662322,0.44112 0,0 z m -0.896694,0.0543 c 0.861668,1.11729 -1.987356,0.0811 0,0 z m -5.091452,0.38042 c 0.120479,0.26541 -0.215922,0.26192 0,0 z m -5.580559,0.0781 c 0.787852,-0.002 0.337613,2.27582 -0.0039,0.80077 -0.236744,1.17258 -0.38266,2.428 0.387742,0.80543 -0.753997,1.6665 -0.277122,1.34358 0.224163,0.78461 -0.919415,2.88843 -5.207142,-0.8526 -2.133049,-1.93265 0.529063,-0.17108 1.013786,-0.25174 1.525059,-0.45816 z m 12.679382,0.12567 c 2.2490957,1.08047 -0.521784,3.78857 -0.723471,2.33691 -2.072303,0.0154 -2.212017,-3.05289 0.295071,-2.17146 l 0.319706,-0.1076 0.10869,-0.0577 4e-6,-1.5e-4 z m -13.141315,0.15624 c -0.722329,2.07232 0.659129,1.1701 0,0 z m 14.3301132,0.0102 c 0.6758012,0.32239 -0.1538671,0.304 0,0 z M -19.91952,896.6231 c -0.713917,0.68492 -1.917335,1.80968 -0.118879,0.6929 0.05432,-0.19701 0.483151,-0.56916 0.118879,-0.6929 z m 2.38439,0.35324 c 0.215925,1.01042 0.31105,3.60582 -0.154838,1.20361 0.03956,-0.40571 0.179295,-0.79232 0.154838,-1.20361 z m 2.730839,0.30229 c 0.230671,0.15992 -0.12072,0.19515 0,0 z m -1.480903,0.0408 c 2.30217,0.55556 0.202795,2.53618 -0.53666,3.10111 -0.145196,-1.03307 -0.701772,-2.49272 0.53666,-3.10111 z m -0.68271,0.11549 c 0.140546,0.33279 -0.52851,0.21139 0,0 z m 3.919638,0.0476 c 0.05813,0.9048 1.823866,2.17608 0.108687,0.88646 -0.08385,-0.2278 -0.373343,-0.68034 -0.108687,-0.88646 z m -26.622286,0.40079 c 1.404921,0.0728 -1.606223,0.23259 0,0 z m 27.909585,0.003 c 0.07809,1.28336 2.3622399,-0.30603 0.166436,0.0713 l -0.166431,-0.0713 -5e-6,10e-6 z m -29.044038,0.0272 c 1.132087,0.17521 -0.7052,0.54485 0,0 z m 22.240715,0.0374 c 1.814905,1.62435 0.825723,3.91806 -0.953686,5.03041 -0.822947,1.30072 -1.737961,3.37331 -2.371557,0.73017 -1.412713,-1.1975 -0.401309,-3.09014 -0.176623,-4.09627 -0.843934,0.99381 -1.293376,2.29998 -1.065512,0.16593 1.457202,-1.91808 3.111667,0.75041 4.567378,-1.83024 z m 4.700848,0.051 c 0.05433,0.21889 -3.823526,4.18534 -1.53865,1.39254 0.396768,-0.54183 0.900239,-1.16267 1.53865,-1.39254 z m 5.740197,0.21059 c 1.5097974,-0.23076 2.6557844,3.08535 0.696033,3.10154 -1.1508701,-0.48855 -2.591085,-2.63899 -1.2768454,-0.23489 1.0005889,1.43599 -1.4362236,-0.9036 -1.0597287,-1.51484 -0.076977,1.12581 0.3275008,2.27158 -0.3942609,0.64258 -0.189625,-1.10571 0.965579,-1.71738 2.034802,-1.99439 z m -5.427713,0.18681 c 0.914423,0.77422 2.435566,1.63847 0.288715,2.1704 -1.504606,0.39866 -3.790107,0.46724 -1.412578,-1.11642 0.376762,-0.34944 0.70996,-0.74526 1.123863,-1.05398 z m -25.80711,0.0476 c 1.081057,0.74155 -0.999908,5.21582 -2.389747,3.56502 -1.214192,-1.95304 0.190968,-3.92897 2.389747,-3.56502 z m -0.03736,0.24456 c -1.196327,1.56006 0.71529,0.64391 0,0 z m 33.0689685,0.007 c 0.8236405,0.94885 0.49866,2.34251 -0.1439378,0.36886 l 0.055627,-0.32131 0.088311,-0.0476 -3e-7,5e-5 z m -19.8189645,0.12907 c 0.24045,0.91964 0.587847,2.52488 0.760824,0.70988 -0.02927,1.07542 -0.117688,3.04375 0.339662,0.74385 1.210369,0.32863 -1.678847,3.94507 -2.771218,1.25957 0.05083,-1.20095 -0.66492,-1.49021 -0.03536,-2.53454 0.621161,-0.0786 -0.08483,1.89616 0.778833,0.25604 0.395178,-0.89589 1.118373,1.64574 0.727156,-0.37901 l 0.118584,-0.0489 0.08152,-0.007 1e-6,1.4e-4 z m -12.485777,0.20379 c 0.66567,0.23574 -0.467683,0.6788 0,0 z m -0.05774,0.48571 c -0.09115,0.46151 -0.04073,0.21771 0,0 z m 21.374592,0.0306 c 0.39946,1.20198 -0.303788,0.89299 0,0 z m 5.801335,0.017 c -0.12387,1.16846 -0.492558,1.44198 0,0 z m -26.781925,0.017 c 0.432037,0.71819 -0.836791,1.15076 0,0 z m 27.325375,0.0815 c 0.361025,1.47771 -1.039083,0.98395 0,0 z m -27.862032,0.23776 c 0.214982,1.13361 -2.046677,3.61282 -0.534477,1.09986 0.1863,-0.36011 0.27671,-0.77977 0.534477,-1.09986 z m 14.622217,0.14606 c 0.898129,0.58106 1.031895,2.79662 -0.210586,1.17865 0.377037,-0.31549 -0.08309,-0.90652 0.210586,-1.17865 z m 0.689503,0.0543 c 0.200505,0.61952 -0.191575,0.61935 0,0 z m -23.269875,0.0781 c 2.048693,0.0103 -1.559446,0.88866 0,0 z m 0.988401,0.0645 c 1.291978,0.36944 -0.726836,-0.048 0,0 z m 1.144642,0.0747 c 0.828222,0.27669 -1.075659,1.79228 -0.97821,2.76823 0.573273,-2.24134 -2.419295,3.70333 -1.008789,0.62835 0.682655,-2.0099 -0.291809,-0.4261 -0.658934,0.34984 -0.01662,-0.99632 0.91003,-1.9573 -0.326075,-0.90006 0.0569,-0.96607 0.436528,-1.16605 -0.33286,-0.5435 -0.11509,-2.32762 2.488123,-1.2049 3.304868,-2.30286 z m 6.531597,0.0951 c 0.530993,0.93721 -1.410701,2.94112 -0.279758,0.96571 l 0.157484,-0.54111 0.122276,-0.42458 -2e-6,-2e-5 z m -0.43476,0.11888 c 0.03104,1.22429 -1.224418,2.18945 -0.190208,0.37363 0.165423,-0.0216 0.03882,-0.35213 0.190208,-0.37363 z m -2.323251,0.003 c -1.328939,0.5041 -1.072337,2.07095 0,0 z m 23.701239,0.0272 c 0.101507,0.54797 -0.07811,0.209 0,0 z m -26.058456,0.0374 c 0.818167,0.54712 1.340598,2.00416 1.769989,2.84665 -0.190596,-0.56363 -0.688885,0.64469 -0.533643,-0.59139 -0.562354,1.27291 -1.682372,1.9027 -0.424102,0.25527 0.679034,-2.31662 -1.558655,2.08026 -0.788468,0.0505 0.92052,-1.98844 -0.09002,-0.94439 -0.539426,0.26355 -2.075362,0.84681 -0.978691,-3.05324 0.51565,-2.82454 z m 36.0817228,0.11548 c -1.6070527,0.18368 0.9136063,0.66834 0,0 z m -9.3643328,0.22078 c 0.835286,0.52861 5.373555,-0.14455 1.948921,0.31824 -1.307552,-0.78673 -4.188553,1.56997 -3.752503,1.11503 0.755228,-0.36152 0.896026,-1.46272 1.803582,-1.43327 z m -23.694446,0.0374 c -0.627399,0.65222 -1.660253,1.89763 -0.210614,0.74287 -0.144652,0.0521 0.565886,-0.65887 0.210614,-0.74287 z m 28.510777,0 c 1.8411005,0.0779 1.144386,3.08949 0.536656,2.68329 0.639504,-0.83692 -1.994581,0.54623 -1.750045,-1.17036 -0.699882,0.33962 0.961766,2.22 -0.345634,0.90541 -0.47431,-1.74668 0.831451,-2.63922 2.027968,-1.9889 -0.140231,-0.0417 -0.542608,-0.2662 -0.468945,-0.42944 z m -33.863766,0.0102 c -0.725731,1.38087 0.524222,1.4833 0,0 z m 9.690404,0.27512 c 0.637027,0.34805 1.770008,1.01605 0.636051,1.17542 1.574017,0.68892 -0.313535,3.73295 -0.180917,2.58118 1.390949,-3.35732 -1.148381,2.56235 -2.258719,-0.35323 -1.108273,-1.63069 1.286758,-2.89104 1.742434,-3.0094 -0.0508,-0.0744 -0.147217,-0.39787 0.06115,-0.39397 z m 21.792369,0.28192 c 0.826818,0.11174 -0.325706,2.22759 0.892515,2.86728 -1.806323,0.10032 -5.291991,0.5613 -6.211538,0.21323 1.246709,-1.82217 2.911414,-3.54237 5.319023,-3.08051 z m -29.736938,0.0815 c -1.981005,0.96892 -0.02878,1.11951 0,0 z m 35.9730333,0.0408 c 1.3868424,0.0843 -0.9538323,0.50448 0,0 z m -35.5586523,0.11548 c -0.840238,0.85719 -1.272379,2.12351 -0.02789,0.63447 -0.11056,-0.0678 0.362293,-0.61225 0.02789,-0.63447 z m 18.861133,0.003 c 2.444823,0.87157 -0.07586,0.54898 0,0 z m 14.7546834,0.24116 c 0.6860288,0.032 -0.4147904,0.55197 0,0 z m -25.7629554,0.0374 c -1.418696,0.31031 0.953137,0.61737 0,0 z m 27.0706334,0.21738 c 2.2426621,-0.2562 2.0131818,3.84691 0.0034,3.27084 -1.2249496,-0.6925 -1.2696878,-2.27911 -1.3178397,-2.51692 0.2720394,-0.60968 0.7357985,-0.72302 1.3144422,-0.75392 z m -14.6697694,0.15285 c 1.26454,1.06794 0.439157,1.35948 0,0 z m -25.627093,0.15624 c 1.30067,0.69414 -0.08726,4.69381 0.400797,1.37561 0.0044,-0.49162 -0.196644,-0.94076 -0.400797,-1.37561 z m 36.475725,0.0272 c 0.367667,1.05163 2.178686,-0.24311 0,-6e-5 l 0,6e-5 z m -27.583514,0.0679 c 1.245674,0.47554 -2.410592,0.56519 0,0 z m 21.133435,0.13926 c -0.394523,0.78581 -0.623938,0.65681 0,0 z m -26.584924,0.34305 c 1.149855,1.03766 -1.593064,1.02618 1.4e-5,-2.2e-4 l -1.4e-5,2.2e-4 z m 6.028905,0.13247 c 3.285983,1.72867 -2.562637,4.13218 -2.088886,0.82538 0.316036,-0.89089 1.42253,-0.41562 2.088886,-0.82538 z m 32.9500893,0.0951 c 1.1074723,1.53317 -1.1230549,1.02914 0,0 z m -16.0691553,0.0917 c 0.353383,0.19716 0.06367,0.37736 0,0 z m -13.059797,0.12907 c -0.729354,0.71108 -1.974593,2.27625 -0.230388,0.89391 0.02581,-0.20071 0.544813,-0.77799 0.230388,-0.89391 z m -6.63689,0.14605 c 0.09402,0.2321 -0.790191,0.93866 0,0 z m 22.685666,0.007 c -0.405895,0.72206 -1.742246,3.8459 -1.902076,2.93463 0.464286,-1.01719 1.266268,-1.96267 1.902076,-2.93463 z m -19.204186,0.12907 c -0.691219,0.92939 -1.219404,2.72714 -0.06793,0.81182 -0.03104,-0.16716 0.329433,-0.6246 0.06793,-0.81182 z m 28.585502,0.0577 c 0.2461338,0.28224 -0.0824,0.1851 0,0 z m -33.972456,0.0747 c -0.566238,0.64755 -1.664948,0.29045 0,0 z m 21.935025,0.0815 c 0.823546,1.32658 0.232751,1.10434 0,0 z m 12.8220375,0.003 c -0.5652864,1.1273 2.2963245,1.57974 0.4489352,0.46308 l -0.2179683,-0.25921 -0.2309665,-0.20379 -4e-7,-8e-5 z m -32.6342085,0.0204 c 0.344345,1.38469 -0.75155,1.36611 0,0 z m 31.163495,0 c 0.313868,0.24966 -0.713779,0.0865 0,0 z m -37.117676,0.0781 c 0.518847,0.98575 -0.443627,1.36807 0,0 z m 8.525382,0.034 c -0.972556,0.89233 -1.401062,2.19052 -0.115484,0.56043 0.06115,-0.003 0.351542,-0.5339 0.115484,-0.56043 z m 2.48289,0.0577 c -1.870402,0.40298 0.815665,0.66451 0,0 z m -9.296402,0.0747 c 0.68856,0.31083 -0.875732,0.3973 0,0 z m 36.115689,0.0611 c 1.2108228,1.28043 0.6388452,1.87646 0,0 z m -30.205664,0.16643 c -1.530042,0.596 0.552263,0.52033 0,0 z m -3.658102,0.003 c 1.633615,-0.17 2.398211,2.52168 1.33661,2.82035 0.872079,-3.01517 -0.788636,2.43179 -2.45767,0.88805 -1.91781,-0.85717 -0.856395,-3.77332 1.12106,-3.7084 z m 31.326531,0.034 c 0.25691,0.18875 0.500352,1.73331 -0.265449,0.48291 -1.298479,0.0664 -2.384906,-0.19801 -0.380607,-0.24418 0.235958,0.003 0.463433,-0.0966 0.646056,-0.23873 z m 0.99859,0.0272 c 0.227739,0.15238 -0.128967,0.19008 0,0 z m 0.536658,0 c 0.705241,0.0171 -0.614469,0.1679 0,0 z m -36.292311,0.20719 c 1.452563,-0.21051 1.298786,1.05648 0.696293,1.42321 -0.679564,-0.24706 -0.829871,-0.82216 -0.696293,-1.42321 z m 35.280134,0.10189 c 1.478436,-0.0234 1.891305,0.44201 0.09171,0.28528 l -0.21738,-0.19021 0.125673,-0.0951 0,3e-5 z m -4.351002,0.017 c 1.886696,0.18292 -5.104919,0.64579 -1.339499,0.11879 0.443934,-0.0621 0.889952,-0.13346 1.339499,-0.11879 z m 1.270316,0.0102 c 0.461082,0.072 0.144099,0.236 -0.06719,0.0105 l 0.06719,-0.0105 z m -33.683747,0.0476 c 0.06618,0.43463 -0.404686,0.49712 0,0 z m 5.257884,0.0611 c -1.077374,1.00553 -0.730989,2.60347 0,0 z m -0.516278,0.0442 c -0.821974,0.86167 0.320288,0.67979 0,0 z m 22.4547,0.003 c 0.64726,1.05589 0.04355,0.74344 0,0 z m -21.418747,0.18002 c -1.065106,0.99076 -1.381138,2.63897 -0.108693,0.74381 -0.02973,-0.18814 0.394472,-0.63757 0.108693,-0.74381 z m 1.351833,0.0713 c 0.762921,0.60529 1.965744,2.06079 0.330612,1.02859 -0.143887,-0.24971 -0.540695,-0.73945 -0.330612,-1.02859 z m 41.28186652,0.0102 c 2.28896178,0.28723 4.11884298,1.65558 6.11147118,2.61904 2.6439943,1.38171 -0.5862713,2.9488 -1.6862698,4.04072 -0.7705996,1.06511 -0.8487284,0.60472 -0.8554108,-0.29125 -0.9491727,2.18009 -4.2863676,1.99684 -6.2055209,0.73365 -0.9140494,-0.6404 -3.9487332,-2.18349 -1.2193672,-1.9633 0.9190481,0.73664 5.08249758,1.2767 1.823956,0.31912 -1.1590475,-0.22696 -2.642909,-0.77367 -0.4721227,-0.90342 2.39322112,-1.09693 4.0434839,2.10592 6.507821,1.37904 1.5813056,0.0168 1.9503048,-1.55063 0.3022944,-0.50272 -1.1741644,1.08135 -6.0165757,-1.84373 -2.3979758,-0.82877 2.0866174,0.067 -1.84376698,-0.43037 0.4637348,-0.42593 1.1887362,0.0912 5.2987598,-0.14776 1.8968796,-0.39215 -1.3813188,-0.37309 -3.87168444,0.46643 -4.72462365,-0.1223 0.62326538,-1.75239 3.38297155,-2.07017 4.00794505,-1.95978 -1.8683003,-1.47605 -3.67070592,1.01975 -4.8247,2.25398 -3.677532,1.23084 3.1367397,-3.89527 -0.4126373,-1.42449 -0.366547,0.97893 -3.2591228,3.14159 -1.7971691,1.02483 0.2480999,-1.53105 4.10940076,-1.91148 3.20005836,-2.5599 -2.93984836,-0.34601 -4.18646046,2.84588 -6.08352496,4.15992 -1.9961656,0.56401 3.5106075,-4.385 0.4554538,-1.95166 -0.6534103,0.60738 -2.5227444,3.88928 -2.0152007,1.68653 0.3697966,-1.01166 4.1335614,-3.68705 1.3347076,-2.06917 -1.5655855,0.53148 -1.9426277,4.16552 -2.5499562,2.86377 0.3888004,-2.14448 3.8748208,-3.77478 4.3713807,-3.99776 -2.0635687,-0.75015 -4.5784391,4.05907 -3.3456176,0.37362 1.3770595,-1.60736 4.1725382,-1.62404 6.2373645,-1.89753 0.6029783,-0.0844 1.33247121,0.16921 1.87702972,-0.16409 z m -14.93130552,0.0917 c 1.64965,-0.18939 3.588749,0.1321 2.24633,2.07318 -0.921443,1.43544 2.598021,2.59912 1.197784,2.69871 -1.445777,-1.56793 -3.483498,-0.49579 -3.656462,-3.12213 -1.554711,-1.20546 -2.715619,-0.26785 -3.962033,0.78871 -0.45492,-1.07235 -2.196451,-0.73712 -0.237764,-1.76287 1.315818,-0.76548 2.949685,-0.56394 4.412145,-0.6756 z m -22.32563,0.007 c 1.195574,0.76498 -2.017489,2.32562 -0.180007,0.18349 l 0.05823,-0.13243 0.121786,-0.051 -1.1e-5,-8e-5 z m 26.72758,0.21738 c 2.135626,-0.15589 2.621199,3.2065 0.285316,2.89374 -0.915788,1.82896 -2.940757,-2.94573 -0.285303,-2.89385 l -1.3e-5,1.1e-4 z m -37.922662,0.0102 c 0.372612,0.20635 -0.372783,0.13834 0,0 z m 10.403682,0.12907 c -0.03227,1.62566 -2.402568,1.21364 -0.567226,0.23457 l 0.567226,-0.23436 0,-2.1e-4 z m 2.870099,0.0102 c 3.512508,0.17583 0.80251,5.22896 -1.309742,3.07812 -1.482669,-2.01873 1.813765,1.79268 1.421819,-0.23523 -1.013457,-1.15822 -1.1e-4,1.15953 -1.236355,-0.35324 -1.111399,-0.80594 -0.9246,-2.53591 1.124278,-2.48965 z m -7.085237,0.46194 c -0.800198,0.66412 -2.151638,2.66404 -0.444956,1.05973 0.10318,-0.31478 0.628992,-0.71428 0.444956,-1.05973 z m 25.294229,0.54684 c 1.682522,0.46869 1.203934,0.86733 2.152814,2.12732 -0.346069,2.89662 -3.698684,1.42746 -3.256151,-0.85084 -0.879025,-0.0637 1.560106,-1.03903 2.101938,-0.41036 -0.0265,-0.36101 -1.500967,-0.4934 -0.998601,-0.86612 z m 15.4849451,0.0272 c -1.0511814,0.0824 -3.4768467,3.54797 -3.4156813,2.97793 0.6998493,-1.38902 1.8724176,-2.58459 3.4156813,-2.97793 z m -38.2113701,0.0543 c 0.05194,0.94158 -0.686612,3.48111 -0.302285,1.00539 -0.127613,-0.35711 0.393237,-0.58936 0.302285,-1.00539 z m -1.518265,0.25814 c 1.71695,0.64883 0.238674,4.58293 -0.353242,4.84011 -0.777909,-1.2549 -2.959835,-3.08763 -0.52043,-3.73326 0.358887,-0.31558 0.568754,-0.74757 0.873672,-1.10685 z m -5.977957,0.0917 c -1.722476,1.40487 0.146224,1.01497 0,0 z m 49.4540046,0.15964 c -1.24830664,0.10487 -2.2899581,2.46911 -0.5876059,0.58762 -0.13481,-0.12749 1.1513063,-0.46218 0.5876059,-0.58762 z m -13.7221276,0.017 c -0.345433,1.40053 1.689687,0.81984 -3e-6,-9e-5 l 3e-6,9e-5 z m -25.813904,0.0781 c 0.19903,0.32856 -0.304852,0.12238 0,0 z m 41.6826615,0.017 c -1.2382432,-0.12516 -2.4459869,2.33512 -0.7867733,0.61999 0.4351923,-0.2423 2.3693837,-0.38367 0.7867733,-0.61999 z m -4.47667431,0.0476 c -1.09068359,0.14155 -1.96458009,2.35862 -0.58420939,0.72008 -0.1225606,-0.1425 1.14539854,-0.65735 0.58420939,-0.72008 z m -20.87529619,0.0476 c 1.116874,0.0395 -0.199438,0.43608 0,0 z m 23.6129286,0.197 c -1.86095681,1.00907 -0.8437334,1.82397 0,0 z m -39.9673946,0.1019 c 0.349949,0.66864 -0.157152,0.25982 0,0 z m 2.340234,0.0713 c -0.693579,0.60351 1.056458,0.2668 0,0 z m -11.575498,0.0611 c -0.592859,1.84199 -0.826436,0.7147 0,0 z m 26.6087,0.0238 c 1.836173,0.0523 2.158249,2.86293 0.25814,1.7696 -0.99626,1.06525 -3.285417,-1.30125 -1.528455,0.70307 -0.594635,1.08686 -1.89265,-3.37354 0.754038,-2.42878 l 0.380415,-0.0204 0.135863,-0.0238 -1e-6,3.1e-4 z m -13.134522,0.14606 c -0.118584,0.93102 -1.830804,2.00056 -0.394005,0.10185 l 0.394001,-0.10189 4e-6,4e-5 z m 37.0599346,0.13586 c -1.0239121,0.5117 0.3197657,0.6944 0,0 z m -9.0416594,0.12907 c -1.3026071,0.88711 -1.2493235,2.36261 -0.098411,0.4198 l 0.1527562,-0.35187 -0.054345,-0.0679 -4e-7,-3e-5 z m -6.8237012,0.0136 c 0.844173,0.89988 0.09236,0.82639 0,0 z m -33.520713,0.13926 c 1.804798,0.57856 2.57253,3.00638 3.248858,4.48301 -1.524868,-0.49292 -5.724701,-0.98786 -4.424066,-3.08683 0.531548,-0.37767 0.977337,-0.76358 1.175208,-1.39618 z m 35.9798266,0.25475 c 1.6602239,0.44528 -2.1839886,1.27542 -0.5536346,0.0985 l 0.55364,-0.0985 -5.4e-6,3e-5 z m -6.2666646,0.0136 c -1.754885,-0.25923 -0.211687,0.98673 0,0 z m -1.769611,0.35324 c -0.446976,1.80163 3.589754,0.15316 0.733202,0.5341 -0.283488,-0.11599 -0.415228,-0.48436 -0.733202,-0.5341 z m -22.746804,0.13926 c 0.08778,0.17727 -0.199759,0.61058 0,0 z m 26.398113,0.17323 c 1.870523,-0.51156 2.700999,3.07299 0.690408,1.36946 -0.848744,1.08447 -2.316008,1.66484 -1.763723,-0.33696 -0.02575,-0.57719 0.547769,-0.98306 1.073315,-1.0325 z m -9.235264,0.0441 c 0.151431,0.41054 -0.01973,0.69614 0,0 z m 21.3474188,0.4008 c -0.5156828,0.5682 1.083506,0.22577 0,0 z m -8.5185878,0.017 c -0.373997,0.8916 -1.433023,2.82753 0.07472,0.77101 2.1475638,-2.11038 -0.760275,2.66973 -1.440144,1.07328 0.249513,-0.82125 0.488228,-1.49905 1.365423,-1.84429 z m -12.709951,0.21059 c -0.420994,0.53358 -2.793107,2.47713 -1.357112,0.38501 0.410116,-0.26464 0.936753,-0.147 1.357112,-0.38501 z m 3.644515,0.0204 c -1.266042,0.67036 -2.032653,0.6864 0,0 z m 18.1444572,0.0543 c 0.1041758,0.90779 4.1691409,0.99597 1.03255616,0.30905 -0.36171801,-0.0461 -0.67661546,-0.24213 -1.03255616,-0.30905 z m -46.2374562,0.0306 c 0.557238,1.03006 0.07012,1.3039 -6e-6,-10e-6 l 6e-6,10e-6 z m 25.131194,0.13247 c 0.331195,0.36338 0.02071,0.3963 0,0 z m 3.175789,0.16643 c 2.586597,-0.29515 2.954561,2.82201 1.525051,3.6071 1.10266,0.71181 -0.948363,-0.3408 -1.342666,0.64691 -2.698532,-0.0377 -2.654129,-3.87562 -0.182385,-4.25401 z m -3.773585,0.017 c 0.05984,0.13737 -0.257082,0.30331 0,0 z m 16.7790372,0.2004 c 2.1077966,1.12863 4.134077,2.99028 6.73199427,2.92788 1.14889723,0.0305 3.64784933,-1.47222 1.63183133,0.37249 -2.49919653,2.39057 -5.9973094,3.48038 -9.3643747,3.84697 -0.9928065,-0.77445 -3.3631611,-1.99711 -0.9320971,-2.3652 1.2859246,0.54569 2.0895201,0.40291 0.2148454,-0.23493 -1.2881943,-0.9758 3.7789151,1.18475 1.6934503,-0.0101 -2.6629921,-0.0994 -1.9580411,-3.30501 -4.6716677,-3.0432 1.8439849,-0.93348 3.2607008,1.5486 4.8352759,2.24898 0.5282547,0.58095 -3.8367069,-1.80105 -1.5012823,-0.25475 0.9490034,0.89772 5.2702481,0.9003 2.3504238,2.46927 -3.3385282,0.43491 1.4427468,0.77538 1.5707374,-0.99292 1.3458027,0.62246 4.23148793,-1.96239 1.682364,-0.59143 -1.8791486,0.74107 -3.3664509,-0.83431 -4.8834184,-1.6134 -0.7298749,-1.01048 -3.8548704,-1.8593 -0.9454727,-2.31283 1.2400491,0.55419 3.4363923,2.10189 4.3407961,1.81466 -0.4555576,-0.41179 -5.7766016,-2.05725 -2.7534056,-2.26149 z m -8.6816232,0.0408 c -0.72616,0.89492 1.028749,1.52096 0,0 z m -8.518588,0.17322 c 2.43014,-0.18946 1.974651,1.57104 1.864708,3.30837 -1.36191,1.51747 -0.269347,0.0582 -0.713279,-0.0241 -1.855899,1.24383 -3.040264,-2.73118 -1.151429,-3.28423 z m 7.275445,0.003 c 0.515585,1.86876 -0.877936,0.50748 0,0 z m 0.638554,0.0577 c 0.136101,0.0826 -0.327876,0.62891 0,0 z m 2.306269,0.3906 c 2.915665,0.62304 -2.338169,2.65607 -0.614782,0.43471 l 0.372557,-0.32431 0.242222,-0.11045 3e-6,5e-5 z m -34.692528,0.11888 c 0.557897,0.12906 -0.09395,0.12806 0,0 z m 39.6277383,0.003 c 0.6304616,1.06508 3.4795907,2.14645 4.0045518,1.84427 -1.4117531,-0.43745 -2.6990052,-1.16839 -4.0045518,-1.84427 z m -38.9008733,0.0917 c 1.233223,0.64884 3.738185,1.63702 1.005382,0.78465 -0.274075,-0.29191 -1.477845,-0.12239 -1.005382,-0.78465 z m 34.257767,0.13586 c -2.336869,0.61619 0.720035,1.48644 0.143079,0.037 l -0.143079,-0.037 0,3e-5 z m -7.849464,0.3023 c -1.382575,1.82173 2.933751,2.90992 2.289285,1.73566 -1.111179,0.75416 -2.233278,-0.71055 -2.289285,-1.73566 z m 4.897848,0 c 0.219282,0.81201 -0.0658,2.95723 -1.077914,1.91911 0.643463,-0.53696 0.581931,-1.32209 1.077914,-1.91911 z m 0.696296,0.20039 c 0.74157,0.56983 0.341786,0.52063 0,0 z m 3.970586,0.007 c 1.712363,0.98895 0.791741,0.48492 -0.697729,0.20878 l 0.354675,-0.13744 0.343053,-0.0713 10e-7,-4e-5 z m -8.841262,0.0713 c -0.686949,1.7962 3.513247,1.02465 0.546847,0.62793 l -0.349846,-0.42457 -0.197001,-0.20379 0,4.3e-4 z m 1.477507,0.12567 c -1.151778,0.50296 0.617555,0.30619 0,0 z m -6.154579,0.23776 c -0.455146,1.466 3.229698,3.04138 0.590186,1.94342 -0.551777,-0.45693 -1.147721,-1.258 -0.590186,-1.94342 z m 9.262437,0.003 c 0.112439,0.75967 -0.584139,1.00773 0,0 z m -29.050831,0.16645 c 1.223607,0.19056 1.928463,0.73561 0,0 z m 21.517247,0.034 c -0.863871,0.44894 0.954334,0.32823 0,0 z m 11.72155,0.14945 c 1.185705,0.57111 2.9408242,0.35714 1.8918871,1.51501 0.9480801,1.2544 -2.2732671,2.54416 -0.8337051,0.91734 -2.304362,2.25459 -4.137412,-2.31531 -1.058182,-2.43235 z m -3.15541,0.0815 c 1.979739,0.12929 1.356254,0.68948 -0.135863,0.0815 l 0.02473,-0.0643 0.111129,-0.0172 0,3e-5 z m -27.006098,0.1019 c 1.792044,2.52207 3.698031,5.29326 5.363171,8.01929 1.539859,2.79063 3.202676,5.51065 4.663484,8.35216 -0.963941,0.09 -1.701877,-3.72592 -2.954276,-4.96598 -1.405072,-2.2661 -2.516194,-4.76426 -4.175118,-6.79626 -1.011728,-1.83512 -2.633633,-4.65096 -4.474708,-4.57419 0.570942,-0.001 1.064724,0.36045 1.577447,-0.035 z m 17.855748,0.10869 c -0.49337,1.62695 2.695063,-0.0707 0.529865,0.32575 -0.227103,-0.0104 -0.318376,-0.30776 -0.529865,-0.32575 z m 8.827676,0.14605 c 2.695321,0.25149 0.270456,1.54252 0,0 z m -0.448347,0.5876 c 1.44525,0.16532 1.90066,1.273 0.230133,0.43866 -0.596004,-0.1419 -0.502606,-0.027 -0.230133,-0.43866 z m -10.053836,0.13926 c 0.359078,1.30146 -0.932111,3.85361 -0.665724,4.68387 -0.678012,0.77772 -1.444585,4.70275 -0.986952,1.62717 0.482026,-2.11673 0.813839,-4.3135 1.652676,-6.31104 z m 16.3680529,0.32947 c 0.4989291,0.25015 -0.4896543,0.41232 0,0 z m -11.9830859,0.034 c 1.827307,1.79946 -1.207695,0.4511 0,0 z m 4.503847,0.0951 c 0.355569,0.16142 -0.349048,0.17574 0,0 z m -0.635158,0.13586 c 1.041534,0.98336 1.861858,2.94861 0.444946,0.71328 -0.01892,-0.0924 -0.551961,-0.56505 -0.444946,-0.71328 z m 1.650731,0.0136 c 3.264119,0.01 -0.63259,0.89415 0,0 z m -0.597795,0.0238 c -0.16086,0.66743 -0.292592,0.25515 0,0 z m -8.664641,0.017 c 2.293828,0.30195 0.550383,2.01555 -0.557037,2.34384 -0.170141,-0.86316 0.772321,-1.55633 0.557037,-2.34384 z m 6.905219,0.0781 c 1.675208,1.01122 -0.475158,0.98276 0,0 z m 5.634904,0.017 c -0.632652,1.36227 2.9028068,0.0454 0.655532,0.31227 l -0.3906,-0.21051 -0.264932,-0.1019 0,1.4e-4 z m -7.750964,0.21059 c 0.52815,0.15321 -0.774904,0.29641 0,0 z m 0.675916,0.0136 c 0.351444,0.12672 -0.175071,0.42244 0,0 z m -2.391182,0.12906 c 0.396071,0.30758 0.542558,0.59003 0,0 z m 3.077289,0 c 0.292264,0.79087 -0.496262,0.43128 0,0 z m 2.883684,0.1019 c 2.266419,0.31359 -0.975135,1.15514 0.230911,0.44658 0.700695,0.0925 -0.478011,-0.37388 -0.230911,-0.44658 z m 2.431942,0.0374 c 0.688767,1.10111 2.711088,1.43067 0.347642,0.70066 -0.156533,-0.1547 -0.468532,-0.43201 -0.347642,-0.70066 z m -9.204695,0.003 c 2.406959,0.74506 -2.731282,1.7085 -0.146048,0.0102 l 0.146052,-0.0102 -4e-6,2e-5 z m 8.396312,0.0204 c 0.155865,0.16927 -0.414916,0.23637 0,0 z m -5.196746,0.0883 c 0.292655,1.40125 -1.760645,-0.0712 -5e-6,-5e-5 l 5e-6,5e-5 z m 1.22616,0.22077 c 1.57854,0.25848 2.075617,1.47905 0.159339,0.47915 -0.260994,-0.009 -0.537405,-0.37492 -0.159339,-0.47915 z m 4.266087,0.0713 c 0.258691,0.92034 0.167862,0.67667 1.329417,1.23635 -0.893438,0.36438 -3.798803,0.57664 -1.716623,-0.87977 l 0.173225,-0.22757 0.213983,-0.12907 -2e-6,6e-5 z m -6.65727,0.24455 c 2.0207,-0.33953 0.39703,3.65809 0.267734,0.87302 0.822962,-0.0704 -0.469095,-0.48713 -0.267734,-0.87302 z m 1.650732,0.051 c 0.134888,0.55915 -0.367328,0.63291 0,0 z m -2.788581,0.2038 c 0.495614,0.19307 -0.353294,0.0508 1e-6,0 l -1e-6,0 z m 13.2194356,0.0374 c -0.5636986,0.91113 3.0849323,0.71593 0,0 z m -9.9145766,0.051 c 1.531768,0.32024 2.837309,1.19551 0.737055,2.04471 -2.326154,0.47455 -0.819333,-2.24315 0.646101,-0.81893 1.534618,-0.14081 -2.363992,-0.50626 -1.383156,-1.22578 z m 3.987569,0.18681 c -0.842964,0.60209 2.372334,0.67365 0.360035,0.10905 l -0.360036,-0.10869 10e-7,-3.6e-4 z m -8.066845,0.0577 c 1.789637,-0.22812 2.175041,2.40446 0.163041,0.88989 -1.099621,-0.45811 -1.775939,-0.49898 -0.163041,-0.88989 z m -1.497886,0.0408 c -0.386512,1.83572 3.447697,0.96328 3.545662,2.73995 -0.425181,2.46494 -1.360051,4.85643 -2.45198,7.1067 -1.179281,-1.47954 -2.764358,-2.63623 -3.626159,-4.3832 -0.427703,-2.13688 1.91932,-3.73312 2.65427,-4.53804 -0.446315,-0.38086 -1.530323,0.0632 -0.121793,-0.92541 z m 13.396057,0.0306 c 3.9989209,-0.24156 0.6608818,5.32279 -1.413377,2.41241 -0.411145,-0.89034 0.198753,-2.60994 1.413377,-2.41241 z m -8.508398,0.10869 c -0.532026,1.75971 -0.665682,3.727 1.004681,2.57418 -1.329647,0.3379 -2.628831,2.42679 -1.770856,-0.0544 0.437183,-0.78208 0.252348,-1.79118 0.766175,-2.51975 z m 4.795951,0.63516 c 0.29116,0.0354 -0.208721,0.088 0,0 z m -1.599782,0.0645 c 0.368049,0.49078 -1.086051,0.79684 0,0 z m -4.605744,0.0645 c 0.675532,0.76358 0.441215,2.31876 0,0 z m 8.250259,0 c -0.08241,1.40833 -0.591508,1.92546 -0.207195,0.30569 l 0.20719,-0.30569 5e-6,0 z m -1.365419,0.0102 c 1.4266,0.26675 -0.391523,0.15346 0,0 z m -1.497886,0.21399 c 1.533424,-0.52325 2.526224,1.46419 0.798194,0.80499 -0.07836,-0.24312 -0.93174,-0.50293 -0.798194,-0.80499 z m -1.392592,0.38382 c 0.0946,0.17691 -0.786418,0.35263 0,0 z m 0.689503,0.0374 c 1.889379,0.82903 -2.084196,0.91773 0,0 z m 4.208345,0.16983 c -0.389027,1.38733 2.765162,1.60036 0.61138,0.60114 l -0.387208,-0.45175 -0.224174,-0.14944 2e-6,5e-5 z m -6.653873,0.28191 c -0.537637,1.13013 -1.555326,-0.10943 -4e-6,-7e-5 l 4e-6,7e-5 z m 3.515446,0.0102 c 0.60328,0.31442 0.156782,0.63008 0,0 z m -2.594977,0.1019 c -0.104007,0.34985 -1.160438,0.44703 0,0 z m 4.221932,0.38381 c 0.830311,1.04203 2.720964,2.25632 0.421169,2.76141 -1.712264,1.65592 -2.909952,-3.07221 -0.500071,-2.75385 l 0.0789,-0.008 3e-6,6e-5 z m -1.131056,0.77782 c -1.196843,1.09065 1.709434,3.0333 0.110085,0.95705 -0.213725,-0.28742 0.02461,-0.67837 -0.110085,-0.95705 z m 0.540054,0.58421 c -0.683755,0.53397 1.362539,0.5944 0,0 z m -1.338247,0.38381 c -0.08967,1.53165 2.103869,1.55338 1.90887,1.9836 -0.960988,0.31273 -2.03747,-1.07255 -1.90887,-1.9836 z m -5.166178,0.19701 c 0.09902,0.67908 -0.719083,0.95272 0,0 z m -0.373622,0.91707 c 0.189429,0.24668 -0.354862,0.29385 0,0 z m 8.484623,0 c 0.477913,0.68873 -1.043805,0.63121 0,0 z m -15.885741,0.26493 c 1.40871,-0.005 1.20649,1.16425 0,0 z m 7.224497,0.39061 c -0.09929,0.4274 -0.350669,0.22548 0,0 z m -5.937198,0.25474 c 1.017575,0.92092 1.791024,3.22683 0.501979,0.91556 0.02009,-0.3274 -0.557164,-0.64276 -0.501979,-0.91556 z m -0.838952,0.42117 c 0.657647,0.8834 -0.448359,0.93191 0,0 z m -0.509485,0.0645 c 0.237366,0.16574 0.03023,0.27103 0,0 z m 6.942581,0.21398 c 0.05145,0.28798 -0.32191,0.53331 0,0 z m -0.234363,0.62837 c -0.0096,1.30288 -2.208353,4.31086 -0.785156,1.66826 0.261157,-0.55759 0.517403,-1.11441 0.785156,-1.66826 z m -5.122022,0.0917 c 0.121071,0.57762 -0.304698,0.12185 0,0 z m 1.47411,0.87292 c 0.947305,0.63368 1.827947,1.9811 0.351925,0.51681 0.01667,-0.16722 -0.537921,-0.3602 -0.351925,-0.51681 z m -1.256729,0.13586 c -0.299141,0.70023 -0.544928,0.42897 0,0 z m -1.035953,0.0747 c 0.08306,0.45531 -0.883819,1.6458 0,0 z m 0.577416,0.42117 c -0.199896,1.24118 -0.770752,0.67988 0,0 z m -21.96899,1.51827 c -0.787361,0.10461 -0.295336,1.51935 -0.431364,2.35167 -0.0858,2.31559 0.506423,-2.07424 0.431364,-2.35167 z m 1.722059,0.41777 c 1.119478,1.34953 -0.612987,2.36198 -0.0951,0.25478 l 0.01444,-0.16014 0.08066,-0.0946 4e-6,-3e-5 z m -2.102475,0.7948 c 0.21375,0.18785 -0.166828,0.24065 0,0 z m 2.795374,0.007 c 1.892817,0.84553 -1.300788,3.78851 -0.197008,1.12428 0.05825,-0.37475 0.168942,-0.74441 0.197008,-1.12428 z m -1.616765,0.33966 c 1.295299,0.89501 -2.199465,5.70058 -0.68271,2.33681 0.237229,-0.77836 0.518318,-1.53876 0.68271,-2.33681 z m 19.329858,0.39061 c 0.109764,0.58106 -0.298549,0.11649 0,0 z m -16.853761,0.13246 c 1.154961,0.55789 -0.777911,1.61106 0,0 z m -1.840939,0.034 c 1.283594,0.95165 -1.408738,3.49773 -0.343058,0.97481 0.141142,-0.30953 0.119702,-0.70675 0.343058,-0.97481 z m 23.212133,0.23096 c 1.383357,1.08783 0.460773,1.36461 0,0 z m -4.554795,0.017 c 0.08733,0.1982 -0.0834,0.22942 0,0 z m -0.06453,0.28191 c 0.148856,0.20503 -0.334035,0.73639 0,0 z m -8.983917,0.10869 c 0.854533,0.10935 -0.537078,0.15539 0,0 z m 4.014741,0.32607 c -2.656293,-0.84388 -2.467857,4.40938 -3.111256,4.00457 -0.305115,-1.18889 -0.02202,-4.28196 -0.627421,-1.364 0.05376,1.18259 -0.01784,4.40534 -0.317937,1.35053 -0.681409,-0.85831 0.179699,3.00255 0.01991,3.77 -0.749937,3.4178 -0.52,-2.15671 -0.990193,-2.98888 -0.810576,-2.62416 0.234935,2.58022 0.103053,3.48109 -0.05584,1.11204 0.01339,4.47161 1.123101,2.28628 1.06964,-2.72717 1.373893,-5.68486 2.023197,-8.53148 0.934428,-2.48543 4.493261,-1.28341 4.713876,1.08767 -0.147671,2.37027 -0.507639,4.893 -1.873211,6.61501 -0.372835,2.20711 2.161925,1.93991 1.562415,-0.0713 0.15948,-2.16405 0.619329,-4.20491 0.929783,-6.35234 0.79459,-1.47428 -1.971151,-3.57085 -3.555312,-3.28713 l -2e-6,0 z m 4.925021,0.14605 c 0.03167,0.59058 -0.316132,0.5207 0,0 z m -11.969499,0.0102 c -0.575813,0.64269 4.053094,0.5525 1.436747,0.19015 -0.48614,-0.0141 -0.952064,-0.16641 -1.436747,-0.19015 z m -0.519675,0.70648 c -0.422308,0.57793 2.623515,-0.006 0.213984,0.007 l -0.213984,-0.007 0,1.7e-4 z m 16.802813,0.56044 c -0.687702,0.93188 -3.131855,3.80497 -2.482883,3.71916 0.578308,-1.23556 2.35895,-2.58073 2.482883,-3.71916 z m -15.525704,0.75743 c -0.24802,0.28817 -0.428217,0.13565 0,0 z m -4.344208,0.21738 c -1.466743,0.30767 2.600465,0.1949 0,0 z m -0.04416,0.5944 c -1.245205,-0.051 -3.324931,0.2943 -0.839778,0.24004 1.390681,0.2005 3.610049,-0.12559 0.887323,-0.2298 l -0.04755,-0.0102 5e-6,-4e-5 z m 19.897085,0.26493 c -2.106841,-0.0721 -1.968848,4.44197 -3.308251,3.56302 0.519413,0.70011 0.209888,1.30006 0.0985,2.21453 1.22174,-1.78125 1.362302,-4.40143 3.409265,-5.5994 l -0.06364,-0.11362 -0.135863,-0.0645 -1.1e-5,-3e-5 z m -17.071142,0.017 c -1.670487,1.83723 -3.545193,3.4093 -5.122017,5.35297 -0.708905,0.5911 1.743803,-2.68834 2.662905,-3.20972 0.672342,-0.83489 1.577319,-1.54532 2.459112,-2.14325 z m -3.868689,0.20379 c -2.143779,0.21213 1.875432,0.32656 0,0 z m 8.691813,1.04614 c 0.07825,0.22819 -0.0801,0.20212 0,0 z m -0.237759,0.1019 c 0.307964,1.49185 -0.472771,2.51834 -0.159649,0.46535 l 0.159638,-0.46533 1.1e-5,-2e-5 z m 7.506411,0.18002 c 0.184878,0.19839 -0.182063,0.41847 0,0 z m 1.450334,0.17662 c -0.764597,1.23789 1.196131,1.57887 0,0 z m -1.525058,0.15284 c 0.16068,0.43503 -0.244118,0.59152 0,0 z m -16.130293,0.10191 c -1.408759,0.026 -5.362469,0.93586 -1.811792,0.50459 0.114176,-0.0232 3.411539,-0.47222 1.811792,-0.50459 z m -0.80159,0.85254 c -1.307367,0.0302 -4.258087,1.32868 -1.279583,0.5323 0.110319,-0.17569 1.84782,-0.15397 1.279583,-0.5323 z m 4.490261,1.16841 c 0.07579,0.62933 1.173666,5.48605 1.060874,3.21821 -0.386398,-1.01765 -0.3545,-2.39338 -1.060874,-3.21821 z m 4.670278,0.41439 c 0.09166,0.34015 -0.322473,0.28527 0,0 z m -11.178099,0.0645 c -1.159951,0.1339 -0.573217,0.7731 0,0 z m 5.516023,0.017 c -0.03261,0.96831 1.623017,5.47387 0.86612,2.26208 -0.312536,-0.74213 -0.35033,-1.63013 -0.86612,-2.26208 z m 19.248341,0.85594 c -1.253275,0.40128 -3.283082,4.43952 -1.209177,1.49109 0.328365,-0.51677 0.977092,-1.0358 1.209177,-1.49109 z m -7.988724,0.16643 c 0.317054,0.36725 -0.379144,0.0131 0,0 z m -6.028905,0.12228 c -0.166764,1.57592 -0.916577,1.70001 0,0 z m -6.018715,0.0476 c -0.108867,1.01738 1.529684,3.77245 0.475524,0.99179 -0.210369,-0.27234 -0.0067,-0.92025 -0.475524,-0.99179 z m -3.386377,0.12567 c -0.258285,0.70447 -0.567975,0.6558 0,0 z m 7.149772,0.0442 c 0.374278,0.96031 -0.238351,0.80432 0,0 z m 8.263846,0.13246 c -0.01512,1.41557 -0.481445,1.1423 0,0 z m -13.256798,0.64195 c 0.1259,1.86051 1.408098,1.76001 0,0 z m 21.099469,0.32947 c -1.765051,1.25525 -0.390052,1.57992 0,0 z m -25.304418,0.28871 c -0.162153,0.44758 0.356231,0.22325 0,0 z m 29.7743,0.197 c -0.70483,0.84487 0.339002,0.76012 0,0 z"
       id="path2311"
       inkscape:connector-curvature="0" />
    <path
       style="color:#000000;fill:#552200;fill-opacity:1;fill-rule:evenodd;stroke:none;stroke-width:1;marker:none;visibility:visible;display:inline;overflow:visible;enable-background:accumulate"
       d="m -41.47799,902.20572 c -2.262798,-1.71883 1.045771,-5.10974 2.520389,-3.21091 -0.457266,0.89457 -1.125487,4.17135 -2.520389,3.21091 z m 0.615622,-0.0617 c 1.461661,-1.45698 0.18369,-1.05356 -0.504933,0.0697 l 0.159349,0.0498 0.345589,-0.11947 -5e-6,10e-6 z m -0.114728,-1.10943 c 0.566356,-1.55179 -2.028161,1.65113 0,0 z m 1.759046,-2.053 c -0.536517,-1.00927 -0.588768,1.63724 0,0 z"
       id="path28008"
       inkscape:connector-curvature="0" />
    <path
       style="color:#000000;fill:#552200;fill-opacity:1;fill-rule:evenodd;stroke:none;stroke-width:1;marker:none;visibility:visible;display:inline;overflow:visible;enable-background:accumulate"
       d="m -36.9446,905.33634 c -2.229114,-1.19924 0.0611,-3.57539 1.037053,-3.67495 0.249434,-0.72349 1.882162,0.81002 0.737145,0.93251 1.706803,1.32092 -1.352249,4.20683 0.209924,1.35213 -0.313789,-0.68782 -1.111983,2.44118 -1.984122,1.39031 z m 0.901267,-0.52658 c 2.492428,-3.24034 -2.332781,1.43159 0,0 z m -0.839668,-0.12717 c 0.636633,-0.9462 -1.475612,0.25302 2e-5,-3e-5 l -2e-5,3e-5 z m 1.519114,-2.37775 c -0.195989,-0.94095 -1.190567,0.61421 0,0 z"
       id="path28010"
       inkscape:connector-curvature="0" />
    <path
       style="color:#000000;fill:#552200;fill-opacity:1;fill-rule:evenodd;stroke:none;stroke-width:1;marker:none;visibility:visible;display:inline;overflow:visible;enable-background:accumulate"
       d="m -44.436206,908.4224 c -3.645553,-0.56024 0.08853,-5.88633 2.094119,-2.86169 0.715876,1.00752 -0.542337,2.86559 0.107394,0.76695 -0.97759,-0.1928 -2.774481,3.16458 -0.746969,0.90403 0.712961,-0.74012 -0.789169,1.86516 -1.454544,1.19071 z m 0.893717,-1.71657 c 0.951294,-1.04934 0.438028,-2.00369 -0.224088,-0.33043 -0.58104,0.32789 -0.516756,1.23607 0.224088,0.33043 z m -0.428084,-0.45878 c 1.646318,-2.21496 -1.051702,0.14795 0,2e-5 l 0,-2e-5 z m -0.08093,-0.65157 c 0.467415,-1.17916 -0.879379,0.56722 0,0 z"
       id="path28012"
       inkscape:connector-curvature="0" />
    <path
       style="color:#000000;fill:#552200;fill-opacity:1;fill-rule:evenodd;stroke:none;stroke-width:1;marker:none;visibility:visible;display:inline;overflow:visible;enable-background:accumulate"
       d="m -19.965279,914.78663 c -1.458304,-0.34179 -1.715258,-3.49835 -0.596535,-0.7156 0.571604,1.41592 3.461429,-0.57888 1.245181,0.0743 -2.433433,-0.7438 -2.445036,-3.20814 0.383458,-3.25395 3.623462,0.30341 1.350018,4.54497 -1.032104,3.89526 z m 1.200479,-1.09214 c 0.37065,-0.18629 -2.869301,-2.04863 -1.192716,-0.12303 0.383596,0.0879 0.80785,0.42231 1.192716,0.12303 z m 0.104498,-0.95214 c -0.569616,-0.33189 -0.446124,0.72656 -7e-6,-1.1e-4 l 7e-6,1.1e-4 z"
       id="path28016"
       inkscape:connector-curvature="0" />
    <path
       style="color:#000000;fill:#552200;fill-opacity:1;fill-rule:evenodd;stroke:none;stroke-width:1;marker:none;visibility:visible;display:inline;overflow:visible;enable-background:accumulate"
       d="m -8.9307285,901.24558 c -0.5630187,-0.79148 -1.0659796,-2.72837 -0.8237551,-0.56576 -0.1773765,0.92139 -0.8410914,-2.20019 0.7635702,-2.09282 2.0435618,-1.894 3.8993535,3.10236 1.2572861,2.59283 -0.91131,-0.67231 -2.2471169,-2.3631 -1.0182718,-0.19737 0.7895663,0.60755 0.5091443,0.68168 -0.1788294,0.26312 z m 1.8065852,-0.1858 c 0.5476287,-0.77107 -1.300324,0.1345 -2.2e-6,-1e-5 l 2.2e-6,1e-5 z"
       id="path28018"
       inkscape:connector-curvature="0" />
    <path
       style="color:#000000;fill:#552200;fill-opacity:1;fill-rule:evenodd;stroke:none;stroke-width:1;marker:none;visibility:visible;display:inline;overflow:visible;enable-background:accumulate"
       d="m -13.814776,895.33638 c -1.103711,-0.73094 -1.195693,-1.63619 0.07156,-0.47144 1.37106,0.17652 1.879966,-0.82853 0.178651,-0.41125 -2.941364,-0.71949 -0.388683,-4.4524 1.80451,-2.33857 1.557257,1.4649 -0.392082,3.58213 -2.054717,3.22126 z m 2.106677,-1.26707 c 0.968035,-1.42672 -1.241351,0.96291 0,0 z m -0.713484,-0.21424 c 0.29848,-0.9038 -1.559042,0.81281 1.2e-5,2e-5 l -1.2e-5,-2e-5 z m 0.504475,-0.81422 c 0.323465,-0.62943 -0.726484,0.65433 0,0 z"
       id="path28020"
       inkscape:connector-curvature="0" />
    <path
       style="color:#000000;fill:#803300;fill-opacity:1;fill-rule:evenodd;stroke:none;stroke-width:1;marker:none;visibility:visible;display:inline;overflow:visible;enable-background:accumulate"
       d="m -10.541922,916.16303 c 0.12046,-0.13781 -3.7548,0.17443 -2.341786,-2.21251 1.234763,-1.06617 4.3498209,-0.49319 3.3777746,1.13505 0.6859593,0.61017 -1.8158206,1.97948 -1.0359886,1.07746 z m -0.495555,-0.4828 c 0.365233,-0.66326 -2.907049,-0.39524 -0.496084,0.17163 l 0.496092,-0.17164 -8e-6,1e-5 z"
       id="path28022"
       inkscape:connector-curvature="0" />
    <path
       style="color:#000000;fill:#803300;fill-opacity:1;fill-rule:evenodd;stroke:none;stroke-width:1;marker:none;visibility:visible;display:inline;overflow:visible;enable-background:accumulate"
       d="m -36.466925,909.26296 c -2.331367,-1.75126 1.939649,1.28691 0.865634,-0.65922 -0.880775,-0.85424 0.103967,1.1913 -1.045136,-0.22799 -2.895403,-2.66046 3.8946,-3.28452 2.625078,-0.30072 -0.479438,0.80704 -1.436112,1.91848 -2.445576,1.18793 z m 1.38467,-1.08992 c -0.769469,-0.46072 -0.08339,0.72655 0,0 z"
       id="path28028"
       inkscape:connector-curvature="0" />
    <path
       style="color:#000000;fill:#803300;fill-opacity:1;fill-rule:evenodd;stroke:none;stroke-width:1;marker:none;visibility:visible;display:inline;overflow:visible;enable-background:accumulate"
       d="m -26.904818,902.3236 c -1.303436,-0.79529 -1.471706,-2.72089 -0.684394,-3.23653 -0.296153,2.17315 1.001256,-1.56655 1.316941,0.73765 -0.09374,-2.59473 0.662662,2.34281 0.92992,-0.0286 -0.346918,2.54493 0.144,1.00473 0.522438,0.64236 0.175183,1.0084 -0.984121,2.44529 -2.084905,1.88515 z"
       id="path28030"
       inkscape:connector-curvature="0" />
    <path
       style="color:#000000;fill:#803300;fill-opacity:1;fill-rule:evenodd;stroke:none;stroke-width:1;marker:none;visibility:visible;display:inline;overflow:visible;enable-background:accumulate"
       d="m -17.908776,894.91646 c -2.831867,-1.44504 1.791849,-4.7458 1.747704,-1.68286 -0.370644,1.03034 -0.774379,0.95009 -1.349616,1.46071 1.490295,1.12628 2.24471,-3.40113 1.772536,-0.36715 -0.354155,0.84036 -1.447437,0.71933 -2.170624,0.5893 z"
       id="path28032"
       inkscape:connector-curvature="0" />
    <path
       style="color:#000000;fill:#aa4400;fill-opacity:1;fill-rule:evenodd;stroke:none;stroke-width:1;marker:none;visibility:visible;display:inline;overflow:visible;enable-background:accumulate"
       d="m -48.878471,909.41411 c -0.860168,-0.77183 -0.436913,-3.14818 -0.432038,-3.56965 0.139076,0.97267 3.095236,-0.51007 2.082498,1.63065 -0.287958,1.16985 -1.207123,1.38441 -0.615421,2.04211 -0.335664,0.0171 -0.745833,0.16942 -1.035039,-0.10311 z m 1.086845,-1.4852 c 1.115736,-1.58039 -1.595413,1.08897 0,0 z"
       id="path28036"
       inkscape:connector-curvature="0" />
    <path
       style="color:#000000;fill:#aa4400;fill-opacity:1;fill-rule:evenodd;stroke:none;stroke-width:1;marker:none;visibility:visible;display:inline;overflow:visible;enable-background:accumulate"
       d="m -11.188039,908.82162 c -3.060752,-1.22866 0.842975,-4.84816 1.9926412,-1.92513 0.7516475,1.78895 -1.0731842,1.39334 -1.9926412,1.92513 z m 0.05951,-0.47087 c -0.987357,-1.96737 -1.448806,0.20828 0,0 z"
       id="path28040"
       inkscape:connector-curvature="0" />
    <path
       style="color:#000000;fill:#aa4400;fill-opacity:1;fill-rule:evenodd;stroke:none;stroke-width:1;marker:none;visibility:visible;display:inline;overflow:visible;enable-background:accumulate"
       d="m -22.569916,915.0499 c 1.153464,-1.32262 -2.07669,0.34085 -1.91202,-1.65955 -1.134349,-2.90912 4.184562,-2.70927 2.676249,-0.0334 0.403895,0.70551 -0.110621,1.64008 -0.764229,1.69297 z m -0.269772,-0.74087 c 1.408696,-0.63522 -2.796658,-0.90079 -0.308184,0.11826 l 0.308184,-0.11824 0,-2e-5 z m -0.103121,-0.96322 c -0.375759,-0.87175 -0.879075,0.60719 0,0 z"
       id="path28042"
       inkscape:connector-curvature="0" />
    <path
       style="color:#000000;fill:#aa4400;fill-opacity:1;fill-rule:evenodd;stroke:none;stroke-width:1;marker:none;visibility:visible;display:inline;overflow:visible;enable-background:accumulate"
       d="m -8.4474346,905.58195 c 1.1654279,-0.60947 -2.1606114,-2.42108 -0.4548735,-0.3895 -2.2977999,-1.52151 0.3522787,-4.30234 1.9274332,-1.93514 -0.063048,1.15709 0.2359671,2.43912 -1.4725597,2.32464 z"
       id="path28044"
       inkscape:connector-curvature="0" />
    <path
       style="color:#000000;fill:#aa4400;fill-opacity:1;fill-rule:evenodd;stroke:none;stroke-width:1;marker:none;visibility:visible;display:inline;overflow:visible;enable-background:accumulate"
       d="m -12.872826,903.80496 c -1.196754,-1.05009 0.176829,-3.5597 1.561008,-2.31328 -0.359513,-1.50206 1.9626283,2.41462 0.01201,1.8402 -1.021575,0.82288 -2.285086,-2.04175 -1.570581,0.14152 0.412924,-0.0267 0.212478,0.56711 -0.0024,0.33156 z m 1.614659,-0.83706 c 0.206908,-0.78688 -2.279109,0.0371 -0.193166,0.11778 l 0.193157,-0.11824 9e-6,4.6e-4 z"
       id="path28046"
       inkscape:connector-curvature="0" />
    <path
       style="color:#000000;fill:#aa4400;fill-opacity:1;fill-rule:evenodd;stroke:none;stroke-width:1;marker:none;visibility:visible;display:inline;overflow:visible;enable-background:accumulate"
       d="m -21.338495,898.59122 c -3.030749,-1.13509 2.134294,-6.37369 1.914293,-2.2707 -0.261814,0.79791 -1.49323,3.00809 -0.05642,1.25425 0.831046,-0.85063 -0.06308,-4.38954 0.558782,-1.60488 0.586314,1.34539 -0.853353,3.03398 -2.416653,2.62133 z m 0.968098,-0.971 c 2.001744,-2.20328 -2.180764,0.81105 -7e-6,-2e-5 l 7e-6,2e-5 z"
       id="path28048"
       inkscape:connector-curvature="0" />
    <path
       style="color:#000000;fill:#aa4400;fill-opacity:1;fill-rule:evenodd;stroke:none;stroke-width:1;marker:none;visibility:visible;display:inline;overflow:visible;enable-background:accumulate"
       d="m -43.476151,903.6687 c 0.75982,-0.77256 0.79618,-2.82144 0.04129,-0.85908 -2.205581,2.7033 -1.262811,-3.83652 0.764481,-1.76345 0.57079,0.79547 0.07339,2.48236 -0.805774,2.62253 z m -0.302914,-0.80554 c 1.382833,-1.89966 -0.77971,-0.31147 -0.514495,0.35609 l 0.226339,-0.10106 0.288166,-0.25503 -1e-5,0 z m -0.252101,-0.75158 c 1.225012,-1.3404 -1.926158,1.08661 0,0 z"
       id="path28050"
       inkscape:connector-curvature="0" />
    <path
       style="color:#000000;fill:#aa4400;fill-opacity:1;fill-rule:evenodd;stroke:none;stroke-width:1;marker:none;visibility:visible;display:inline;overflow:visible;enable-background:accumulate"
       d="m -40.231152,905.83611 c 0.628219,-0.56746 1.491016,-2.55656 0.0816,-0.60361 -1.768117,1.12546 -1.476075,-2.66786 0.616975,-1.84921 1.805576,-0.31992 0.233735,2.72891 -0.69857,2.45282 z m -0.09956,-0.86718 c 0.864296,-1.0096 -1.439697,0.59266 0,0 z"
       id="path28052"
       inkscape:connector-curvature="0" />
    <path
       style="color:#000000;fill:#552200;fill-opacity:1;fill-rule:evenodd;stroke:none;stroke-width:1;marker:none;visibility:visible;display:inline;overflow:visible;enable-background:accumulate"
       d="m -10.393146,893.8581 c -1.309823,-1.18369 2.0551917,-0.91002 -0.136243,-1.55045 -1.132486,-1.09281 1.2390633,-1.73716 1.7252611,-1.39127 0.5601211,-1.19216 1.7580987,1.71195 0.2234114,0.29552 0.1851644,0.5861 1.7797533,2.51709 -0.3084494,2.39749 1.6655224,-1.11701 0.03763,-0.92649 0.1138664,-0.66148 1.0991454,-1.53449 -1.6718945,0.45903 -0.4616217,0.48719 -0.1319758,0.42161 -0.7798898,0.7014 -1.1562248,0.423 z m 0.5061248,-0.17395 c 0.033171,-1.08321 -1.4021148,0.48077 0,0 z m -0.028106,-1.55988 c -0.9127408,-1.26548 -0.8608648,0.5689 0,0 z"
       id="path28056"
       inkscape:connector-curvature="0" />
    <path
       style="color:#000000;fill:#803300;fill-opacity:1;fill-rule:evenodd;stroke:none;stroke-width:1;marker:none;visibility:visible;display:inline;overflow:visible;enable-background:accumulate"
       d="m -10.975295,899.06753 c 0.556068,-0.73864 -2.885652,-0.91746 -1.562723,-2.3968 2.16347,-1.35439 4.6195968,1.29137 1.562723,2.3968 z m 0.254159,-0.77122 c 0.528065,-0.86999 -2.49884,-0.0674 -0.246738,0.13417 l 0.246729,-0.13399 9e-6,-1.8e-4 z"
       id="path28058"
       inkscape:connector-curvature="0" />
    <path
       style="color:#000000;fill:#803300;fill-opacity:1;fill-rule:evenodd;stroke:none;stroke-width:1;marker:none;visibility:visible;display:inline;overflow:visible;enable-background:accumulate"
       d="m -14.20957,897.43336 c 0.694443,-0.99294 -1.797163,-0.50025 -1.501126,-0.97376 -0.426867,-3.2694 3.732346,1.12625 1.501131,0.97378 l -5e-6,-2e-5 z"
       id="path28060"
       inkscape:connector-curvature="0" />
    <path
       style="color:#000000;fill:#aa4400;fill-opacity:1;fill-rule:evenodd;stroke:none;stroke-width:1;marker:none;visibility:visible;display:inline;overflow:visible;enable-background:accumulate"
       d="m -8.1101181,896.88005 c -0.6604264,-0.88933 -2.9801039,-2.14473 -0.7855462,-1.08095 -0.2860941,-0.57123 -1.5476057,-1.88681 0.3930214,-1.53309 1.4761247,-0.0568 1.0301595,2.60756 0.3925248,2.61404 z"
       id="path28062"
       inkscape:connector-curvature="0" />
    <path
       style="color:#000000;fill:#aa4400;fill-opacity:1;fill-rule:evenodd;stroke:none;stroke-width:1;marker:none;visibility:visible;display:inline;overflow:visible;enable-background:accumulate"
       d="m -13.83634,922.37873 c 0.474134,-0.20623 -1.606059,-3.77376 1.007457,-2.57071 1.431869,0.99971 1.701136,2.00213 -0.103849,2.61149 -0.277229,0.14156 -0.648432,0.16664 -0.903608,-0.0408 z m 0.582239,-1.24378 c -0.523508,-1.00877 -0.739713,0.51329 0,0 z"
       id="path28064"
       inkscape:connector-curvature="0" />
    <path
       style="color:#000000;fill:#aa4400;fill-opacity:1;fill-rule:evenodd;stroke:none;stroke-width:1;marker:none;visibility:visible;display:inline;overflow:visible;enable-background:accumulate"
       d="m -15.10433,912.08375 c 0.210521,-0.23823 -0.603159,-3.03318 1.578283,-2.22733 1.61494,0.0148 1.519724,2.67685 0.121888,1.12606 -0.689322,-0.0593 -1.135464,1.54548 -1.700171,1.10127 z"
       id="path28066"
       inkscape:connector-curvature="0" />
    <path
       style="color:#000000;fill:#aa4400;fill-opacity:1;fill-rule:evenodd;stroke:none;stroke-width:1;marker:none;visibility:visible;display:inline;overflow:visible;enable-background:accumulate"
       d="m -22.079808,910.54609 c -1.527564,-1.7202 1.077018,-2.93343 2.412855,-2.10257 1.664942,0.86995 0.778829,2.20348 -0.716386,1.53017 -0.898284,0.84868 -2.864352,-1.36185 -1.30638,0.61726 0.691276,0.50819 -0.365946,0.26692 -0.390089,-0.0449 z"
       id="path28068"
       inkscape:connector-curvature="0" />
    <path
       style="color:#000000;fill:#aa4400;fill-opacity:1;fill-rule:evenodd;stroke:none;stroke-width:1;marker:none;visibility:visible;display:inline;overflow:visible;enable-background:accumulate"
       d="m -17.092562,910.61958 c -1.926384,-1.11508 -2.176207,-3.89122 0.562633,-2.75166 -0.216693,-0.33423 -1.627893,-1.44779 -0.115777,-0.58768 1.047251,0.21997 2.366125,3.46246 -0.446856,3.33934 z m 0.671268,-0.35698 c 1.669288,-0.59436 -3.225569,-1.26514 -0.936408,-0.0562 l 0.505116,0.16514 0.431287,-0.10899 5e-6,0 z m 0.227629,-0.9419 c 0.638287,-0.89292 -1.946796,0.31327 0,0 z"
       id="path28070"
       inkscape:connector-curvature="0" />
    <path
       style="color:#000000;fill:#aa4400;fill-opacity:1;fill-rule:evenodd;stroke:none;stroke-width:1;marker:none;visibility:visible;display:inline;overflow:visible;enable-background:accumulate"
       d="m -25.043118,911.45685 c 0.203401,-1.3239 2.88773,-1.23383 0.615556,-0.28253 -0.3429,0.15962 -0.850665,1.29373 -0.615556,0.28253 z"
       id="path28072"
       inkscape:connector-curvature="0" />
    <path
       style="color:#000000;fill:#aa4400;fill-opacity:1;fill-rule:evenodd;stroke:none;stroke-width:1;marker:none;visibility:visible;display:inline;overflow:visible;enable-background:accumulate"
       d="m -23.559475,915.24423 c -1.844433,-0.0586 -1.704549,-3.91798 -0.975436,-0.91941 0.04717,0.37255 2.257644,0.99036 0.975436,0.91941 z"
       id="path28076"
       inkscape:connector-curvature="0" />
    <path
       style="color:#000000;fill:#aa4400;fill-opacity:1;fill-rule:evenodd;stroke:none;stroke-width:1;marker:none;visibility:visible;display:inline;overflow:visible;enable-background:accumulate"
       d="m -24.071823,899.61803 c -2.658294,-0.4527 -1.576845,-3.5022 0.669214,-3.37338 1.145015,-0.76149 0.626533,2.49925 0.296975,0.65271 -0.351668,1.25811 -0.413456,2.48006 0.373964,0.88549 -1.153518,2.40093 0.02725,0.54977 0.186085,0.89276 -0.202216,0.54964 -0.956989,0.97631 -1.526238,0.94242 z m 0.473538,-2.00107 c 0.532919,-1.63762 -0.537624,-1.08583 -2.7e-5,-10e-6 l 2.7e-5,10e-6 z"
       id="path28078"
       inkscape:connector-curvature="0" />
    <path
       style="color:#000000;fill:#aa4400;fill-opacity:1;fill-rule:evenodd;stroke:none;stroke-width:1;marker:none;visibility:visible;display:inline;overflow:visible;enable-background:accumulate"
       d="m -39.97933,902.22887 c 0.566664,-1.37493 1.707107,-3.31025 0.658105,-0.76638 -0.10487,0.33363 -0.379053,0.57523 -0.658105,0.76638 z"
       id="path28080"
       inkscape:connector-curvature="0" />
    <path
       style="color:#000000;fill:#aa4400;fill-opacity:1;fill-rule:evenodd;stroke:none;stroke-width:1;marker:none;visibility:visible;display:inline;overflow:visible;enable-background:accumulate"
       d="m -39.200317,902.03377 c 0.384959,-1.73083 1.294509,-1.87673 0,0 z"
       id="path28082"
       inkscape:connector-curvature="0" />
    <path
       style="color:#000000;fill:#aa4400;fill-opacity:1;fill-rule:evenodd;stroke:none;stroke-width:1;marker:none;visibility:visible;display:inline;overflow:visible;enable-background:accumulate"
       d="m -38.836416,902.34519 c 0.425878,-0.98484 1.09608,-2.95956 0.553631,-0.64355 -0.149726,0.2405 -0.330849,0.4681 -0.553631,0.64355 z"
       id="path28084"
       inkscape:connector-curvature="0" />
    <path
       style="color:#000000;fill:#aa4400;fill-opacity:1;fill-rule:evenodd;stroke:none;stroke-width:1;marker:none;visibility:visible;display:inline;overflow:visible;enable-background:accumulate"
       d="m -38.56086,900.4104 c 0.225712,-1.48323 0.731339,-0.4195 0,0 z"
       id="path28086"
       inkscape:connector-curvature="0" />
    <path
       style="color:#000000;fill:#aa4400;fill-opacity:1;fill-rule:evenodd;stroke:none;stroke-width:1;marker:none;visibility:visible;display:inline;overflow:visible;enable-background:accumulate"
       d="m -47.245336,904.56403 c 1.193929,-0.97677 0.848444,-3.14835 0.113028,-0.65495 -0.74057,0.29343 1.102778,-2.46304 -0.482328,-0.67088 -0.07481,-0.83562 0.55551,-1.4616 -0.321968,-0.58262 -0.04601,-2.02625 2.639381,-1.85204 3.694313,-2.1774 -1.317337,0.64936 -0.978982,3.19004 -1.494659,2.09011 -0.821382,0.45171 -0.354151,2.13647 -1.508386,1.99574 z m 1.615225,-2.47035 c 0.709852,-1.49473 -0.575921,-0.90444 4e-6,-1.7e-4 l -4e-6,1.7e-4 z"
       id="path28090"
       inkscape:connector-curvature="0" />
    <path
       style="color:#000000;fill:#aa4400;fill-opacity:1;fill-rule:evenodd;stroke:none;stroke-width:1;marker:none;visibility:visible;display:inline;overflow:visible;enable-background:accumulate"
       d="m -47.683973,909.69976 c 0.06466,-0.23823 2.546686,-2.69065 1.00004,-0.32753 -0.257393,0.25502 -0.644933,0.37929 -1.00004,0.32753 z"
       id="path28092"
       inkscape:connector-curvature="0" />
    <path
       style="color:#000000;fill:#2b1100;fill-opacity:1;fill-rule:evenodd;stroke:none;stroke-width:1;marker:none;visibility:visible;display:inline;overflow:visible;enable-background:accumulate"
       d="m -47.503152,909.03307 c 1.048564,-2.10994 0.598738,-0.39777 0,0 z"
       id="path28094"
       inkscape:connector-curvature="0" />
    <path
       style="color:#000000;fill:#338000;fill-opacity:1;fill-rule:evenodd;stroke:none;stroke-width:1;marker:none;visibility:visible;display:inline;overflow:visible;enable-background:accumulate"
       d="m -21.555976,907.01031 c 0.648096,-1.13942 2.952814,-4.60468 1.210405,-1.62296 -0.07379,0.66216 -0.548595,1.46027 -1.210405,1.62296 z"
       id="path28106"
       inkscape:connector-curvature="0" />
    <path
       style="color:#000000;fill:#338000;fill-opacity:1;fill-rule:evenodd;stroke:none;stroke-width:1;marker:none;visibility:visible;display:inline;overflow:visible;enable-background:accumulate"
       d="m -18.625744,902.65768 c 0.986549,-1.31639 1.911416,-1.86933 3.474532,-1.52653 1.530123,-0.10094 2.689552,-0.0385 0.512815,0.1113 -1.620036,-0.17461 -2.811982,0.36655 -3.987347,1.41523 z"
       id="path28108"
       inkscape:connector-curvature="0" />
    <path
       style="color:#000000;fill:#338000;fill-opacity:1;fill-rule:evenodd;stroke:none;stroke-width:1;marker:none;visibility:visible;display:inline;overflow:visible;enable-background:accumulate"
       d="m -17.43286,899.25632 c -0.463997,-1.44059 0.06411,-2.72464 0.08074,-0.45472 -0.02861,-0.28571 0.118436,0.86746 -0.08074,0.45472 z"
       id="path28110"
       inkscape:connector-curvature="0" />
    <path
       style="color:#000000;fill:#338000;fill-opacity:1;fill-rule:evenodd;stroke:none;stroke-width:1;marker:none;visibility:visible;display:inline;overflow:visible;enable-background:accumulate"
       d="m -16.248953,900.6258 c 0.112335,-1.25482 3.923374,-3.78383 1.577415,-1.71087 -0.581565,0.51851 -1.025221,1.18602 -1.577415,1.71087 z"
       id="path28114"
       inkscape:connector-curvature="0" />
    <path
       style="color:#000000;fill:#338000;fill-opacity:1;fill-rule:evenodd;stroke:none;stroke-width:1;marker:none;visibility:visible;display:inline;overflow:visible;enable-background:accumulate"
       d="m -23.716681,902.29844 c -2.858821,-1.17682 1.166733,0.0977 0,0 z"
       id="path28116"
       inkscape:connector-curvature="0" />
    <path
       style="color:#000000;fill:#338000;fill-opacity:1;fill-rule:evenodd;stroke:none;stroke-width:1;marker:none;visibility:visible;display:inline;overflow:visible;enable-background:accumulate"
       d="m -22.534882,903.35562 c -1.389702,-1.24741 -0.06897,-0.87567 -1.4e-5,8e-5 l 1.4e-5,-8e-5 z"
       id="path28118"
       inkscape:connector-curvature="0" />
    <path
       style="color:#000000;fill:#338000;fill-opacity:1;fill-rule:evenodd;stroke:none;stroke-width:1;marker:none;visibility:visible;display:inline;overflow:visible;enable-background:accumulate"
       d="m -18.98404,905.45809 c 1.170871,-0.78135 4.792117,-0.25384 1.47014,-0.2395 -0.496414,0.0632 -1.009154,0.11334 -1.47014,0.2395 z"
       id="path28120"
       inkscape:connector-curvature="0" />
    <path
       style="color:#000000;fill:#338000;fill-opacity:1;fill-rule:evenodd;stroke:none;stroke-width:1;marker:none;visibility:visible;display:inline;overflow:visible;enable-background:accumulate"
       d="m -12.288524,905.63741 c -0.388439,-0.96575 -3.635082,-0.40156 -1.212481,-0.73162 1.759857,-0.67519 0.715463,0.12663 1.212481,0.73162 z"
       id="path28122"
       inkscape:connector-curvature="0" />
    <path
       style="color:#000000;fill:#338000;fill-opacity:1;fill-rule:evenodd;stroke:none;stroke-width:1;marker:none;visibility:visible;display:inline;overflow:visible;enable-background:accumulate"
       d="m -11.641258,905.36522 c -1.756768,-0.51637 1.770999,-0.4224 0.77405,-0.0987 l -0.244107,0.0525 -0.529926,0.0463 -1.7e-5,-10e-5 z"
       id="path28124"
       inkscape:connector-curvature="0" />
    <path
       style="color:#000000;fill:#338000;fill-opacity:1;fill-rule:evenodd;stroke:none;stroke-width:1;marker:none;visibility:visible;display:inline;overflow:visible;enable-background:accumulate"
       d="m -27.359872,921.98099 c 0.529743,-2.53189 0.9762,-5.11798 1.87892,-7.5472 0.385923,1.28629 -0.926711,3.69768 -0.674092,4.67488 -0.832346,0.6444 -0.53594,2.53674 -1.204828,2.87232 z"
       id="path28126"
       inkscape:connector-curvature="0" />
    <path
       style="color:#000000;fill:#338000;fill-opacity:1;fill-rule:evenodd;stroke:none;stroke-width:1;marker:none;visibility:visible;display:inline;overflow:visible;enable-background:accumulate"
       d="m -31.847,929.98521 c -0.781249,-1.42787 -1.781815,-3.81425 -2.917711,-5.45976 -1.30811,-2.21104 -2.43909,-4.54857 -4.027148,-6.54729 -1.008068,-1.76749 -2.525965,-4.56296 -4.351272,-4.48473 1.965352,-0.379 2.418812,1.37066 3.490962,2.85618 3.037252,4.20703 5.437673,8.79613 7.971591,13.30917 0.05842,0.14303 0.163672,0.55455 -0.166422,0.32643 z"
       id="path28130"
       inkscape:connector-curvature="0" />
    <path
       style="color:#000000;fill:#338000;fill-opacity:1;fill-rule:evenodd;stroke:none;stroke-width:1;marker:none;visibility:visible;display:inline;overflow:visible;enable-background:accumulate"
       d="m -44.97648,913.02682 c -1.256332,-0.007 -3.846839,-1.87156 -1.183074,-0.58778 0.124098,0.10586 1.462016,0.5192 1.183074,0.58778 z"
       id="path28132"
       inkscape:connector-curvature="0" />
    <path
       style="color:#000000;fill:#225500;fill-opacity:1;fill-rule:evenodd;stroke:none;stroke-width:1;marker:none;visibility:visible;display:inline;overflow:visible;enable-background:accumulate"
       d="m -40.530886,909.06915 c 0.003,-1.15952 0.740507,-2.93349 0.250939,-0.78797 -0.144308,-0.43396 -0.0975,1.20972 -0.250939,0.78797 z"
       id="path28134"
       inkscape:connector-curvature="0" />
    <path
       style="color:#000000;fill:#44aa00;fill-opacity:1;fill-rule:evenodd;stroke:none;stroke-width:1;marker:none;visibility:visible;display:inline;overflow:visible;enable-background:accumulate"
       d="m -48.186253,934.23756 c 1.545276,-2.07626 5.168106,-2.28841 7.026568,-1.06278 -1.810644,2.2043 -4.104864,1.7697 -6.604125,1.99168 -1.810113,0.89025 -1.616631,-0.0828 -0.422443,-0.9289 z m 3.319695,0.14438 c -0.684905,-0.58894 -1.825271,0.37214 -8e-6,-8e-5 l 8e-6,8e-5 z m 2.173339,-0.45235 c -0.957244,-0.48129 -5.74842,-0.009 -2.288673,0.0845 0.760849,-0.0109 1.537363,0.0504 2.288673,-0.0845 z m -0.607575,-0.61151 c -0.745591,-0.70618 -2.328267,0.30911 0,0 z"
       id="path28148"
       inkscape:connector-curvature="0" />
    <path
       style="color:#000000;fill:#338000;fill-opacity:1;fill-rule:evenodd;stroke:none;stroke-width:1;marker:none;visibility:visible;display:inline;overflow:visible;enable-background:accumulate"
       d="m -46.940165,939.68212 c 1.322018,-1.95378 2.948032,-3.5906 4.730785,-5.12549 1.739721,-1.22539 -1.446025,1.6083 -1.947799,2.199 -1.032523,0.81086 -1.723645,2.08036 -2.782986,2.92649 z"
       id="path28150"
       inkscape:connector-curvature="0" />
    <path
       style="color:#000000;fill:#55d400;fill-opacity:1;fill-rule:evenodd;stroke:none;stroke-width:1;marker:none;visibility:visible;display:inline;overflow:visible;enable-background:accumulate"
       d="m -49.250537,925.1401 c 0.02268,0.91679 -0.04417,2.21285 0.03125,2.90625 0.880162,-1.32631 0.45457,2.20526 1.1875,-0.1875 0.287672,-0.48765 0.658967,2.34767 0.644633,-0.0226 -0.254799,-1.07872 -1.345907,-1.74844 -1.863383,-2.69614 z"
       id="path28178"
       inkscape:connector-curvature="0" />
    <path
       style="color:#000000;fill:#55d400;fill-opacity:1;fill-rule:evenodd;stroke:none;stroke-width:1;marker:none;visibility:visible;display:inline;overflow:visible;enable-background:accumulate"
       d="m -47.821989,931.95223 c -0.0969,-1.44623 1.397884,-2.81989 0.764912,-0.8157 -0.08406,0.35984 -0.386468,0.74769 -0.764912,0.8157 z"
       id="path28180"
       inkscape:connector-curvature="0" />
    <path
       style="color:#000000;fill:#55d400;fill-opacity:1;fill-rule:evenodd;stroke:none;stroke-width:1;marker:none;visibility:visible;display:inline;overflow:visible;enable-background:accumulate"
       d="m -49.028464,932.84956 c 0.347903,-1.21301 2.036409,-5.42392 1.182893,-1.95092 -0.249288,0.74174 -0.341686,1.62512 -1.182893,1.95092 z"
       id="path28182"
       inkscape:connector-curvature="0" />
    <path
       style="color:#000000;fill:#55d400;fill-opacity:1;fill-rule:evenodd;stroke:none;stroke-width:1;marker:none;visibility:visible;display:inline;overflow:visible;enable-background:accumulate"
       d="m -48.98132,930.49688 c -0.144625,-1.79607 1.316155,-2.09524 0.496394,-0.12419 -0.412815,1.28846 -0.700252,2.32187 -0.628232,0.64986 l 0.131838,-0.52567 0,0 z"
       id="path28184"
       inkscape:connector-curvature="0" />
    <path
       style="color:#000000;fill:#55d400;fill-opacity:1;fill-rule:evenodd;stroke:none;stroke-width:1;marker:none;visibility:visible;display:inline;overflow:visible;enable-background:accumulate"
       d="m -46.956359,929.51811 c -0.582422,-3.15046 1.181863,-0.11837 0,0 z"
       id="path28188"
       inkscape:connector-curvature="0" />
    <path
       style="color:#000000;fill:#55d400;fill-opacity:1;fill-rule:evenodd;stroke:none;stroke-width:1;marker:none;visibility:visible;display:inline;overflow:visible;enable-background:accumulate"
       d="m -46.720426,931.22672 c 0.05657,-1.10202 0.997477,-3.31965 0.995344,-1.14621 0.06896,0.5961 -0.46913,1.05049 -0.995344,1.14621 z"
       id="path28192"
       inkscape:connector-curvature="0" />
    <path
       style="color:#000000;fill:#55d400;fill-opacity:1;fill-rule:evenodd;stroke:none;stroke-width:1;marker:none;visibility:visible;display:inline;overflow:visible;enable-background:accumulate"
       d="m -45.502641,930.51789 c -0.09365,-1.56447 1.179559,0.0375 0,0 z"
       id="path28194"
       inkscape:connector-curvature="0" />
    <path
       style="color:#000000;fill:#225500;fill-opacity:1;fill-rule:evenodd;stroke:none;stroke-width:1;marker:none;visibility:visible;display:inline;overflow:visible;enable-background:accumulate"
       d="m -28.284374,933.37901 c 0.05748,-2.4191 0.147788,-5.01807 1.863607,-6.96694 2.2021,-2.84722 -2.325568,4.09663 -0.07003,1.27728 0.594183,-1.56814 1.511438,-1.52307 0.371488,0.0118 -1.048946,0.75981 -1.525131,3.31089 -0.22234,1.02007 0.445029,-1.40194 2.191033,-2.12532 0.989459,-0.41287 -0.769503,1.33275 -2.872496,2.00857 -2.185711,2.90391 0.601559,-0.81508 3.256272,-4.30118 2.759867,-1.60324 -1.258623,1.33307 -1.403271,1.30088 -0.348462,-0.0693 -0.293977,-0.53249 -2.309071,3.67682 -2.8537,2.23613 0.06858,0.0466 -0.499424,3.07159 -0.304177,1.60324 z"
       id="path28220"
       inkscape:connector-curvature="0" />
    <path
       style="color:#000000;fill:#338000;fill-opacity:1;fill-rule:evenodd;stroke:none;stroke-width:1;marker:none;visibility:visible;display:inline;overflow:visible;enable-background:accumulate"
       d="m -22.609934,927.32873 c 0.246784,-1.03383 2.01413,-4.07064 0.799081,-1.29255 -0.195879,0.11868 -0.609903,1.91751 -0.799081,1.29255 z"
       id="path28258"
       inkscape:connector-curvature="0" />
    <path
       style="color:#000000;fill:#338000;fill-opacity:1;fill-rule:evenodd;stroke:none;stroke-width:1;marker:none;visibility:visible;display:inline;overflow:visible;enable-background:accumulate"
       d="m -20.104257,921.02345 c 0.122266,-1.20359 1.522602,-5.66758 0.751918,-2.42171 -1.228579,2.11603 1.15365,1.07666 1.266022,1.05849 -0.748663,0.41097 -1.621825,0.57941 -2.01794,1.36322 z"
       id="path28260"
       inkscape:connector-curvature="0" />
    <path
       style="color:#000000;fill:#338000;fill-opacity:1;fill-rule:evenodd;stroke:none;stroke-width:1;marker:none;visibility:visible;display:inline;overflow:visible;enable-background:accumulate"
       d="m -16.303028,918.35481 c 0.583286,-1.16542 0.954643,-0.25929 0,0 z"
       id="path28262"
       inkscape:connector-curvature="0" />
    <path
       style="color:#000000;fill:#338000;fill-opacity:1;fill-rule:evenodd;stroke:none;stroke-width:1;marker:none;visibility:visible;display:inline;overflow:visible;enable-background:accumulate"
       d="m -20.938358,918.21558 c -1.510659,-0.15006 -3.680654,-1.53234 -0.797464,-1.1801 0.536227,-0.22014 1.094816,1.12226 0.797464,1.1801 z"
       id="path28264"
       inkscape:connector-curvature="0" />
    <path
       style="color:#000000;fill:#338000;fill-opacity:1;fill-rule:evenodd;stroke:none;stroke-width:1;marker:none;visibility:visible;display:inline;overflow:visible;enable-background:accumulate"
       d="m -23.507251,916.69227 c 0.321797,-1.94288 3.075097,-0.12283 0.342608,-0.0273 l -0.334491,0.0736 -0.0081,-0.0464 -1.7e-5,8e-5 z"
       id="path28266"
       inkscape:connector-curvature="0" />
    <path
       style="color:#000000;fill:#338000;fill-opacity:1;fill-rule:evenodd;stroke:none;stroke-width:1;marker:none;visibility:visible;display:inline;overflow:visible;enable-background:accumulate"
       d="m -20.001777,917.97545 c -0.167968,-0.97852 -0.723481,-2.29545 0.471444,-1.02871 -0.170447,0.2566 -0.276759,2.1338 -0.471444,1.02871 z"
       id="path28268"
       inkscape:connector-curvature="0" />
    <path
       style="color:#000000;fill:#338000;fill-opacity:1;fill-rule:evenodd;stroke:none;stroke-width:1;marker:none;visibility:visible;display:inline;overflow:visible;enable-background:accumulate"
       d="m -19.623747,916.39551 c -1.728296,-0.63136 1.353279,-0.88774 0,0 z"
       id="path28270"
       inkscape:connector-curvature="0" />
    <path
       style="color:#000000;fill:#338000;fill-opacity:1;fill-rule:evenodd;stroke:none;stroke-width:1;marker:none;visibility:visible;display:inline;overflow:visible;enable-background:accumulate"
       d="m -20.926728,915.6596 c -1.331037,-1.21025 1.031197,-0.63416 -1.2e-5,2e-5 l 1.2e-5,-2e-5 z"
       id="path28272"
       inkscape:connector-curvature="0" />
    <path
       style="color:#000000;fill:#338000;fill-opacity:1;fill-rule:evenodd;stroke:none;stroke-width:1;marker:none;visibility:visible;display:inline;overflow:visible;enable-background:accumulate"
       d="m -18.459934,918.66583 c -1.562745,-1.05424 1.52557,-1.42899 1.762159,-0.65234 -0.469498,0.46041 -1.064351,0.86649 -1.762159,0.65234 z"
       id="path28274"
       inkscape:connector-curvature="0" />
    <path
       style="color:#000000;fill:#338000;fill-opacity:1;fill-rule:evenodd;stroke:none;stroke-width:1;marker:none;visibility:visible;display:inline;overflow:visible;enable-background:accumulate"
       d="m -16.60012,917.79397 c -1.005475,-0.10707 -2.929724,-1.64998 -0.805188,-0.73715 0.186015,0.14527 1.73318,0.38082 0.805188,0.73715 z"
       id="path28276"
       inkscape:connector-curvature="0" />
    <path
       style="color:#000000;fill:#338000;fill-opacity:1;fill-rule:evenodd;stroke:none;stroke-width:1;marker:none;visibility:visible;display:inline;overflow:visible;enable-background:accumulate"
       d="m -16.934936,916.84818 c -1.719292,-0.27603 -1.451538,-1.41842 0.104887,-0.26868 0.448249,0.0255 0.241409,0.52606 -0.104887,0.26868 z"
       id="path28278"
       inkscape:connector-curvature="0" />
    <path
       style="color:#000000;fill:#338000;fill-opacity:1;fill-rule:evenodd;stroke:none;stroke-width:1;marker:none;visibility:visible;display:inline;overflow:visible;enable-background:accumulate"
       d="m -17.708636,915.75284 c -1.364598,-1.1797 1.389171,0.49817 0,0 z"
       id="path28280"
       inkscape:connector-curvature="0" />
    <path
       style="color:#000000;fill:#338000;fill-opacity:1;fill-rule:evenodd;stroke:none;stroke-width:1;marker:none;visibility:visible;display:inline;overflow:visible;enable-background:accumulate"
       d="m -14.187817,918.94266 c -2.842958,-1.71359 2.851465,-0.35139 0.1951,0.11952 l -0.195131,-0.11951 3.1e-5,-10e-6 z"
       id="path28282"
       inkscape:connector-curvature="0" />
    <path
       style="color:#000000;fill:#338000;fill-opacity:1;fill-rule:evenodd;stroke:none;stroke-width:1;marker:none;visibility:visible;display:inline;overflow:visible;enable-background:accumulate"
       d="m -16.22773,918.85436 c 1.600839,-0.8393 0.399113,0.86188 -0.165603,0.15633 l 0.112594,-0.10634 0.053,-0.0501 10e-6,6e-5 z"
       id="path28284"
       inkscape:connector-curvature="0" />
    <path
       style="color:#000000;fill:#338000;fill-opacity:1;fill-rule:evenodd;stroke:none;stroke-width:1;marker:none;visibility:visible;display:inline;overflow:visible;enable-background:accumulate"
       d="m -15.690171,916.35845 c -0.668691,-0.69851 0.864879,-0.0716 0.05591,-0.71075 1.243159,-0.15846 0.312098,1.11134 -0.05591,0.71075 z"
       id="path28288"
       inkscape:connector-curvature="0" />
    <path
       style="color:#000000;fill:#338000;fill-opacity:1;fill-rule:evenodd;stroke:none;stroke-width:1;marker:none;visibility:visible;display:inline;overflow:visible;enable-background:accumulate"
       d="m -17.10763,914.46678 c 0.04668,-1.17007 1.887276,-3.07022 0.805474,-0.93175 0.221358,0.67761 0.278126,1.04135 -0.805474,0.93175 z"
       id="path28290"
       inkscape:connector-curvature="0" />
    <path
       style="color:#000000;fill:#338000;fill-opacity:1;fill-rule:evenodd;stroke:none;stroke-width:1;marker:none;visibility:visible;display:inline;overflow:visible;enable-background:accumulate"
       d="m -14.614249,914.21046 c -1.953698,-0.93133 2.090298,0.004 0.374718,0.12534 l -0.374604,-0.12529 -1.14e-4,-5e-5 z"
       id="path28292"
       inkscape:connector-curvature="0" />
    <path
       style="color:#000000;fill:#338000;fill-opacity:1;fill-rule:evenodd;stroke:none;stroke-width:1;marker:none;visibility:visible;display:inline;overflow:visible;enable-background:accumulate"
       d="m -14.246832,915.05083 c -2.085206,-0.43339 -0.925546,-1.15521 0.281665,-0.11063 -0.0074,0.1057 -0.219914,0.32993 -0.281665,0.11063 z"
       id="path28294"
       inkscape:connector-curvature="0" />
    <path
       style="color:#000000;fill:#338000;fill-opacity:1;fill-rule:evenodd;stroke:none;stroke-width:1;marker:none;visibility:visible;display:inline;overflow:visible;enable-background:accumulate"
       d="m -14.985164,915.42237 c -2.108442,-0.30742 1.303741,-0.55546 0.281131,0.0337 l -0.281131,-0.0337 0,10e-6 z"
       id="path28296"
       inkscape:connector-curvature="0" />
    <path
       style="color:#000000;fill:#338000;fill-opacity:1;fill-rule:evenodd;stroke:none;stroke-width:1;marker:none;visibility:visible;display:inline;overflow:visible;enable-background:accumulate"
       d="m -13.798234,917.52447 c -1.879389,0.32791 -1.038734,-0.81397 -0.0013,-1.34801 -0.218443,0.9129 0.91209,0.52953 1.129521,1.28242 -0.322602,0.24825 -0.777421,-0.0274 -1.128223,0.0656 z m 0.513736,-0.17275 c -1.187443,-1.14067 -2.22117,0.0185 0,0 z"
       id="path28298"
       inkscape:connector-curvature="0" />
    <path
       style="color:#000000;fill:#338000;fill-opacity:1;fill-rule:evenodd;stroke:none;stroke-width:1;marker:none;visibility:visible;display:inline;overflow:visible;enable-background:accumulate"
       d="m -7.6781281,917.94928 c -0.8913067,-0.81105 -2.9996489,-1.87892 -0.6984775,-2.20928 1.4682991,0.6086 1.9048488,0.32533 0.1243515,-0.3249 -0.5462907,-0.55983 4.3902889,1.19819 1.248789,-0.13109 -2.0398265,-0.4139 -1.8512229,-3.18644 -4.0192529,-2.93761 1.7412025,-0.68793 3.981015,2.07543 4.6521778,2.44737 -1.0216142,-0.60485 -3.4902241,-1.46013 -1.0239924,-0.12726 1.2638386,0.5654 4.6708276,1.05049 1.7138527,2.2739 -2.9247908,0.42863 1.7655345,0.6981 1.7767193,-1.02083 1.5019694,0.58167 4.34527489,-2.10568 1.4553758,-0.57134 -1.8533231,0.55162 -3.3838825,-0.96953 -4.8214729,-1.86175 -1.1967466,-0.79522 -3.1752593,-1.91946 -0.6567372,-2.00451 1.2450917,0.50882 3.3361399,2.01716 4.2273992,1.72667 -1.0194256,-0.43946 -5.4950958,-2.35158 -2.4039431,-2.07297 2.1088429,1.2668 4.2719134,2.99628 6.90821633,2.7269 1.11219827,-0.26639 2.83448397,-1.22576 1.12903757,0.34396 -2.51227733,2.39224 -6.0263193,3.5609 -9.4198406,3.84515 l -0.1920886,-0.10182 -1.14e-4,-5.9e-4 z m 0.4093128,-0.78972 c -0.3628141,-0.93113 -2.2880147,-0.26406 -0.3499185,0.04 l 0.3498359,-0.0399 8.26e-5,-7e-5 z m 2.8888019,-3.37367 c -0.7596401,-0.5085 -5.9518986,-3.00114 -2.9457395,-1.07226 0.9313549,0.4049 1.9455652,0.95406 2.9457395,1.07226 z"
       id="path28300"
       inkscape:connector-curvature="0" />
    <path
       style="color:#000000;fill:#338000;fill-opacity:1;fill-rule:evenodd;stroke:none;stroke-width:1;marker:none;visibility:visible;display:inline;overflow:visible;enable-background:accumulate"
       d="m -12.036385,912.19945 c 0.127157,-1.71577 2.3575694,-2.70076 0.666006,-0.70035 -0.42565,1.45326 2.7377394,-3.0588 1.217027,-0.37104 -0.135196,0.89139 -1.238331,0.92544 -1.883033,1.07139 z"
       id="path28302"
       inkscape:connector-curvature="0" />
    <path
       style="color:#000000;fill:#338000;fill-opacity:1;fill-rule:evenodd;stroke:none;stroke-width:1;marker:none;visibility:visible;display:inline;overflow:visible;enable-background:accumulate"
       d="m -0.35437592,913.46117 c -1.66092248,-0.31021 -4.75052338,-1.76675 -4.89745348,-2.82877 1.0528472,-0.50843 3.6857053,1.37378 3.9823541,0.65403 -1.2626167,-0.4798 -4.3551658,-1.09969 -1.3164349,-1.36157 2.50166594,-0.77233 4.5679815,2.81994 7.1949925,1.12076 1.5236758,-1.46772 -2.6680926,1.10172 -3.3009027,-0.44094 -1.68458714,-0.52143 -1.47614813,-1.19123 0.2697931,-0.55801 1.8758466,-0.007 -1.89713235,-0.47628 0.5066688,-0.4259 1.2583552,0.0412 5.2724407,-0.14728 1.7295867,-0.43123 -1.4482685,-0.34443 -6.4537144,0.98559 -3.57768976,-1.32334 0.87005006,-0.99338 2.43340386,-0.49808 2.98353376,-0.69069 -2.43781586,-2.01585 -3.78139903,2.30427 -5.9303634,2.29275 -0.6665136,-0.24516 3.53997396,-3.59318 0.6649774,-1.55419 -0.3561713,0.75049 -3.1111557,3.20079 -1.9386808,1.20886 0.5538547,-1.51761 3.16382899,-1.92668 3.60719775,-2.63463 -3.24771185,-0.75034 -4.47109665,3.09943 -6.74049065,4.17347 -0.6077541,-0.42272 3.4846605,-4.21309 0.7278317,-1.95553 -0.617364,0.95098 -2.8455259,3.81333 -1.6287622,1.20569 0.6380278,-0.98717 3.7378786,-3.34585 0.8855526,-1.54877 -1.2537889,0.47857 -2.7011985,4.88051 -2.0455143,2.10686 0.3518385,-1.90183 3.7814869,-3.05987 4.0276313,-3.36498 -1.9750776,-0.87461 -4.6383356,4.16174 -3.3621299,0.38676 1.6973005,-1.72338 4.7273184,-1.75646 7.1062892,-1.90347 2.4252354,-0.38513 4.6416735,1.10286 6.633144,2.31168 2.7793525,0.79129 0.8246006,2.83584 -0.7107808,3.75051 -1.0253669,1.08329 -1.2505245,1.29556 -1.4857426,0.16453 -0.4870788,1.41098 -1.8673966,1.69552 -3.38460742,1.64612 z m 1.1820181,-2.31373 c -0.84045473,-0.5916 -3.88926758,-0.99055 -1.2417872,-0.10385 0.37130325,0.0269 0.90900015,0.35056 1.2417872,0.10385 z m -2.51754358,-0.76752 c -0.3012632,-0.71983 -0.936878,0.2933 0,0 z m -4.5323389,-0.45686 c 1.2133606,-1.22041 0.6387742,-1.84066 -0.2483482,-0.1588 -0.3412901,0.20722 0.093406,0.61482 0.2483482,0.1588 z m 4.7014259,-1.0061 c 1.55085382,-1.28741 0.88098476,-1.60405 -0.3578633,-0.12578 -0.3101616,0.18516 0.3469653,0.40297 0.3578633,0.12578 z m 2.9603743,0.0279 c 1.6459105,-1.13799 0.1996485,-1.25644 -0.194609,0.0236 l 0.1945993,-0.0236 9.7e-6,10e-6 z m 1.1674471,-0.1412 c 0.4458269,-0.83164 3.3762682,-1.1681 0.915885,-1.09878 -0.2999767,-0.12827 -2.0164796,1.6505 -0.915885,1.09878 z m 0.8569227,0.0988 c 0.852524,-1.09698 -0.9198907,0.13564 0,0 z m -3.00140046,-0.0512 c 0.65093536,-0.60996 2.37384796,-2.02299 0.46061297,-0.8821 -0.10277947,0.0185 -1.1185895,1.13173 -0.46061297,0.8821 z"
       id="path28304"
       inkscape:connector-curvature="0" />
    <path
       style="color:#000000;fill:#338000;fill-opacity:1;fill-rule:evenodd;stroke:none;stroke-width:1;marker:none;visibility:visible;display:inline;overflow:visible;enable-background:accumulate"
       d="m -10.459994,913.08378 c -1.451552,-0.0544 -1.880258,-0.99634 -0.451168,-0.22931 0.08324,-0.0736 1.0246761,0.3776 0.451168,0.22931 z"
       id="path28306"
       inkscape:connector-curvature="0" />
    <path
       style="color:#000000;fill:#338000;fill-opacity:1;fill-rule:evenodd;stroke:none;stroke-width:1;marker:none;visibility:visible;display:inline;overflow:visible;enable-background:accumulate"
       d="m -5.4419811,910.08402 c 0.7815325,-1.38241 1.9364986,-2.84573 3.5872337,-3.1074 -1.5674128,0.41977 -2.7654385,2.69497 -3.5872337,3.1074 z"
       id="path28308"
       inkscape:connector-curvature="0" />
    <path
       style="color:#000000;fill:#552200;fill-opacity:1;fill-rule:evenodd;stroke:none;stroke-width:1;marker:none;visibility:visible;display:inline;overflow:visible;enable-background:accumulate"
       d="m -10.584701,920.16578 c -3.20908,-0.37613 -0.621017,-4.88019 1.6089799,-2.74081 1.300904,1.0486 -0.4382855,2.7955 -1.6089799,2.74081 z m 0.271209,-0.2076 c 0.5486584,-0.15056 -2.311834,-2.27219 -0.96713,-0.47486 0.234828,0.26412 0.566383,0.59856 0.96713,0.47486 z"
       id="path28310"
       inkscape:connector-curvature="0" />
    <path
       style="color:#000000;fill:#338000;fill-opacity:1;fill-rule:evenodd;stroke:none;stroke-width:1;marker:none;visibility:visible;display:inline;overflow:visible;enable-background:accumulate"
       d="m -27.969287,924.2651 c -0.855203,2.53248 -0.546017,5.55128 -2.008321,7.79839 -1.340016,-0.89343 -3.820922,-3.04542 -5.576829,-1.09516 -1.523992,1.05972 -5.238429,1.53582 -4.418349,4.06541 0.264538,2.32231 1.140285,4.65428 0.940999,7.01261 1.497996,-0.61807 0.100799,-3.98326 0.264296,-5.68452 -0.391058,-1.32136 -0.150936,-2.76523 0.242645,-0.51977 0.302726,1.16738 0.366382,6.01206 0.896459,2.34914 -0.131973,-0.9455 -0.493242,-5.93964 0.192819,-2.45189 -0.176896,-0.53262 0.641322,-5.96023 0.553881,-2.15481 0.646114,3.92774 0.383141,-3.60234 2.81865,-2.78815 2.42605,-0.58812 5.258776,2.16068 3.875543,4.42922 -0.242268,2.07348 -1.255707,5.37201 -0.625543,6.82078 0.524443,-2.85915 0.767498,-5.81284 1.561857,-8.59654 0.452271,0.68354 -0.311498,2.67305 0.248873,0.7365 0.565203,-2.19387 -0.481898,-1.99788 0.20968,-4.34747 1.047645,-1.55552 0.810021,-3.09241 1.01084,-4.72999 0.162452,-0.36786 -0.331005,-0.45273 -0.1875,-0.84375 z m -12.75,9.78125 c -1.817597,1.50415 -4.773692,3.29159 -3.207183,6.05821 -0.30503,1.24381 1.482024,3.10131 0.586773,0.81977 -0.834539,-2.77151 0.456248,0.40985 0.806532,1.12202 1.416919,0.20715 -1.355627,-5.48254 0.244224,-2.27765 -0.14659,1.27946 1.700058,3.65283 1.100904,1.1839 -0.247677,-1.00479 -1.142257,-4.53128 -0.09375,-1.71875 -0.05059,1.34207 1.544182,4.56278 1.129175,1.39826 -0.329607,-1.1907 -1.005062,-5.81325 -0.06668,-2.30451 0.614193,3.23774 -0.158563,-1.82481 -0.21875,-2.8125 -0.169695,-0.3708 0.0727,-1.30174 -0.28125,-1.46875 z m 11.21875,2.46875 c -0.314937,1.62224 -0.999813,4.34447 -0.71875,5.53125 0.39664,-1.82146 0.47224,-3.68831 0.71875,-5.53125 z m -9.84375,4.5625 c -0.708478,1.18527 0.628666,1.49635 0,0 z"
       id="path28128"
       inkscape:connector-curvature="0" />
    <path
       style="color:#000000;fill:#338000;fill-opacity:1;fill-rule:evenodd;stroke:none;stroke-width:1;marker:none;visibility:visible;display:inline;overflow:visible;enable-background:accumulate"
       d="m -44.750537,937.85885 c -1.05574,1.21918 -3.200693,3.07716 -3.127756,4.09375 1.136335,0 2.272671,0 3.409006,0 -0.757161,-1.85963 -0.04724,-0.97763 0.46875,0 -0.318922,-1.36102 -0.712538,-2.68266 -0.75,-4.09375 z"
       id="path28140"
       inkscape:connector-curvature="0" />
    <path
       style="color:#000000;fill:#44aa00;fill-opacity:1;fill-rule:evenodd;stroke:none;stroke-width:1;marker:none;visibility:visible;display:inline;overflow:visible;enable-background:accumulate"
       d="m -40.125537,929.85885 c -3.42572,-0.0784 -6.315024,2.02629 -8.9375,3.96875 0.05731,1.65453 2.090234,-2.22083 3.5,-1.65625 0.93487,-0.38944 2.82939,-2.21054 3.465908,-1.41648 -1.60755,0.41111 -3.417594,1.6297 -0.760326,1.24863 1.685161,0.82537 2.821479,0.82447 4.328725,-0.43261 1.487747,0.20641 2.748801,-1.44804 1.101797,-0.694 -2.592945,-0.34213 0.736973,-0.85912 -2.698604,-1.01804 z m -0.53125,1 c 1.396486,-0.0788 3.518923,0.86431 0.889996,0.43849 -0.144273,-0.077 -1.548567,-0.12507 -0.889996,-0.43849 z m -0.5625,0.75 c 1.980609,-0.22078 1.226612,0.55403 -0.125,0.0937 l 0.01767,-0.0577 0.107329,-0.036 z m -4.5,3.875 c -1.292804,-0.36074 -5.294375,1.50195 -1.860704,0.74217 1.065655,-0.30008 3.663774,-0.27848 1.17285,0.10653 -1.04079,-0.30678 -4.07623,0.99677 -1.941315,0.94917 0.889567,-0.4704 3.360779,-0.42747 0.978907,0.0302 -1.125084,-0.33679 -2.697079,1.4812 -0.974738,1.17195 -2.374496,1.60554 1.689864,1.52962 1.9072,-0.35583 0.439975,-1.08914 3.616509,-2.90441 0.7178,-2.64417 z m -2.5625,4.59375 c -1.264719,-0.33792 -0.74139,2.51265 -0.59375,1.9375 -0.04413,-0.4383 1.694493,-2.07068 0.59375,-1.9375 z"
       id="path28142"
       inkscape:connector-curvature="0" />
    <path
       style="color:#000000;fill:#225500;fill-opacity:1;fill-rule:evenodd;stroke:none;stroke-width:1;marker:none;visibility:visible;display:inline;overflow:visible;enable-background:accumulate"
       d="m -24.625537,926.5776 c 0.669135,0.86467 3.247704,4.6575 0.892496,1.9962 -1.776302,-1.01979 2.647416,2.59242 1.395922,3.02621 1.136013,1.37503 0.37292,0.1225 0.649082,-0.52241 0.384604,0.81256 1.66534,4.0736 0.967502,3.82117 -0.301877,-0.92057 -2.565443,-4.20809 -2.698545,-3.07292 1.515364,1.49497 1.356284,1.97751 -0.05021,0.50175 -0.362047,1.20496 3.744495,4.02536 1,2.15625 -2.330282,-2.55922 2.320533,4.2005 2.013104,0.9648 -0.160894,1.66355 1.71297,4.54222 1.080646,5.6602 -0.393508,-1.79681 -2.560299,-6.30996 -3.744434,-5.60655 0.588062,1.01448 3.799263,4.36854 1.406248,2.2485 -0.809356,-1.27334 -2.182999,-1.71417 -0.756648,-0.0272 1.076715,0.93299 1.687824,2.28699 0.128154,0.61571 -1.676341,-0.89478 1.903896,2.50326 2.089323,3.52444 0.568444,0.84424 1.201792,-1.2023 1.094729,0.1826 1.521295,-1.22365 -0.220526,-5.31954 -0.514191,-7.41553 -0.960197,-2.98942 -2.339529,-6.16086 -4.953181,-8.05322 z m 0.03125,3.59375 c -1.23609,0.78282 -2.595379,3.9106 -0.739854,1.31341 1.604072,-1.36912 -1.140928,2.00176 -1.533324,2.70412 -0.925567,0.81947 -0.695203,4.36312 -1.133072,1.45122 0.0115,-1.0889 1.862178,-4.81263 0.295071,-2.5198 -1.126524,-0.8188 -0.404873,3.13713 -0.491059,4.14088 0.387786,1.60681 -0.01633,4.25169 1.414738,4.78517 0.221659,-2.31008 3.423844,-3.26807 3.0625,-5.4375 -0.733003,0.8897 -3.402699,4.48389 -1.918902,1.92308 0.937726,-0.49756 2.895848,-4.68916 0.948099,-2.28826 -0.697355,1.20448 -2.540023,3.02018 -0.946578,0.74234 0.660807,-1.27956 2.444313,-2.11047 1.674477,-3.71764 0.04471,-1.76228 -0.705726,-0.25284 -1.263388,0.46341 -0.762244,1.20682 -2.933077,3.64891 -1.082169,0.93228 0.820686,-1.3831 2.816861,-2.72543 1.713461,-4.49271 z m 0.09375,3.84375 c -0.721991,1.16428 -2.213156,4.15856 -3.1875,5.6875 0.397329,-1.49986 -0.433574,-1.96602 0.8125,-2.59375 0.56902,-1.15327 1.00822,-2.65946 2.375,-3.09375 z m 0.875,4.59375 c -1.152761,0.30777 -3.572774,4.8231 -1.59375,2.34375 0.632753,-1.26112 2.314797,-2.14713 0.697278,-0.38547 -1.389443,1.02046 -0.785229,2.36827 0.391477,0.73213 1.097277,-0.78985 -1.153436,1.39042 0.754995,0.74709 0.04591,-1.13814 0.01615,-2.32683 -0.25,-3.4375 z m 0.71875,0.625 c -0.220184,1.27257 3.487642,4.50524 1.320948,1.39135 -0.366645,-0.52396 -0.751153,-1.06776 -1.320948,-1.39135 z m 0.125,1.46875 c -0.482845,1.79814 2.587487,1.68645 0.228348,0.19558 l -0.228348,-0.19558 z"
       id="path28214"
       inkscape:connector-curvature="0" />
  </g>
</svg>
