<?xml version="1.0" encoding="UTF-8" standalone="no"?>
<!-- Generator: Adobe Illustrator 12.0.1, SVG Export Plug-In . SVG Version: 6.00 Build 51448)  -->

<svg
   xmlns:dc="http://purl.org/dc/elements/1.1/"
   xmlns:cc="http://creativecommons.org/ns#"
   xmlns:rdf="http://www.w3.org/1999/02/22-rdf-syntax-ns#"
   xmlns:svg="http://www.w3.org/2000/svg"
   xmlns="http://www.w3.org/2000/svg"
   xmlns:sodipodi="http://sodipodi.sourceforge.net/DTD/sodipodi-0.dtd"
   xmlns:inkscape="http://www.inkscape.org/namespaces/inkscape"
   version="1.1"
   id="Layer_1"
   width="60"
   height="60"
   viewBox="0 0 59.999999 59.999998"
   overflow="visible"
   enable-background="new 0 0 695.788 108.132"
   xml:space="preserve"
   inkscape:version="0.48.1 r9760"
   sodipodi:docname="ewz_typ_100.svg"
   style="overflow:visible"><metadata
   id="metadata355"><rdf:RDF><cc:Work
       rdf:about=""><dc:format>image/svg+xml</dc:format><dc:type
         rdf:resource="http://purl.org/dc/dcmitype/StillImage" /><dc:title /></cc:Work></rdf:RDF></metadata><defs
   id="defs353">
	
	

	
	
	
</defs><sodipodi:namedview
   pagecolor="#ffffff"
   bordercolor="#666666"
   borderopacity="1"
   objecttolerance="10"
   gridtolerance="10"
   guidetolerance="10"
   inkscape:pageopacity="0"
   inkscape:pageshadow="2"
   inkscape:window-width="1280"
   inkscape:window-height="955"
   id="namedview351"
   showgrid="false"
   inkscape:zoom="2.4553024"
   inkscape:cx="32.531869"
   inkscape:cy="58.122564"
   inkscape:window-x="-3"
   inkscape:window-y="-3"
   inkscape:window-maximized="1"
   inkscape:current-layer="Layer_1"
   fit-margin-top="0"
   fit-margin-left="0"
   fit-margin-right="0"
   fit-margin-bottom="0" />

<g
   id="g207"
   transform="matrix(0.76978656,0,0,0.76978656,-205.95762,-0.26379109)">
		<path
   style="fill:#5c8727"
   inkscape:connector-curvature="0"
   id="path209"
   d="m 328.924,27.166 c 0,0 -5.293,-3.279 0.526,-8.253 5.821,-4.976 11.429,-8.467 11.429,-8.467 L 339.4,8.436 c 0,0 -11.641,7.197 -11.855,7.512 -0.212,0.32 -7.619,4.446 -7.619,4.446 l 2.962,6.458 6.036,0.314 z" />
		<g
   id="g211">
			<path
   style="fill:#5c8727;stroke:#b4cc95;stroke-width:1.18069994;stroke-linecap:round;stroke-linejoin:round"
   inkscape:connector-curvature="0"
   id="path213"
   d="m 305.428,14.025 c 0,0 -2.027,-0.747 -4.698,-0.428 -2.667,0.321 -4.377,0.428 -5.123,1.067 -0.747,0.642 -5.657,2.882 -5.657,2.882 0,0 -1.281,1.068 -1.495,1.708 -0.213,0.641 -0.213,2.348 -0.213,2.348 l 8.111,1.603 9.075,-9.18 z" />
			<path
   style="fill:#5c8727;stroke:#b4cc95;stroke-width:1.18069994;stroke-linecap:round;stroke-linejoin:round"
   inkscape:connector-curvature="0"
   id="path215"
   d="m 284.828,57.9 c 0,0 -3.31,2.243 -3.738,4.482 -0.427,2.24 -0.854,5.658 -0.212,6.402 0.641,0.749 3.628,1.603 5.765,0.214 2.132,-1.384 0.534,-5.76 0.534,-5.76 L 284.828,57.9 z" />
			<path
   style="fill:#5c8727;stroke:#b4cc95;stroke-width:1.18069994;stroke-linecap:round;stroke-linejoin:round"
   inkscape:connector-curvature="0"
   id="path217"
   d="m 306.389,66.758 c 0,0 -1.493,4.482 -4.271,4.912 -2.774,0.424 -6.404,1.066 -6.938,0.533 -0.532,-0.533 -1.39,-2.456 -1.067,-3.096 0.321,-0.641 4.271,-3.203 5.231,-3.949 0.961,-0.75 2.881,-2.992 2.881,-2.992 l 4.164,4.592 z" />
			<path
   style="fill:#5c8727;stroke:#b4cc95;stroke-width:1.18069994;stroke-linecap:round;stroke-linejoin:round"
   inkscape:connector-curvature="0"
   id="path219"
   d="m 288.883,52.028 c 0,0 -2.989,3.629 -3.417,5.872 -0.428,2.243 -2.028,9.605 0,10.994 2.027,1.387 5.658,1.28 6.404,1.173 0.749,-0.106 0.855,-0.854 3.417,-1.6 2.561,-0.749 6.938,-6.301 6.938,-6.301 l -3.63,-6.405 -6.403,-5.014 -3.309,1.281 z" />
			<path
   style="fill:#5c8727;stroke:#b4cc95;stroke-width:1.18069994;stroke-linecap:round;stroke-linejoin:round"
   inkscape:connector-curvature="0"
   id="path221"
   d="m 278.527,41.673 c 0,0 -3.203,3.096 -4.375,5.445 -1.176,2.347 -1.493,7.256 -1.069,7.684 0.427,0.428 3.31,-0.64 4.377,-1.813 1.067,-1.173 2.882,-8.541 2.882,-8.541 l -1.815,-2.775 z" />
			<path
   style="fill:#5c8727;stroke:#b4cc95;stroke-width:1.18069994;stroke-linecap:round;stroke-linejoin:round"
   inkscape:connector-curvature="0"
   id="path223"
   d="m 278.634,45.407 c 0,0 -4.482,9.075 -3.842,12.81 0.641,3.738 0.641,4.378 0.641,4.378 l 3.736,2.137 c 0,0 2.56,-0.749 3.842,-1.177 1.281,-0.426 7.473,-11.74 7.473,-11.74 l 0.64,-1.814 -12.49,-4.594 z" />
			<path
   style="fill:#5c8727;stroke:#b4cc95;stroke-width:1.18069994;stroke-linecap:round;stroke-linejoin:round"
   inkscape:connector-curvature="0"
   id="path225"
   d="m 281.198,32.278 c 0,0 -9.03,8.491 -0.856,15.693 4.486,3.949 10.036,2.562 10.036,2.562 l 0.426,-12.81 -9.606,-5.445 z" />
			<path
   style="fill:#5c8727;stroke:#b4cc95;stroke-width:1.18069994;stroke-linecap:round;stroke-linejoin:round"
   inkscape:connector-curvature="0"
   id="path227"
   d="m 307.99,52.349 c 0,0 -1.815,5.655 -3.201,7.151 -1.388,1.493 -3.736,3.095 -5.872,2.455 -2.135,-0.643 -2.027,-6.726 -1.388,-9.606 0.641,-2.884 10.461,0 10.461,0 z" />
			<path
   style="fill:#5c8727;stroke:#b4cc95;stroke-width:1.18069994;stroke-linecap:round;stroke-linejoin:round"
   inkscape:connector-curvature="0"
   id="path229"
   d="m 298.17,21.39 c 0,0 -10.354,-1.173 -11.527,-0.854 -1.176,0.32 -5.98,1.71 -6.621,6.297 -0.637,4.59 2.351,7.261 2.351,7.261 0,0 3.094,3.202 4.908,3.308 1.815,0.108 4.591,-0.748 4.591,-0.748 L 298.17,21.39 z" />
			<path
   style="fill:#5c8727;stroke:#b4cc95;stroke-width:1.18069994;stroke-linecap:round;stroke-linejoin:round"
   inkscape:connector-curvature="0"
   id="path231"
   d="m 309.592,48.72 c 0,0 -6.726,11.637 -16.333,4.802 -9.607,-6.831 -6.616,-12.169 -3.094,-18.574 3.523,-6.404 6.083,-5.443 6.083,-5.443 l 14.624,1.601 1.389,12.062 -2.669,5.552 z" />
			<path
   style="fill:#5c8727;stroke:#b4cc95;stroke-width:1.18069994;stroke-linecap:round;stroke-linejoin:round"
   inkscape:connector-curvature="0"
   id="path233"
   d="m 331.688,38.792 c 0,0 0.642,6.831 -0.853,9.18 -1.493,2.347 -3.31,4.377 -6.941,3.843 -3.627,-0.535 0.215,-15.585 0.215,-15.585 l 7.579,2.562 z" />
			<path
   style="fill:#5c8727;stroke:#b4cc95;stroke-width:1.18069994;stroke-linecap:round;stroke-linejoin:round"
   inkscape:connector-curvature="0"
   id="path235"
   d="m 326.352,39.43 c 0,0 0.214,10.57 -1.603,13.131 -1.815,2.563 -7.791,3.63 -7.791,3.63 l -0.854,-12.597 10.248,-4.164 z" />
			<path
   style="fill:#5c8727;stroke:#b4cc95;stroke-width:1.18069994;stroke-linecap:round;stroke-linejoin:round"
   inkscape:connector-curvature="0"
   id="path237"
   d="m 319.414,46.796 c 0,0 1.28,9.287 0.212,11.634 -1.068,2.353 -1.707,3.952 -4.908,5.553 -3.203,1.602 -5.019,2.029 -6.619,2.139 -1.603,0.104 -2.562,0.53 -3.523,-0.109 -0.962,-0.641 -2.881,-3.203 -2.457,-5.869 0.428,-2.67 6.193,-11.959 6.193,-11.959 l 11.102,-1.389 z" />
			<path
   style="fill:#5c8727;stroke:#b4cc95;stroke-width:1.18069994;stroke-linecap:round;stroke-linejoin:round"
   inkscape:connector-curvature="0"
   id="path239"
   d="m 325.711,37.617 c 0,0 -0.641,5.124 -3.735,8.967 -3.098,3.841 -5.553,4.803 -7.687,5.336 -2.135,0.533 -7.473,0.429 -7.473,0.429 0,0 -1.92,-10.354 1.068,-16.333 2.988,-5.978 4.482,-8.434 4.482,-8.434 l 8.434,0.641 4.911,9.394 z" />
			<path
   style="fill:#5c8727;stroke:#b4cc95;stroke-width:1.18069994;stroke-linecap:round;stroke-linejoin:round"
   inkscape:connector-curvature="0"
   id="path241"
   d="m 310.981,13.383 -7.048,-0.105 -1.922,1.281 -1.918,1.708 c 0,0 -0.641,-0.108 -1.388,0.32 -0.747,0.426 -1.815,0.64 -2.562,1.814 -0.748,1.174 -1.708,2.028 -2.562,3.31 -0.854,1.281 -2.67,3.736 -2.67,3.736 h -0.641 c 0,0 -1.921,1.601 -1.921,2.029 0,0.425 -0.533,2.562 0.215,3.094 0.748,0.535 2.347,2.135 2.347,2.135 0,0 2.456,2.777 10.143,2.456 7.685,-0.32 11.634,-4.591 11.634,-4.591 l 2.777,-2.988 -4.484,-14.199 z" />
			<path
   style="fill:#5c8727;stroke:#b4cc95;stroke-width:1.18069994;stroke-linecap:round;stroke-linejoin:round"
   inkscape:connector-curvature="0"
   id="path243"
   d="m 325.604,24.166 c 0,0 9.075,0 9.607,7.045 0.535,7.046 -3.203,10.036 -3.203,10.036 l -8.859,0.426 c 0,0 -4.375,-4.163 -4.698,-7.686 -0.321,-3.523 0.537,-8.967 7.153,-9.821 z" />
			<path
   style="fill:#5c8727;stroke:#b4cc95;stroke-width:1.18069994;stroke-linecap:round;stroke-linejoin:round"
   inkscape:connector-curvature="0"
   id="path245"
   d="m 321.654,20.536 c 0,0 1.174,-3.843 0.747,-5.229 -0.425,-1.389 -1.918,-3.417 -4.165,-5.126 -2.24,-1.706 -4.694,-2.453 -6.082,-2.346 -1.388,0.107 -3.095,0.212 -3.095,0.212 0,0 -0.854,4.269 -0.748,5.231 0.104,0.961 6.616,5.977 6.616,5.977 l 6.727,1.281 z" />
			<g
   id="g247">
				<path
   style="fill:#5c8727;stroke:#b4cc95;stroke-width:1.18069994;stroke-linecap:round;stroke-linejoin:round"
   inkscape:connector-curvature="0"
   id="path249"
   d="m 322.401,19.362 c 0,0 -3.201,-4.484 -5.443,-4.803 -2.24,-0.319 -7.475,0 -7.475,0 l -2.988,3.736 c 0,0 0.215,4.804 1.388,6.404 1.176,1.602 0.854,3.95 2.988,4.059 2.137,0.104 4.057,1.067 4.485,1.173 0.427,0.108 1.816,0.534 1.816,0.534 h 4.375 c 0,0 1.174,-0.213 1.707,-0.96 0.535,-0.747 1.493,-1.708 1.493,-2.774 0,-1.07 -0.105,-1.923 -0.426,-3.312 -0.322,-1.385 -1.28,-2.135 -1.28,-2.135 l -0.64,-1.922 z" />
				
					<line
   style="fill:#5c8727;stroke:#b4cc95;stroke-width:1.18069994;stroke-linecap:round;stroke-linejoin:round"
   id="line251"
   y2="20.216999"
   x2="322.93399"
   y1="24.698999"
   x1="323.043" />
			</g>
		</g>
		<path
   style="fill:#5c8727;stroke:#b4cc95;stroke-width:1.18069994;stroke-linecap:round;stroke-linejoin:round"
   inkscape:connector-curvature="0"
   id="path253"
   d="m 332.825,15.29 c 0,0 -0.877,3.357 -0.072,6.06 0.801,2.699 2.117,5.036 2.117,5.036 0,0 -5.623,-4.745 -5.474,-5.913 0.145,-1.167 0.145,-3.285 0.145,-3.285" />
	</g>
</svg>