<?xml version="1.0" encoding="UTF-8" standalone="no"?>
<!-- Created with Inkscape (http://www.inkscape.org/) -->

<svg
   width="64"
   height="64"
   viewBox="0 0 16.933333 16.933333"
   version="1.1"
   id="svg716"
   inkscape:version="1.2.2 (732a01da63, 2022-12-09)"
   sodipodi:docname="en.svg"
   xmlns:inkscape="http://www.inkscape.org/namespaces/inkscape"
   xmlns:sodipodi="http://sodipodi.sourceforge.net/DTD/sodipodi-0.dtd"
   xmlns="http://www.w3.org/2000/svg"
   xmlns:svg="http://www.w3.org/2000/svg">
  <sodipodi:namedview
     id="namedview718"
     pagecolor="#ffffff"
     bordercolor="#000000"
     borderopacity="0.25"
     inkscape:showpageshadow="2"
     inkscape:pageopacity="0.0"
     inkscape:pagecheckerboard="false"
     inkscape:deskcolor="#d1d1d1"
     inkscape:document-units="px"
     showgrid="true"
     showborder="false"
     inkscape:zoom="14.638496"
     inkscape:cx="-6.1823291"
     inkscape:cy="25.207508"
     inkscape:window-width="3840"
     inkscape:window-height="2066"
     inkscape:window-x="-11"
     inkscape:window-y="-11"
     inkscape:window-maximized="1"
     inkscape:current-layer="layer1">
    <inkscape:grid
       type="xygrid"
       id="grid837"
       spacingx="2.1166666"
       spacingy="2.1166666"
       empspacing="1" />
  </sodipodi:namedview>
  <defs
     id="defs713" />
  <g
     inkscape:label="Layer 1"
     inkscape:groupmode="layer"
     id="layer1">
    <path
       style="fill:#41479b;stroke-width:0.0250213"
       d="M 15.665166,2.1167047 H 1.268165 C 0.56776001,2.1167047 0,2.7666403 0,3.5684304 V 13.36494 c 0,0.801752 0.56776001,1.451726 1.268165,1.451726 h 14.397001 c 0.70037,0 1.268166,-0.649935 1.268166,-1.451726 V 3.5684304 c 0,-0.8017901 -0.56776,-1.4517257 -1.268166,-1.4517257 z"
       id="path144835" />
    <path
       style="fill:#f5f5f5;stroke-width:0.0250213"
       d="M 16.915764,3.3284386 C 16.815823,2.6409465 16.294099,2.1166667 15.665166,2.1166667 H 15.335179 L 9.926425,6.1732081 V 2.1167047 H 7.0069068 V 6.1732463 L 1.5981533,2.1167047 H 1.268165 c -0.62893167,0 -1.15065566,0.5242418 -1.25059699,1.2117722 L 4.6404383,6.7956579 H 0 V 10.137752 H 4.6404383 L 0.01756801,13.604855 C 0.11751468,14.29235 0.63923333,14.81663 1.268165,14.81663 H 1.5981533 L 7.0069068,10.760088 V 14.81663 H 9.926425 v -4.056542 l 5.408754,4.056542 h 0.329987 c 0.628933,0 1.150657,-0.524244 1.250598,-1.211775 l -4.622871,-3.467178 h 4.640439 V 6.7955819 h -4.640439 z"
       id="path144837" />
    <polygon
       style="fill:#ff4b55;stroke-width:0.707106"
       points="229.517,423.724 282.483,423.724 282.483,282.483 512,282.483 512,229.517 282.483,229.517 282.483,88.276 229.517,88.276 229.517,229.517 0,229.517 0,282.483 229.517,282.483 "
       id="polygon144839"
       transform="matrix(0.03307292,0,0,0.03785959,0,-1.2253883)" />
    <path
       style="fill:#ff4b55;stroke-width:0.0250213"
       d="M 0.81996081,14.723039 6.9908201,10.137711 H 5.9183404 l -5.61325906,4.17107 c 0.13733733,0.183502 0.31383199,0.327294 0.51487947,0.414258 z"
       id="path144841" />
    <path
       style="fill:#ff4b55;stroke-width:0.0250213"
       d="M 11.456069,10.137711 H 10.38359 l 5.976795,4.441119 c 0.167252,-0.12573 0.306812,-0.295569 0.406366,-0.49501 z"
       id="path144843" />
    <path
       style="fill:#ff4b55;stroke-width:0.0250213"
       d="M 0.13391334,2.9192903 5.3505093,6.7956201 H 6.422989 L 0.51180934,2.4031505 c -0.15871467,0.1352339 -0.288608,0.3120385 -0.377896,0.5161398 z"
       id="path144845" />
    <path
       style="fill:#ff4b55;stroke-width:0.0250213"
       d="M 10.99894,6.7956201 16.622464,2.6168676 C 16.483611,2.4339683 16.305705,2.2910103 16.103281,2.2057127 L 9.926425,6.7956201 Z"
       id="path144847" />
  </g>
</svg>
