<?xml version="1.0" encoding="UTF-8" standalone="no"?>
<svg
   xmlns:osb="http://www.openswatchbook.org/uri/2009/osb"
   xmlns:dc="http://purl.org/dc/elements/1.1/"
   xmlns:cc="http://creativecommons.org/ns#"
   xmlns:rdf="http://www.w3.org/1999/02/22-rdf-syntax-ns#"
   xmlns:svg="http://www.w3.org/2000/svg"
   xmlns="http://www.w3.org/2000/svg"
   xmlns:xlink="http://www.w3.org/1999/xlink"
   xmlns:sodipodi="http://sodipodi.sourceforge.net/DTD/sodipodi-0.dtd"
   xmlns:inkscape="http://www.inkscape.org/namespaces/inkscape"
   width="185mm"
   height="20mm"
   id="svg2"
   version="1.1"
   inkscape:version="0.92.4 (5da689c313, 2019-01-14)"
   sodipodi:docname="halsspitz.svg"
   inkscape:export-filename="Streifen_experimentalsud.png"
   inkscape:export-xdpi="300"
   inkscape:export-ydpi="300"
   viewBox="0 0 185 20">
  <defs
     id="defs4">
    <linearGradient
       osb:paint="gradient"
       id="linearGradient10516">
      <stop
         id="stop10518"
         offset="0"
         style="stop-color:#000000;stop-opacity:1;" />
      <stop
         id="stop10520"
         offset="1"
         style="stop-color:#000000;stop-opacity:0;" />
    </linearGradient>
    <linearGradient
       osb:paint="solid"
       id="linearGradient4094">
      <stop
         id="stop4096"
         offset="0"
         style="stop-color:#93beac;stop-opacity:1;" />
    </linearGradient>
    <linearGradient
       osb:paint="solid"
       id="linearGradient5272">
      <stop
         id="stop5274"
         offset="0"
         style="stop-color:#cec7c7;stop-opacity:1;" />
    </linearGradient>
    <linearGradient
       id="linearGradient3806">
      <stop
         id="stop3808"
         offset="0"
         style="stop-color:#ffffff;stop-opacity:0.1693989;" />
      <stop
         id="stop3810"
         offset="1"
         style="stop-color:#ffffff;stop-opacity:0;" />
    </linearGradient>
    <linearGradient
       id="linearGradient3242">
      <stop
         id="stop3804"
         offset="0"
         style="stop-color:#ffffff;stop-opacity:1;" />
      <stop
         style="stop-color:#b8b8b8;stop-opacity:1;"
         offset="1"
         id="stop3246" />
    </linearGradient>
    <linearGradient
       gradientUnits="userSpaceOnUse"
       y2="43.813"
       y1="43.813"
       x2="459.42001"
       x1="268.69"
       id="linearGradient5719">
      <stop
         id="stop16"
         offset="0" />
      <stop
         id="stop18"
         offset="1"
         stop-opacity="0" />
    </linearGradient>
    <linearGradient
       xlink:href="#linearGradient3242"
       gradientUnits="userSpaceOnUse"
       gradientTransform="matrix(1.7561,0,0,2.5492,-395.42,-458.6)"
       y2="708.44"
       y1="708.44"
       x2="448.70999"
       x1="281.60999"
       id="linearGradient3029" />
    <radialGradient
       xlink:href="#linearGradient3806-3"
       gradientUnits="userSpaceOnUse"
       gradientTransform="matrix(1.7561,0,0,2.4364,-395.42,-349.53)"
       r="93.892998"
       cy="487.73999"
       cx="362.34"
       id="radialGradient3024" />
    <linearGradient
       id="linearGradient3806-3">
      <stop
         id="stop2"
         offset="0"
         stop-opacity=".1694"
         stop-color="#fff" />
      <stop
         id="stop4"
         offset="1"
         stop-opacity="0"
         stop-color="#fff" />
    </linearGradient>
    <linearGradient
       xlink:href="#linearGradient3242"
       gradientUnits="userSpaceOnUse"
       gradientTransform="matrix(1.7561,0,0,1.7972,-395.42,84.574)"
       y2="318.09"
       y1="318.09"
       x2="489.47"
       x1="241.75"
       id="linearGradient3024" />
    <linearGradient
       xlink:href="#linearGradient3806-3"
       gradientUnits="userSpaceOnUse"
       gradientTransform="matrix(2.1089,0,0,1.7972,-523.87,84.574)"
       y2="504.67001"
       y1="504.67001"
       x2="364.12"
       x1="259.75"
       id="linearGradient3020" />
  </defs>
  <sodipodi:namedview
     id="base"
     pagecolor="#ffffff"
     bordercolor="#666666"
     borderopacity="1.0"
     inkscape:pageopacity="0.0"
     inkscape:pageshadow="2"
     inkscape:zoom="1.3516157"
     inkscape:cx="362.72342"
     inkscape:cy="-116.64707"
     inkscape:document-units="mm"
     inkscape:current-layer="layer1"
     showgrid="false"
     units="mm"
     inkscape:window-width="1920"
     inkscape:window-height="1137"
     inkscape:window-x="-8"
     inkscape:window-y="-8"
     inkscape:window-maximized="1"
     showguides="true"
     inkscape:guide-bbox="true"
     inkscape:snap-global="true"
     fit-margin-top="0"
     fit-margin-left="0"
     fit-margin-right="0"
     fit-margin-bottom="0"
     showborder="false"
     borderlayer="false"
     inkscape:showpageshadow="false"
     scale-x="1"
     viewbox-x="0"
     inkscape:pagecheckerboard="true" />
  <metadata
     id="metadata7">
    <rdf:RDF>
      <cc:Work
         rdf:about="">
        <dc:format>image/svg+xml</dc:format>
        <dc:type
           rdf:resource="http://purl.org/dc/dcmitype/StillImage" />
        <dc:title></dc:title>
      </cc:Work>
    </rdf:RDF>
  </metadata>
  <g
     inkscape:label="Ebene 1"
     inkscape:groupmode="layer"
     id="layer1"
     transform="translate(-34.471165,-981.83479)"><g
   id="layer2"
   inkscape:label="Ebene"
   transform="matrix(0.16459887,0,0,0.16459887,158.41897,947.84154)" />
<g
   inkscape:label="Ebene Kopie"
   id="g3840"
   transform="matrix(0.16459887,0,0,0.16459887,158.41897,947.84154)" />
<g
   id="layer3"
   inkscape:label="Ebene#1"
   transform="matrix(0.16459887,0,0,0.16459887,158.41897,947.84154)" />



{{#Rezept.Nummer}}



{{/Rezept.Nummer}}
<flowRoot
   xml:space="preserve"
   id="flowRoot9152"
   style="font-style:normal;font-weight:normal;font-size:40px;line-height:125%;font-family:sans-serif;letter-spacing:0px;word-spacing:0px;fill:#000000;fill-opacity:1;stroke:none;stroke-width:1px;stroke-linecap:butt;stroke-linejoin:miter;stroke-opacity:1"
   transform="translate(34.471165,981.83478)"><flowRegion
     id="flowRegion9154"><rect
       id="rect9156"
       width="227.57315"
       height="57.285656"
       x="520.0177"
       y="-13.346081" /></flowRegion><flowPara
     id="flowPara9158" /></flowRoot><g
   id="g33"
   transform="matrix(0.14848311,0,0,0.14849722,212.82757,989.14357)">
  <g
     id="g31">
    <g
       id="g29">
      <g
         id="g27">
        <polygon
           id="polygon25"
           points="" />
      </g>
    </g>
  </g>
</g>
<g
   id="g43"
   transform="matrix(0.14848311,0,0,0.14849722,212.82757,989.14357)">
  <g
     id="g41">
    <g
       id="g39">
      <g
         id="g37">
        <polygon
           id="polygon35"
           points="" />
      </g>
    </g>
  </g>
</g>
<g
   id="g53"
   transform="matrix(0.14848311,0,0,0.14849722,212.82757,989.14357)">
  <g
     id="g51">
    <g
       id="g49">
      <g
         id="g47">
        <polygon
           style="fill:#ffffff"
           id="polygon45"
           points="" />
      </g>
    </g>
  </g>
</g>
<g
   id="g63"
   transform="matrix(0.14848311,0,0,0.14849722,212.82757,989.14357)">
  <g
     id="g61">
    <g
       id="g59">
      <g
         id="g57">
        <polygon
           style="fill:#ffffff"
           id="polygon55"
           points="" />
      </g>
    </g>
  </g>
</g>
<g
   id="g73"
   transform="matrix(0.14848311,0,0,0.14849722,213.13237,988.97427)">
  <g
     id="g71">
    <g
       id="g69">
      <g
         id="g67">
        <polygon
           id="polygon65"
           points="" />
      </g>
    </g>
  </g>
</g>
<g
   id="g83"
   transform="matrix(0.14848311,0,0,0.14849722,213.13237,988.97427)">
  <g
     id="g81">
    <g
       id="g79">
      <g
         id="g77">
        <polygon
           id="polygon75"
           points="" />
      </g>
    </g>
  </g>
</g>
<g
   id="g93"
   transform="matrix(0.14848311,0,0,0.14849722,213.13237,988.97427)">
  <g
     id="g91">
    <g
       id="g89">
      <g
         id="g87">
        <polygon
           style="fill:#ffffff"
           id="polygon85"
           points="" />
      </g>
    </g>
  </g>
</g>
<g
   id="g103"
   transform="matrix(0.14848311,0,0,0.14849722,213.13237,988.97427)">
  <g
     id="g101">
    <g
       id="g99">
      <g
         id="g97">
        <polygon
           style="fill:#ffffff"
           id="polygon95"
           points="" />
      </g>
    </g>
  </g>
</g>
<circle
   style="stroke:#000000;stroke-width:0.1484323"
   id="circle105"
   r="0"
   cy="993.7439"
   cx="217.79471" />
<rect
   style="fill:#ffffff;stroke-width:0.2822229;"
   height="20.000006"
   width="184.99994"
   y="981.83478"
   x="34.471165" />
<g
   transform="matrix(0.2822228,0,0,0.28222289,34.472425,981.83479)"
   id="g117">
  <rect
     id="rect109"
     style="opacity:0.2;paint-order:normal"
     height="70.865997"
     width="70.865997"
     y="-2.467e-05"
     x="584.64001" />
  <g
     id="g115">
    <circle
       id="circle111"
       style="fill:#ffffff;paint-order:normal"
       r="31.447001"
       cy="35.432999"
       cx="620.08002" />
    <path
       style="opacity:0.2"
       inkscape:connector-curvature="0"
       id="path113"
       d="m 631.78,32.47 q 0.35222,0.3522 0.72514,0.576 0.36873,0.2195 0.70851,0.3107 0.33559,0.087 0.64639,0.017 0.31072,-0.079 0.58418,-0.3523 0.39778,-0.3977 0.44337,-0.8328 0.0456,-0.435 -0.16981,-0.8162 l 0.72505,-0.3522 q 0.12848,0.2444 0.2155,0.5387 0.0827,0.2899 0.062,0.6172 -0.0248,0.3232 -0.18645,0.6837 -0.16157,0.3522 -0.53035,0.721 -0.81626,0.8162 -1.8355,0.6506 -1.0194,-0.1658 -2.1878,-1.3342 -0.62969,-0.6297 -0.93633,-1.1932 -0.3066,-0.5718 -0.3563,-1.069 -0.0497,-0.4972 0.12843,-0.9157 0.17408,-0.4226 0.51386,-0.7623 0.46406,-0.4641 0.95712,-0.5926 0.95295,-0.2486 2.0261,0.4931 0.51369,0.3562 1.0192,0.8617 l 0.0994,0.099 z m 1.4668,-2.6103 q -0.74989,-0.7499 -1.3341,-0.7706 -0.58423,-0.029 -1.04,0.4268 -0.3232,0.3232 -0.35637,0.9032 -0.0539,0.692 0.69186,1.4791 z m -6.8076,4.6863 q -0.12432,-0.3315 -0.16578,-0.605 -0.0414,-0.2817 -0.004,-0.5262 0.0414,-0.2486 0.16578,-0.464 0.12039,-0.2194 0.3317,-0.4307 0.3522,-0.3522 0.69191,-0.46 0.34393,-0.1118 0.68368,-0.029 0.33976,0.075 0.67955,0.315 0.3397,0.2402 0.68775,0.5883 l 2.9873,2.9872 -0.61324,0.6132 -2.8423,-2.8422 q -0.28589,-0.2859 -0.53034,-0.4723 -0.24445,-0.1865 -0.4682,-0.2445 -0.22789,-0.062 -0.44748,0.017 -0.22378,0.075 -0.45995,0.3107 -0.21546,0.2155 -0.29832,0.489 -0.0787,0.2693 -0.029,0.5676 0.0497,0.2984 0.22783,0.6174 0.18236,0.3148 0.49307,0.6255 l 2.6434,2.6434 -0.61324,0.6132 -6.1486,-6.1485 0.61324,-0.6132 1.5993,1.5993 q 0.13676,0.1367 0.2692,0.2776 0.13252,0.141 0.24453,0.2611 0.11172,0.1202 0.19056,0.2071 0.0745,0.083 0.0995,0.1161 z m -2.1672,5.0756 q 0.38531,0.3853 0.75408,0.663 0.36878,0.2775 0.71265,0.406 0.33974,0.1243 0.64638,0.075 0.3066,-0.05 0.57177,-0.315 0.32734,-0.3273 0.32735,-0.7582 0.004,-0.4351 -0.3936,-0.9322 l 0.67103,-0.5721 q 0.24861,0.3066 0.40191,0.6671 0.15332,0.3605 0.17396,0.7292 0.0207,0.3688 -0.11191,0.7417 -0.13672,0.3687 -0.46404,0.6961 -0.43093,0.4309 -0.91575,0.5593 -0.48059,0.1244 -0.9819,0 -0.50135,-0.1284 -1.011,-0.464 -0.50962,-0.3439 -1.0069,-0.8411 -0.45164,-0.4516 -0.73328,-0.8576 -0.28589,-0.4102 -0.43505,-0.7748 -0.1492,-0.3729 -0.17406,-0.6961 -0.029,-0.3273 0.0415,-0.6049 0.0704,-0.2859 0.21546,-0.5221 0.14526,-0.2442 0.34414,-0.4431 0.31075,-0.3107 0.65461,-0.4476 0.34391,-0.1367 0.7003,-0.1283 0.35629,-1e-4 0.70848,0.1366 0.35219,0.1368 0.67956,0.373 l -0.57184,0.6877 q -0.41841,-0.3273 -0.83282,-0.3521 -0.4143,-0.025 -0.77064,0.3315 -0.26104,0.261 -0.33152,0.5469 -0.0704,0.2776 0.0373,0.6008 0.10357,0.319 0.38121,0.6878 0.27755,0.3686 0.71263,0.8037 z m -1.065,5.7551 q -0.55522,0.5552 -1.1892,0.4765 -0.63393,-0.079 -1.2554,-0.7002 -0.44336,-0.4433 -0.58834,-0.8618 -0.14501,-0.4268 -0.087,-0.808 0.0622,-0.3853 0.28591,-0.7334 0.22368,-0.3481 0.50938,-0.6508 l 0.81243,-0.8449 -0.24445,-0.2444 q -0.27761,-0.2777 -0.52207,-0.4227 -0.24027,-0.1492 -0.45997,-0.1699 -0.21958,-0.021 -0.42262,0.075 -0.20302,0.087 -0.40605,0.29 -0.17817,0.1782 -0.28581,0.3523 -0.11189,0.1699 -0.13675,0.3605 -0.0249,0.1823 0.0498,0.3895 0.0745,0.1988 0.26518,0.4309 l -0.70881,0.5674 q -0.232,-0.2984 -0.35628,-0.6132 -0.12845,-0.319 -0.11606,-0.6547 0.0124,-0.3356 0.18652,-0.6836 0.17403,-0.3563 0.55109,-0.7334 0.69197,-0.6919 1.4295,-0.6505 0.73751,0.033 1.4709,0.7665 l 1.9308,1.9307 q 0.33149,0.3315 0.57178,0.4309 0.2361,0.095 0.43915,-0.1078 0.0497,-0.05 0.091,-0.1079 0.0454,-0.062 0.0789,-0.1199 l 0.46395,0.4639 q -0.0828,0.1492 -0.18255,0.2815 -0.0949,0.1289 -0.22335,0.2573 -0.17403,0.174 -0.35208,0.2446 -0.18228,0.066 -0.37287,0.033 -0.19063,-0.042 -0.39774,-0.1657 -0.21128,-0.1284 -0.44747,-0.3397 l -0.0165,0.016 q 0.11601,0.3149 0.16986,0.6091 0.0579,0.29 0.0247,0.5717 -0.0331,0.2735 -0.16987,0.5428 -0.13242,0.2653 -0.38932,0.5222 z m -0.41844,-0.7002 q 0.29418,-0.2942 0.38123,-0.6381 0.087,-0.3522 0.029,-0.7002 -0.0581,-0.3481 -0.2279,-0.6588 -0.16577,-0.3149 -0.38533,-0.5345 l -0.36876,-0.3687 -0.65499,0.6875 q -0.21668,0.2308 -0.38505,0.4684 -0.16981,0.2363 -0.21959,0.4931 -0.0456,0.2528 0.0497,0.5304 0.0952,0.2776 0.39775,0.5801 0.36459,0.3645 0.72509,0.4019 0.36045,0.037 0.65878,-0.2611 z m -3.6543,-5.4939 -0.76242,-0.7624 0.55109,-0.5511 0.76241,0.7624 z m -1.3384,1.3383 -0.76241,-0.7624 0.55937,-0.5594 0.76242,0.7624 z m 2.8504,7.2507 -6.1486,-6.1485 0.61325,-0.6133 6.1486,6.1485 z m -5.1212,-2.7594 3.9403,3.9402 -0.60911,0.6091 -3.9403,-3.9402 -0.51793,0.5179 -0.54279,-0.5427 0.51793,-0.518 -0.50538,-0.5053 q -0.24444,-0.2445 -0.41437,-0.4889 -0.17409,-0.2486 -0.22793,-0.5014 -0.058,-0.2569 0.029,-0.5179 0.0829,-0.2652 0.35636,-0.5387 0.10772,-0.1077 0.23647,-0.211 0.13288,-0.1074 0.24465,-0.1697 l 0.56768,0.5677 q -0.0707,0.045 -0.1531,0.1121 -0.0873,0.062 -0.14947,0.124 -0.13673,0.1367 -0.17849,0.269 -0.0418,0.1323 -0.004,0.2693 0.0332,0.1326 0.13676,0.2776 0.10769,0.1408 0.26927,0.3024 l 0.40185,0.4018 0.71683,-0.7168 0.54278,0.5428 z m 10.393,-21.391 -0.66299,-0.663 1.6946,-1.6946 0.663,0.6629 z m -3.4432,3.1198 q 0.35222,0.3522 0.72513,0.576 0.36874,0.2195 0.70851,0.3107 0.33558,0.087 0.64633,0.016 0.31077,-0.079 0.58423,-0.3521 0.39778,-0.3978 0.44335,-0.8328 0.0456,-0.4351 -0.16989,-0.8163 l 0.72511,-0.3522 q 0.12848,0.2445 0.21544,0.5387 0.0829,0.29 0.0621,0.6173 -0.0249,0.3231 -0.18642,0.6836 -0.16164,0.3522 -0.5304,0.7209 -0.81625,0.8162 -1.8354,0.6506 -1.0193,-0.1657 -2.1876,-1.3341 -0.62984,-0.6298 -0.93641,-1.1933 -0.30661,-0.5717 -0.35639,-1.069 -0.0497,-0.4972 0.12848,-0.9156 0.17403,-0.4226 0.51377,-0.7624 0.46406,-0.464 0.9571,-0.5925 0.95302,-0.2486 2.0261,0.4931 0.51382,0.3563 1.0193,0.8618 l 0.0994,0.099 z m 1.4668,-2.6103 q -0.7499,-0.7499 -1.3342,-0.7706 -0.58422,-0.029 -1.04,0.4267 -0.32317,0.3232 -0.35634,0.9033 -0.0539,0.6919 0.69195,1.4791 z m -2.8547,3.642 q 2.345,2.345 0.99428,3.6957 -0.41848,0.4185 -0.87837,0.5138 -0.45994,0.087 -1.044,-0.1491 l -0.008,0.01 q 0.10769,0.1077 0.21948,0.228 0.11165,0.1201 0.20712,0.2236 l 0.1574,0.1823 q 0.0665,0.075 0.0787,0.095 l -0.59251,0.5925 q -0.0332,-0.042 -0.11596,-0.1325 -0.0869,-0.095 -0.21122,-0.2197 -0.12,-0.1285 -0.2692,-0.2777 -0.14489,-0.1534 -0.30647,-0.315 l -5.2247,-5.2246 0.61323,-0.6132 1.7525,1.7525 q 0.12431,0.1243 0.2361,0.2446 0.11188,0.1119 0.19468,0.2032 0.0993,0.1077 0.18639,0.2029 l 0.0166,-0.017 q -0.26097,-0.6007 -0.16983,-1.0647 0.0953,-0.4682 0.50961,-0.8826 0.69609,-0.696 1.5952,-0.4516 0.8991,0.2445 2.0593,1.4046 z m -0.61748,0.667 q -0.464,-0.464 -0.84104,-0.75 -0.37704,-0.2858 -0.69609,-0.3895 -0.31904,-0.1118 -0.58421,-0.046 -0.261,0.062 -0.49718,0.2983 -0.24032,0.2403 -0.33152,0.522 -0.087,0.2776 0,0.6132 0.0871,0.3357 0.36464,0.7458 0.28179,0.4061 0.77896,0.9033 0.48063,0.4806 0.87012,0.7458 0.39357,0.261 0.7251,0.3439 0.32732,0.079 0.60076,-0.012 0.26929,-0.095 0.50961,-0.3357 0.22373,-0.2237 0.29009,-0.4806 0.0704,-0.261 -0.0331,-0.58 -0.10365,-0.3191 -0.38952,-0.7044 -0.28589,-0.3937 -0.76652,-0.8743 z m -5.7509,6.0575 q 0.35221,0.3522 0.72513,0.576 0.36874,0.2196 0.7085,0.3107 0.33559,0.087 0.64633,0.017 0.31077,-0.079 0.58424,-0.3522 0.39776,-0.3978 0.44334,-0.8328 0.0456,-0.4351 -0.16991,-0.8162 l 0.72513,-0.3522 q 0.12848,0.2444 0.21544,0.5386 0.0829,0.2901 0.0621,0.6173 -0.0249,0.3232 -0.18642,0.6837 -0.16165,0.3521 -0.5304,0.7209 -0.81625,0.8162 -1.8354,0.6505 -1.0193,-0.1657 -2.1876,-1.3341 -0.62983,-0.6298 -0.93641,-1.1932 -0.3066,-0.5718 -0.35638,-1.069 -0.0497,-0.4972 0.12848,-0.9157 0.17401,-0.4226 0.51377,-0.7623 0.46406,-0.4641 0.9571,-0.5925 0.95302,-0.2486 2.0261,0.493 0.51382,0.3564 1.0193,0.8618 l 0.0994,0.099 z m 1.4668,-2.6102 q -0.74989,-0.7499 -1.3341,-0.7707 -0.58422,-0.029 -1.04,0.4268 -0.32317,0.3232 -0.35635,0.9032 -0.0539,0.6919 0.69196,1.4792 z m -1.3632,6.6747 -6.1485,-6.1484 0.61321,-0.6132 6.1485,6.1484 z m -1.3507,1.3507 -4.7316,-0.9031 -0.0456,1.2057 2.2373,2.2373 -0.64636,0.6463 -5.8378,-5.8376 0.64636,-0.6464 2.9251,2.925 -0.61721,-5.2328 0.76652,-0.7665 0.49706,4.574 5.61,0.9943 z" />
  </g>
</g>
<text
   transform="scale(0.99999581,1.0000042)"
   id="text123"
   xml:space="preserve"
   style="font-size:3.52777778px;line-height:0%;letter-spacing:0px;word-spacing:0px;fill:#000000;stroke-width:0.00028222;-inkscape-font-specification:'Trebuchet MS, Bold';font-family:'Trebuchet MS';font-weight:bold;font-style:normal;font-stretch:normal;font-variant:normal;text-anchor:start;text-align:start;writing-mode:lr;font-variant-ligatures:normal;font-variant-caps:normal;font-variant-numeric:normal;font-feature-settings:normal;"
   word-spacing="0px"
   letter-spacing="0px"
   y="998.82288"
   x="56.340874"><tspan
     sodipodi:role="line"
     id="tspan14264">{{#Rezept.Nummer}}Sud № {{Rezept.Nummer}}  ●  {{/Rezept.Nummer}}Alk. {{Sud.Alkohol}} %vol  ●  SW {{Sud.SW}} °P  ●  Bittere {{Sud.Bittere}} IBU</tspan></text>
<g
   id="g137"
   transform="matrix(0.28222289,0,0,0.28222289,34.472173,981.99591)">
  <rect
     id="rect133"
     style="opacity:0.2;paint-order:normal"
     height="0.88582999"
     width="190.73"
     y="43.369999"
     x="77.948997" />
  <rect
     id="rect135"
     style="opacity:0.2;fill:url(#linearGradient5719);paint-order:normal"
     height="0.88582999"
     width="190.73"
     y="43.369999"
     x="268.69" />
</g>
<g
   style="stroke:#000000"
   id="g421"
   transform="matrix(0.28208179,0,0,0.28208179,24.153752,704.87752)">
  <g
     id="g177">
    <g
       style="opacity:0.2;fill:none;stroke-width:1.68359995"
       id="g141"
       transform="matrix(0,-0.77414,0.7741,0,562.56,1053)">
      <path
         style="fill:none;stroke:#000000;stroke-width:1.68359995"
         inkscape:connector-curvature="0"
         id="path139"
         d="m 44.236,40.892 c 0,1.848 -1.582,3.344 -3.537,3.344 h -31.4 c -1.953,0 -3.535,-1.496 -3.535,-3.344 V 9.109 c 0,-1.848 1.582,-3.345 3.535,-3.345 h 31.4 c 1.955,0 3.537,1.497 3.537,3.345 z" />
    </g>
    <g
       id="g175"
       transform="rotate(-90,372.39,1087.6)">
      <g
         id="g165">
        <g
           id="g161">
          <g
             style="stroke-width:0.25"
             id="g149"
             transform="matrix(0.81642,0,0,0.81594,406.58,1277.5)">
            <line
               id="line143"
               y2="15.024"
               y1="12.087"
               x2="17.73"
               x1="17.73" />
            <line
               id="line145"
               y2="14.979"
               y1="12.087"
               x2="16.68"
               x1="17.242001" />
            <line
               id="line147"
               y2="14.979"
               y1="12.087"
               x2="18.782"
               x1="18.219999" />
          </g>
          <g
             id="g159">
            <path
               style="opacity:0.95;stroke-width:0.81617999"
               inkscape:connector-curvature="0"
               id="path151"
               d="m 421.06,1287.1 c 0,-0.7547 0.61149,-1.3634 1.3667,-1.3634" />
            <line
               style="opacity:0.95;stroke-width:0.81617999"
               id="line153"
               y2="1285.8"
               y1="1285.8"
               x2="424.03"
               x1="422.12" />
            <line
               style="opacity:0.95;stroke-width:0.40809"
               id="line155"
               y2="1284.3"
               y1="1284.3"
               x2="423.73999"
               x1="422.12" />
            <line
               style="opacity:0.95;stroke-width:0.40809"
               id="line157"
               y2="1285.9"
               y1="1284.3"
               x2="422.92999"
               x1="422.92999" />
          </g>
        </g>
        <path
           style="stroke-width:0.0015493"
           inkscape:connector-curvature="0"
           id="path163"
           d="m 420.03,1290.6 c -0.0431,0.02 -0.0788,0.056 -0.10484,0.1008 -0.0386,0.064 -0.0447,0.096 -0.0895,0.4214 l -0.008,0.053 h 0.173 l -0.0109,0.1661 c -0.006,0.096 -0.0231,0.241 -0.0402,0.3313 -0.0433,0.2365 -0.0678,0.4746 -0.0557,0.5382 0.005,0.028 0.0264,0.071 0.0447,0.091 0.0355,0.034 0.0355,0.034 0.0155,0.1727 -0.0524,0.3498 -0.19443,1.4653 -0.22836,1.7889 -0.0695,0.6395 -0.13431,1.5853 -0.17901,2.6008 -0.0215,0.4808 -0.0215,0.4839 -0.36264,1.1247 -0.24075,0.4527 -0.37807,0.787 -0.4645,1.1327 -0.10484,0.4151 -0.0986,0.1194 -0.0986,5.043 0,2.9446 0.006,4.4753 0.0155,4.5127 0.02,0.071 0.0802,0.1349 0.16973,0.1759 l 0.0695,0.033 h 2.145 c 1.6959,0 2.1588,0 2.2098,-0.02 0.0771,-0.022 0.14966,-0.081 0.18669,-0.1505 0.0247,-0.045 0.0264,-0.3295 0.031,-4.4968 0.005,-4.8925 0.008,-4.6575 -0.0895,-5.0575 -0.0926,-0.3811 -0.20679,-0.6594 -0.51542,-1.2474 -0.20832,-0.3983 -0.28084,-0.5633 -0.30244,-0.6923 -0.006,-0.043 -0.0171,-0.2147 -0.0231,-0.3763 -0.0216,-0.6893 -0.10639,-1.9369 -0.16976,-2.5355 -0.0433,-0.3921 -0.15587,-1.2848 -0.21603,-1.7066 l -0.0386,-0.2674 0.0386,-0.04 c 0.0355,-0.037 0.0386,-0.054 0.0386,-0.1742 0,-0.073 -0.0171,-0.2381 -0.0386,-0.3656 -0.0215,-0.1256 -0.0433,-0.2892 -0.0479,-0.3627 -0.005,-0.071 -0.0124,-0.152 -0.014,-0.1757 -0.006,-0.042 -0.006,-0.042 0.0772,-0.042 0.0986,0 0.0957,0.017 0.0634,-0.2255 -0.0248,-0.1791 -0.0369,-0.2164 -0.0957,-0.2863 -0.0802,-0.096 -0.0524,-0.096 -1.0817,-0.096 -0.92435,0 -0.93975,0 -1.0046,0.034 z" />
      </g>
      <g
         id="g173"
         transform="matrix(1.5509,0,0,1.5509,-269.87,-497.97)">
        <g
           id="g169"
           transform="matrix(0.52622,0,0,0.52611,435.15,1143.7)">
          <path
             style="stroke:#000000"
             inkscape:connector-curvature="0"
             id="path167"
             d="m 32.421,37.162 c 0.074,0.314 0.158,0.564 0.252,0.75 0.094,0.188 0.236,0.389 0.428,0.605 l 0.085,0.092 c 0.249,0.28 0.376,0.561 0.376,0.842 0,0.309 -0.111,0.574 -0.336,0.796 -0.225,0.222 -0.492,0.333 -0.805,0.333 -0.311,0 -0.578,-0.111 -0.803,-0.333 -0.225,-0.222 -0.336,-0.487 -0.336,-0.796 0,-0.281 0.126,-0.562 0.377,-0.842 l 0.083,-0.092 c 0.192,-0.217 0.335,-0.418 0.429,-0.605 0.094,-0.185 0.177,-0.435 0.25,-0.75 z" />
        </g>
        <path
           style="stroke-width:0.00099898"
           inkscape:connector-curvature="0"
           id="path171"
           d="m 452.91,1161.6 c 0.0278,-0.013 0.0508,-0.036 0.0676,-0.065 0.0249,-0.041 0.0288,-0.062 0.0577,-0.2717 l 0.005,-0.034 h -0.1116 l 0.007,-0.1071 c 0.004,-0.062 0.0149,-0.1554 0.0259,-0.2136 0.0279,-0.1525 0.0437,-0.306 0.0359,-0.347 -0.003,-0.018 -0.017,-0.046 -0.0288,-0.059 -0.0229,-0.022 -0.0229,-0.022 -0.01,-0.1114 0.0338,-0.2255 0.12536,-0.9448 0.14724,-1.1534 0.0448,-0.4124 0.0866,-1.0222 0.11542,-1.677 0.0139,-0.31 0.0139,-0.312 0.23383,-0.7252 0.15523,-0.2919 0.24377,-0.5074 0.2995,-0.7303 0.0676,-0.2677 0.0636,-0.077 0.0636,-3.2517 0,-1.8986 -0.004,-2.8856 -0.01,-2.9097 -0.0129,-0.046 -0.0517,-0.087 -0.10944,-0.1134 l -0.0448,-0.021 h -1.383 c -1.0935,0 -1.392,0 -1.4248,0.013 -0.0497,0.014 -0.0965,0.052 -0.12038,0.097 -0.0159,0.029 -0.017,0.2125 -0.02,2.8995 -0.003,3.1546 -0.005,3.0031 0.0577,3.261 0.0597,0.2457 0.13333,0.4252 0.33233,0.8043 0.13432,0.2568 0.18108,0.3632 0.19501,0.4464 0.004,0.028 0.011,0.1384 0.0149,0.2426 0.0139,0.4445 0.0686,1.2489 0.10946,1.6349 0.0279,0.2528 0.1005,0.8284 0.13929,1.1004 l 0.0249,0.1724 -0.0249,0.026 c -0.0229,0.024 -0.0249,0.035 -0.0249,0.1123 0,0.047 0.011,0.1535 0.0249,0.2357 0.0139,0.081 0.0279,0.1865 0.0309,0.2339 0.003,0.046 0.008,0.098 0.009,0.1133 0.004,0.027 0.004,0.027 -0.0498,0.027 -0.0636,0 -0.0617,-0.011 -0.0409,0.1454 0.016,0.1155 0.0238,0.1395 0.0617,0.1846 0.0517,0.062 0.0338,0.062 0.69748,0.062 0.59601,0 0.60594,0 0.64775,-0.022 z" />
      </g>
    </g>
  </g>
  <g
     id="g241">
    <g
       style="opacity:0.2;fill:none;stroke-width:1.68359995"
       id="g181"
       transform="matrix(0,-0.77414,0.7741,0,529.86,1053)">
      <path
         style="fill:none;stroke:#000000;stroke-width:1.68359995"
         inkscape:connector-curvature="0"
         id="path179"
         d="m 44.236,40.892 c 0,1.848 -1.582,3.344 -3.537,3.344 h -31.4 c -1.953,0 -3.535,-1.496 -3.535,-3.344 V 9.109 c 0,-1.848 1.582,-3.345 3.535,-3.345 h 31.4 c 1.955,0 3.537,1.497 3.537,3.345 z" />
    </g>
    <g
       id="g239"
       transform="rotate(-90,771.29,947.66)">
      <g
         id="g225">
        <g
           id="g221">
          <line
             style="stroke-width:0.39498001;stroke-linecap:round"
             id="line183"
             y2="722.82001"
             y1="720.03998"
             x2="696.21002"
             x1="692.19" />
          <g
             style="stroke-width:0.5;stroke-linecap:round"
             id="g189"
             transform="matrix(0.78993,0,0,0.79001,666.01,704.8)">
            <line
               id="line185"
               y2="22.829"
               y1="25.063999"
               x2="38.254002"
               x1="37.028999" />
            <line
               id="line187"
               y2="20.892"
               y1="22.829"
               x2="39.91"
               x1="38.254002" />
          </g>
          <g
             style="stroke-width:0.35602999"
             id="g219"
             transform="matrix(0.78993,0,0,0.79001,666.01,704.8)">
            <g
               id="g203">
              <g
                 id="g195">
                <g
                   style="stroke:#000000;stroke-width:0.35602999"
                   id="g193">
                  <path
                     style="stroke:#000000;stroke-width:0.35602999"
                     inkscape:connector-curvature="0"
                     id="path191"
                     d="m 26.477,17.012 c 1.012,0.747 1.778,1.682 2.505,2.701 0.385,0.54 0.868,1.744 1.617,1.81 0.19,0.017 0.462,-0.077 0.604,-0.195 0.756,-0.628 1.401,-1.416 2.061,-2.142 0.016,-0.017 -0.38,-0.015 -0.475,0.09 -0.527,0.58 -1.062,1.15 -1.606,1.713 -0.587,0.607 -1.18,-0.634 -1.481,-1.067 -0.804,-1.155 -1.626,-2.226 -2.767,-3.068 -0.105,-0.077 -0.513,0.118 -0.458,0.158 z" />
                </g>
              </g>
              <g
                 id="g201">
                <g
                   style="stroke:#000000;stroke-width:0.35602999"
                   id="g199">
                  <path
                     style="stroke:#000000;stroke-width:0.35602999"
                     inkscape:connector-curvature="0"
                     id="path197"
                     d="m 26.568,17.035 c -0.015,-0.003 -0.029,-0.007 -0.044,-0.011 0.12,0.018 0.562,-0.184 0.307,-0.221 -0.283,-0.041 -0.509,0.044 -0.704,0.251 -0.118,0.125 0.353,0.074 0.441,-0.019 z" />
                </g>
              </g>
            </g>
            <g
               id="g217">
              <g
                 id="g209">
                <g
                   style="stroke:#000000;stroke-width:0.35602999"
                   id="g207">
                  <path
                     style="stroke:#000000;stroke-width:0.35602999"
                     inkscape:connector-curvature="0"
                     id="path205"
                     d="m 28.42,14.197 c 1.34,0.872 2.836,1.246 4.367,1.632 0.765,0.193 1.524,0.262 1.115,1.176 -0.341,0.765 -0.724,1.509 -1.103,2.255 -0.027,0.054 0.415,0.027 0.475,-0.09 0.411,-0.809 0.818,-1.617 1.188,-2.445 0.173,-0.387 0.072,-0.621 -0.297,-0.802 -0.694,-0.342 -1.617,-0.427 -2.364,-0.627 -1.045,-0.279 -2.019,-0.668 -2.925,-1.258 -0.109,-0.072 -0.507,0.126 -0.456,0.159 z" />
                </g>
              </g>
              <g
                 id="g215">
                <g
                   style="stroke:#000000;stroke-width:0.35602999"
                   id="g213">
                  <path
                     style="stroke:#000000;stroke-width:0.35602999"
                     inkscape:connector-curvature="0"
                     id="path211"
                     d="m 28.388,13.782 c -0.076,0.154 -0.097,0.222 -0.008,0.381 0.075,0.136 0.535,-0.036 0.482,-0.13 -0.088,-0.099 -0.086,-0.208 0.004,-0.328 0.05,-0.1 -0.413,-0.056 -0.478,0.077 z" />
                </g>
              </g>
            </g>
          </g>
        </g>
        <path
           style="stroke-width:0.00122"
           inkscape:connector-curvature="0"
           id="path223"
           d="m 687.28,715.44 c -0.0171,-0.033 -0.0447,-0.063 -0.079,-0.083 -0.0514,-0.03 -0.0751,-0.035 -0.33052,-0.072 l -0.0408,-0.015 v 0.139 l -0.13048,-0.015 c -0.0737,0 -0.18907,-0.02 -0.25986,-0.03 -0.18541,-0.033 -0.37213,-0.053 -0.42213,-0.044 -0.0236,0 -0.0566,0.021 -0.0712,0.035 -0.0264,0.028 -0.0264,0.028 -0.13543,0.015 -0.27448,-0.042 -1.1491,-0.1544 -1.403,-0.1805 -0.50149,-0.054 -1.2431,-0.1081 -2.0399,-0.1411 -0.37697,-0.016 -0.37936,-0.016 -0.88202,-0.2868 -0.35503,-0.1902 -0.61727,-0.2986 -0.88821,-0.3671 -0.32567,-0.083 -0.0934,-0.078 -3.9552,-0.078 -2.3094,0 -3.5098,0 -3.5392,0.015 -0.0566,0.015 -0.10509,0.064 -0.13783,0.1321 l -0.0249,0.054 v 1.6956 c 0,1.3409 0,1.7069 0.0158,1.7472 0.0185,0.062 0.0632,0.1186 0.11696,0.1486 0.0354,0.021 0.25859,0.021 3.5269,0.026 3.8369,0 3.6527,0.015 3.9663,-0.072 0.29884,-0.074 0.51728,-0.1632 0.97835,-0.4075 0.31239,-0.1646 0.44175,-0.2218 0.54293,-0.2392 0.0341,0 0.16843,-0.015 0.29529,-0.018 0.54042,-0.018 1.5189,-0.084 1.9885,-0.1321 0.30751,-0.033 1.0077,-0.1246 1.3384,-0.171 l 0.20987,-0.032 0.0315,0.032 c 0.029,0.03 0.0422,0.03 0.13678,0.03 0.0578,0 0.18659,-0.015 0.28659,-0.03 0.0988,-0.016 0.22698,-0.033 0.28435,-0.038 0.0566,0 0.11861,-0.015 0.13768,-0.015 0.0329,0 0.0329,0 0.0329,0.062 0,0.077 -0.012,0.074 0.17685,0.05 0.14054,-0.021 0.16964,-0.03 0.2245,-0.076 0.0763,-0.065 0.0749,-0.041 0.0749,-0.8551 0,-0.7309 0,-0.7431 -0.0264,-0.7943 z" />
      </g>
      <g
         id="g237">
        <line
           style="opacity:0.6;stroke:#000000;stroke-width:0.79003;stroke-linecap:round"
           id="line227"
           y2="735.70001"
           y1="725.58002"
           x2="679.40002"
           x1="689.46997" />
        <g
           style="stroke-width:0"
           id="g235"
           transform="translate(162.78,-431.84)">
          <path
             inkscape:connector-curvature="0"
             id="path229"
             d="m 516.82,1159.3 c -0.0357,0.015 -0.0675,0.027 -0.0933,0.063 l -0.0199,0.027 -0.17321,0.9815 c -0.13678,0.775 -0.17579,0.9854 -0.16497,1.0117 0.01,0.037 0.0268,0.073 0.0546,0.096 0.0179,0.016 0.14532,0.041 2.0347,0.3767 2.2182,0.3939 2.1121,0.3767 2.3015,0.3629 0.1746,-0.015 0.31585,-0.045 0.58842,-0.1322 l 1.2923,-1.2948 c -0.18602,-0.046 -0.32548,-0.085 -0.53611,-0.1321 -0.21619,-0.049 -0.21788,-0.049 -0.48122,-0.2557 -0.18582,-0.1456 -0.32588,-0.2353 -0.47566,-0.3024 -0.17996,-0.081 -0.0467,-0.053 -2.2794,-0.4482 -1.3354,-0.2357 -2.0307,-0.3561 -2.0485,-0.3546 z m 6.9538,1.8062 -1.0036,1.0034 c 0.0903,0.015 0.20756,0.025 0.27228,0.03 0.18204,0.015 0.59606,0.024 0.7919,0.033 l 0.12656,-0.015 0.0169,0.019 c 0.0139,0.018 0.0189,0.021 0.0744,0.03 h 0.17053 c 0.0606,-0.015 0.13421,-0.015 0.16776,-0.015 0.0327,0 0.0695,0 0.0794,0.02 0.0199,0 0.0199,0 0.0139,0.039 -0.01,0.045 -0.0228,0.042 0.0963,0.049 0.0844,-0.015 0.10472,-0.016 0.14015,-0.022 0.0506,-0.029 0.0457,-0.017 0.12934,-0.4866 0.0665,-0.3746 0.0635,-0.3813 0.0576,-0.4096 -0.01,-0.023 -0.0199,-0.042 -0.0387,-0.056 -0.0258,-0.024 -0.0397,-0.027 -0.18423,-0.074 l -0.0218,-0.02 -0.01,0.042 -0.01,0.041 -0.0744,-0.023 c -0.0407,-0.018 -0.10899,-0.03 -0.1485,-0.043 -0.10313,-0.038 -0.20934,-0.069 -0.23922,-0.069 -0.0149,0 -0.0347,0.015 -0.0437,0.015 -0.0179,0.015 -0.0169,0.015 -0.0794,0 -0.0566,-0.02 -0.1759,-0.056 -0.28876,-0.09 z" />
          <path
             inkscape:connector-curvature="0"
             id="path231"
             style="paint-order:normal"
             d="m 526.36,189.16 a 3.0279,3.0274 0 0 0 -2.5313,1.373 l 1.834,2.2129 -2.2266,0.23047 a 3.0279,3.0274 0 0 0 2.9238,2.2402 3.0279,3.0274 0 0 0 3.0273,-3.0274 3.0279,3.0274 0 0 0 -3.0273,-3.0293 z m -0.22461,0.78906 a 0.41432,0.41425 0 0 1 0.41211,0.41601 0.41432,0.41425 0 0 1 -0.41211,0.41407 0.41432,0.41425 0 0 1 -0.41407,-0.41407 0.41432,0.41425 0 0 1 0.41407,-0.41601 z"
             transform="matrix(0.9375,0,0,0.9375,34.471,981.83)" />
          <path
             inkscape:connector-curvature="0"
             id="path233"
             style="paint-order:normal"
             d="m 522.18,1162.7 -1.0394,1.0391 1.273,4.1568 a 0.79979,0.79741 0 0 0 0.11276,0.2254 0.79209,0.82032 0 0 0 0.99262,0.3381 0.79209,0.82032 0 0 0 0.0496,-0.025 l 3.9926,-1.7511 a 0.79209,0.82032 0 0 0 0.41522,-1.0722 0.79209,0.82032 0 0 0 -1.0394,-0.4343 l -3.2446,1.4268 -1.042,-3.3953 a 0.79979,0.79741 0 0 0 -0.46742,-0.5059 z" />
        </g>
      </g>
    </g>
  </g>
  <g
     id="g331">
    <g
       style="opacity:0.2;fill:none;stroke-width:1.68359995"
       id="g245"
       transform="matrix(0,-0.77414,0.7741,0,497.17,1020.3)">
      <path
         style="fill:none;stroke:#000000;stroke-width:1.68359995"
         inkscape:connector-curvature="0"
         id="path243"
         d="m 44.236,40.892 c 0,1.848 -1.582,3.344 -3.537,3.344 h -31.4 c -1.953,0 -3.535,-1.496 -3.535,-3.344 V 9.109 c 0,-1.848 1.582,-3.345 3.535,-3.345 h 31.4 c 1.955,0 3.537,1.497 3.537,3.345 z" />
    </g>
    <g
       id="g329"
       transform="rotate(-90,771.29,947.66)">
      <g
         id="g321">
        <g
           style="stroke-width:0"
           id="g253"
           transform="matrix(1.3037,0,0,1.642,-5.7678,-1099.7)">
          <path
             inkscape:connector-curvature="0"
             id="path247"
             d="m 555.22,1088.9 q 0,0.3868 -0.10315,0.7135 -0.0989,0.3223 -0.30518,0.5587 -0.20632,0.2364 -0.52869,0.3697 -0.31807,0.1332 -0.7565,0.1332 -0.43842,0 -0.75649,-0.1332 -0.31808,-0.1333 -0.52869,-0.3654 -0.20632,-0.2364 -0.30948,-0.5587 -0.0989,-0.3267 -0.0989,-0.7093 0,-0.3309 0.0817,-0.5888 0.086,-0.2579 0.22351,-0.4427 0.13754,-0.1892 0.31377,-0.3009 0.18053,-0.1161 0.36966,-0.1548 v -0.017 q -0.20632,-0.06 -0.36966,-0.1935 -0.16333,-0.1332 -0.27509,-0.318 -0.11175,-0.1892 -0.17193,-0.417 -0.0559,-0.2278 -0.0559,-0.4814 0,-0.3181 0.0989,-0.5974 0.10315,-0.2837 0.30088,-0.4943 0.19772,-0.215 0.49,-0.3353 0.29228,-0.1247 0.67483,-0.1247 0.40404,0 0.70062,0.1247 0.30088,0.1246 0.4943,0.3396 0.19772,0.2106 0.29228,0.4943 0.0946,0.2836 0.0946,0.6017 0,0.2493 -0.0602,0.4771 -0.0559,0.2278 -0.16763,0.417 -0.10746,0.1848 -0.27509,0.318 -0.16334,0.129 -0.37825,0.1806 v 0.017 q 0.21491,0.043 0.39974,0.1591 0.18482,0.1117 0.31807,0.3009 0.13325,0.1848 0.21061,0.4427 0.0774,0.2579 0.0774,0.5846 z m -0.78228,-2.8541 q 0,-0.2278 -0.0473,-0.4169 -0.0473,-0.1892 -0.15904,-0.3224 -0.10746,-0.1376 -0.28369,-0.2106 -0.17623,-0.077 -0.43412,-0.077 -0.2493,0 -0.42123,0.077 -0.17193,0.073 -0.28369,0.2106 -0.11175,0.1332 -0.16333,0.3224 -0.0473,0.1891 -0.0473,0.4169 0,0.1805 0.0387,0.3696 0.0387,0.1892 0.14184,0.3439 0.10316,0.1547 0.27939,0.2536 0.18053,0.099 0.46421,0.099 0.30088,0 0.48141,-0.099 0.18053,-0.099 0.27509,-0.2536 0.0989,-0.1547 0.12895,-0.3439 0.0301,-0.1891 0.0301,-0.3696 z m 0.12465,2.781 q 0,-0.2192 -0.0516,-0.4213 -0.0473,-0.2063 -0.16763,-0.361 -0.12036,-0.159 -0.32238,-0.2536 -0.20201,-0.099 -0.50719,-0.099 -0.27939,0 -0.47711,0.099 -0.19342,0.095 -0.31377,0.2536 -0.12036,0.159 -0.17623,0.3696 -0.0559,0.2064 -0.0559,0.4299 0,0.2794 0.0559,0.5115 0.0559,0.2278 0.17623,0.3954 0.12465,0.1633 0.32666,0.2536 0.20202,0.09 0.48571,0.09 0.28798,0 0.4857,-0.09 0.19773,-0.09 0.31808,-0.2536 0.12035,-0.1676 0.17193,-0.3997 0.0516,-0.2364 0.0516,-0.5244 z" />
          <path
             inkscape:connector-curvature="0"
             id="path249"
             d="m 559.42,1085.6 q 0,0.2536 -0.0989,0.4772 -0.0946,0.2235 -0.2622,0.3911 -0.16763,0.1633 -0.39544,0.2622 -0.22351,0.095 -0.47711,0.095 -0.2536,0 -0.47711,-0.095 -0.22351,-0.099 -0.39114,-0.2622 -0.16763,-0.1676 -0.26649,-0.3911 -0.0989,-0.2236 -0.0989,-0.4772 0,-0.2578 0.0989,-0.4814 0.0989,-0.2235 0.26649,-0.3868 0.16763,-0.1676 0.39114,-0.2622 0.22351,-0.095 0.47711,-0.095 0.2536,0 0.47711,0.095 0.22781,0.095 0.39544,0.2622 0.16764,0.1633 0.2622,0.3868 0.0989,0.2236 0.0989,0.4814 z m -0.46851,0 q 0,-0.159 -0.0602,-0.3008 -0.0559,-0.1419 -0.15904,-0.245 -0.10316,-0.1075 -0.245,-0.1677 -0.13754,-0.06 -0.30088,-0.06 -0.15903,0 -0.30088,0.06 -0.13754,0.06 -0.2407,0.1677 -0.10316,0.1031 -0.16333,0.245 -0.0602,0.1418 -0.0602,0.3008 0,0.1591 0.0602,0.3009 0.0602,0.1376 0.16333,0.245 0.10316,0.1032 0.2407,0.1677 0.14185,0.06 0.30088,0.06 0.16334,0 0.30088,-0.06 0.14184,-0.064 0.245,-0.1677 0.10316,-0.1074 0.15904,-0.245 0.0602,-0.1418 0.0602,-0.3009 z" />
          <path
             inkscape:connector-curvature="0"
             id="path251"
             d="m 562.46,1085.1 q -0.42123,0 -0.7479,0.1719 -0.32666,0.1719 -0.54588,0.49 -0.21921,0.3181 -0.33526,0.7651 -0.11176,0.447 -0.11176,0.9929 0,0.5459 0.12035,1.0015 0.12465,0.4513 0.34816,0.778 0.22781,0.3267 0.55878,0.5072 0.33097,0.1805 0.7436,0.1805 0.28799,0 0.52439,-0.09 0.23641,-0.095 0.42983,-0.2621 0.19342,-0.1677 0.34386,-0.3955 0.15044,-0.2321 0.26649,-0.5115 l 0.55018,0.3353 q -0.13324,0.3395 -0.33096,0.6318 -0.19772,0.2923 -0.46422,0.5072 -0.26649,0.2149 -0.60176,0.3396 -0.33526,0.1203 -0.75219,0.1203 -0.60176,0 -1.0574,-0.2321 -0.45132,-0.2364 -0.7565,-0.6533 -0.30088,-0.4212 -0.45561,-0.9972 -0.15044,-0.576 -0.15044,-1.2594 0,-0.7092 0.15903,-1.2809 0.16334,-0.5717 0.46852,-0.9714 0.30947,-0.404 0.76079,-0.6189 0.45132,-0.2193 1.0273,-0.2193 0.79088,0 1.3239,0.3783 0.53298,0.3782 0.78228,1.1218 l -0.63614,0.2579 q -0.0688,-0.2149 -0.18913,-0.4083 -0.12035,-0.1977 -0.30088,-0.3482 -0.18052,-0.1504 -0.42123,-0.2407 -0.2407,-0.09 -0.55018,-0.09 z" />
        </g>
        <g
           style="stroke:#000000;stroke-width:0.25"
           id="g319"
           transform="matrix(0.86402,0,0,0.86396,696.63,670.3)">
          <g
             id="g269">
            <line
               id="line255"
               y2="19.045"
               y1="11.876"
               x2="14.197"
               x1="14.197" />
            <g
               id="g261">
              <line
                 id="line257"
                 y2="12.053"
                 y1="13.271"
                 x2="15.42"
                 x1="14.201" />
              <line
                 id="line259"
                 y2="12.053"
                 y1="13.271"
                 x2="12.978"
                 x1="14.197" />
            </g>
            <g
               id="g267">
              <line
                 id="line263"
                 y2="18.896"
                 y1="17.677999"
                 x2="12.976"
                 x1="14.195" />
              <line
                 id="line265"
                 y2="18.896"
                 y1="17.677999"
                 x2="15.419"
                 x1="14.199" />
            </g>
          </g>
          <g
             id="g285">
            <line
               id="line271"
               y2="13.675"
               y1="17.26"
               x2="11.105"
               x1="17.313999" />
            <g
               id="g277">
              <line
                 id="line273"
                 y2="18.23"
                 y1="16.565001"
                 x2="16.551001"
                 x1="16.104" />
              <line
                 id="line275"
                 y2="16.115"
                 y1="16.562"
                 x2="17.771"
                 x1="16.105" />
            </g>
            <g
               id="g283">
              <line
                 id="line279"
                 y2="12.691"
                 y1="14.357"
                 x2="11.846"
                 x1="12.291" />
              <line
                 id="line281"
                 y2="14.807"
                 y1="14.361"
                 x2="10.624"
                 x1="12.29" />
            </g>
          </g>
          <g
             id="g301">
            <line
               id="line287"
               y2="19.045"
               y1="11.876"
               x2="14.197"
               x1="14.197" />
            <g
               id="g293">
              <line
                 id="line289"
                 y2="12.053"
                 y1="13.271"
                 x2="15.42"
                 x1="14.201" />
              <line
                 id="line291"
                 y2="12.053"
                 y1="13.271"
                 x2="12.978"
                 x1="14.197" />
            </g>
            <g
               id="g299">
              <line
                 id="line295"
                 y2="18.896"
                 y1="17.677999"
                 x2="12.976"
                 x1="14.195" />
              <line
                 id="line297"
                 y2="18.896"
                 y1="17.677999"
                 x2="15.419"
                 x1="14.199" />
            </g>
          </g>
          <g
             id="g317">
            <line
               id="line303"
               y2="13.676"
               y1="17.261999"
               x2="17.290001"
               x1="11.081" />
            <g
               id="g309">
              <line
                 id="line305"
                 y2="16.113001"
                 y1="16.561001"
                 x2="10.623"
                 x1="12.288" />
              <line
                 id="line307"
                 y2="18.229"
                 y1="16.562"
                 x2="11.844"
                 x1="12.291" />
            </g>
            <g
               id="g315">
              <line
                 id="line311"
                 y2="14.81"
                 y1="14.361"
                 x2="17.771999"
                 x1="16.107" />
              <line
                 id="line313"
                 y2="12.692"
                 y1="14.358"
                 x2="16.552"
                 x1="16.104" />
            </g>
          </g>
        </g>
      </g>
      <g
         id="g327">
        <line
           style="opacity:0.6;stroke-width:0.86399001;stroke-linecap:round"
           id="line323"
           y2="704.58002"
           y1="693.75"
           x2="712.54999"
           x1="723.37" />
        <path
           style="stroke-width:0.28125"
           inkscape:connector-curvature="0"
           id="path325"
           d="m 717.74,692.97 v 2.6759 h 0.43597 V 692.97 h -0.2195 z m 3.1269,0.7095 -0.67046,1.1666 c -0.36769,0.637 -0.66807,1.1588 -0.66753,1.1606 6.5e-4,0 0.0836,0.054 0.1864,0.1113 0.12571,0.072 0.18726,0.1054 0.19247,0.1023 0.0109,0 1.3279,-2.2929 1.3319,-2.3091 0,0 -0.0423,-0.033 -0.16827,-0.1053 -0.0934,-0.054 -0.17662,-0.1033 -0.1865,-0.1083 z m -5.815,0.012 c 0,0 -0.0868,0.046 -0.18933,0.1053 -0.10204,0.059 -0.18531,0.111 -0.1865,0.1142 0,0 1.3233,2.3117 1.332,2.3151 0,0 0.0912,-0.048 0.19248,-0.1053 0.1345,-0.077 0.18205,-0.1078 0.18031,-0.1142 0,-0.017 -1.3214,-2.3034 -1.329,-2.3121 z m -2.3481,2.1889 c 0,0 -0.0532,0.083 -0.11138,0.1834 -0.0586,0.1002 -0.10747,0.1858 -0.10856,0.1894 0,0 2.2959,1.3345 2.3122,1.338 0.0109,0 0.22244,-0.3683 0.21951,-0.3759 0,0 -2.3034,-1.3349 -2.3122,-1.3349 z m 10.508,0 c 0,0 -0.52271,0.2996 -1.1545,0.6644 -0.63192,0.3649 -1.1517,0.6666 -1.1546,0.6705 -0.0109,0.016 0.20366,0.377 0.21354,0.3759 0,-7e-4 0.43043,-0.2434 0.94706,-0.5412 0.51674,-0.2985 1.034,-0.6 1.1516,-0.6675 0.1547,-0.089 0.21462,-0.1227 0.21354,-0.1293 0,-0.016 -0.20952,-0.3729 -0.21658,-0.3729 z m -5.4271,0.4961 c -0.53584,0.033 -1.0618,0.2218 -1.4913,0.5412 -0.21462,0.1593 -0.42142,0.3685 -0.58025,0.5833 -0.61683,0.8295 -0.72213,1.9483 -0.27063,2.8804 0.0564,0.1171 0.13027,0.221 0.20148,0.3277 l 0.30961,-0.3097 c -0.12245,-0.1981 -0.21603,-0.4159 -0.27661,-0.6494 -0.0478,-0.1856 -0.0684,-0.3294 -0.0727,-0.5382 0,-0.2654 0.0217,-0.4597 0.0901,-0.7006 0.25077,-0.8739 0.99701,-1.5303 1.8942,-1.6717 0.21473,-0.034 0.46278,-0.039 0.67046,-0.018 v 0.01 c 0.33653,0.045 0.63919,0.1782 0.9171,0.3488 l 0.32763,-0.3278 c -0.50078,-0.3343 -1.1043,-0.509 -1.7168,-0.472 z m 2.4836,1.2387 -0.31873,0.3187 c 0.0966,0.1562 0.18488,0.3169 0.2435,0.4961 0.0771,0.2363 0.11138,0.4265 0.11735,0.6765 0,0.161 0,0.2606 -0.0206,0.3969 -0.14786,1.0112 -0.93513,1.8139 -1.9394,1.9814 -0.13917,0.023 -0.17727,0.028 -0.33675,0.033 -0.15187,0 -0.25489,0 -0.37876,-0.021 -0.33099,-0.047 -0.62616,-0.1802 -0.89908,-0.3488 l -0.32774,0.3277 c 0.20463,0.137 0.42045,0.2571 0.65852,0.3368 0.75991,0.2548 1.5916,0.173 2.285,-0.2255 0.75003,-0.4306 1.2588,-1.193 1.374,-2.0536 0.0239,-0.1796 0.0326,-0.4348 0.0185,-0.5983 -0.0445,-0.4899 -0.21505,-0.9324 -0.47505,-1.32 z m -8.503,1.332 v 0.4359 h 2.676 v -0.4359 h -1.338 z m 9.7086,0 v 0.4359 h 2.676 v -0.4359 h -1.338 z m -6.6718,1.786 c 0,6e-4 -0.52347,0.3028 -1.1606,0.6704 -0.63659,0.3677 -1.1588,0.6706 -1.1576,0.6735 0,0.016 0.21126,0.3682 0.21647,0.3699 0,0 2.2731,-1.3022 2.3121,-1.329 0.0109,0 0,-0.025 -0.0988,-0.1954 -0.0597,-0.1035 -0.10965,-0.1894 -0.11138,-0.1894 z m 6.305,0.012 c -0.0467,0.076 -0.2092,0.3622 -0.20746,0.3668 0,0 0.21614,0.1306 0.47505,0.2797 0.25892,0.1494 0.77566,0.4462 1.1486,0.6614 0.3729,0.2146 0.68089,0.3928 0.68555,0.3939 0.0109,0 0.0402,-0.05 0.11421,-0.1804 0.0575,-0.1002 0.10421,-0.1842 0.1053,-0.1894 0,-0.016 -0.22027,-0.1377 -2.1618,-1.2568 -0.15198,-0.089 -0.15133,-0.088 -0.15936,-0.075 z m -5.0934,1.359 c 0,-10e-4 -0.0109,0.01 -0.0152,0.018 -0.0282,0.044 -1.3212,2.2865 -1.3229,2.294 0,0 0.0478,0.037 0.17738,0.1113 0.0999,0.057 0.18781,0.1053 0.19248,0.1053 0.0109,0 0.19801,-0.3263 0.67046,-1.1455 0.36421,-0.6325 0.66275,-1.1553 0.66449,-1.1606 0,0 -0.0391,-0.034 -0.17739,-0.1142 -0.0999,-0.057 -0.18596,-0.1065 -0.18943,-0.1082 z m 3.8906,0 c 0,-6e-4 -0.0912,0.048 -0.19236,0.1053 -0.0999,0.057 -0.18282,0.1065 -0.18347,0.1082 0,0 0.30158,0.5253 0.66753,1.1606 0.48873,0.8478 0.66655,1.1527 0.6735,1.1516 0.0152,0 0.37279,-0.2096 0.37279,-0.2165 -5.4e-4,-0.016 -1.3304,-2.308 -1.338,-2.3091 z m -2.1648,0.5743 v 2.6759 h 0.43597 v -2.6759 h -0.2195 z" />
      </g>
    </g>
  </g>
  <g
     id="g359">
    <path
       style="opacity:0.2;fill:none;stroke-width:1.30330002"
       inkscape:connector-curvature="0"
       id="path333"
       d="m 561.52,986.03 c 1.4306,0 2.5886,1.2247 2.5886,2.7381 v 24.308 c 0,1.5118 -1.158,2.7365 -2.5886,2.7365 h -24.603 c -1.4306,0 -2.5894,-1.2247 -2.5894,-2.7365 v -24.308 c 0,-1.5134 1.1588,-2.7381 2.5894,-2.7381 z" />
    <g
       id="g357"
       transform="rotate(-90,372.39,1087.6)">
      <line
         style="opacity:0.6;stroke-width:0.88411999;stroke-linecap:round"
         id="line335"
         y2="1272.4"
         y1="1257.4"
         x2="451.92999"
         x1="466.17999" />
      <path
         style="stroke-width:0.00015755"
         inkscape:connector-curvature="0"
         id="path337"
         d="m 458.16,1252.8 v 0.015 c -0.22707,0 -0.33011,0.018 -0.37577,0.025 -0.0165,0 -0.0494,0.021 -0.0658,0.031 -0.0514,0.034 -0.0946,0.085 -0.12618,0.1509 -0.0288,0.061 -0.0401,0.1245 -0.0812,0.4158 -0.0103,0.043 -0.0144,0.094 -0.0154,0.1104 0,0.017 -0.0103,0.031 -0.0103,0.031 h 0.21945 c 0,0.017 -0.0123,0.228 -0.0154,0.2583 -0.0144,0.1432 -0.0309,0.2592 -0.0545,0.3906 -0.0288,0.1601 -0.0535,0.3389 -0.0627,0.4536 v 0.015 h 0.41177 c 0.44919,0 0.43171,0 0.47192,0.019 0.0494,0.017 0.0915,0.03 0.13533,0.061 0.0267,0.019 0.0401,0.034 0.0658,0.059 0.10284,0.1058 0.17338,0.2632 0.19837,0.4441 0.0103,0.052 0.0123,0.072 0.0123,0.1416 1.1e-4,0.069 0,0.079 -0.0103,0.126 -0.0195,0.1635 -0.0802,0.3141 -0.16536,0.419 l -0.0103,0.019 h 0.0154 c 0.0627,0.037 0.12495,0.1 0.17133,0.1702 0.0658,0.1 0.1126,0.2267 0.12926,0.359 0.0103,0.048 0.0103,0.067 0.0103,0.129 0,0.049 -1.1e-4,0.064 0,0.091 -0.0175,0.1687 -0.071,0.3124 -0.1593,0.4285 -0.0175,0.022 -0.0504,0.06 -0.0689,0.076 l -0.0103,0.018 h 0.0103 c 0.0165,0.017 0.0596,0.061 0.0751,0.082 0.0843,0.1104 0.13626,0.2537 0.15323,0.4126 0.0103,0.082 0.0103,0.1776 -0.0103,0.2584 -0.0226,0.1431 -0.072,0.2686 -0.15035,0.3716 -0.0185,0.024 -0.0617,0.072 -0.0843,0.089 -0.0545,0.045 -0.11394,0.076 -0.17441,0.091 -0.0401,0.017 -0.0689,0.018 -0.12618,0.018 h -0.0391 l 0.0103,0.019 c 0.0113,0.021 0.0329,0.07 0.0422,0.095 0.0751,0.1955 0.0905,0.4494 0.0391,0.6677 -0.0494,0.2093 -0.15035,0.3611 -0.27951,0.419 -0.0206,0.017 -0.0442,0.018 -0.0689,0.022 h -0.50246 c -0.38368,6e-4 -0.48693,10e-4 -0.48693,0 0,10e-4 0,0.051 -0.0103,0.1135 -0.0144,0.2395 -0.0267,0.506 -0.0391,0.7781 -0.0113,0.2662 -0.0154,0.3351 -0.0216,0.4064 -0.0226,0.2549 -0.0699,0.3881 -0.25545,0.7434 -0.0319,0.061 -0.071,0.1338 -0.15631,0.2929 -0.13503,0.2513 -0.1847,0.3491 -0.2645,0.5166 -0.11508,0.2409 -0.19581,0.4343 -0.26759,0.6458 -0.0391,0.1152 -0.0638,0.1996 -0.1053,0.3592 -0.0411,0.1582 -0.0463,0.1794 -0.0566,0.2361 -0.0442,0.2364 -0.0576,0.6273 -0.0627,2.0068 -3.1e-4,0.1028 2e-4,0.9781 0,1.4017 l 5.2451,-5.4969 c -0.0103,-0.018 -0.0144,-0.037 -0.0216,-0.049 -0.13565,-0.2719 -0.19457,-0.4276 -0.20743,-0.5512 -0.0103,-0.082 -0.0195,-0.2812 -0.0267,-0.4945 0,-0.1463 -0.0144,-0.2864 -0.0206,-0.4379 -0.0103,-0.1478 -0.0257,-0.4794 -0.0267,-0.4977 v -0.019 h 0.29165 c 0.20166,-3e-4 0.29504,-10e-4 0.30954,0 0.10561,-0.017 0.1956,-0.031 0.28856,-0.07 0.036,-0.017 0.0566,-0.024 0.0967,-0.043 0.10181,-0.052 0.19807,-0.126 0.28856,-0.2142 0.21092,-0.2058 0.3839,-0.4923 0.50792,-0.841 0.10787,-0.3033 0.17379,-0.6441 0.19241,-0.9987 0.0103,-0.1244 0.0103,-0.2896 0,-0.4126 -0.0278,-0.5252 -0.15776,-1.0155 -0.37269,-1.4017 -0.13893,-0.2497 -0.30758,-0.4482 -0.49598,-0.5797 -0.13955,-0.098 -0.28486,-0.1564 -0.43583,-0.1796 -0.0668,-0.017 -0.0432,-0.018 -0.46596,-0.018 h -0.38471 l 0.0329,0.034 c 0.0185,0.018 0.0545,0.057 0.0813,0.085 0.0267,0.028 0.0514,0.055 0.0566,0.064 0.0586,0.076 0.0905,0.1723 0.0905,0.2803 1.1e-4,0.1477 -0.0576,0.3134 -0.15939,0.4567 -0.0339,0.046 -0.0668,0.084 -0.10809,0.126 -0.0751,0.075 -0.14202,0.1244 -0.22542,0.1669 -0.0771,0.039 -0.14921,0.063 -0.2284,0.073 -0.0267,0 -0.0915,-8e-4 -0.11415,0 -0.0884,-0.018 -0.15991,-0.043 -0.21946,-0.098 -0.0103,0 -0.0792,-0.078 -0.15929,-0.1607 -0.0802,-0.082 -0.26758,-0.2746 -0.41783,-0.4283 -0.15025,-0.1526 -0.27869,-0.2886 -0.28558,-0.2962 -0.0545,-0.061 -0.0905,-0.1307 -0.10531,-0.2142 0,-0.034 -0.0103,-0.056 -0.0103,-0.095 2e-4,-0.053 0,-0.094 0.0185,-0.1478 0.0494,-0.2125 0.19981,-0.4225 0.39377,-0.5513 0.0267,-0.017 0.0617,-0.039 0.0874,-0.049 0.20773,-0.1028 0.40991,-0.097 0.54699,0.019 0.0103,0 0.12608,0.126 0.26152,0.2646 l 0.2465,0.252 v -0.015 c 0,-0.034 -0.0103,-0.1564 -0.0216,-0.2614 -0.0103,-0.076 -0.0175,-0.1338 -0.0329,-0.2268 -0.0185,-0.112 -0.0411,-0.2683 -0.0514,-0.3654 0,-0.018 0,-0.046 -0.0103,-0.076 -0.0103,-0.1135 -0.0165,-0.2083 -0.0175,-0.2141 0,-0.017 -6.2e-4,-0.025 0,-0.028 0.0103,-0.018 0.0123,-0.019 0.0987,-0.019 0.0494,-10e-4 0.0771,0 0.0812,0 0.0103,0 0.0154,-0.017 0.0185,-0.018 0.0103,-0.018 0.0103,-0.046 0,-0.1008 0,-0.04 -0.0288,-0.201 -0.036,-0.2457 -0.0216,-0.1321 -0.0391,-0.1852 -0.0843,-0.2457 -0.0113,-0.017 -0.0411,-0.056 -0.0545,-0.069 -0.038,-0.042 -0.0854,-0.059 -0.18932,-0.07 -0.0514,0 -0.12186,-0.015 -0.2465,-0.015 -0.0525,-10e-4 -1.6479,-10e-4 -1.7914,0 z m 1.5269,1.5846 c -0.0864,0.018 -0.18408,0.058 -0.27056,0.126 -0.0535,0.043 -0.10603,0.097 -0.14727,0.1541 -0.11919,0.1667 -0.15292,0.362 -0.0781,0.4597 0.0103,0.017 0.85602,0.8816 0.86867,0.8914 0.0144,0.017 0.0391,0.025 0.0545,0.028 0.0247,0 0.038,0.015 0.0689,0.015 0.0195,0 0.037,-9e-4 0.0483,0 0.0854,-0.018 0.17051,-0.051 0.25247,-0.1166 0.0298,-0.024 0.0452,-0.037 0.0782,-0.073 0.0936,-0.097 0.15847,-0.2148 0.18038,-0.3307 0.0165,-0.091 0,-0.1669 -0.0329,-0.2142 -0.0103,-0.017 -0.84841,-0.8732 -0.86569,-0.8884 -0.0154,-0.017 -0.0411,-0.025 -0.0627,-0.031 -0.0288,0 -0.0607,-0.017 -0.0936,0 z m -2.5039,0.5323 c -0.10078,0.017 -0.19457,0.1338 -0.23447,0.3025 -0.0236,0.1007 -0.0247,0.2104 -0.0103,0.3148 0.0309,0.1942 0.13153,0.344 0.24342,0.3593 0.0103,0 0.1884,3e-4 0.61621,0 h 0.61957 c 0.0195,0 0.0453,-0.015 0.0627,-0.028 0.0103,0 0.0226,-0.021 0.0329,-0.031 0.13729,-0.1431 0.17863,-0.4431 0.0956,-0.6772 -0.0103,-0.03 -0.036,-0.082 -0.0514,-0.1073 -0.0165,-0.027 -0.0288,-0.039 -0.0483,-0.059 -0.0308,-0.033 -0.0596,-0.053 -0.0956,-0.064 h -0.61957 c -0.33556,-2e-4 -0.61116,-9e-4 -0.6162,0 z m 0.0154,1.2129 c -0.0648,0.017 -0.13101,0.064 -0.18037,0.1415 -0.0473,0.076 -0.0761,0.1669 -0.0874,0.2741 v 0.1477 c 0.0154,0.1447 0.0658,0.2655 0.14418,0.3434 0.0216,0.022 0.0411,0.033 0.0658,0.043 0.0237,0.017 0.0339,0.022 0.0545,0.025 h 0.66732 c 0.71976,0 0.66289,-9e-4 0.69436,-0.019 0.0895,-0.031 0.16803,-0.1292 0.2104,-0.2614 0.0154,-0.046 0.0247,-0.092 0.0298,-0.1446 v -0.1385 c -0.0103,-0.091 -0.0288,-0.1674 -0.0627,-0.2363 -0.0483,-0.098 -0.11621,-0.1581 -0.19241,-0.1795 h -0.67379 c -0.55954,-3e-4 -0.65929,2e-4 -0.67029,0 z m 0,1.2285 c -0.0792,0.017 -0.15374,0.082 -0.20444,0.1859 -0.0339,0.069 -0.0535,0.14 -0.0627,0.2268 v 0.1477 c 0.0144,0.1245 0.0504,0.2312 0.11127,0.3088 0.0452,0.059 0.0997,0.095 0.15621,0.1073 h 0.66433 c 0.62156,0 0.65128,-10e-5 0.66434,0 0.0823,-0.017 0.1558,-0.082 0.20732,-0.1858 0.071,-0.1416 0.0854,-0.3303 0.0391,-0.4946 -0.0442,-0.16 -0.14017,-0.2739 -0.24651,-0.293 h -0.66721 c -0.55913,2e-4 -0.65086,5e-4 -0.66135,0 z m -0.0843,1.2222 c -0.0453,0.018 -0.0946,0.076 -0.12927,0.1606 -0.0206,0.049 -0.0391,0.1183 -0.0483,0.1828 -0.0103,0.049 -0.0103,0.072 -0.0103,0.1385 -10e-5,0.067 7.2e-4,0.088 0.0103,0.1384 0.0226,0.1721 0.0915,0.3136 0.17132,0.3497 h 1.0436 c 0.0391,-0.017 0.0771,-0.063 0.10819,-0.126 0.0843,-0.1703 0.0977,-0.4314 0.0329,-0.6331 -0.0185,-0.055 -0.0473,-0.1151 -0.0751,-0.1509 -0.0216,-0.028 -0.0504,-0.049 -0.072,-0.056 h -1.0162 z m 4.5989,4.3314 -5.7682,6.045 c -10e-5,1.7456 -9.2e-4,3.4386 0,4.0069 0,1.6439 0.0103,2.5905 0.0154,2.7185 0,0.03 0,0.039 0.0154,0.067 0.0206,0.046 0.0555,0.084 0.10181,0.1198 0.036,0.028 0.0648,0.048 0.1412,0.085 l 0.0483,0.022 h 2.4528 c 2.4174,-6e-4 2.5691,-8e-4 2.8194,0 0.16032,0 0.26007,-3e-4 0.29164,-0.018 0.0494,-0.018 0.11786,-0.048 0.16526,-0.088 0.0401,-0.033 0.0854,-0.089 0.0936,-0.1167 0.0185,-0.065 0.0226,-0.398 0.0267,-1.6822 0.0103,-1.8552 0.0123,-7.9249 0.0103,-8.565 -0.0103,-1.1006 -0.0206,-1.3998 -0.0658,-1.6225 -0.0103,-0.048 -0.0391,-0.1617 -0.0689,-0.2802 -0.0566,-0.2199 -0.18099,-0.4646 -0.27653,-0.6898 z m -4.3614,11.331 c 0.0216,-0.015 0.0658,-0.018 0.0905,0 0.0833,0.049 0.16094,0.2871 0.16227,0.4916 0,0.2064 -0.0771,0.3052 -0.0987,0.1229 0,-0.022 -0.0113,-0.053 -0.0185,-0.073 -0.0247,-0.067 -0.073,-0.1557 -0.10531,-0.1951 -0.0535,-0.064 -0.0638,-0.079 -0.072,-0.1137 -0.0257,-0.1 -0.0103,-0.197 0.0422,-0.2331 z m 3.0029,0.015 c 0.0452,-0.021 0.0987,0 0.12927,0.052 0.035,0.063 0.038,0.1493 0.0103,0.23 -0.0185,0.048 -0.038,0.067 -0.0781,0.089 -0.0566,0.028 -0.0813,0.048 -0.1232,0.091 -0.0535,0.055 -0.0792,0.095 -0.0956,0.1478 -0.0165,0.046 -0.037,0.063 -0.0576,0.063 -0.0165,0 -0.0237,-0.033 -0.0298,-0.091 -0.0123,-0.1306 0.0298,-0.2988 0.11116,-0.4347 0.0504,-0.084 0.0854,-0.1229 0.13534,-0.1447 z m -2.3085,0.1198 c 0.0185,9e-4 0.0463,0 0.0843,0 0.0494,0 0.0627,0.015 0.0956,0.028 0.0895,0.055 0.1416,0.14 0.25257,0.4252 0.11147,0.2864 0.14932,0.3645 0.22542,0.4506 0.10283,0.1089 0.20917,0.143 0.40271,0.1072 0.073,-0.018 0.11219,-0.015 0.16834,-0.015 0.10181,0 0.13503,0.022 0.22851,0.1043 0.1051,0.091 0.10962,0.091 0.20434,0.091 0.0689,0 0.0874,0 0.13831,-0.022 0.15591,-0.055 0.30656,-0.1805 0.43881,-0.3559 0.0195,-0.024 0.074,-0.098 0.12022,-0.1639 0.16814,-0.2385 0.29864,-0.3833 0.42688,-0.4693 0.15179,-0.1028 0.29155,-0.1008 0.4058,0 0.0884,0.079 0.12567,0.1857 0.11415,0.337 -0.0103,0.078 -0.0113,0.1089 -0.0267,0.151 -0.0247,0.067 -0.071,0.1057 -0.1593,0.129 -0.0309,0 -0.0679,0.025 -0.0843,0.025 -0.071,0.021 -0.10922,0.087 -0.0956,0.17 0.0113,0.063 0.0411,0.1043 0.0812,0.1043 0.0144,0 0.0411,-0.015 0.0638,-0.025 0.0812,-0.049 0.1487,-0.067 0.21935,-0.049 0.0812,0.017 0.12382,0.045 0.30666,0.1795 0.0987,0.075 0.14213,0.1008 0.22841,0.1384 0.035,0.015 0.0648,0.03 0.0658,0.031 h -5.7953 l 0.0123,-0.016 c 0.0432,-0.064 0.15724,-0.115 0.27056,-0.1321 0.0473,0 0.0658,-0.015 0.0812,-0.025 0.0391,-0.034 0.0586,-0.095 0.0422,-0.1353 -0.0113,-0.03 -0.037,-0.045 -0.0905,-0.064 -0.0267,0 -0.0596,-0.025 -0.0689,-0.025 -0.0422,-0.027 -0.0658,-0.081 -0.0658,-0.154 0,-0.1214 0.0442,-0.2022 0.12619,-0.2331 0.12196,-0.046 0.26995,0.061 0.46894,0.3465 0.0638,0.091 0.12063,0.1369 0.2104,0.1702 0.0422,0.019 0.0627,0.018 0.18933,0.019 0.15816,0 0.18068,0 0.27951,0.058 0.13739,0.072 0.18737,0.091 0.29165,0.072 0.0874,-0.015 0.22881,-0.052 0.29453,-0.091 0.0864,-0.049 0.13574,-0.1494 0.13533,-0.271 -10e-4,-0.1261 -0.0514,-0.2242 -0.13832,-0.2742 -0.0298,-0.015 -0.0453,-0.025 -0.10808,-0.025 -0.0956,-0.015 -0.13132,-0.028 -0.16834,-0.098 -0.0339,-0.061 -0.0442,-0.1337 -0.036,-0.2142 0.0144,-0.14 0.0771,-0.2429 0.16526,-0.2772 z m 1.7764,0.022 c 0.0206,-0.018 0.0329,-0.018 0.0545,0 0.0216,0.018 0.0298,0.034 0.0298,0.076 0,0.048 -0.0154,0.079 -0.0545,0.1074 -0.0411,0.031 -0.0781,0.079 -0.0936,0.1229 -0.0103,0.017 -0.0113,0.033 -0.0206,0.034 -0.0175,0 -0.0236,-0.022 -0.0236,-0.085 0,-0.039 0,-0.059 0.0123,-0.092 0.0257,-0.085 0.0607,-0.1477 0.0956,-0.1701 z m -1.1001,0.018 h 0.036 c 0.0237,0 0.0298,0 0.0453,0.025 0.0247,0.034 0.0432,0.087 0.0452,0.1323 0,0.021 0,0.069 -0.0103,0.1104 -0.0103,0.079 -0.0144,0.198 -0.0103,0.2772 0,0.027 0.0113,0.073 0.0216,0.1042 0.0123,0.04 0.0165,0.058 0.0154,0.076 -0.0103,0.049 -0.036,0.055 -0.0812,0.019 -0.073,-0.059 -0.1339,-0.2381 -0.15035,-0.4346 v -0.1229 c 0.0113,-0.091 0.0309,-0.1369 0.0782,-0.1828 z m -2.4137,0.053 c 0.0288,-0.027 0.0771,-0.021 0.12022,0.015 0.0452,0.036 0.0751,0.082 0.0905,0.1291 0.0195,0.055 0.0237,0.082 0.0123,0.1008 h -0.0237 c -0.0103,0 -0.0154,-0.019 -0.0185,-0.019 -0.0175,-0.022 -0.0463,-0.036 -0.11117,-0.037 -0.0535,0 -0.0648,0 -0.0751,-0.018 -0.0401,-0.045 -0.0319,-0.126 0.0103,-0.1701 z m 5.4014,0 c 0.0339,-0.017 0.0792,-0.017 0.0987,0 0.0339,0.03 0.0473,0.097 0.0267,0.1384 -0.0165,0.039 -0.0247,0.04 -0.0905,0.04 -0.0607,0 -0.0627,-6e-4 -0.0936,0.025 -0.0339,0.037 -0.0422,0.036 -0.0453,0 0,-0.065 0.0391,-0.1478 0.10181,-0.189 z m -4.8393,0.015 c 0.0525,-0.031 0.1123,10e-5 0.16526,0.091 0.074,0.1276 0.11374,0.2951 0.10181,0.4189 -0.0103,0.064 -0.0144,0.09 -0.0298,0.1074 -0.0185,0.017 -0.0339,5e-4 -0.0514,-0.059 -0.0247,-0.087 -0.0936,-0.1897 -0.1593,-0.2363 -0.0453,-0.031 -0.0699,-0.067 -0.0812,-0.1197 -0.0113,-0.049 -0.0103,-0.094 0,-0.1291 0.0123,-0.039 0.0237,-0.056 0.0514,-0.073 z m 2.4287,0.1323 h 0.0545 c 0.0535,0 0.0905,0.042 0.12022,0.1104 0.0391,0.091 0.0195,0.2029 -0.0483,0.2614 l -0.0298,0.028 -0.0627,-0.018 c -0.1052,-0.021 -0.19302,0 -0.2465,0.073 -0.0247,0.037 -0.0422,0.036 -0.0566,0.019 -0.0247,-0.027 -0.0226,-0.084 0,-0.1733 0.038,-0.1322 0.15323,-0.263 0.26758,-0.2992 z m 2.2784,0.3622 c 0.0483,-0.022 0.0956,0.028 0.0956,0.1042 0,0.07 -0.0247,0.1073 -0.0956,0.1415 -0.0566,0.028 -0.10078,0.019 -0.10531,-0.018 -0.0103,-0.054 0.0638,-0.2079 0.10531,-0.2267 z m -1.8246,0.046 c 0.0442,-0.028 0.10377,0 0.12927,0.067 0.0216,0.052 0.0185,0.1307 -0.0103,0.189 -0.0309,0.075 -0.18141,0.1556 -0.23756,0.1292 -0.0278,-0.015 -0.0391,-0.031 -0.036,-0.073 0.0103,-0.1028 0.0905,-0.2725 0.15045,-0.3088 z m -2.4226,0.015 c 0.0689,-8e-4 0.15004,0.2081 0.1233,0.3182 -0.0113,0.045 -0.0288,0.039 -0.0453,-0.018 -0.0103,-0.033 -0.0463,-0.084 -0.0843,-0.1135 -0.035,-0.028 -0.0483,-0.046 -0.0514,-0.095 0,-0.037 0.0103,-0.065 0.0267,-0.082 0.0103,-0.017 0.0236,-0.015 0.0298,-0.015 z m 0.50792,0.043 c 0.0545,-0.033 0.1053,0 0.16238,0.098 0.0494,0.087 0.0689,0.1417 0.0689,0.1985 0,0.036 0,0.042 -0.0154,0.06 -0.0288,0.036 -0.13955,0.015 -0.2104,-0.04 -0.0432,-0.033 -0.072,-0.1 -0.072,-0.1638 0,-0.064 0.0278,-0.1276 0.0658,-0.1508 z m 3.9708,0.1953 c 0.0494,0 0.0771,0.015 0.0905,0.061 0.0103,0.024 0,0.028 0,0.046 0,0.015 -0.0113,0.037 -0.0216,0.037 -0.0165,0.018 -0.0185,0.018 -0.0422,0 -0.0319,-0.017 -0.074,-0.036 -0.0936,-0.018 -0.0123,0.017 -0.0195,0.017 -0.0236,0 -0.0103,-0.015 0,-0.015 0,-0.04 0.0103,-0.034 0.0555,-0.079 0.0843,-0.079 z m -5.5818,0.064 c 0.0144,-0.018 0.037,-0.018 0.0566,0 0.0267,0.024 0.0607,0.1043 0.0545,0.1323 -0.0103,0.036 -0.0874,0.015 -0.11116,-0.031 -0.0154,-0.028 -0.0165,-0.067 0,-0.091 z" />
      <g
         style="stroke-width:0.011302"
         id="g355"
         transform="matrix(1.0284,0,0,1.0284,-170.75,61.772)">
        <g
           id="g345"
           transform="matrix(0.72385,0,0,0.85957,173.25,213.46)">
          <path
             inkscape:connector-curvature="0"
             id="path339"
             d="m 601.19,1122.9 c 0,-0.051 -0.0224,-0.1024 -0.0608,-0.1409 -0.0769,-0.07 -0.19854,-0.067 -0.27219,0.013 -0.4259,0.4644 -0.66287,1.0664 -0.66287,1.7004 0,0.6245 0.23057,1.2233 0.65007,1.6844 0.0704,0.08 0.19213,0.083 0.27219,0.013 0.0801,-0.07 0.0833,-0.1921 0.0128,-0.2721 -0.35545,-0.3907 -0.55078,-0.8999 -0.55078,-1.4283 0,-0.5347 0.19854,-1.0471 0.56039,-1.4378 0.0352,-0.038 0.0512,-0.083 0.0512,-0.1313 z" />
          <path
             inkscape:connector-curvature="0"
             id="path341"
             d="m 602.05,1123.6 c 0,-0.051 -0.0224,-0.1024 -0.0608,-0.1409 -0.0769,-0.07 -0.19855,-0.067 -0.27219,0.013 -0.24658,0.269 -0.38427,0.6181 -0.38427,0.9799 0,0.3619 0.13449,0.7078 0.37466,0.9735 0.0704,0.08 0.19214,0.083 0.27219,0.013 0.0801,-0.07 0.0833,-0.1921 0.0128,-0.2722 -0.17933,-0.1953 -0.2754,-0.4515 -0.2754,-0.7141 0,-0.2689 0.0993,-0.5251 0.28179,-0.7205 0.0352,-0.038 0.0512,-0.086 0.0512,-0.1313 z" />
          <path
             inkscape:connector-curvature="0"
             id="path343"
             d="m 600.4,1122 c 0,-0.051 -0.0224,-0.1025 -0.0608,-0.1409 -0.0768,-0.07 -0.19854,-0.067 -0.27219,0.013 -0.65646,0.7109 -1.0151,1.6364 -1.0151,2.6035 0,0.9574 0.35545,1.8765 0.99591,2.5842 0.0704,0.08 0.19214,0.083 0.27219,0.013 0.08,-0.071 0.0833,-0.1921 0.0128,-0.2722 -0.5796,-0.6372 -0.89663,-1.4634 -0.89663,-2.3248 0,-0.8711 0.32343,-1.7037 0.91265,-2.3441 0.032,-0.038 0.0512,-0.087 0.0512,-0.1313 z" />
        </g>
        <g
           id="g353"
           transform="matrix(-0.72385,0,0,0.85957,1051.6,213.46)">
          <path
             inkscape:connector-curvature="0"
             id="path347"
             d="m 601.19,1122.9 c 0,-0.051 -0.0224,-0.1024 -0.0608,-0.1409 -0.0769,-0.07 -0.19854,-0.067 -0.27219,0.013 -0.4259,0.4644 -0.66287,1.0664 -0.66287,1.7004 0,0.6245 0.23057,1.2233 0.65007,1.6844 0.0704,0.08 0.19213,0.083 0.27219,0.013 0.0801,-0.07 0.0833,-0.1921 0.0128,-0.2721 -0.35545,-0.3907 -0.55078,-0.8999 -0.55078,-1.4283 0,-0.5347 0.19854,-1.0471 0.56039,-1.4378 0.0352,-0.038 0.0512,-0.083 0.0512,-0.1313 z" />
          <path
             inkscape:connector-curvature="0"
             id="path349"
             d="m 602.05,1123.6 c 0,-0.051 -0.0224,-0.1024 -0.0608,-0.1409 -0.0769,-0.07 -0.19855,-0.067 -0.27219,0.013 -0.24658,0.269 -0.38427,0.6181 -0.38427,0.9799 0,0.3619 0.13449,0.7078 0.37466,0.9735 0.0704,0.08 0.19214,0.083 0.27219,0.013 0.0801,-0.07 0.0833,-0.1921 0.0128,-0.2722 -0.17933,-0.1953 -0.2754,-0.4515 -0.2754,-0.7141 0,-0.2689 0.0993,-0.5251 0.28179,-0.7205 0.0352,-0.038 0.0512,-0.086 0.0512,-0.1313 z" />
          <path
             inkscape:connector-curvature="0"
             id="path351"
             d="m 600.4,1122 c 0,-0.051 -0.0224,-0.1025 -0.0608,-0.1409 -0.0768,-0.07 -0.19854,-0.067 -0.27219,0.013 -0.65646,0.7109 -1.0151,1.6364 -1.0151,2.6035 0,0.9574 0.35545,1.8765 0.99591,2.5842 0.0704,0.08 0.19214,0.083 0.27219,0.013 0.08,-0.071 0.0833,-0.1921 0.0128,-0.2722 -0.5796,-0.6372 -0.89663,-1.4634 -0.89663,-2.3248 0,-0.8711 0.32343,-1.7037 0.91265,-2.3441 0.032,-0.038 0.0512,-0.087 0.0512,-0.1313 z" />
        </g>
      </g>
    </g>
  </g>
  <g
     id="g393">
    <g
       style="opacity:0.2;fill:none;stroke-width:1.68359995"
       id="g363"
       transform="matrix(0,-0.77412,0.7741,0,562.56,1020.3)">
      <path
         style="fill:none;stroke:#000000;stroke-width:1.68359995"
         inkscape:connector-curvature="0"
         id="path361"
         d="m 44.236,40.892 c 0,1.848 -1.582,3.344 -3.537,3.344 h -31.4 c -1.953,0 -3.535,-1.496 -3.535,-3.344 V 9.109 c 0,-1.848 1.582,-3.345 3.535,-3.345 h 31.4 c 1.955,0 3.537,1.497 3.537,3.345 z" />
    </g>
    <g
       id="g391"
       transform="rotate(-90,372.39,1087.6)">
      <g
         id="g371">
        <g
           style="stroke:#000000"
           id="g369"
           transform="matrix(0,1.0118,-1.0118,0,1675.4,935.4)">
          <path
             style="stroke-width:0.00053606"
             inkscape:connector-curvature="0"
             id="path365"
             d="m 345.71,1198 c -10e-4,0.8732 0,0.9149 0.0151,0.9583 0.0197,0.091 0.0514,0.1683 0.1089,0.2631 0.0681,0.1136 0.13311,0.1777 0.26592,0.2576 0.20904,0.126 2.0741,1.2067 2.0939,1.2131 0.0287,0.011 0.0696,9e-4 0.0938,-0.02 0.0151,-0.01 0.059,-0.089 0.12403,-0.2022 0.0605,-0.1034 0.26743,-0.458 0.45983,-0.7893 0.19256,-0.3308 0.35198,-0.6097 0.35456,-0.6204 0,-0.03 10e-4,-0.067 -0.0227,-0.089 -0.0151,-0.014 -0.27968,-0.171 -0.83934,-0.4958 -0.45136,-0.2616 -0.82043,-0.477 -0.82255,-0.4792 0,0 0.18575,-0.1146 0.42095,-0.2492 0.23491,-0.1347 0.42882,-0.2443 0.42928,-0.2438 6e-4,0 0.0892,0.1599 0.19951,0.3518 0.10891,0.1914 0.20556,0.3514 0.21055,0.3573 0.0408,0.044 0.12555,0.039 0.15777,-0.011 0.0151,-0.011 0.10437,-0.3685 0.18559,-0.6675 l -0.16623,-0.1634 c -0.0302,0.1125 -0.0953,0.3544 -0.10286,0.3794 l -0.0333,0.1274 -0.16336,-0.2853 c -0.0892,-0.1565 -0.16926,-0.2905 -0.17727,-0.2991 -0.0181,-0.021 -0.0423,-0.031 -0.0771,-0.031 -0.0287,0 -0.0393,0.01 -0.51519,0.2797 -0.26864,0.1539 -0.79291,0.4525 -1.1661,0.6648 -0.37301,0.2122 -0.69413,0.3982 -0.71455,0.4126 -0.0212,0.015 -0.0545,0.04 -0.0741,0.058 l -0.0363,0.033 v -1.6119 l 0.0166,-0.053 c 0.0333,-0.1233 0.12403,-0.2614 0.21327,-0.3268 0.0151,-0.011 0.33807,-0.1979 0.72302,-0.4183 0.35214,-0.2015 0.60232,-0.3457 0.65919,-0.3794 l -0.15232,-0.1551 -0.0151,0.01 c -0.0151,0 -0.3054,0.174 -0.65919,0.3766 -0.3538,0.2026 -0.65919,0.3811 -0.68127,0.3961 -0.1437,0.099 -0.27318,0.3043 -0.31024,0.493 -0.0151,0.041 -0.0151,0.1323 -0.0151,0.9583 z m 0.29632,0.9638 c 0.0197,-0.059 0.0787,-0.1257 0.15519,-0.1772 0.0469,-0.031 1.1629,-0.6675 1.1715,-0.6675 0,0 1.6466,0.9513 1.6536,0.9583 0,0 -0.78201,1.3598 -0.79487,1.3737 0,0 -1.782,-1.0256 -1.9915,-1.1522 -0.0333,-0.02 -0.0741,-0.049 -0.0923,-0.067 -0.0983,-0.092 -0.13311,-0.1765 -0.10286,-0.2687 z m 2.299,-3.7168 0.29072,0.2908 c 0.39312,0.1066 0.82436,0.2233 0.82542,0.2243 0,0 -0.0802,0.3001 -0.12706,0.4736 l 0.16624,0.1662 c 0.0348,-0.1272 0.0998,-0.3669 0.11344,-0.4182 0.065,-0.238 0.0741,-0.2784 0.0726,-0.3047 0,-0.037 -0.0197,-0.065 -0.0529,-0.08 -0.0151,0 -0.65375,-0.1791 -1.288,-0.3517 z m 0.66463,4.8053 c 0,0.014 0.0166,0.054 0.0197,0.091 0.0151,0.037 0.15867,0.5913 0.32959,1.2297 0.17108,0.6385 0.3125,1.1675 0.31568,1.1771 0,0.01 0.0166,0.025 0.0272,0.036 0.0469,0.042 0.11193,0.036 0.14974,-0.014 0.0151,-0.01 0.10135,-0.1708 0.21056,-0.3573 0.1089,-0.186 0.19936,-0.3379 0.20208,-0.3379 0,0 0.29616,0.167 0.65374,0.3739 0.35758,0.2069 0.66751,0.3836 0.68687,0.3933 0.0892,0.045 0.20269,0.069 0.32959,0.069 0.12404,0 0.22084,-0.02 0.31583,-0.064 0.0454,-0.021 0.93645,-0.5355 1.3017,-0.7505 l -0.14672,-0.1469 c -0.38027,0.2204 -1.2256,0.7054 -1.2464,0.7146 -0.12554,0.059 -0.33005,0.058 -0.45695,0 -0.0212,-0.01 -0.34669,-0.199 -0.72574,-0.4183 -0.37906,-0.2192 -0.69716,-0.4017 -0.70896,-0.4071 -0.0423,-0.019 -0.0983,-0.01 -0.12403,0.028 0,0.011 -0.0847,0.1453 -0.17455,0.2991 -0.0892,0.1544 -0.16503,0.2785 -0.16624,0.2742 -10e-4,0 -0.12705,-0.4813 -0.2824,-1.0608 -0.15549,-0.5794 -0.28255,-1.0546 -0.28255,-1.0552 6e-4,0 0.45877,-0.1231 1.0221,-0.2742 0.51882,-0.1388 0.89515,-0.241 0.97759,-0.2631 l -0.16336,-0.1634 c -0.20723,0.054 -0.27681,0.071 -0.76719,0.2022 -1.0142,0.2718 -1.243,0.3349 -1.2576,0.3462 -0.0227,0.017 -0.0408,0.049 -0.0393,0.08 z m 0.36847,-5.3177 h 0.0151 c 0,0.01 0.14823,0.2578 0.60095,1.0275 0.15761,0.268 0.29738,0.5059 0.31023,0.5262 0.0333,0.054 0.0726,0.074 0.1195,0.061 0.0151,0 0.39297,-0.2221 0.84478,-0.4875 l 0.81983,-0.4819 v 0.986 h -0.12706 c -0.0711,6e-4 -0.25654,0 -0.41264,0.01 -0.2647,0 -0.28603,0 -0.30478,0.014 -0.0424,0.021 -0.0635,0.079 -0.0439,0.1273 0,0.019 0.16548,0.1768 0.9251,0.9251 0.50445,0.4969 0.92601,0.9081 0.93615,0.914 0.0227,0.012 0.065,0.012 0.0892,0 0.0227,-0.01 1.8262,-1.8399 1.8363,-1.864 0.0151,-0.022 0.0151,-0.066 0,-0.089 -0.0151,-0.023 -0.0363,-0.044 -0.0635,-0.053 -0.0151,0 -0.1316,-0.01 -0.42368,-0.01 h -0.40719 v -0.3545 c -0.0151,-1.2361 -0.0151,-1.2233 -0.0227,-1.2796 -0.0408,-0.1887 -0.16351,-0.3729 -0.31295,-0.4764 -0.0439,-0.03 -1.4997,-0.8571 -1.5512,-0.8807 -0.0499,-0.023 -0.121,-0.043 -0.18544,-0.053 -0.0696,-0.011 -0.22568,-0.011 -0.28255,0 -0.065,0.012 -0.14824,0.041 -0.20768,0.075 -0.0302,0.017 -0.51852,0.3036 -1.0859,0.637 -0.79759,0.4685 -1.0328,0.6087 -1.0442,0.6232 -0.0151,0.015 -0.0151,0.026 -0.0151,0.055 -6.1e-4,0.019 0,0.037 0,0.042 z m 0.24368,0 c 0,0 0.43336,-0.2556 0.95551,-0.5623 h 0.0151 c 0.52154,-0.3066 0.97699,-0.5739 1.0109,-0.5927 0.0847,-0.047 0.10739,-0.055 0.17727,-0.069 0.0529,-0.011 0.0635,-0.011 0.0968,-0.01 0.11496,0.02 0.18514,0.1156 0.20223,0.277 v 1.3599 l -0.81982,0.4819 c -0.45136,0.2648 -0.82482,0.4836 -0.82815,0.4847 0,0 -0.12403,-0.2016 -0.71742,-1.2131 -0.0696,-0.1185 -0.0908,-0.1564 -0.0862,-0.1607 z m 1.4043,5.3952 c -0.0181,0.035 9.1e-4,0.096 0.0227,0.1218 0,0 0.25986,0.151 0.56511,0.3268 0.30493,0.1764 0.8236,0.4795 1.1549,0.673 0.15792,0.092 0.19104,0.1091 0.30479,0.1745 l -0.56783,-0.5677 -0.18559,-0.108 v -0.078 l -0.20768,-0.2078 c 0,0.024 -3.1e-4,0.1634 0,0.1634 0,0 -0.8466,-0.4864 -0.85038,-0.4902 0,0 0.0817,-0.1551 0.18831,-0.3379 l -0.14974,-0.1467 c -0.0877,0.1526 -0.26879,0.4665 -0.27408,0.4764 z m 0.50687,-3.5479 h 0.18272 c 0.0998,0 0.25049,0 0.33519,-0.01 h 0.0151 c 0.11647,-5e-4 0.15882,0 0.17168,-0.01 0.0227,-0.01 0.0514,-0.042 0.0575,-0.067 0,-0.012 -6.1e-4,-0.2151 0,-0.5705 0,-0.3045 -0.001,-0.9033 -0.0166,-1.3295 -0.002,-0.4459 0.001,-0.7988 -0.0151,-0.8336 0,-0.033 -0.0151,-0.08 -0.0151,-0.1026 0,-0.023 -0.0166,-0.041 -0.0166,-0.042 0,0 1.3604,0.769 1.3905,0.7894 0.0348,0.024 0.0983,0.091 0.12705,0.1329 0.0726,0.1089 0.10286,0.1956 0.1074,0.313 0,0.037 -10e-4,0.4158 0.0151,0.842 0,0.8534 -6e-4,0.7992 0.0393,0.8309 0.0333,0.029 0.0348,0.028 0.39328,0.025 h 0.32959 l -0.0242,0.028 c -0.13311,0.1382 -1.5117,1.5343 -1.515,1.5343 0,0 -0.35546,-0.3458 -0.78382,-0.7671 z m 0.58991,2.4456 0.19664,0.1967 v -0.3906 h 1.5982 v 1.9886 l 0.1744,0.1745 c 0.0151,-0.088 0.0272,-0.01 0.0272,-1.0331 v -1.2601 l -0.0166,-0.025 c -0.0151,-0.014 -0.0212,-0.028 -0.0333,-0.036 l -0.0227,-0.014 h -1.8696 l -0.0227,0.017 c -0.0151,0.01 -0.0212,0.025 -0.0272,0.036 v 0.3434 z" />
          <line
             style="opacity:0.6;stroke-width:0.79589999;stroke-linecap:round"
             id="line367"
             y2="1202.5"
             y1="1193.5"
             x2="354.85001"
             x1="345.82999" />
        </g>
      </g>
      <g
         id="g389"
         transform="rotate(90,443.64,1158.8)">
        <path
           style="stroke-width:0.0015289"
           inkscape:connector-curvature="0"
           id="path373"
           d="m 569.54,1152.7 c 0.02,0.043 0.055,0.078 0.099,0.1035 0.063,0.038 0.095,0.044 0.4159,0.088 l 0.052,0.01 v -0.17 l 0.1639,0.01 c 0.095,0.01 0.2377,0.023 0.3268,0.04 0.2334,0.043 0.4683,0.067 0.5311,0.055 0.027,0 0.071,-0.026 0.09,-0.043 0.033,-0.035 0.033,-0.035 0.1705,-0.015 0.3451,0.052 1.4459,0.1919 1.7654,0.2254 0.6311,0.069 1.5644,0.1325 2.5665,0.1766 0.4744,0.021 0.4774,0.021 1.1098,0.3579 0.4467,0.2375 0.7768,0.3731 1.1178,0.4584 0.4097,0.1034 0.1179,0.097 4.9766,0.097 2.9057,0 4.4164,-0.01 4.4533,-0.015 0.071,-0.019 0.1332,-0.079 0.1736,-0.1675 l 0.032,-0.069 v -2.1164 c 0,-1.6735 0,-2.1304 -0.02,-2.1805 -0.021,-0.076 -0.08,-0.1478 -0.1484,-0.1843 -0.044,-0.024 -0.3253,-0.026 -4.4376,-0.03 -4.8281,0 -4.5962,-0.01 -4.9909,0.088 -0.3761,0.091 -0.6509,0.2041 -1.2311,0.5087 -0.393,0.2055 -0.5558,0.277 -0.6832,0.2984 -0.043,0.01 -0.2118,0.017 -0.3712,0.023 -0.6804,0.021 -1.9114,0.105 -2.5021,0.1675 -0.3871,0.043 -1.268,0.1538 -1.6842,0.2132 l -0.2639,0.039 -0.04,-0.039 c -0.036,-0.035 -0.054,-0.038 -0.1719,-0.038 -0.072,0 -0.2349,0.017 -0.3607,0.038 -0.1239,0.021 -0.2854,0.043 -0.3579,0.048 -0.071,0 -0.15,0.012 -0.1735,0.014 -0.041,0.01 -0.041,0.01 -0.041,-0.076 0,-0.097 0.017,-0.094 -0.2225,-0.063 -0.1768,0.024 -0.2135,0.036 -0.2825,0.094 -0.095,0.079 -0.095,0.052 -0.095,1.0674 0,0.9121 0,0.9273 0.033,0.9913 z" />
        <g
           id="g379"
           transform="matrix(0,-5.423e-4,-5.4229e-4,0,594.8,1145.8)">
          <path
             inkscape:connector-curvature="0"
             id="path375"
             d="m 9990,17103 c -1,-2874 -14,-5288 -30,-5603 -29,-588 -79,-977 -171,-1352 C 9652,9592 9441,9186 9110,8846 8839,8568 8518,8365 8106,8213 7885,8132 7444,8017 6775,7866 6499,7804 6381,7779 5495,7590 3955,7262 3200,7031 2525,6681 2094,6458 1783,6233 1464,5915 1201,5653 997,5386 815,5065 300,4159 28,2890 3,1282 L -3,890 h 17553 v 118 c 0,249 -37,962 -70,1362 -179,2136 -631,3350 -1507,4047 -322,256 -587,399 -1378,743 -601,261 -918,415 -1086,528 -321,216 -555,552 -713,1022 -165,493 -249,1051 -297,1985 -15,305 -27,2922 -28,6173 l -1,2832 H 9990 Z" />
          <path
             inkscape:connector-curvature="0"
             id="path377"
             d="m 13273,15108 c 7,-3677 9,-3975 42,-4433 89,-1228 347,-1978 859,-2491 218,-218 475,-385 776,-505 47,-19 87,-37 90,-40 19,-25 763,-246 1525,-455 1107,-303 1503,-428 1937,-610 991,-416 1631,-986 2083,-1857 434,-835 698,-2042 765,-3502 6,-132 14,-259 16,-282 l 5,-43 h 2742 l -6,392 c -26,1666 -317,2965 -869,3878 -185,306 -341,505 -597,761 -436,434 -935,745 -1646,1024 -585,230 -1233,401 -2645,700 -1539,326 -2090,462 -2450,607 -665,269 -1120,703 -1394,1330 -206,472 -308,1008 -357,1863 -15,272 -28,2518 -28,5128 l -1,2247 h -853 z" />
        </g>
        <g
           id="g387"
           transform="matrix(0,-0.0087832,-0.0087832,0,594.31,1152.1)">
          <g
             style="stroke:#000000"
             id="g385">
            <g
               style="stroke:#000000"
               id="g383">
              <path
                 style="stroke:#000000"
                 inkscape:connector-curvature="0"
                 id="path381"
                 d="M 616.96,254.89 390.58,6.68 c -8.975,-8.907 -23.524,-8.907 -32.499,0 -5.167,5.122 -7.003,12.057 -6.232,18.743 v 133.67 c -187.95,0 -340.34,152.37 -340.34,340.34 0,48.205 10.153,94.008 28.238,135.57 26.856,-141.78 162.13,-249.46 311.71,-249.46 0,7.75 0.386,133.4 0.386,133.4 -0.793,6.686 1.065,13.598 6.232,18.742 0.068,0.068 0.136,0.068 0.204,0.137 4.125,4.283 9.858,6.979 16.272,6.979 7.048,0 13.122,-3.422 17.269,-8.475 l 225.14,-246.85 c 4.782,-4.759 6.821,-11.06 6.505,-17.292 0.316,-6.232 -1.723,-12.533 -6.505,-17.292 z M 397.24,462.46 V 340.58 c 0,0 -53.599,-0.385 -68.443,-0.385 -94.528,0 -223.01,73.725 -271.91,136.5 0.725,-85.238 111.87,-267.5 271.91,-272.46 11.785,-0.363 68.443,0.227 68.443,0.227 V 81.872 l 173.56,190.3 z" />
            </g>
          </g>
        </g>
      </g>
    </g>
  </g>
  <g
     id="g419">
    <g
       style="opacity:0.2;fill:none;stroke-width:1.68359995"
       id="g397"
       transform="matrix(0,-0.77413,0.7741,0,497.17,1053)">
      <path
         style="fill:none;stroke:#000000;stroke-width:1.68359995"
         inkscape:connector-curvature="0"
         id="path395"
         d="m 44.236,40.892 c 0,1.848 -1.582,3.344 -3.537,3.344 h -31.4 c -1.953,0 -3.535,-1.496 -3.535,-3.344 V 9.109 c 0,-1.848 1.582,-3.345 3.535,-3.345 h 31.4 c 1.955,0 3.537,1.497 3.537,3.345 z" />
    </g>
    <g
       id="g417"
       transform="rotate(-90,372.39,1087.6)">
      <g
         id="g403">
        <path
           style="stroke-width:0.0013412"
           inkscape:connector-curvature="0"
           id="path399"
           d="m 422.53,1238.3 c -2.5388,0 -3.8589,-10e-4 -3.8911,0.014 -0.0622,0.017 -0.11515,0.071 -0.15101,0.1485 l -0.0297,0.061 v 1.8646 c 0,1.4741 0,1.8761 0.0182,1.9204 0.0201,0.067 0.0708,0.1302 0.12978,0.1616 0.0392,0.022 0.28213,0.025 3.8752,0.029 h 1.2502 l 3.8276,-3.8276 c -0.2368,-0.1114 -0.47273,-0.2309 -0.68074,-0.2834 -0.35807,-0.091 -0.10387,-0.085 -4.3494,-0.085 z m 5.7717,0.7072 -3.4885,3.4885 c 1.2864,0 1.7975,-0.014 2.0316,-0.077 0.32851,-0.081 0.56856,-0.1792 1.0754,-0.4476 0.34343,-0.181 0.48468,-0.2434 0.59601,-0.2623 0.0373,0 0.1863,-0.016 0.32574,-0.022 0.59409,-0.019 1.669,-0.092 2.1853,-0.1482 0.33808,-0.038 1.1065,-0.136 1.47,-0.1881 l 0.23049,-0.032 0.0373,0.032 c 0.0316,0.03 0.044,0.035 0.14834,0.035 0.0641,0 0.20523,-0.016 0.31522,-0.035 0.10845,-0.019 0.24951,-0.035 0.31254,-0.041 0.0622,0 0.12959,-0.016 0.15101,-0.016 0.0363,0 0.0373,-3e-4 0.0373,0.067 0,0.085 -0.0153,0.082 0.19338,0.055 0.15435,-0.022 0.18859,-0.033 0.24894,-0.085 0.0842,-0.069 0.0822,-0.045 0.0822,-0.9403 0,-0.7912 0,-0.8038 -0.0297,-0.8582 -0.0191,-0.038 -0.0497,-0.067 -0.087,-0.09 -0.0564,-0.033 -0.0823,-0.041 -0.36285,-0.08 l -0.0449,-0.014 v 0.151 l -0.14307,-0.016 c -0.0813,0 -0.2082,-0.02 -0.28605,-0.035 -0.2038,-0.038 -0.40856,-0.059 -0.46346,-0.048 -0.0258,0 -0.0641,0.023 -0.0794,0.039 -0.0287,0.03 -0.0287,0.029 -0.14833,0.014 -0.30173,-0.046 -1.2625,-0.1691 -1.5416,-0.1986 -0.55135,-0.061 -1.3676,-0.1157 -2.2436,-0.1536 -0.24177,-0.014 -0.36945,-0.038 -0.5218,-0.098 z" />
        <line
           style="opacity:0.6;stroke-width:0.56896001;stroke-linecap:round"
           id="line401"
           y2="1243.9"
           y1="1236.9"
           x2="422.84"
           x1="429.87" />
      </g>
      <g
         id="g415"
         transform="rotate(90,443.64,1158.8)">
        <path
           style="stroke-width:0.001341"
           inkscape:connector-curvature="0"
           id="path405"
           d="m 504.2,1177 c 0.019,0.037 0.049,0.068 0.087,0.091 0.056,0.034 0.082,0.039 0.3634,0.078 l 0.045,0.01 v -0.15 l 0.1433,0.01 c 0.081,0.01 0.2078,0.02 0.2857,0.035 0.2038,0.038 0.4091,0.059 0.464,0.048 0.026,0 0.062,-0.023 0.078,-0.039 0.029,-0.031 0.029,-0.031 0.1489,-0.013 0.3018,0.046 1.2633,0.169 1.5424,0.1985 0.5513,0.06 1.3665,0.1167 2.2425,0.1555 0.4144,0.019 0.417,0.019 0.9696,0.3151 0.3903,0.2092 0.6786,0.3285 0.9765,0.4036 0.358,0.091 0.1027,0.086 4.3481,0.086 2.5388,0 3.8585,-0.01 3.8908,-0.013 0.062,-0.017 0.1157,-0.07 0.1516,-0.1475 l 0.028,-0.06 v -1.8637 c 0,-1.4736 0,-1.8758 -0.017,-1.92 -0.02,-0.067 -0.069,-0.1301 -0.1287,-0.1623 -0.039,-0.021 -0.2843,-0.023 -3.8773,-0.027 -4.2182,0 -4.0156,-0.01 -4.3604,0.078 -0.3285,0.08 -0.5686,0.1797 -1.0755,0.4478 -0.3434,0.1811 -0.4856,0.2441 -0.5969,0.2628 -0.038,0.01 -0.1851,0.015 -0.3246,0.02 -0.5941,0.019 -1.6698,0.093 -2.1861,0.1475 -0.338,0.038 -1.1078,0.1354 -1.4713,0.1878 l -0.2307,0.034 -0.035,-0.034 c -0.032,-0.031 -0.046,-0.034 -0.1503,-0.034 -0.064,0 -0.2052,0.015 -0.3151,0.034 -0.1085,0.019 -0.2495,0.038 -0.3126,0.042 -0.062,0 -0.1302,0.01 -0.1515,0.012 -0.036,0.01 -0.036,0.01 -0.036,-0.067 0,-0.086 0.014,-0.083 -0.1945,-0.055 -0.1543,0.021 -0.1864,0.032 -0.2468,0.083 -0.084,0.07 -0.082,0.046 -0.082,0.9399 0,0.8031 0,0.8165 0.029,0.8728 z" />
        <g
           id="g413"
           transform="matrix(-0.0087832,0,0,0.0087832,509.65,1168.5)">
          <g
             style="stroke:#000000"
             id="g411">
            <g
               style="stroke:#000000"
               id="g409">
              <path
                 style="stroke:#000000"
                 inkscape:connector-curvature="0"
                 id="path407"
                 d="M 616.96,254.89 390.58,6.68 c -8.975,-8.907 -23.524,-8.907 -32.499,0 -5.167,5.122 -7.003,12.057 -6.232,18.743 v 133.67 c -187.95,0 -340.34,152.37 -340.34,340.34 0,48.205 10.153,94.008 28.238,135.57 26.856,-141.78 162.13,-249.46 311.71,-249.46 0,7.75 0.386,133.4 0.386,133.4 -0.793,6.686 1.065,13.598 6.232,18.742 0.068,0.068 0.136,0.068 0.204,0.137 4.125,4.283 9.858,6.979 16.272,6.979 7.048,0 13.122,-3.422 17.269,-8.475 l 225.14,-246.85 c 4.782,-4.759 6.821,-11.06 6.505,-17.292 0.316,-6.232 -1.723,-12.533 -6.505,-17.292 z M 397.24,462.46 V 340.58 c 0,0 -53.599,-0.385 -68.443,-0.385 -94.528,0 -223.01,73.725 -271.91,136.5 0.725,-85.238 111.87,-267.5 271.91,-272.46 11.785,-0.363 68.443,0.227 68.443,0.227 V 81.872 l 173.56,190.3 z" />
            </g>
          </g>
        </g>
      </g>
    </g>
  </g>
</g>
<g
   transform="matrix(0.28222289,0,0,0.28222289,34.471165,981.83479)"
   id="g5214">
  <rect
     x="0"
     y="-2.467e-05"
     width="70.865997"
     height="70.865997"
     style="opacity:0.2;paint-order:normal"
     id="rect119" />
  <g
     transform="matrix(0.06120981,0.06121042,-0.05506057,0.05506112,72.781438,-31.782934)"
     id="g439">
    <path
       inkscape:connector-curvature="0"
       d="m 246.65,600.68 c 119.31,0 216.18,13.815 217.48,30.945 0.01,0.1159 0.055,0.2208 0.055,0.3369 0,0.3801 -0.1262,0.7465 -0.2195,1.1233 l -72.548,727.74 c 0,12.58 -64.819,22.801 -144.77,22.801 -79.948,0 -144.77,-10.221 -144.77,-22.801 l -72.713,-728.18 h 0.1097 c -0.035,-0.2311 -0.1097,-0.4416 -0.1097,-0.674 0,-17.29 97.368,-31.282 217.48,-31.282 z"
       fill="{{Sud.FarbeRgb}}"
       id="path423" />
    <path
       inkscape:connector-curvature="0"
       d="m 395.08,1319.6 c -7.0612,16.398 -73.718,21.751 -150.15,21.751 -74.428,0 -138.98,-7.487 -148,-23.619 l 0.48765,4.1708 3.3508,35.076 c 0,17.844 65.151,25.558 145.1,25.558 79.949,0 145.5,-8.2606 145.5,-26.105 l 1.1892,-33.562 3.1697,-8.0098 z"
       id="path425"
       style="fill:url(#linearGradient3029)" />
    <ellipse
       cx="240.88"
       cy="838.81"
       rx="164.89"
       ry="228.75999"
       id="ellipse427"
       style="fill:url(#radialGradient3024)" />
    <path
       inkscape:connector-curvature="0"
       transform="scale(-1)"
       d="m -37.165,-712.49 a 209.57,31.306 0 0 1 -202.48,31.288 209.57,31.306 0 0 1 -216.18,-29.171"
       id="path429"
       style="opacity:0.74256999;fill:none;stroke:#2b1100;stroke-width:5.32520008;stroke-opacity:0.52471002" />
    <path
       inkscape:connector-curvature="0"
       d="m 246.59,600.02 c -120.11,0 -217.48,13.992 -217.48,31.282 0,0.2324 0.0748,0.4428 0.10976,0.674 H 29.11 l 8.0122,80.366 c 2.4102,-17.113 95.57,-30.885 209.91,-30.832 114.21,0.052 206.78,13.856 208.7,30.945 h 0.21951 l 7.9573,-80.03 c 0.0932,-0.3768 0.21951,-0.7432 0.21951,-1.1233 0,-0.1161 -0.0462,-0.2211 -0.0548,-0.3369 -1.2963,-17.13 -98.175,-30.945 -217.48,-30.945 z"
       id="path431"
       style="fill:url(#linearGradient3024)" />
    <path
       inkscape:connector-curvature="0"
       d="m 395.53,1318.2 a 148.99,22.549 0 0 1 -142.28,22.526 148.99,22.549 0 0 1 -155.1,-20.497"
       id="path433"
       style="fill:none;stroke:#333333;stroke-width:5.33920002" />
    <path
       inkscape:connector-curvature="0"
       d="m 227.14,600.13 c -86.146,0.78243 -160.68,6.5111 -203.24,14.883 l 80.071,758.06 c 30.806,5.8599 81.921,9.7497 140.04,9.8844 z"
       id="path435"
       style="fill:url(#linearGradient3020)" />
    <path
       inkscape:connector-curvature="0"
       d="m 246.59,600.02 c 119.31,0 216.18,13.815 217.48,30.945 0.009,0.1159 0.0548,0.2208 0.0548,0.3369 0,0.3801 -0.12626,0.7465 -0.2195,1.1233 l -72.548,727.74 c 0,12.58 -64.819,22.801 -144.77,22.801 -79.951,0 -144.77,-10.221 -144.77,-22.801 l -72.713,-728.18 h 0.10976 c -0.0349,-0.2312 -0.10976,-0.4416 -0.10976,-0.674 0,-17.29 97.368,-31.282 217.48,-31.282 z"
       id="path437"
       style="fill:none;stroke:#333333;stroke-width:4.10430002" />
  </g>
</g>
<text
   xml:space="preserve"
   style="font-style:italic;font-variant:normal;font-weight:normal;font-stretch:normal;font-size:7.05555534px;line-height:125%;font-family:'Trebuchet MS';-inkscape-font-specification:'Trebuchet MS, Italic';font-variant-ligatures:normal;font-variant-caps:normal;font-variant-numeric:normal;font-feature-settings:normal;text-align:center;letter-spacing:0px;word-spacing:0px;writing-mode:lr-tb;text-anchor:middle;fill:#000000;fill-opacity:1;stroke:none;stroke-width:0.26458332px;stroke-linecap:butt;stroke-linejoin:miter;stroke-opacity:1"
   x="86.737312"
   y="1017.2993"
   id="text14274"><tspan
     sodipodi:role="line"
     id="tspan14272"
     x="86.737312"
     y="1023.7014"
     style="stroke-width:0.26458332px" /></text>
<flowRoot
   xml:space="preserve"
   id="flowRoot14284"
   style="fill:black;stroke:none;stroke-opacity:1;stroke-width:1px;stroke-linejoin:miter;stroke-linecap:butt;fill-opacity:1;font-family:'Trebuchet MS';font-style:italic;font-weight:normal;font-size:26.66666667px;line-height:125%;letter-spacing:0px;word-spacing:0px;-inkscape-font-specification:'Trebuchet MS, Italic';font-stretch:normal;font-variant:normal;text-anchor:middle;text-align:center;writing-mode:lr;font-variant-ligatures:normal;font-variant-caps:normal;font-variant-numeric:normal;font-feature-settings:normal"><flowRegion
     id="flowRegion14286"><rect
       id="rect14288"
       width="213.81818"
       height="71.026108"
       x="389.90372"
       y="109.62389" /></flowRegion><flowPara
     id="flowPara14290"></flowPara></flowRoot><text
   xml:space="preserve"
   style="font-style:normal;font-variant:normal;font-weight:bold;font-stretch:normal;font-size:9.87777805px;line-height:125%;font-family:'Trebuchet MS';-inkscape-font-specification:'Trebuchet MS, Bold';font-variant-ligatures:normal;font-variant-caps:normal;font-variant-numeric:normal;font-feature-settings:normal;text-align:start;letter-spacing:0px;word-spacing:0px;writing-mode:lr-tb;text-anchor:start;fill:#000000;fill-opacity:1;stroke:none;stroke-width:0.26458332px;stroke-linecap:butt;stroke-linejoin:miter;stroke-opacity:1"
   x="56.911423"
   y="991.38788"
   id="text14294"><tspan
     sodipodi:role="line"
     id="tspan14292"
     x="56.911423"
     y="991.38788"
     style="font-style:normal;font-variant:normal;font-weight:bold;font-stretch:normal;font-size:9.87777805px;font-family:'Trebuchet MS';-inkscape-font-specification:'Trebuchet MS, Bold';font-variant-ligatures:normal;font-variant-caps:normal;font-variant-numeric:normal;font-feature-settings:normal;text-align:start;writing-mode:lr-tb;text-anchor:start;stroke-width:0.26458332px">{{Rezept.Name}}</tspan></text>
<text
   xml:space="preserve"
   style="font-style:normal;font-variant:normal;font-weight:bold;font-stretch:normal;font-size:2.11666667px;line-height:125%;font-family:'Trebuchet MS';-inkscape-font-specification:'Trebuchet MS, Bold';font-variant-ligatures:normal;font-variant-caps:normal;font-variant-numeric:normal;font-feature-settings:normal;text-align:center;letter-spacing:0px;word-spacing:0px;writing-mode:lr;text-anchor:middle;fill:#000000;fill-opacity:1;stroke:none;stroke-width:0.26458332px;stroke-linecap:butt;stroke-linejoin:miter;stroke-opacity:1;"
   x="-991.87378"
   y="196.57956"
   id="text14298"
   transform="rotate(-90)"><tspan
     sodipodi:role="line"
     id="tspan14296"
     x="-991.87378"
     y="196.57956"
     style="font-style:normal;font-variant:normal;font-weight:bold;font-stretch:normal;font-size:2.11666667px;font-family:'Trebuchet MS';-inkscape-font-specification:'Trebuchet MS, Bold';font-variant-ligatures:normal;font-variant-caps:normal;font-variant-numeric:normal;font-feature-settings:normal;text-align:center;writing-mode:lr;text-anchor:middle;stroke-width:0.26458332px;">B {{Sud.Braudatum}}</tspan></text>
</g>
</svg>
